<?xml version="1.0" encoding="utf-8"?>
<!-- Generator: Adobe Illustrator 16.0.2, SVG Export Plug-In . SVG Version: 6.00 Build 0)  -->
<!DOCTYPE svg PUBLIC "-//W3C//DTD SVG 1.1//EN" "http://www.w3.org/Graphics/SVG/1.1/DTD/svg11.dtd">
<svg version="1.1" id="Слой_1" xmlns="http://www.w3.org/2000/svg" xmlns:xlink="http://www.w3.org/1999/xlink" x="0px" y="0px"
	 width="36.229px" height="36.188px" viewBox="0 0 36.229 36.188" enable-background="new 0 0 36.229 36.188" xml:space="preserve">
<g>
	<g>
		<path fill="#FFFFFF" d="M18.077,36.13c-9.887,0-17.931-8.043-17.931-17.93S8.19,0.271,18.077,0.271
			c9.886,0,17.928,8.043,17.928,17.929S27.962,36.13,18.077,36.13z M18.077,2.63C9.491,2.63,2.505,9.615,2.505,18.2
			s6.985,15.57,15.571,15.57c8.585,0,15.568-6.985,15.568-15.57S26.662,2.63,18.077,2.63z"/>
	</g>
</g>
<polygon fill-rule="evenodd" clip-rule="evenodd" fill="#FFFFFF" points="24.592,16.416 18.444,21.663 18.409,21.628 18.374,21.663 
	12.227,16.416 13.237,15.406 18.409,19.82 23.583,15.406 "/>
</svg>
