<?xml version="1.0" encoding="utf-8"?>
<!-- Generator: Adobe Illustrator 16.0.0, SVG Export Plug-In . SVG Version: 6.00 Build 0)  -->
<!DOCTYPE svg PUBLIC "-//W3C//DTD SVG 1.1//EN" "http://www.w3.org/Graphics/SVG/1.1/DTD/svg11.dtd">
<svg version="1.1" id="Слой_1" xmlns="http://www.w3.org/2000/svg" xmlns:xlink="http://www.w3.org/1999/xlink" x="0px" y="0px"
	 width="44.667px" height="50.417px" viewBox="0 0 44.667 50.417" enable-background="new 0 0 44.667 50.417" xml:space="preserve">
<g>
	
		<linearGradient id="SVGID_1_" gradientUnits="userSpaceOnUse" x1="107.3481" y1="-158.4326" x2="107.3481" y2="-208.376" gradientTransform="matrix(1 0 0 -1 -85 -158.083)">
		<stop  offset="0" style="stop-color:#3CCFBC"/>
		<stop  offset="1" style="stop-color:#219BA5"/>
	</linearGradient>
	<path fill="url(#SVGID_1_)" d="M0.244,25.326c0-3.438,0.014-6.876-0.007-10.315c-0.011-1.678,0.71-2.886,2.148-3.716
		C8.349,7.856,14.31,4.413,20.265,0.96c1.4-0.812,2.768-0.815,4.169-0.003C30.44,4.438,36.453,7.91,42.464,11.38
		c1.326,0.766,1.996,1.904,1.996,3.433c0,6.994,0,13.987,0,20.981c-0.002,1.496-0.664,2.643-1.94,3.385
		c-6.13,3.561-12.269,7.109-18.414,10.643c-1.261,0.725-2.542,0.563-3.771-0.146c-2.035-1.172-4.067-2.35-6.101-3.523
		c-3.978-2.299-7.95-4.607-11.936-6.893c-1.396-0.801-2.063-1.977-2.06-3.575C0.25,32.232,0.244,28.778,0.244,25.326z
		 M28.604,29.069c3.578-4.383,2.635-10.798-1.526-14.137c-3.875-3.11-9.563-2.925-13.161,0.473c-3.705,3.5-4.259,9.07-1.334,13.2
		c3.005,4.245,9.144,5.658,13.958,2.423c0.069,0.114,0.133,0.277,0.244,0.39c1.438,1.451,2.883,2.896,4.33,4.336
		c0.637,0.634,1.579,0.666,2.174,0.09c0.572-0.557,0.539-1.538-0.09-2.178c-0.795-0.806-1.6-1.602-2.4-2.401
		C30.072,30.537,29.345,29.811,28.604,29.069z"/>
	
		<linearGradient id="SVGID_2_" gradientUnits="userSpaceOnUse" x1="105.7671" y1="-173.2739" x2="105.7671" y2="-188.4141" gradientTransform="matrix(1 0 0 -1 -85 -158.083)">
		<stop  offset="0" style="stop-color:#3CCFBC"/>
		<stop  offset="1" style="stop-color:#219BA5"/>
	</linearGradient>
	<path fill="url(#SVGID_2_)" d="M21.001,15.199c4.379,0.216,7.525,3.706,7.31,8.108c-0.198,4.036-3.849,7.235-8.004,7.013
		s-7.295-3.793-7.083-8.058C13.422,18.265,17.015,15.003,21.001,15.199z M19.796,25.74c1.605-1.601,3.235-3.225,4.834-4.819
		c-0.393-0.388-0.803-0.795-1.271-1.256c-1.173,1.176-2.372,2.378-3.655,3.665c-0.563-0.569-1.126-1.139-1.633-1.652
		c-0.397,0.37-0.812,0.756-1.202,1.12C17.862,23.794,18.844,24.783,19.796,25.74z"/>
</g>
</svg>
