<?xml version="1.0" encoding="utf-8"?>
<!-- Generator: Adobe Illustrator 16.0.2, SVG Export Plug-In . SVG Version: 6.00 Build 0)  -->
<!DOCTYPE svg PUBLIC "-//W3C//DTD SVG 1.1//EN" "http://www.w3.org/Graphics/SVG/1.1/DTD/svg11.dtd">
<svg version="1.1" id="Слой_1" xmlns="http://www.w3.org/2000/svg" xmlns:xlink="http://www.w3.org/1999/xlink" x="0px" y="0px"
	 width="11.542px" height="11.459px" viewBox="2.083 -0.167 11.542 11.459" enable-background="new 2.083 -0.167 11.542 11.459"
	 xml:space="preserve">
<g>
	<g>
		<path fill-rule="evenodd" clip-rule="evenodd" fill="#A3AABB" d="M4.104,0c0.069,0.015,0.139,0.028,0.207,0.046
			C4.89,0.2,5.285,0.56,5.494,1.122C5.504,1.15,5.514,1.18,5.528,1.217c2.638,0,5.274,0,7.918,0c0,0.3,0,0.591,0,0.891
			c-2.64,0-5.277,0-7.915,0C5.508,2.167,5.49,2.22,5.469,2.271C5.19,2.982,4.476,3.408,3.715,3.317
			C2.966,3.229,2.369,2.631,2.272,1.874C2.156,0.967,2.788,0.145,3.697,0.017C3.715,0.014,3.732,0.006,3.75,0
			C3.868,0,3.986,0,4.104,0z"/>
		<path fill-rule="evenodd" clip-rule="evenodd" fill="#A3AABB" d="M6.245,6.042c-1.326,0-2.652,0-3.983,0c0-0.298,0-0.589,0-0.894
			c0.036,0,0.073,0,0.108,0c1.263,0,2.523-0.001,3.786,0.002c0.069,0,0.101-0.018,0.125-0.087c0.23-0.683,0.854-1.129,1.569-1.13
			c0.72,0,1.345,0.446,1.578,1.134C9.45,5.134,9.48,5.15,9.545,5.149c1.262-0.002,2.523-0.001,3.786-0.001c0.037,0,0.072,0,0.114,0
			c0,0.301,0,0.591,0,0.896c-0.037,0-0.072,0-0.108,0c-1.262,0-2.524,0-3.786-0.001c-0.06,0-0.097,0.004-0.121,0.076
			c-0.235,0.695-0.86,1.143-1.583,1.14c-0.721-0.002-1.342-0.455-1.576-1.15C6.263,6.088,6.255,6.068,6.245,6.042z"/>
		<path fill-rule="evenodd" clip-rule="evenodd" fill="#A3AABB" d="M2.26,9.977c0-0.303,0-0.592,0-0.89c2.639,0,5.276,0,7.916,0
			c0.019-0.052,0.032-0.096,0.049-0.139c0.266-0.722,0.99-1.162,1.764-1.074c0.746,0.085,1.35,0.688,1.445,1.442
			c0.106,0.848-0.435,1.632-1.268,1.832c-0.824,0.199-1.67-0.266-1.95-1.074c-0.027-0.08-0.063-0.1-0.144-0.1
			C7.511,9.978,4.95,9.977,2.387,9.977C2.349,9.977,2.309,9.977,2.26,9.977z"/>
	</g>
</g>
</svg>
