<?xml version="1.0" encoding="utf-8"?>
<!-- Generator: Adobe Illustrator 16.0.0, SVG Export Plug-In . SVG Version: 6.00 Build 0)  -->
<!DOCTYPE svg PUBLIC "-//W3C//DTD SVG 1.1//EN" "http://www.w3.org/Graphics/SVG/1.1/DTD/svg11.dtd">
<svg version="1.1" id="Слой_1" xmlns="http://www.w3.org/2000/svg" xmlns:xlink="http://www.w3.org/1999/xlink" x="0px" y="0px"
	 width="24.708px" height="23.042px" viewBox="0 0 24.708 23.042" enable-background="new 0 0 24.708 23.042" xml:space="preserve">
<g>
	<g>
		<g>
			<path fill="#97DADB" d="M24.606,8.073c-0.043,2.277-0.811,4.16-2.335,5.727c-2.267,2.334-4.54,4.658-6.804,6.996
				c-0.508,0.524-0.948,1.109-1.523,1.578c-0.992,0.81-2.311,0.771-3.203-0.154c-2.767-2.87-5.533-5.739-8.299-8.611
				c-1.563-1.625-2.368-3.565-2.313-5.822C0.212,4.279,2.518,1.262,5.812,0.37c2.311-0.625,4.463-0.216,6.427,1.156
				c0.341,0.238,0.34,0.244,0.662-0.029c0.991-0.837,2.137-1.26,3.434-1.273c1.892-0.021,3.652,0.399,5.156,1.603
				C23.513,3.447,24.542,5.574,24.606,8.073z"/>
		</g>
	</g>
</g>
</svg>
