<?xml version="1.0" encoding="utf-8"?>
<!-- Generator: Adobe Illustrator 16.0.2, SVG Export Plug-In . SVG Version: 6.00 Build 0)  -->
<!DOCTYPE svg PUBLIC "-//W3C//DTD SVG 1.1//EN" "http://www.w3.org/Graphics/SVG/1.1/DTD/svg11.dtd">
<svg version="1.1" id="Слой_1" xmlns="http://www.w3.org/2000/svg" xmlns:xlink="http://www.w3.org/1999/xlink" x="0px" y="0px"
	 width="12.375px" height="11.375px" viewBox="-0.146 0.688 12.375 11.375" enable-background="new -0.146 0.688 12.375 11.375"
	 xml:space="preserve">
<g>
	<g>
		<path fill-rule="evenodd" clip-rule="evenodd" fill="#C2C5CD" d="M0,5.086c0.4-0.075,0.783-0.147,1.166-0.219
			c0.918-0.171,1.836-0.344,2.756-0.511c0.102-0.019,0.16-0.062,0.209-0.15C4.746,3.117,5.363,2.03,5.98,0.942
			C6.002,0.905,6.027,0.87,6.057,0.819C6.088,0.87,6.113,0.909,6.139,0.949c0.617,1.087,1.234,2.174,1.85,3.264
			c0.047,0.085,0.104,0.124,0.199,0.142c1.248,0.23,2.494,0.463,3.74,0.696c0.055,0.01,0.111,0.022,0.188,0.037
			c-0.041,0.043-0.072,0.078-0.104,0.112c-0.875,0.908-1.75,1.816-2.629,2.721c-0.072,0.075-0.09,0.146-0.076,0.246
			c0.15,1.145,0.297,2.29,0.445,3.435c0.016,0.129,0.033,0.259,0.053,0.407c-0.234-0.106-0.449-0.203-0.664-0.301
			c-0.986-0.45-1.973-0.897-2.957-1.35c-0.088-0.04-0.156-0.044-0.246-0.004c-1.16,0.533-2.322,1.062-3.482,1.591
			c-0.041,0.018-0.082,0.034-0.141,0.059c0.021-0.182,0.041-0.348,0.063-0.515c0.137-1.071,0.27-2.143,0.42-3.212
			c0.029-0.201-0.029-0.321-0.16-0.457C1.789,6.952,0.951,6.077,0.107,5.204C0.076,5.17,0.045,5.135,0,5.086z M3.145,10.872
			c0.059-0.022,0.098-0.036,0.137-0.053c0.793-0.362,1.59-0.722,2.383-1.087C5.926,9.61,6.184,9.608,6.449,9.73
			c0.594,0.273,1.188,0.542,1.783,0.813c0.238,0.108,0.479,0.216,0.73,0.332c-0.004-0.061-0.002-0.104-0.008-0.146
			C8.848,9.892,8.744,9.056,8.631,8.221C8.59,7.924,8.668,7.679,8.875,7.466C9.389,6.937,9.9,6.405,10.412,5.873
			c0.107-0.112,0.213-0.226,0.33-0.353c-0.041-0.01-0.061-0.017-0.08-0.02c-0.85-0.159-1.699-0.325-2.551-0.472
			C7.77,4.969,7.533,4.815,7.363,4.503C6.969,3.774,6.551,3.058,6.139,2.337C6.115,2.294,6.09,2.253,6.057,2.198
			C6.027,2.247,6.012,2.272,5.998,2.299C5.568,3.055,5.137,3.81,4.711,4.567C4.582,4.798,4.406,4.95,4.135,4.998
			C3.428,5.125,2.721,5.261,2.014,5.395c-0.209,0.04-0.416,0.08-0.645,0.124c0.146,0.155,0.273,0.293,0.406,0.429
			c0.488,0.509,0.979,1.019,1.473,1.526c0.178,0.184,0.275,0.399,0.248,0.653C3.43,8.701,3.348,9.274,3.273,9.849
			C3.23,10.183,3.189,10.518,3.145,10.872z"/>
	</g>
</g>
</svg>
