<?xml version="1.0" encoding="utf-8"?>
<!-- Generator: Adobe Illustrator 16.0.0, SVG Export Plug-In . SVG Version: 6.00 Build 0)  -->
<!DOCTYPE svg PUBLIC "-//W3C//DTD SVG 1.1//EN" "http://www.w3.org/Graphics/SVG/1.1/DTD/svg11.dtd">
<svg version="1.1" id="Слой_1" xmlns="http://www.w3.org/2000/svg" xmlns:xlink="http://www.w3.org/1999/xlink" x="0px" y="0px"
	 width="12.375px" height="11.375px" viewBox="0 0 12.375 11.375" enable-background="new 0 0 12.375 11.375" xml:space="preserve">
<g>
	
		<linearGradient id="SVGID_1_" gradientUnits="userSpaceOnUse" x1="91.0576" y1="-197.9438" x2="91.0576" y2="-209.1343" gradientTransform="matrix(1 0 0 -1 -85 -197.125)">
		<stop  offset="0" style="stop-color:#3CCFBC"/>
		<stop  offset="1" style="stop-color:#219BA5"/>
	</linearGradient>
	<path fill="url(#SVGID_1_)" d="M0,5.086c0.4-0.075,0.783-0.147,1.166-0.219c0.918-0.171,1.836-0.344,2.756-0.511
		c0.102-0.019,0.16-0.062,0.209-0.15C4.746,3.117,5.363,2.03,5.98,0.942C6.002,0.905,6.027,0.87,6.057,0.819
		c0.031,0.051,0.056,0.09,0.082,0.13c0.617,1.087,1.234,2.174,1.849,3.264c0.048,0.085,0.104,0.124,0.199,0.142
		c1.248,0.23,2.494,0.463,3.74,0.696c0.055,0.01,0.111,0.022,0.188,0.037c-0.041,0.043-0.072,0.078-0.104,0.112
		c-0.875,0.908-1.75,1.815-2.629,2.721c-0.072,0.075-0.09,0.146-0.076,0.246c0.15,1.146,0.297,2.29,0.445,3.435
		c0.016,0.129,0.033,0.26,0.053,0.407c-0.234-0.106-0.449-0.202-0.664-0.301c-0.986-0.45-1.973-0.897-2.957-1.351
		c-0.088-0.039-0.156-0.043-0.246-0.004c-1.16,0.533-2.322,1.063-3.482,1.592c-0.041,0.018-0.082,0.033-0.141,0.059
		c0.021-0.182,0.041-0.348,0.063-0.515c0.137-1.071,0.27-2.144,0.42-3.212c0.029-0.201-0.029-0.321-0.16-0.457
		C1.789,6.952,0.951,6.077,0.107,5.204C0.076,5.17,0.045,5.135,0,5.086z"/>
</g>
</svg>
