<?xml version="1.0" encoding="utf-8"?>
<!-- Generator: Adobe Illustrator 16.0.0, SVG Export Plug-In . SVG Version: 6.00 Build 0)  -->
<!DOCTYPE svg PUBLIC "-//W3C//DTD SVG 1.1//EN" "http://www.w3.org/Graphics/SVG/1.1/DTD/svg11.dtd">
<svg version="1.1" id="Слой_1" xmlns="http://www.w3.org/2000/svg" xmlns:xlink="http://www.w3.org/1999/xlink" x="0px" y="0px"
	 width="19.792px" height="24.458px" viewBox="0 0 19.792 24.458" enable-background="new 0 0 19.792 24.458" xml:space="preserve">
<g>
	<g>
		<g>
			<path fill="#30B7B2" d="M12.757,7.468c-1.514,1.081-3.016,2.153-4.523,3.229c0.386,0.957,0.393,1.916,0.09,2.887
				c-0.026,0.086,0.002,0.25,0.063,0.295c1.449,1.047,2.907,2.084,4.251,3.043c0.744-0.303,1.379-0.662,2.061-0.818
				c2.279-0.523,4.502,1.053,4.93,3.43c0.397,2.219-1.207,4.443-3.449,4.779c-3.113,0.467-5.567-2.346-4.666-5.365
				c0.078-0.27,0.009-0.386-0.196-0.529c-1.302-0.918-2.602-1.842-3.889-2.783c-0.243-0.178-0.396-0.184-0.65-0.006
				c-2.496,1.75-5.897,0.402-6.508-2.566c-0.334-1.623,0.362-3.329,1.74-4.272C3.368,7.862,5.205,7.83,6.59,8.712
				c0.165,0.105,0.324,0.22,0.514,0.349C7.226,8.974,7.356,8.883,7.485,8.79c1.279-0.912,2.554-1.829,3.841-2.731
				c0.213-0.15,0.258-0.278,0.182-0.536C10.689,2.703,12.779,0,15.678,0.117c2.354,0.095,4.13,2.112,3.978,4.518
				c-0.144,2.257-2.203,3.999-4.49,3.817C14.257,8.38,13.476,8.021,12.757,7.468z"/>
		</g>
	</g>
</g>
</svg>
