<?xml version="1.0" encoding="utf-8"?>
<!-- Generator: Adobe Illustrator 16.0.2, SVG Export Plug-In . SVG Version: 6.00 Build 0)  -->
<!DOCTYPE svg PUBLIC "-//W3C//DTD SVG 1.1//EN" "http://www.w3.org/Graphics/SVG/1.1/DTD/svg11.dtd">
<svg version="1.1" id="Слой_1" xmlns="http://www.w3.org/2000/svg" xmlns:xlink="http://www.w3.org/1999/xlink" x="0px" y="0px"
	 width="16.969px" height="19.042px" viewBox="3.313 0.438 16.969 19.042" enable-background="new 3.313 0.438 16.969 19.042"
	 xml:space="preserve">
<g>
	<g>
		<path fill-rule="evenodd" clip-rule="evenodd" fill="#FFFFFF" d="M4.208,17.198c1.017,0,2.005,0,3.005,0c0-1.012,0-2,0-3.018
			c-1.002,0-1.996,0-2.998,0c0-1.013,0-1.997,0-3.009c0.998,0,1.991,0,2.998,0c0-1.017,0-2.006,0-3.022c-0.999,0-1.994,0-2.996,0
			c0-0.765,0-1.5,0-2.262c0.998,0,1.992,0,2.997,0c0-1.017,0-2.006,0-3.022c-0.997,0-1.991,0-3.005,0
			c0-0.501-0.001-0.976,0.002-1.45c0-0.035,0.029-0.071,0.051-0.104c0.014-0.021,0.036-0.039,0.055-0.058
			C4.531,1.041,4.713,0.749,4.971,0.64c0.258-0.107,0.592-0.036,0.894-0.036c4.405-0.001,8.81,0.001,13.215-0.004
			c0.162,0,0.275,0.044,0.384,0.162c0.184,0.203,0.46,0.361,0.557,0.597c0.099,0.242,0.031,0.554,0.031,0.835
			c0.002,5.431,0,10.861,0.005,16.292c0,0.162-0.067,0.264-0.158,0.387c-0.367,0.504-0.846,0.611-1.455,0.607
			c-4.418-0.027-8.837-0.016-13.255-0.012c-0.152,0-0.266-0.035-0.369-0.15c-0.192-0.213-0.477-0.383-0.578-0.629
			c-0.103-0.248-0.029-0.566-0.032-0.855C4.207,17.634,4.208,17.433,4.208,17.198z M13.1,11.157
			c-0.068-0.086-0.119-0.146-0.166-0.208c-0.418-0.55-0.831-1.103-1.254-1.647c-0.048-0.062-0.149-0.118-0.223-0.114
			c-0.321,0.014-0.641,0.056-0.962,0.078c-0.136,0.009-0.208,0.066-0.27,0.19c-0.692,1.397-1.392,2.792-2.089,4.187
			c-0.026,0.053-0.049,0.107-0.078,0.172c0.451,0.225,0.892,0.442,1.342,0.667c0.576-1.149,1.142-2.276,1.717-3.424
			c0.065,0.084,0.111,0.141,0.155,0.198c0.417,0.567,0.838,1.131,1.251,1.702c0.072,0.098,0.145,0.137,0.266,0.121
			c0.319-0.043,0.639-0.082,0.959-0.107c0.134-0.01,0.193-0.064,0.246-0.182c0.715-1.587,1.436-3.172,2.154-4.757
			c0.029-0.063,0.062-0.126,0.116-0.238c0.011,0.15,0.017,0.244,0.023,0.339c0.509,0,0.995,0,1.489,0
			c0.006-0.044,0.014-0.077,0.014-0.108c0.001-1.174,0.004-2.347-0.004-3.52c-0.001-0.065-0.068-0.157-0.129-0.189
			c-0.307-0.166-0.624-0.311-0.931-0.475c-0.114-0.062-0.188-0.042-0.285,0.031c-0.903,0.684-1.811,1.361-2.716,2.041
			c-0.053,0.039-0.101,0.083-0.156,0.129c0.305,0.407,0.601,0.801,0.897,1.196c0.187-0.135,0.353-0.256,0.521-0.378
			c0.007,0.01,0.014,0.018,0.021,0.027C14.377,8.301,13.744,9.716,13.1,11.157z"/>
		<path fill-rule="evenodd" clip-rule="evenodd" fill="#FFFFFF" d="M3.469,5.111c0-0.5,0-0.987,0-1.481c1,0,1.989,0,2.992,0
			c0,0.49,0,0.977,0,1.481C5.471,5.111,4.479,5.111,3.469,5.111z"/>
		<path fill-rule="evenodd" clip-rule="evenodd" fill="#FFFFFF" d="M3.47,8.908c1.002,0,1.99,0,2.991,0c0,0.502,0,0.994,0,1.496
			c-1.001,0-1.99,0-2.991,0C3.47,9.902,3.47,9.41,3.47,8.908z"/>
		<path fill-rule="evenodd" clip-rule="evenodd" fill="#FFFFFF" d="M6.461,14.942c0,0.502,0,0.994,0,1.496c-1.001,0-1.989,0-2.991,0
			c0-0.502,0-0.994,0-1.496C4.471,14.942,5.46,14.942,6.461,14.942z"/>
	</g>
</g>
</svg>
