<?xml version="1.0" encoding="utf-8"?>
<!-- Generator: Adobe Illustrator 16.0.2, SVG Export Plug-In . SVG Version: 6.00 Build 0)  -->
<!DOCTYPE svg PUBLIC "-//W3C//DTD SVG 1.1//EN" "http://www.w3.org/Graphics/SVG/1.1/DTD/svg11.dtd">
<svg version="1.1" id="Слой_1" xmlns="http://www.w3.org/2000/svg" xmlns:xlink="http://www.w3.org/1999/xlink" x="0px" y="0px"
	 width="22px" height="17.813px" viewBox="0.833 2.313 22 17.813" enable-background="new 0.833 2.313 22 17.813"
	 xml:space="preserve">
<g>
	<g>
		<path fill-rule="evenodd" clip-rule="evenodd" fill="#FFFFFF" d="M2.38,11.795c-0.122-0.006-0.216-0.007-0.31-0.016
			c-0.476-0.05-0.824-0.337-0.94-0.772c-0.121-0.451,0.03-0.89,0.413-1.166c0.739-0.533,1.48-1.063,2.226-1.587
			c0.117-0.082,0.158-0.166,0.157-0.308C3.92,6.979,3.922,6.01,3.923,5.042c0-0.646,0.401-1.046,1.047-1.048
			c0.51-0.002,1.019-0.002,1.528,0c0.645,0.002,1.044,0.404,1.047,1.05c0,0.163,0,0.326,0,0.527C7.62,5.522,7.675,5.489,7.727,5.452
			c1.187-0.835,2.374-1.67,3.56-2.506c0.505-0.355,0.924-0.354,1.418,0.006c3.139,2.288,6.277,4.576,9.414,6.865
			c0.609,0.445,0.656,1.273,0.086,1.706c-0.16,0.122-0.363,0.186-0.581,0.293c0,0.029,0,0.104,0,0.177
			c0,2.194-0.016,4.388,0.008,6.582c0.009,0.79-0.583,1.389-1.393,1.387c-5.489-0.016-10.977-0.016-16.466,0
			c-0.793,0.002-1.407-0.563-1.399-1.401c0.019-2.176,0.006-4.352,0.006-6.526C2.38,11.96,2.38,11.886,2.38,11.795z M14.068,18.957
			c0.071,0.003,0.108,0.006,0.146,0.006c2.019,0.001,4.037,0.001,6.056,0c0.281,0,0.381-0.102,0.381-0.391c0-2.214,0-4.427,0-6.641
			c0-0.054-0.01-0.106-0.014-0.157c-5.768,0-11.518,0-17.279,0c0,0.074,0,0.137,0,0.198c0,2.188,0,4.377,0,6.565
			c0,0.335,0.09,0.425,0.423,0.426c1.987,0,3.974,0,5.961-0.001c0.061,0,0.122-0.005,0.205-0.009c0-0.086,0-0.159,0-0.233
			c0-1.421,0-2.842,0-4.263c0.001-0.567,0.292-0.859,0.86-0.86c0.792-0.001,1.585,0,2.377,0c0.587,0.001,0.884,0.295,0.884,0.879
			c0,1.414,0,2.829,0,4.244C14.068,18.795,14.068,18.868,14.068,18.957z M11.826,10.813c3.193,0,6.387,0.001,9.58-0.003
			c0.072,0,0.143-0.045,0.213-0.069c-0.043-0.06-0.075-0.137-0.133-0.178c-3.096-2.261-6.193-4.518-9.287-6.78
			c-0.151-0.111-0.25-0.117-0.406-0.007C8.6,6.041,5.403,8.301,2.208,10.562c-0.031,0.021-0.069,0.038-0.09,0.066
			c-0.023,0.031-0.049,0.08-0.04,0.11c0.009,0.031,0.057,0.063,0.094,0.071c0.054,0.012,0.112,0.004,0.169,0.004
			C5.502,10.813,8.665,10.813,11.826,10.813z"/>
		<path fill-rule="evenodd" clip-rule="evenodd" fill="#FFFFFF" d="M6.979,13.598c0.346,0,0.691-0.004,1.037,0.001
			c0.479,0.007,0.79,0.311,0.797,0.792c0.008,0.54,0.008,1.081,0,1.621C8.806,16.499,8.487,16.81,8,16.812
			c-0.672,0.004-1.345,0.004-2.017,0.001C5.487,16.81,5.17,16.49,5.168,15.996c-0.002-0.527-0.001-1.056,0-1.583
			c0.001-0.5,0.309-0.81,0.812-0.814C6.313,13.595,6.646,13.598,6.979,13.598z"/>
		<path fill-rule="evenodd" clip-rule="evenodd" fill="#FFFFFF" d="M17.013,16.813c-0.333,0-0.666,0.002-1-0.001
			c-0.498-0.004-0.811-0.316-0.813-0.814c-0.003-0.535-0.003-1.069,0-1.604c0.002-0.479,0.309-0.79,0.789-0.794
			c0.686-0.005,1.371-0.006,2.057-0.001c0.498,0.005,0.791,0.307,0.793,0.807c0,0.521,0.002,1.043-0.001,1.565
			c-0.003,0.535-0.31,0.84-0.844,0.843C17.667,16.814,17.341,16.813,17.013,16.813z"/>
	</g>
</g>
</svg>
