<?xml version="1.0" encoding="utf-8"?>
<!-- Generator: Adobe Illustrator 16.0.2, SVG Export Plug-In . SVG Version: 6.00 Build 0)  -->
<!DOCTYPE svg PUBLIC "-//W3C//DTD SVG 1.1//EN" "http://www.w3.org/Graphics/SVG/1.1/DTD/svg11.dtd">
<svg version="1.1" id="Слой_1" xmlns="http://www.w3.org/2000/svg" xmlns:xlink="http://www.w3.org/1999/xlink" x="0px" y="0px"
	 width="22.708px" height="22.875px" viewBox="1.177 -0.604 22.708 22.875" enable-background="new 1.177 -0.604 22.708 22.875"
	 xml:space="preserve">
<g>
	<path fill-rule="evenodd" clip-rule="evenodd" fill="#FFFFFF" d="M18.564,8.248c0.52,0,1.004,0,1.488,0
		c0.347,0,0.693-0.002,1.039,0c0.604,0.004,0.941,0.342,0.941,0.95c0,3.623,0,7.246,0,10.867c0,0.1,0,0.197,0,0.316
		c0.283,0,0.542-0.002,0.802,0.002c0.545,0.004,0.94,0.373,0.939,0.871s-0.396,0.869-0.942,0.869c-6.89,0.002-13.781,0.002-20.671,0
		c-0.546,0-0.941-0.371-0.941-0.869c0-0.5,0.394-0.867,0.939-0.871c0.259-0.004,0.519-0.002,0.802-0.002c0-0.127,0-0.225,0-0.322
		c0-5.318,0.008-10.636-0.009-15.955C2.948,3.337,3.425,3.005,4.023,3.029C4.73,3.058,5.44,3.036,6.15,3.036c0.083,0,0.167,0,0.28,0
		c0-0.103,0-0.185,0-0.268c0-0.755-0.002-1.51,0-2.266c0.003-0.743,0.643-1.142,1.309-0.81c3.43,1.712,6.856,3.428,10.285,5.14
		c0.37,0.185,0.546,0.472,0.542,0.887c-0.008,0.748-0.002,1.495-0.002,2.243C18.564,8.045,18.564,8.129,18.564,8.248z
		 M16.837,20.371c0-0.104,0-0.178,0-0.254c0-4.57-0.002-9.141,0.004-13.712c0-0.171-0.054-0.255-0.206-0.33
		c-2.742-1.365-5.48-2.736-8.22-4.106C8.342,1.932,8.266,1.901,8.17,1.858c0,6.181,0,12.333,0,18.503c0.577,0,1.141,0,1.729,0
		c0-0.094,0-0.176,0-0.26c0-0.754-0.002-1.51,0.001-2.266c0.002-0.566,0.357-0.92,0.927-0.922c1.11-0.004,2.219-0.004,3.33,0
		c0.583,0,0.937,0.354,0.938,0.936c0.002,0.756,0,1.51,0,2.266c0,0.082,0,0.164,0,0.256C15.685,20.371,16.244,20.371,16.837,20.371z
		"/>
	<path fill-rule="evenodd" clip-rule="evenodd" fill="#FFFFFF" d="M11.613,6.518c0,0.585,0,1.144,0,1.716c-0.57,0-1.127,0-1.699,0
		c0-0.574,0-1.138,0-1.716C10.481,6.518,11.038,6.518,11.613,6.518z"/>
	<path fill-rule="evenodd" clip-rule="evenodd" fill="#FFFFFF" d="M15.085,6.521c0,0.576,0,1.135,0,1.711c-0.566,0-1.124,0-1.699,0
		c0-0.566,0-1.131,0-1.711C13.944,6.521,14.5,6.521,15.085,6.521z"/>
	<path fill-rule="evenodd" clip-rule="evenodd" fill="#FFFFFF" d="M9.912,9.987c0.571,0,1.128,0,1.699,0c0,0.576,0,1.141,0,1.718
		c-0.571,0-1.128,0-1.699,0C9.912,11.127,9.912,10.563,9.912,9.987z"/>
	<path fill-rule="evenodd" clip-rule="evenodd" fill="#FFFFFF" d="M15.08,11.705c-0.57,0-1.129,0-1.699,0c0-0.578,0-1.142,0-1.718
		c0.571,0,1.129,0,1.699,0C15.08,10.563,15.08,11.127,15.08,11.705z"/>
	<path fill-rule="evenodd" clip-rule="evenodd" fill="#FFFFFF" d="M11.606,15.176c-0.567,0-1.119,0-1.688,0c0-0.57,0-1.135,0-1.717
		c0.555,0,1.112,0,1.688,0C11.606,14.023,11.606,14.588,11.606,15.176z"/>
	<path fill-rule="evenodd" clip-rule="evenodd" fill="#FFFFFF" d="M13.385,13.453c0.572,0,1.123,0,1.691,0c0,0.572,0,1.137,0,1.717
		c-0.559,0-1.117,0-1.691,0C13.385,14.604,13.385,14.039,13.385,13.453z"/>
</g>
</svg>
