<?xml version="1.0" encoding="utf-8"?>
<!-- Generator: Adobe Illustrator 16.0.2, SVG Export Plug-In . SVG Version: 6.00 Build 0)  -->
<!DOCTYPE svg PUBLIC "-//W3C//DTD SVG 1.1//EN" "http://www.w3.org/Graphics/SVG/1.1/DTD/svg11.dtd">
<svg version="1.1" id="Слой_1" xmlns="http://www.w3.org/2000/svg" xmlns:xlink="http://www.w3.org/1999/xlink" x="0px" y="0px"
	 width="23.792px" height="23.752px" viewBox="0 0 23.792 23.752" enable-background="new 0 0 23.792 23.752" xml:space="preserve">
<g>
	<g>
		<path fill="#FFFFFF" d="M27.039,28.717c-1.66-2.381-3.515-4.579-4.861-7.12c-0.723-1.365-1.262-2.793-1.49-4.328
			c-0.303-2.02-0.01-3.908,1.328-5.514c1.67-2.004,3.838-2.81,6.383-2.254c2.617,0.57,4.264,2.251,4.932,4.848
			c0.334,1.299,0.176,2.596-0.149,3.875c-0.449,1.764-1.261,3.37-2.257,4.877c-1.086,1.637-2.233,3.233-3.354,4.85
			C27.397,28.196,27.227,28.442,27.039,28.717z M27.041,20.646c2.674,0.002,4.85-2.178,4.844-4.852
			c-0.004-2.676-2.156-4.829-4.832-4.837c-2.68-0.009-4.846,2.149-4.854,4.835C22.19,18.464,24.367,20.644,27.041,20.646z"/>
		<path fill="#FFFFFF" d="M24.307,26.353c-1.076,0.2-2.144,0.375-3.197,0.606c-0.471,0.104-0.922,0.31-1.366,0.504
			c-0.211,0.093-0.406,0.248-0.572,0.41c-0.277,0.271-0.285,0.606-0.006,0.875c0.196,0.188,0.436,0.354,0.68,0.478
			c0.799,0.396,1.66,0.59,2.531,0.735c2.735,0.463,5.481,0.481,8.233,0.164c1.099-0.127,2.188-0.313,3.222-0.726
			c0.336-0.135,0.668-0.309,0.955-0.526c0.455-0.342,0.457-0.789-0.009-1.123c-0.34-0.242-0.728-0.437-1.116-0.58
			c-1.068-0.397-2.191-0.563-3.318-0.694c-0.211-0.023-0.424-0.043-0.676-0.068c0.131-0.188,0.244-0.35,0.354-0.512
			c0.205-0.293,0.408-0.59,0.621-0.879c0.041-0.058,0.135-0.119,0.196-0.109c1.734,0.205,3.441,0.535,5.072,1.18
			c0.709,0.281,1.392,0.619,1.979,1.115c0.396,0.336,0.721,0.717,0.83,1.246c0.086,0.42-0.022,0.797-0.25,1.146
			c-0.371,0.57-0.916,0.945-1.498,1.263c-1.195,0.651-2.486,1.028-3.812,1.305c-2.721,0.564-5.473,0.703-8.242,0.527
			c-1.975-0.123-3.922-0.406-5.813-1c-0.815-0.256-1.606-0.572-2.336-1.027c-0.416-0.26-0.802-0.561-1.092-0.961
			c-0.468-0.645-0.466-1.33,0.01-1.971c0.377-0.508,0.886-0.855,1.433-1.152c1.203-0.65,2.502-1.03,3.832-1.301
			c0.709-0.146,1.43-0.236,2.143-0.357c0.129-0.021,0.207,0.01,0.283,0.119c0.299,0.432,0.606,0.855,0.912,1.281
			C24.305,26.34,24.313,26.366,24.307,26.353z"/>
		<path fill="#FFFFFF" d="M27.852,19.019c-0.554,0-1.072,0-1.623,0c0-0.287,0-0.564,0-0.843c0-0.222-0.017-0.446,0.004-0.667
			c0.029-0.332-0.021-0.617-0.317-0.826c-0.054-0.039-0.078-0.148-0.08-0.227c-0.006-0.467-0.004-0.934-0.002-1.398
			c0.002-0.539,0.311-0.854,0.848-0.871c0.035-0.002,0.068,0,0.115,0c-0.519-0.394-0.656-0.69-0.517-1.086
			c0.119-0.33,0.457-0.555,0.806-0.533c0.356,0.021,0.651,0.271,0.738,0.619c0.098,0.401-0.064,0.701-0.521,0.972
			c0.006,0.009,0.012,0.024,0.018,0.024c0.66,0.026,0.93,0.307,0.932,0.965c0,0.396-0.01,0.789,0.004,1.185
			c0.007,0.194-0.028,0.351-0.192,0.466c-0.172,0.123-0.22,0.29-0.215,0.501C27.862,17.864,27.852,18.429,27.852,19.019z"/>
	</g>
</g>
</svg>
