<?xml version="1.0" encoding="utf-8"?>
<!-- Generator: Adobe Illustrator 16.0.2, SVG Export Plug-In . SVG Version: 6.00 Build 0)  -->
<!DOCTYPE svg PUBLIC "-//W3C//DTD SVG 1.1//EN" "http://www.w3.org/Graphics/SVG/1.1/DTD/svg11.dtd">
<svg version="1.1" id="Слой_1" xmlns="http://www.w3.org/2000/svg" xmlns:xlink="http://www.w3.org/1999/xlink" x="0px" y="0px"
	 width="25.896px" height="26.292px" viewBox="0 -1.229 25.896 26.292" enable-background="new 0 -1.229 25.896 26.292"
	 xml:space="preserve">
<g>
	<g>
		<path fill-rule="evenodd" clip-rule="evenodd" fill="#FFFFFF" d="M2.626,12.568c0.273,0,0.527,0.002,0.78-0.002
			c0.352-0.006,0.605-0.248,0.605-0.572c0-0.324-0.253-0.566-0.605-0.573c-0.247-0.005-0.494-0.004-0.74-0.007
			c-0.006,0-0.013-0.008-0.02-0.013c0.071-4.86,4.379-9.503,9.678-9.67c0,0.253-0.002,0.505,0,0.758
			c0.006,0.368,0.25,0.625,0.584,0.618c0.323-0.006,0.557-0.259,0.562-0.615c0.004-0.253,0.001-0.506,0.001-0.758
			c4.88,0.127,9.46,4.291,9.698,9.686c-0.244,0-0.488-0.001-0.732,0.001c-0.393,0.002-0.652,0.23-0.654,0.571
			c0,0.342,0.261,0.572,0.652,0.576c0.237,0,0.475,0,0.713,0c-0.068,4.875-4.384,9.523-9.677,9.686c0-0.244,0.002-0.488,0-0.732
			c-0.004-0.389-0.243-0.648-0.586-0.641c-0.332,0.006-0.557,0.262-0.561,0.639c-0.002,0.244,0,0.49,0,0.734
			C7.397,22.117,2.856,17.92,2.626,12.568z M12.124,7.772c-0.756-1.774-2.772-2.25-4.18-1.356C7.25,6.855,6.807,7.482,6.651,8.286
			c-0.211,1.09,0.153,2.002,0.943,2.747c-0.014,0.023-0.016,0.033-0.021,0.036C7.527,11.1,7.48,11.13,7.434,11.161
			c-0.895,0.582-1.47,1.4-1.627,2.449c-0.099,0.664-0.06,1.348-0.072,2.023c-0.007,0.439,0.221,0.658,0.661,0.66
			c0.835,0.002,1.671,0,2.507,0c0.084,0,0.169,0,0.27,0c0,0.363,0,0.697,0,1.029c0.001,0.475,0.213,0.689,0.679,0.691
			c2.03,0,4.06,0,6.09,0c0.47-0.002,0.682-0.215,0.683-0.689c0.001-0.338,0-0.678,0-1.031c0.954,0,1.877,0.002,2.799,0
			c0.408-0.002,0.638-0.229,0.64-0.635c0.004-0.461,0.01-0.924,0-1.385c-0.03-1.318-0.595-2.352-1.683-3.097
			c-0.062-0.043-0.121-0.087-0.183-0.13c0.928-0.905,1.262-1.958,0.827-3.17c-0.4-1.118-1.242-1.779-2.422-1.879
			c-1.385-0.118-2.355,0.546-2.938,1.773c-0.262-0.026-0.514-0.07-0.766-0.07S12.395,7.745,12.124,7.772z"/>
		<path fill-rule="evenodd" clip-rule="evenodd" fill="#FFFFFF" d="M13.471,0.526c-0.395,0-0.752,0-1.131,0
			c0-0.333-0.025-0.664,0.008-0.991c0.028-0.268,0.305-0.448,0.573-0.438c0.276,0.011,0.521,0.228,0.543,0.508
			c0.018,0.213,0.006,0.429,0.007,0.643C13.471,0.333,13.471,0.419,13.471,0.526z"/>
		<path fill-rule="evenodd" clip-rule="evenodd" fill="#FFFFFF" d="M1.422,11.42c0,0.399,0,0.763,0,1.142
			c-0.319,0-0.628,0.018-0.934-0.006c-0.288-0.021-0.498-0.299-0.487-0.584c0.01-0.277,0.226-0.512,0.504-0.547
			c0.055-0.007,0.111-0.004,0.167-0.004C0.917,11.42,1.162,11.42,1.422,11.42z"/>
		<path fill-rule="evenodd" clip-rule="evenodd" fill="#FFFFFF" d="M24.373,12.566c0-0.396,0-0.757,0-1.141
			c0.318,0,0.627-0.017,0.932,0.006c0.287,0.021,0.5,0.296,0.49,0.581c-0.01,0.287-0.233,0.535-0.525,0.551
			C24.977,12.576,24.684,12.566,24.373,12.566z"/>
		<path fill-rule="evenodd" clip-rule="evenodd" fill="#FFFFFF" d="M12.326,23.469c0.39,0,0.751,0,1.138,0
			c0,0.318,0.021,0.635-0.006,0.945c-0.025,0.287-0.309,0.494-0.594,0.477s-0.523-0.246-0.535-0.541
			C12.317,24.064,12.326,23.779,12.326,23.469z"/>
		<path fill-rule="evenodd" clip-rule="evenodd" fill="#FFFFFF" d="M10.259,16.852c0.066-0.572,0.058-1.143,0.209-1.664
			c0.343-1.182,1.578-1.924,2.763-1.74c1.307,0.203,2.226,1.229,2.245,2.508c0.005,0.293,0.001,0.586,0.001,0.896
			C13.758,16.852,12.053,16.852,10.259,16.852z"/>
		<path fill-rule="evenodd" clip-rule="evenodd" fill="#FFFFFF" d="M11.05,12.789c-0.855,0.525-1.439,1.262-1.735,2.227
			c-0.017,0.057-0.116,0.125-0.177,0.125c-0.74,0.01-1.479,0.006-2.235,0.006c-0.092-0.998-0.037-1.951,0.744-2.695
			c0.704-0.672,1.54-0.897,2.486-0.64c0.114,0.031,0.218,0.138,0.302,0.234C10.643,12.281,10.837,12.531,11.05,12.789z"/>
		<path fill-rule="evenodd" clip-rule="evenodd" fill="#FFFFFF" d="M14.823,12.74c0.18-0.24,0.381-0.523,0.598-0.795
			c0.054-0.066,0.151-0.112,0.237-0.137c1.538-0.467,3.173,0.696,3.253,2.313c0.017,0.332,0.002,0.666,0.002,1.012
			c-0.791,0-1.568,0-2.299,0c-0.25-0.459-0.445-0.934-0.744-1.332C15.575,13.406,15.175,13.09,14.823,12.74z"/>
		<path fill-rule="evenodd" clip-rule="evenodd" fill="#FFFFFF" d="M14.618,10.567c-0.003,0.94-0.78,1.714-1.721,1.714
			c-0.951,0-1.726-0.785-1.718-1.739c0.007-0.938,0.787-1.706,1.731-1.701C13.85,8.847,14.62,9.625,14.618,10.567z"/>
		<path fill-rule="evenodd" clip-rule="evenodd" fill="#FFFFFF" d="M18.057,8.832c0.004,1.109-1.056,1.953-2.103,1.674
			c-0.109-0.029-0.188-0.059-0.202-0.209c-0.065-0.744-0.378-1.374-0.938-1.867c-0.128-0.112-0.084-0.202-0.036-0.311
			c0.32-0.72,1.127-1.123,1.911-0.957C17.483,7.331,18.053,8.027,18.057,8.832z"/>
		<path fill-rule="evenodd" clip-rule="evenodd" fill="#FFFFFF" d="M9.461,7.11c0.673,0.011,1.313,0.431,1.568,1.035
			c0.049,0.114,0.052,0.189-0.058,0.284c-0.553,0.48-0.853,1.101-0.924,1.824c-0.018,0.185-0.096,0.237-0.251,0.272
			c-0.874,0.201-1.808-0.397-2.011-1.293C7.575,8.305,8.15,7.375,9.063,7.17C9.193,7.141,9.328,7.13,9.461,7.11z"/>
	</g>
</g>
</svg>
