<?xml version="1.0" encoding="utf-8"?>
<!-- Generator: Adobe Illustrator 16.0.2, SVG Export Plug-In . SVG Version: 6.00 Build 0)  -->
<!DOCTYPE svg PUBLIC "-//W3C//DTD SVG 1.1//EN" "http://www.w3.org/Graphics/SVG/1.1/DTD/svg11.dtd">
<svg version="1.1" id="Слой_1" xmlns="http://www.w3.org/2000/svg" xmlns:xlink="http://www.w3.org/1999/xlink" x="0px" y="0px"
	 width="20.834px" height="20.5px" viewBox="2.469 -1.021 20.834 20.5" enable-background="new 2.469 -1.021 20.834 20.5"
	 xml:space="preserve">
<g>
	<path fill-rule="evenodd" clip-rule="evenodd" fill="#FFFFFF" d="M2.707,7.689c6.696,0,13.37,0,20.067,0c0,0.068,0,0.131,0,0.195
		c0,3.41,0,6.819,0,10.229c0,0.736-0.439,1.174-1.179,1.174c-5.903,0-11.806,0-17.709,0c-0.741,0-1.179-0.436-1.179-1.172
		c0-3.404,0-6.807,0-10.212C2.707,7.838,2.707,7.773,2.707,7.689z M12.045,12.961c0-0.92,0-1.821,0-2.727c-0.914,0-1.814,0-2.717,0
		c0,0.916,0,1.823,0,2.727C10.24,12.961,11.136,12.961,12.045,12.961z M16.156,12.961c0-0.918,0-1.819,0-2.721
		c-0.915,0-1.82,0-2.721,0c0,0.916,0,1.817,0,2.721C14.348,12.961,15.244,12.961,16.156,12.961z M17.547,10.233
		c0,0.923,0,1.824,0,2.724c0.914,0,1.814,0,2.719,0c0-0.912,0-1.813,0-2.724C19.356,10.233,18.456,10.233,17.547,10.233z
		 M7.936,12.961c0-0.918,0-1.817,0-2.728c-0.912,0-1.812,0-2.718,0c0,0.915,0,1.82,0,2.728C6.127,12.961,7.023,12.961,7.936,12.961z
		 M7.937,14.15c-0.917,0-1.817,0-2.721,0c0,0.912,0,1.811,0,2.713c0.912,0,1.812,0,2.721,0C7.937,15.955,7.937,15.061,7.937,14.15z
		 M12.049,14.15c-0.92,0-1.821,0-2.723,0c0,0.912,0,1.813,0,2.713c0.913,0,1.813,0,2.723,0
		C12.049,15.953,12.049,15.059,12.049,14.15z M16.158,14.148c-0.914,0-1.814,0-2.724,0c0,0.91,0,1.811,0,2.717
		c0.912,0,1.813,0,2.724,0C16.158,15.959,16.158,15.064,16.158,14.148z M17.543,14.146c0,0.918,0,1.813,0,2.719
		c0.911,0,1.812,0,2.718,0c0-0.91,0-1.814,0-2.719C19.35,14.146,18.453,14.146,17.543,14.146z"/>
	<path fill-rule="evenodd" clip-rule="evenodd" fill="#FFFFFF" d="M2.707,6.812c0-0.387,0-0.761,0-1.136c0-1.053,0-2.106,0-3.16
		c0-0.712,0.445-1.154,1.16-1.155c0.863,0,1.726,0,2.588,0c0.059,0,0.117,0,0.197,0c0,0.447-0.005,0.88,0.002,1.313
		c0.003,0.189,0.009,0.383,0.05,0.567c0.193,0.857,0.988,1.435,1.858,1.365c0.862-0.068,1.559-0.759,1.611-1.628
		c0.028-0.462,0.01-0.928,0.013-1.392c0-0.071,0-0.141,0-0.216c1.708,0,3.396,0,5.106,0c0,0.447-0.006,0.885,0.002,1.324
		c0.002,0.184,0.01,0.371,0.049,0.548c0.192,0.856,0.988,1.434,1.859,1.364c0.862-0.068,1.563-0.762,1.611-1.628
		c0.026-0.463,0.01-0.928,0.013-1.392c0.001-0.07,0-0.14,0-0.224c0.073,0,0.126,0,0.179,0c0.881,0,1.762-0.001,2.643,0
		c0.666,0,1.124,0.454,1.125,1.118c0.002,1.393,0,2.785,0,4.178c0,0.047,0,0.094,0,0.154C16.086,6.812,9.407,6.812,2.707,6.812z"/>
	<path fill-rule="evenodd" clip-rule="evenodd" fill="#FFFFFF" d="M9.222,1.534c0,0.434,0.009,0.869-0.002,1.303
		C9.203,3.405,8.698,3.773,8.176,3.608C7.833,3.501,7.622,3.204,7.618,2.805C7.613,2.329,7.615,1.853,7.616,1.377
		c0.001-0.416-0.01-0.833,0.011-1.249c0.02-0.389,0.33-0.688,0.71-0.728c0.38-0.038,0.741,0.198,0.847,0.567
		c0.031,0.106,0.037,0.223,0.038,0.334c0.004,0.411,0.002,0.821,0.002,1.231C9.223,1.534,9.223,1.534,9.222,1.534z"/>
	<path fill-rule="evenodd" clip-rule="evenodd" fill="#FFFFFF" d="M17.862,1.522c0,0.44,0.008,0.881-0.002,1.321
		c-0.008,0.412-0.273,0.719-0.662,0.792c-0.348,0.067-0.719-0.124-0.863-0.458c-0.047-0.111-0.074-0.241-0.074-0.362
		c-0.006-0.862-0.008-1.725-0.002-2.587c0.003-0.44,0.285-0.766,0.691-0.825c0.382-0.055,0.758,0.178,0.871,0.554
		c0.032,0.106,0.039,0.222,0.041,0.334c0.004,0.41,0.002,0.821,0.002,1.231C17.863,1.522,17.863,1.522,17.862,1.522z"/>
</g>
</svg>
