<?xml version="1.0" encoding="utf-8"?>
<!-- Generator: Adobe Illustrator 16.0.2, SVG Export Plug-In . SVG Version: 6.00 Build 0)  -->
<!DOCTYPE svg PUBLIC "-//W3C//DTD SVG 1.1//EN" "http://www.w3.org/Graphics/SVG/1.1/DTD/svg11.dtd">
<svg version="1.1" id="Слой_1" xmlns="http://www.w3.org/2000/svg" xmlns:xlink="http://www.w3.org/1999/xlink" x="0px" y="0px"
	 width="23.792px" height="23.752px" viewBox="15.167 9.164 23.792 23.752" enable-background="new 15.167 9.164 23.792 23.752"
	 xml:space="preserve">
<g>
	<g>
		<path fill-rule="evenodd" clip-rule="evenodd" fill="#FFFFFF" d="M27.038,28.717c-1.66-2.381-3.514-4.579-4.861-7.12
			c-0.723-1.365-1.262-2.793-1.49-4.328c-0.303-2.02-0.01-3.909,1.328-5.514c1.67-2.004,3.838-2.81,6.383-2.254
			c2.617,0.57,4.264,2.251,4.932,4.848c0.334,1.298,0.176,2.596-0.15,3.874c-0.449,1.765-1.26,3.371-2.256,4.877
			c-1.086,1.638-2.234,3.234-3.355,4.85C27.397,28.196,27.227,28.442,27.038,28.717z M27.04,20.646
			c2.674,0.001,4.85-2.178,4.844-4.852c-0.004-2.676-2.156-4.829-4.832-4.837c-2.68-0.009-4.846,2.149-4.854,4.835
			C22.19,18.464,24.366,20.644,27.04,20.646z"/>
		<path fill-rule="evenodd" clip-rule="evenodd" fill="#FFFFFF" d="M24.307,26.352c-1.076,0.201-2.143,0.375-3.197,0.607
			c-0.471,0.104-0.922,0.309-1.367,0.504c-0.211,0.092-0.406,0.248-0.572,0.41c-0.277,0.271-0.285,0.607-0.006,0.875
			c0.197,0.189,0.436,0.355,0.68,0.477c0.799,0.396,1.66,0.59,2.531,0.736c2.736,0.463,5.482,0.482,8.234,0.164
			c1.098-0.127,2.189-0.313,3.221-0.725c0.336-0.135,0.668-0.309,0.955-0.527c0.455-0.342,0.457-0.789-0.008-1.123
			c-0.34-0.242-0.727-0.436-1.117-0.58c-1.068-0.398-2.191-0.563-3.318-0.695c-0.211-0.023-0.424-0.043-0.676-0.068
			c0.131-0.188,0.244-0.35,0.355-0.512c0.205-0.293,0.408-0.59,0.621-0.879c0.041-0.057,0.135-0.119,0.197-0.109
			c1.734,0.205,3.441,0.535,5.072,1.18c0.709,0.281,1.391,0.619,1.979,1.115c0.395,0.336,0.721,0.717,0.83,1.246
			c0.086,0.42-0.023,0.797-0.25,1.146c-0.371,0.57-0.916,0.945-1.498,1.262c-1.195,0.652-2.486,1.029-3.811,1.305
			c-2.721,0.564-5.473,0.703-8.242,0.527c-1.975-0.123-3.922-0.406-5.814-1c-0.816-0.256-1.607-0.572-2.336-1.027
			c-0.416-0.26-0.801-0.561-1.092-0.961c-0.467-0.645-0.465-1.33,0.01-1.971c0.377-0.508,0.885-0.855,1.432-1.152
			c1.203-0.65,2.502-1.03,3.832-1.301c0.709-0.145,1.43-0.236,2.143-0.357c0.129-0.021,0.207,0.01,0.283,0.119
			c0.299,0.432,0.607,0.855,0.912,1.282C24.305,26.34,24.313,26.366,24.307,26.352z"/>
		<path fill-rule="evenodd" clip-rule="evenodd" fill="#FFFFFF" d="M27.852,19.018c-0.553,0-1.072,0-1.623,0
			c0-0.286,0-0.564,0-0.842c0-0.222-0.016-0.446,0.004-0.667c0.029-0.332-0.021-0.618-0.318-0.827
			c-0.053-0.038-0.078-0.148-0.08-0.226c-0.006-0.467-0.004-0.934-0.002-1.399c0.002-0.538,0.311-0.854,0.848-0.87
			c0.035-0.002,0.068-0.001,0.115-0.001c-0.518-0.393-0.656-0.69-0.516-1.086c0.119-0.33,0.457-0.554,0.805-0.533
			c0.357,0.021,0.652,0.271,0.738,0.62c0.098,0.401-0.063,0.701-0.521,0.971c0.006,0.009,0.012,0.025,0.018,0.025
			c0.66,0.026,0.93,0.306,0.932,0.964c0,0.396-0.01,0.79,0.004,1.185c0.006,0.194-0.029,0.35-0.193,0.466
			c-0.172,0.123-0.219,0.29-0.215,0.501C27.862,17.864,27.852,18.429,27.852,19.018z"/>
	</g>
</g>
</svg>
