<?xml version="1.0" encoding="utf-8"?>
<!-- Generator: Adobe Illustrator 16.0.2, SVG Export Plug-In . SVG Version: 6.00 Build 0)  -->
<!DOCTYPE svg PUBLIC "-//W3C//DTD SVG 1.1//EN" "http://www.w3.org/Graphics/SVG/1.1/DTD/svg11.dtd">
<svg version="1.1" id="Слой_1" xmlns="http://www.w3.org/2000/svg" xmlns:xlink="http://www.w3.org/1999/xlink" x="0px" y="0px"
	 width="24.083px" height="23.5px" viewBox="14.667 10.25 24.083 23.5" enable-background="new 14.667 10.25 24.083 23.5"
	 xml:space="preserve">
<g>
	<g>
		<path fill-rule="evenodd" clip-rule="evenodd" fill="#FFFFFF" d="M36.299,27.305c-0.313-0.092-0.396-0.223-0.392-0.527
			c0.018-1.028,0.009-2.057,0.006-3.085c-0.001-0.695-0.127-0.819-0.833-0.819c-2.399-0.001-4.8,0-7.199,0h-0.539
			c0-0.806,0.017-1.546-0.007-2.285c-0.011-0.32,0.093-0.439,0.407-0.501c2.554-0.498,4.246-2.94,3.825-5.496
			c-0.397-2.416-2.499-4.112-4.993-4.03c-2.361,0.078-4.336,1.958-4.575,4.357c-0.236,2.374,1.391,4.621,3.728,5.152
			c0.176,0.04,0.354,0.073,0.508,0.104v2.698H18.66c-0.128,0-0.257-0.004-0.385,0.003c-0.377,0.021-0.576,0.217-0.576,0.6
			c-0.002,0.671-0.001,1.343-0.001,2.014v1.698c-0.167,0.046-0.292,0.076-0.414,0.114c-1.501,0.462-2.437,1.938-2.235,3.526
			c0.193,1.531,1.542,2.721,3.129,2.761c1.51,0.038,2.893-1.054,3.197-2.524c0.327-1.578-0.504-3.172-2.013-3.674
			c-0.525-0.174-0.624-0.416-0.603-0.902c0.039-0.835,0.011-1.673,0.011-2.51h7.485v3.213c-0.146,0.041-0.284,0.074-0.419,0.117
			c-1.669,0.522-2.62,2.325-2.11,3.998c0.507,1.666,2.292,2.64,3.948,2.154c1.395-0.407,2.344-1.647,2.352-3.074
			c0.009-1.421-0.936-2.674-2.322-3.104c-0.135-0.042-0.341-0.179-0.343-0.276c-0.025-1.008-0.017-2.017-0.017-3.028h7.499
			c0,1.004,0,1.974-0.002,2.944c0,0.085-0.01,0.17-0.015,0.26c-0.102,0.033-0.194,0.068-0.291,0.096
			c-1.544,0.444-2.462,1.768-2.354,3.396c0.092,1.416,1.348,2.74,2.795,2.951c1.191,0.176,2.762-0.723,3.305-1.889
			C39.114,29.948,38.192,27.86,36.299,27.305z M26.783,17.918c-3.226,0-3.226-5.002,0-5.002S30.008,17.918,26.783,17.918z"/>
	</g>
</g>
</svg>
