<?xml version="1.0" encoding="utf-8"?>
<!-- Generator: Adobe Illustrator 16.0.2, SVG Export Plug-In . SVG Version: 6.00 Build 0)  -->
<!DOCTYPE svg PUBLIC "-//W3C//DTD SVG 1.1//EN" "http://www.w3.org/Graphics/SVG/1.1/DTD/svg11.dtd">
<svg version="1.1" id="Слой_1" xmlns="http://www.w3.org/2000/svg" xmlns:xlink="http://www.w3.org/1999/xlink" x="0px" y="0px"
	 width="24.813px" height="24.75px" viewBox="2.469 -4.313 24.813 24.75" enable-background="new 2.469 -4.313 24.813 24.75"
	 xml:space="preserve">
<g>
	<path fill="#FFFFFF" d="M23.491,6.456c-1.302-0.482-2.604-0.963-3.923-1.453c0.15-0.348,0.289-0.667,0.441-1.017
		c-1.023-0.376-2.018-0.742-3.015-1.109c-0.694,1.313-1.073,2.759-2.062,3.886c-0.991-1.149-1.37-2.586-2.063-3.886
		c-1.006,0.371-1.999,0.737-3.011,1.11c0.155,0.358,0.293,0.677,0.439,1.017C8.973,5.495,7.676,5.976,6.379,6.456
		C6.384,6.48,6.388,6.506,6.391,6.53c0.848,0.244,1.695,0.49,2.579,0.744C8.531,8.025,8.114,8.738,7.644,9.54
		c1.742-0.643,3.383-1.247,5.05-1.862c-0.151-0.349-0.291-0.67-0.441-1.018c0.319-0.117,0.614-0.227,0.931-0.344
		c0.274,0.563,0.518,1.102,0.802,1.619c0.157,0.289,0.16,0.521,0.008,0.819c-0.625,1.234-1.225,2.485-1.832,3.729
		c-0.182,0.37-0.361,0.742-0.559,1.148c0.415,0.196,0.806,0.38,1.222,0.577c0.7-1.428,1.39-2.833,2.112-4.307
		c0.725,1.481,1.414,2.888,2.11,4.309c0.432-0.205,0.82-0.39,1.22-0.58c-0.073-0.153-0.124-0.259-0.175-0.365
		c-0.754-1.543-1.509-3.086-2.257-4.631c-0.057-0.118-0.124-0.291-0.078-0.39c0.291-0.644,0.611-1.274,0.934-1.931
		c0.326,0.121,0.62,0.232,0.927,0.347c-0.153,0.357-0.29,0.678-0.437,1.019c1.68,0.618,3.318,1.222,5.047,1.858
		c-0.471-0.804-0.891-1.52-1.327-2.265c0.896-0.259,1.742-0.504,2.589-0.748C23.49,6.503,23.49,6.479,23.491,6.456z"/>
	<path fill="#FFFFFF" d="M14.916-4.125c-6.731,0-12.208,5.477-12.208,12.209c0,6.731,5.477,12.208,12.208,12.208
		c6.732,0,12.209-5.477,12.209-12.208C27.125,1.352,21.649-4.125,14.916-4.125z M14.916,18.292c-5.629,0-10.208-4.579-10.208-10.208
		c0-5.629,4.579-10.209,10.208-10.209s10.209,4.58,10.209,10.209C25.125,13.713,20.545,18.292,14.916,18.292z"/>
</g>
</svg>
