<?xml version="1.0" encoding="utf-8"?>
<!-- Generator: Adobe Illustrator 16.0.2, SVG Export Plug-In . SVG Version: 6.00 Build 0)  -->
<!DOCTYPE svg PUBLIC "-//W3C//DTD SVG 1.1//EN" "http://www.w3.org/Graphics/SVG/1.1/DTD/svg11.dtd">
<svg version="1.1" id="Слой_1" xmlns="http://www.w3.org/2000/svg" xmlns:xlink="http://www.w3.org/1999/xlink" x="0px" y="0px"
	 width="22.938px" height="22.125px" viewBox="15.021 12.667 22.938 22.125" enable-background="new 15.021 12.667 22.938 22.125"
	 xml:space="preserve">
<g>
	<g>
		<path fill-rule="evenodd" clip-rule="evenodd" fill="#FFFFFF" d="M21.201,30.967c-0.52-0.457-1.003-0.881-1.516-1.331
			c-0.41,0.237-0.879,0.505-1.342,0.779c-0.363,0.215-0.807,0.13-1.028-0.234c-0.479-0.79-0.949-1.587-1.407-2.39
			c-0.208-0.367-0.098-0.691,0.271-0.904c0.429-0.244,0.854-0.498,1.294-0.72c0.229-0.116,0.279-0.239,0.218-0.49
			c-0.105-0.442-0.182-0.894-0.226-1.347c-0.023-0.233-0.133-0.284-0.323-0.314c-0.426-0.068-0.852-0.133-1.271-0.224
			c-0.522-0.113-0.68-0.328-0.601-0.841c0.093-0.596,0.214-1.188,0.324-1.782c0.038-0.206,0.089-0.409,0.122-0.615
			c0.118-0.705,0.265-0.843,0.955-0.761c0.537,0.065,1.065,0.188,1.625,0.292c0.353-0.539,0.715-1.09,1.096-1.671
			c-0.3-0.341-0.624-0.72-0.959-1.087c-0.375-0.409-0.343-0.872,0.084-1.207c0.632-0.497,1.269-0.99,1.88-1.512
			c0.514-0.438,1.009-0.308,1.347,0.143c0.155,0.207,0.311,0.416,0.483,0.607c0.168,0.185,0.361,0.35,0.534,0.515
			c0.528-0.155,1.065-0.322,1.607-0.465c0.211-0.056,0.276-0.157,0.269-0.366c-0.014-0.428-0.011-0.856-0.002-1.284
			c0.01-0.492,0.271-0.764,0.757-0.769c0.907-0.009,1.813-0.01,2.72,0c0.485,0.007,0.743,0.28,0.749,0.776
			c0.009,0.553,0.004,1.106,0.004,1.649c0.618,0.245,1.221,0.482,1.869,0.738c0.317-0.353,0.673-0.719,0.991-1.114
			c0.276-0.34,0.748-0.448,1.077-0.183c0.696,0.559,1.388,1.124,2.075,1.692c0.408,0.338,0.425,0.72,0.071,1.122
			c-0.37,0.418-0.734,0.842-1.085,1.243c0.255,0.49,0.522,0.95,0.738,1.431c0.132,0.288,0.321,0.295,0.575,0.255
			c0.487-0.076,0.978-0.158,1.467-0.203c0.332-0.03,0.551,0.197,0.606,0.519c0.141,0.8,0.283,1.601,0.442,2.397
			c0.143,0.713,0.014,0.94-0.68,1.087c-0.459,0.096-0.915,0.208-1.377,0.264c-0.267,0.032-0.308,0.189-0.349,0.384
			c-0.094,0.444-0.199,0.887-0.271,1.336c-0.016,0.098,0.05,0.262,0.132,0.312c0.386,0.242,0.786,0.458,1.188,0.677
			c0.391,0.212,0.527,0.66,0.297,1.049c-0.45,0.764-0.905,1.525-1.365,2.283c-0.206,0.338-0.619,0.448-0.983,0.252
			c-0.53-0.284-1.05-0.591-1.554-0.876c-0.526,0.403-1.045,0.8-1.584,1.21c0.162,0.454,0.349,0.947,0.518,1.446
			c0.181,0.53,0.049,0.772-0.479,0.957c-0.847,0.298-1.689,0.606-2.538,0.899c-0.402,0.141-0.74-0.016-0.894-0.406
			c-0.165-0.424-0.333-0.849-0.469-1.281c-0.078-0.252-0.188-0.363-0.47-0.36c-0.497,0.004-0.995-0.056-1.494-0.056
			c-0.104,0-0.257,0.125-0.304,0.229c-0.195,0.437-0.346,0.894-0.538,1.333c-0.147,0.339-0.474,0.475-0.823,0.354
			c-0.859-0.296-1.72-0.593-2.572-0.912c-0.526-0.197-0.636-0.455-0.45-0.992C20.813,31.981,21.016,31.465,21.201,30.967z
			 M26.47,27.342c1.966,0.036,3.688-1.609,3.673-3.512c-0.013-1.924-1.668-3.458-3.523-3.517c-2.14-0.068-3.792,1.627-3.786,3.515
			C22.84,25.723,24.43,27.341,26.47,27.342z"/>
	</g>
</g>
</svg>
