<?xml version="1.0" encoding="utf-8"?>
<!-- Generator: Adobe Illustrator 16.0.0, SVG Export Plug-In . SVG Version: 6.00 Build 0)  -->
<!DOCTYPE svg PUBLIC "-//W3C//DTD SVG 1.1//EN" "http://www.w3.org/Graphics/SVG/1.1/DTD/svg11.dtd">
<svg version="1.1" id="Слой_1" xmlns="http://www.w3.org/2000/svg" xmlns:xlink="http://www.w3.org/1999/xlink" x="0px" y="0px"
	 width="44.375px" height="44.625px" viewBox="0 0 44.375 44.625" enable-background="new 0 0 44.375 44.625" xml:space="preserve">
<g>
	
		<linearGradient id="SVGID_1_" gradientUnits="userSpaceOnUse" x1="115.3623" y1="-170.4805" x2="115.3623" y2="-211.1206" gradientTransform="matrix(1 0 0 -1 -85 -163.875)">
		<stop  offset="0" style="stop-color:#3CCFBC"/>
		<stop  offset="1" style="stop-color:#219BA5"/>
	</linearGradient>
	<path fill="url(#SVGID_1_)" d="M30.896,31.598c-6.529,4.078-14.383,1.963-18.295-3.478c-3.941-5.481-3.299-13.035,1.506-17.651
		c4.949-4.752,12.467-5.165,17.803-0.991c5.385,4.211,6.922,11.876,3.096,17.99c0.342,0.334,0.693,0.673,1.039,1.019
		c0.842,0.839,1.676,1.686,2.527,2.515c0.135,0.131,0.338,0.228,0.523,0.263c0.862,0.163,1.618,0.538,2.237,1.153
		c2.735,2.724,5.479,5.442,8.187,8.196c1.061,1.078,1.473,2.406,0.967,3.882c-0.508,1.481-1.57,2.411-3.123,2.69
		c-1.277,0.229-2.393-0.213-3.291-1.098c-2.76-2.719-5.492-5.465-8.225-8.212c-0.623-0.628-1-1.401-1.144-2.284
		c-0.021-0.131-0.067-0.283-0.158-0.373c-1.18-1.193-2.369-2.378-3.56-3.563C30.962,31.629,30.925,31.616,30.896,31.598z
		 M35.201,20.179c0.016-6.4-5.158-11.599-11.576-11.629c-6.449-0.031-11.646,5.139-11.666,11.604
		c-0.016,6.423,5.178,11.632,11.604,11.639C29.984,31.799,35.186,26.607,35.201,20.179z M32.57,30.357
		c0.906,0.914,1.813,1.824,2.58,2.598c0.414-0.419,0.852-0.862,1.203-1.221c-0.779-0.801-1.672-1.719-2.537-2.608
		C33.4,29.537,32.968,29.962,32.57,30.357z"/>
	
		<linearGradient id="SVGID_2_" gradientUnits="userSpaceOnUse" x1="108.6484" y1="-167.2266" x2="108.6484" y2="-200.7847" gradientTransform="matrix(1 0 0 -1 -85 -163.875)">
		<stop  offset="0" style="stop-color:#3CCFBC"/>
		<stop  offset="1" style="stop-color:#219BA5"/>
	</linearGradient>
	<path fill="url(#SVGID_2_)" d="M31.971,34.676c-6.255,3.727-15.634,3.045-21.374-3.99c-5.502-6.744-4.83-16.805,1.516-22.727
		c6.578-6.141,16.567-6.154,23.083,0.024c6.424,6.092,6.305,15.042,2.992,20.443c-0.461-0.383-0.914-0.764-1.373-1.136
		c-0.162-0.132-0.213-0.25-0.103-0.456c1.677-3.132,1.998-6.465,1.291-9.889c-0.494-2.384-1.606-4.507-3.203-6.364
		c-1.995-2.321-4.491-3.856-7.426-4.675c-1.86-0.519-3.783-0.633-5.682-0.319c-6.41,1.057-10.572,4.793-12.297,11
		c-1.09,3.927-0.43,7.769,1.752,11.271c2.135,3.432,5.205,5.664,9.107,6.592c3.381,0.804,6.725,0.49,9.865-1.137
		c0.322-0.166,0.529-0.156,0.758,0.112C31.23,33.848,31.6,34.254,31.971,34.676z"/>
	
		<linearGradient id="SVGID_3_" gradientUnits="userSpaceOnUse" x1="108.6016" y1="-187.9224" x2="108.6016" y2="-189.8613" gradientTransform="matrix(1 0 0 -1 -85 -163.875)">
		<stop  offset="0" style="stop-color:#3CCFBC"/>
		<stop  offset="1" style="stop-color:#219BA5"/>
	</linearGradient>
	<path fill="url(#SVGID_3_)" d="M23.623,24.049c1.885,0,3.77-0.001,5.654,0c0.682,0,1.119,0.37,1.131,0.948
		c0.012,0.587-0.447,0.987-1.139,0.987c-3.793,0.002-7.588,0.002-11.383,0c-0.533,0-0.877-0.226-1.029-0.654
		c-0.141-0.391-0.033-0.846,0.316-1.066c0.205-0.128,0.479-0.205,0.721-0.207C19.804,24.041,21.714,24.049,23.623,24.049z"/>
	
		<linearGradient id="SVGID_4_" gradientUnits="userSpaceOnUse" x1="108.6016" y1="-178.2329" x2="108.6016" y2="-180.1748" gradientTransform="matrix(1 0 0 -1 -85 -163.875)">
		<stop  offset="0" style="stop-color:#3CCFBC"/>
		<stop  offset="1" style="stop-color:#219BA5"/>
	</linearGradient>
	<path fill="url(#SVGID_4_)" d="M23.607,14.36c1.924,0,3.846,0.002,5.77-0.002c0.412,0,0.725,0.159,0.916,0.527
		c0.184,0.354,0.146,0.701-0.088,1.021c-0.215,0.294-0.523,0.396-0.881,0.395c-1.123-0.004-2.244-0.002-3.367-0.002
		c-2.607,0-5.215,0-7.82,0c-0.104,0-0.207,0.003-0.311-0.001c-0.605-0.019-1.035-0.427-1.031-0.979
		c0.004-0.551,0.434-0.954,1.045-0.955C19.761,14.358,21.685,14.361,23.607,14.36z"/>
	
		<linearGradient id="SVGID_5_" gradientUnits="userSpaceOnUse" x1="108.5742" y1="-183.062" x2="108.5742" y2="-185.0039" gradientTransform="matrix(1 0 0 -1 -85 -163.875)">
		<stop  offset="0" style="stop-color:#3CCFBC"/>
		<stop  offset="1" style="stop-color:#219BA5"/>
	</linearGradient>
	<path fill="url(#SVGID_5_)" d="M23.568,21.126c-1.924,0-3.848,0.002-5.771-0.002c-0.477-0.001-0.803-0.24-0.945-0.655
		c-0.129-0.377-0.031-0.83,0.305-1.037c0.229-0.14,0.525-0.229,0.791-0.232c1.563-0.021,3.125-0.01,4.688-0.01
		c2.156,0,4.313,0,6.467,0.001c0.155,0.001,0.313-0.001,0.463,0.028c0.51,0.102,0.828,0.534,0.783,1.039
		c-0.043,0.48-0.425,0.855-0.931,0.863c-0.931,0.014-1.858,0.005-2.789,0.006C25.609,21.127,24.589,21.126,23.568,21.126z"/>
</g>
</svg>
