<?xml version="1.0" encoding="utf-8"?>
<!-- Generator: Adobe Illustrator 16.0.2, SVG Export Plug-In . SVG Version: 6.00 Build 0)  -->
<!DOCTYPE svg PUBLIC "-//W3C//DTD SVG 1.1//EN" "http://www.w3.org/Graphics/SVG/1.1/DTD/svg11.dtd">
<svg version="1.1" id="Слой_1" xmlns="http://www.w3.org/2000/svg" xmlns:xlink="http://www.w3.org/1999/xlink" x="0px" y="0px"
	 width="19.375px" height="19px" viewBox="12.146 9.354 19.375 19" enable-background="new 12.146 9.354 19.375 19"
	 xml:space="preserve">
<path fill="#435778" d="M31.111,26.708c-0.059-0.066-0.123-0.127-0.188-0.189c-0.992-0.993-1.985-1.986-2.978-2.978
	c1.133-1.47,1.808-3.309,1.808-5.304c0-4.801-3.905-8.708-8.707-8.708c-4.801,0-8.707,3.907-8.707,8.708s3.906,8.708,8.707,8.708
	c2.026,0,3.895-0.697,5.376-1.863c0.205-0.113,0.359-0.083,0.552,0.123c0.393,0.422,0.811,0.82,1.219,1.228
	c0.522,0.521,1.04,1.05,1.569,1.564c0.396,0.383,1.009,0.404,1.357,0.067C31.492,27.703,31.488,27.145,31.111,26.708z
	 M21.046,25.185c-3.832,0-6.948-3.117-6.948-6.949s3.116-6.949,6.948-6.949s6.949,3.117,6.949,6.949S24.878,25.185,21.046,25.185z"
	/>
</svg>
