<?xml version="1.0" encoding="utf-8"?>
<!-- Generator: Adobe Illustrator 16.0.2, SVG Export Plug-In . SVG Version: 6.00 Build 0)  -->
<!DOCTYPE svg PUBLIC "-//W3C//DTD SVG 1.1//EN" "http://www.w3.org/Graphics/SVG/1.1/DTD/svg11.dtd">
<svg version="1.1" id="Слой_1" xmlns="http://www.w3.org/2000/svg" xmlns:xlink="http://www.w3.org/1999/xlink" x="0px" y="0px"
	 width="6.719px" height="8.563px" viewBox="-0.172 -0.969 6.719 8.563" enable-background="new -0.172 -0.969 6.719 8.563"
	 xml:space="preserve">
<g>
	<g>
		<path fill-rule="evenodd" clip-rule="evenodd" fill="#B9BFCF" d="M1.441,3.133c0.516,0.465,1.116,0.708,1.808,0.708
			c0.69,0,1.288-0.241,1.808-0.709C5.1,3.169,5.145,3.206,5.188,3.244C5.773,3.776,6.2,4.407,6.412,5.175
			C6.526,5.591,6.521,6.011,6.433,6.43S6.081,7.121,5.689,7.277C5.36,7.409,5.016,7.466,4.666,7.5
			C3.914,7.575,3.16,7.574,2.408,7.542C1.943,7.524,1.48,7.486,1.031,7.354C0.779,7.281,0.543,7.177,0.355,6.986
			C0.121,6.747,0.05,6.443,0.016,6.122C-0.07,5.304,0.222,4.601,0.678,3.948C0.871,3.669,1.102,3.421,1.359,3.2
			C1.386,3.178,1.412,3.156,1.441,3.133z"/>
		<path fill-rule="evenodd" clip-rule="evenodd" fill="#B9BFCF" d="M3.25,3.255C2.107,3.257,1.174,2.324,1.175,1.182
			C1.176,0.04,2.103-0.887,3.244-0.889c1.145-0.002,2.075,0.925,2.078,2.07C5.324,2.322,4.393,3.255,3.25,3.255z"/>
	</g>
</g>
</svg>
