<?xml version="1.0" encoding="utf-8"?>
<!-- Generator: Adobe Illustrator 16.0.2, SVG Export Plug-In . SVG Version: 6.00 Build 0)  -->
<!DOCTYPE svg PUBLIC "-//W3C//DTD SVG 1.1//EN" "http://www.w3.org/Graphics/SVG/1.1/DTD/svg11.dtd">
<svg version="1.1" id="Слой_1" xmlns="http://www.w3.org/2000/svg" xmlns:xlink="http://www.w3.org/1999/xlink" x="0px" y="0px"
	 width="24.344px" height="24.438px" viewBox="0.047 -10.969 24.344 24.438" enable-background="new 0.047 -10.969 24.344 24.438"
	 xml:space="preserve">
<g>
	<g>
		<path fill-rule="evenodd" clip-rule="evenodd" fill="#A7ABBB" d="M12.192,13.35C5.566,13.351,0.178,7.974,0.177,1.359
			C0.176-5.27,5.561-10.658,12.189-10.659c6.628-0.001,12.018,5.388,12.018,12.016C24.207,7.971,18.818,13.349,12.192,13.35z
			 M12.189,11.961c5.842,0.003,10.611-4.767,10.607-10.609C22.793-4.484,18.045-9.236,12.205-9.247
			C6.365-9.26,1.594-4.498,1.588,1.348C1.58,7.189,6.346,11.959,12.189,11.961z"/>
		<path fill-rule="evenodd" clip-rule="evenodd" fill="#A7ABBB" d="M12.197-7.617c4.925-0.026,8.999,4.05,8.974,9.023
			c-0.025,4.901-4.071,8.965-9.053,8.929c-4.893-0.036-8.955-4.09-8.909-9.099C3.254-3.617,7.278-7.617,12.197-7.617z M13.033,2.157
			c1.361-0.202,2.196-0.929,2.439-2.106c0.07-0.336,0.088-0.691,0.066-1.034c-0.063-1.063-0.54-1.879-1.504-2.38
			c-0.527-0.273-1.098-0.363-1.682-0.383c-0.77-0.025-1.517,0.079-2.216,0.427C9.93-3.213,9.806-3.052,9.811-2.82
			c0.006,0.264,0.014,0.529,0.055,0.789c0.046,0.297,0.156,0.336,0.42,0.199c0.559-0.288,1.146-0.44,1.782-0.397
			c0.707,0.049,1.218,0.448,1.401,1.137c0.101,0.373,0.078,0.746-0.011,1.117c-0.112,0.463-0.399,0.776-0.847,0.921
			c-0.225,0.073-0.473,0.126-0.707,0.117c-0.552-0.02-0.639,0.262-0.662,0.675c-0.006,0.098,0.002,0.196,0.006,0.294
			c0.026,0.513,0.063,1.024,0.076,1.538c0.005,0.195,0.085,0.316,0.266,0.325c0.344,0.017,0.689,0.021,1.033-0.003
			c0.313-0.022,0.397-0.116,0.406-0.424C13.043,3.032,13.033,2.595,13.033,2.157z M13.281,5.81c-0.001,0-0.002,0-0.002,0
			c0-0.12,0.008-0.241-0.002-0.36c-0.035-0.438-0.255-0.701-0.688-0.764c-0.242-0.034-0.498-0.033-0.741,0.001
			c-0.429,0.062-0.601,0.235-0.663,0.668c-0.038,0.258-0.051,0.527-0.022,0.787c0.048,0.438,0.252,0.74,0.763,0.757
			c0.217,0.006,0.436,0.01,0.65-0.011c0.416-0.042,0.665-0.302,0.703-0.716C13.29,6.051,13.281,5.931,13.281,5.81z"/>
	</g>
</g>
</svg>
