<?xml version="1.0" encoding="utf-8"?>
<!-- Generator: Adobe Illustrator 16.0.2, SVG Export Plug-In . SVG Version: 6.00 Build 0)  -->
<!DOCTYPE svg PUBLIC "-//W3C//DTD SVG 1.1//EN" "http://www.w3.org/Graphics/SVG/1.1/DTD/svg11.dtd">
<svg version="1.1" id="Слой_1" xmlns="http://www.w3.org/2000/svg" xmlns:xlink="http://www.w3.org/1999/xlink" x="0px" y="0px"
	 width="24.042px" height="24.041px" viewBox="-0.109 -10.469 24.042 24.041" enable-background="new -0.109 -10.469 24.042 24.041"
	 xml:space="preserve">
<g>
	<g>
		<path fill-rule="evenodd" clip-rule="evenodd" fill="#A7ABBA" d="M11.94-10.337c6.664,0.088,11.893,5.252,11.893,11.915
			C23.831,8.241,18.6,13.47,11.938,13.469C5.273,13.468,0.045,8.237,0.046,1.573C0.048-5.091,5.279-10.251,11.94-10.337z
			 M11.935,12.281c5.907,0.002,10.699-4.781,10.709-10.689c0.01-5.914-4.784-10.716-10.699-10.719
			C6.038-9.132,1.246-4.346,1.235,1.561C1.226,7.474,6.02,12.278,11.935,12.281z"/>
		<path fill-rule="evenodd" clip-rule="evenodd" fill="#A7ABBA" d="M17.819,9.001c-1.521-1.921-3.473-2.973-5.928-2.971
			C9.438,6.031,7.488,7.086,5.98,8.995c-2.623-1.938-4.457-5.774-3.43-9.913c1.016-4.091,4.608-7.096,8.903-7.287
			c4.514-0.2,8.365,2.672,9.635,6.737C22.364,2.615,20.794,6.736,17.819,9.001z M11.903-3.864c-2.352-0.005-4.262,1.901-4.267,4.26
			c-0.006,2.356,1.896,4.263,4.254,4.267s4.265-1.896,4.267-4.254C16.16-1.951,14.26-3.858,11.903-3.864z"/>
	</g>
</g>
</svg>
