<?xml version="1.0" encoding="utf-8"?>
<!-- Generator: Adobe Illustrator 16.0.2, SVG Export Plug-In . SVG Version: 6.00 Build 0)  -->
<!DOCTYPE svg PUBLIC "-//W3C//DTD SVG 1.1//EN" "http://www.w3.org/Graphics/SVG/1.1/DTD/svg11.dtd">
<svg version="1.1" id="Слой_1" xmlns="http://www.w3.org/2000/svg" xmlns:xlink="http://www.w3.org/1999/xlink" x="0px" y="0px"
	 width="56.875px" height="56.75px" viewBox="10.109 -40.469 56.875 56.75" enable-background="new 10.109 -40.469 56.875 56.75"
	 xml:space="preserve">
<g>
	<path fill="#FFFFFF" d="M49.881-17.131c-2.301-0.007-4.601-0.001-6.902-0.001c-0.102,0-0.203,0-0.338,0c0-0.149,0-0.252,0-0.355
		c0-1.652,0.018-3.304-0.01-4.956c-0.009-0.619-0.061-1.249-0.195-1.851c-0.301-1.344-1.105-2.246-2.492-2.543
		c-0.738-0.158-1.479-0.102-2.216,0.041c-0.21,0.041-0.268,0.13-0.267,0.344c0.011,1.661,0.005,3.322,0.006,4.982
		c0.001,1.484-0.502,2.776-1.494,3.874c-1.082,1.195-2.436,1.97-3.941,2.5c-0.012,0.005-0.031-0.007-0.047-0.012
		c-0.402-0.985-1.112-1.545-2.197-1.554c-1.367-0.01-2.733-0.009-4.1,0c-1.359,0.009-2.295,0.954-2.295,2.313
		c-0.002,4.499-0.002,8.996,0,13.494c0,1.336,0.953,2.289,2.286,2.292c1.332,0.002,2.663-0.009,3.996,0.003
		c1.079,0.009,1.829-0.468,2.259-1.457c0.005-0.013,0.027-0.019,0.059-0.038c0.822,0.814,1.844,1.005,2.97,0.999
		c4.073-0.024,8.147-0.008,12.222-0.013c0.396,0,0.797-0.02,1.189-0.071c1.736-0.226,2.893-1.296,3.226-3.006
		c0.16-0.822,0.269-1.654,0.399-2.482c0.429-2.731,0.857-5.462,1.285-8.194c0.084-0.537,0.182-1.068,0.043-1.618
		C52.924-16.039,51.556-17.127,49.881-17.131z M29.814-0.801c-1.38,0-2.766,0-4.172,0c0-4.534,0-9.047,0-13.575
		c1.391,0,2.771,0,4.172,0C29.814-9.859,29.814-5.341,29.814-0.801z"/>
	<path fill="#FFFFFF" d="M38.625-40.147c-15.521,0-28.15,12.628-28.15,28.15s12.629,28.15,28.15,28.15s28.15-12.628,28.15-28.15
		S54.146-40.147,38.625-40.147z M38.625,13.853c-14.254,0-25.85-11.596-25.85-25.85s11.596-25.85,25.85-25.85
		s25.85,11.596,25.85,25.85S52.879,13.853,38.625,13.853z"/>
</g>
</svg>
