<?xml version="1.0" encoding="utf-8"?>
<!-- Generator: Adobe Illustrator 16.0.0, SVG Export Plug-In . SVG Version: 6.00 Build 0)  -->
<!DOCTYPE svg PUBLIC "-//W3C//DTD SVG 1.1//EN" "http://www.w3.org/Graphics/SVG/1.1/DTD/svg11.dtd">
<svg version="1.1" id="Слой_1" xmlns="http://www.w3.org/2000/svg" xmlns:xlink="http://www.w3.org/1999/xlink" x="0px" y="0px"
	 width="31.938px" height="31.75px" viewBox="0 0 31.938 31.75" enable-background="new 0 0 31.938 31.75" xml:space="preserve">
<g>
	<g>
		<g>
			<path fill="#258C91" d="M15.765,32.525C7.073,32.525,0,25.455,0,16.764C0,8.07,7.073,1,15.765,1s15.762,7.071,15.762,15.764
				C31.527,25.454,24.455,32.525,15.765,32.525z M15.765,3.074c-7.548,0-13.689,6.141-13.689,13.689
				c0,7.547,6.142,13.688,13.688,13.688S29.45,24.311,29.45,16.764C29.45,9.215,23.313,3.074,15.765,3.074z"/>
		</g>
	</g>
</g>
<polygon fill="#75859D" points="21.492,15.195 16.087,19.807 16.057,19.777 16.027,19.807 10.621,15.195 11.509,14.307 
	16.057,18.186 20.606,14.307 "/>
</svg>
