<?xml version="1.0" encoding="utf-8"?>
<!-- Generator: Adobe Illustrator 16.0.2, SVG Export Plug-In . SVG Version: 6.00 Build 0)  -->
<!DOCTYPE svg PUBLIC "-//W3C//DTD SVG 1.1//EN" "http://www.w3.org/Graphics/SVG/1.1/DTD/svg11.dtd">
<svg version="1.1" id="Слой_1" xmlns="http://www.w3.org/2000/svg" xmlns:xlink="http://www.w3.org/1999/xlink" x="0px" y="0px"
	 width="27.625px" height="18.625px" viewBox="11.734 -37.844 27.625 18.625" enable-background="new 11.734 -37.844 27.625 18.625"
	 xml:space="preserve">
<g>
	<g>
		<path fill-rule="evenodd" clip-rule="evenodd" fill="#23345A" d="M31.357-19.784c-5.318-2.305-10.638-4.612-15.956-6.918
			c-0.977-0.423-1.954-0.844-2.928-1.271c-0.34-0.148-0.474-0.478-0.344-0.812c0.087-0.225,0.265-0.346,0.479-0.438
			c2.892-1.242,5.783-2.487,8.675-3.731c3.418-1.47,6.837-2.939,10.254-4.412c0.218-0.093,0.417-0.094,0.617,0.026
			c0.297,0.177,0.385,0.462,0.271,0.858c-0.744,2.573-1.489,5.146-2.229,7.721c-0.034,0.12-0.033,0.267,0.001,0.387
			c0.377,1.332,0.765,2.661,1.148,3.99c0.367,1.272,0.736,2.544,1.101,3.818c0.133,0.47-0.18,0.928-0.693,0.929
			C31.662-19.671,31.507-19.719,31.357-19.784z M29.984-24.259c-0.332-1.151-0.663-2.302-0.992-3.454
			c-0.036-0.127-0.075-0.197-0.234-0.196c-4.195,0.005-8.391,0.004-12.586,0.004c-0.035,0-0.07,0.004-0.116,0.05
			c4.899,2.131,9.799,4.262,14.745,6.414C30.518-22.418,30.251-23.338,29.984-24.259z"/>
		<path fill-rule="evenodd" clip-rule="evenodd" fill="#23345A" d="M36.397-22.711c0.626,0,1.253,0,1.879,0
			c0.251-0.001,0.452-0.096,0.569-0.324c0.124-0.243,0.115-0.492-0.028-0.725c-0.147-0.237-0.387-0.28-0.644-0.279
			c-0.901,0.001-1.804,0-2.705,0c-0.298,0-0.597-0.005-0.895,0.002c-0.426,0.009-0.709,0.283-0.707,0.671
			c0.003,0.388,0.291,0.653,0.72,0.655C35.19-22.708,35.794-22.71,36.397-22.711z"/>
		<path fill-rule="evenodd" clip-rule="evenodd" fill="#23345A" d="M36.405-34.359c-0.603,0-1.207-0.002-1.811,0
			c-0.431,0.002-0.724,0.265-0.727,0.646c-0.003,0.367,0.31,0.678,0.711,0.68c1.214,0.005,2.428,0.007,3.642-0.001
			c0.516-0.003,0.828-0.447,0.663-0.914c-0.094-0.264-0.303-0.408-0.624-0.411C37.642-34.362,37.023-34.359,36.405-34.359z"/>
		<path fill-rule="evenodd" clip-rule="evenodd" fill="#23345A" d="M35.361-27.905c0.597,0,1.193,0.002,1.789,0
			c0.44-0.002,0.698-0.235,0.706-0.632c0.008-0.406-0.272-0.696-0.704-0.698c-1.191-0.006-2.385-0.005-3.576,0
			c-0.425,0.002-0.707,0.282-0.707,0.673c-0.002,0.411,0.258,0.655,0.705,0.657C34.17-27.903,34.766-27.905,35.361-27.905z"/>
	</g>
</g>
</svg>
