<?xml version="1.0" encoding="utf-8"?>
<!-- Generator: Adobe Illustrator 16.0.2, SVG Export Plug-In . SVG Version: 6.00 Build 0)  -->
<!DOCTYPE svg PUBLIC "-//W3C//DTD SVG 1.1//EN" "http://www.w3.org/Graphics/SVG/1.1/DTD/svg11.dtd">
<svg version="1.1" id="Слой_1" xmlns="http://www.w3.org/2000/svg" xmlns:xlink="http://www.w3.org/1999/xlink" x="0px" y="0px"
	 width="89.007px" height="88.598px" viewBox="0 0 89.007 88.598" enable-background="new 0 0 89.007 88.598" xml:space="preserve">
<g>
	<g>
		<path fill-rule="evenodd" clip-rule="evenodd" fill="#FFFFFF" d="M70.171,88.598c-0.416-0.268-0.693-0.434-0.961-0.619
			c-7.715-5.336-15.423-10.681-23.154-15.995c-0.439-0.302-1.049-0.498-1.581-0.501c-10.002-0.082-19.356-2.462-27.813-7.909
			C9.88,59.204,4.601,53.492,1.855,45.783c-3.471-9.748-2.003-18.92,3.827-27.359C11.005,10.718,18.466,5.778,27.251,2.9
			c13.559-4.443,26.95-3.832,39.946,2.189c7.35,3.404,13.424,8.405,17.551,15.479c6.418,11.003,5.519,23.693-2.269,33.824
			c-3.508,4.566-7.861,8.137-12.918,10.849c-0.752,0.402-0.943,0.835-0.883,1.632c0.49,6.623,0.943,13.248,1.404,19.873
			C70.122,87.31,70.138,87.877,70.171,88.598z M42.129,42.184c-0.063,0.01-0.125,0.019-0.189,0.028
			c0.229,1.558,0.333,3.147,0.722,4.665c0.418,1.626,1.236,2.112,2.904,2.028c1.001-0.051,1.993-0.268,2.996-0.32
			c0.41-0.021,0.911,0.081,1.236,0.315c4.097,2.933,8.917,2.909,13.018-0.063c0.324-0.232,0.824-0.329,1.233-0.31
			c1.215,0.055,2.422,0.244,3.638,0.294c0.903,0.039,1.619-0.427,1.927-1.277c0.319-0.879,0.633-1.799,0.697-2.719
			c0.105-1.485-0.023-2.983,0.007-4.474c0.009-0.447,0.128-0.951,0.363-1.326c0.995-1.585,1.053-4.874-0.241-6.146
			c-0.899-0.888-1.072-1.871-1.298-2.952c-0.172-0.834-0.391-1.665-0.68-2.464c-1.448-4.023-4.253-6.527-8.458-7.388
			c-2.478-0.507-4.974-0.503-7.45,0.013c-4.044,0.844-6.859,3.196-8.301,7.07c-0.485,1.303-0.697,2.706-1.051,4.059
			c-0.08,0.308-0.144,0.684-0.354,0.885c-1.697,1.639-2.343,4.657-1.158,6.592c0.516,0.845,0.563,1.608,0.487,2.483
			C42.15,41.514,42.144,41.849,42.129,42.184z M28.979,33.397c0-1.027,0.003-1.963-0.002-2.9c-0.004-1.998-1.202-3.338-2.963-3.317
			c-1.722,0.02-2.882,1.346-2.888,3.3c-0.002,0.961-0.002,1.922-0.002,2.917c-1.11,0-2.084-0.007-3.055,0.001
			c-1.852,0.014-3.166,1.239-3.162,2.937c0.004,1.691,1.324,2.902,3.187,2.913c0.991,0.007,1.983,0.002,3.03,0.002
			c0,1.091-0.004,2.063,0.002,3.032c0.012,1.861,1.221,3.179,2.912,3.185c1.695,0.006,2.924-1.314,2.937-3.165
			c0.009-0.994,0.004-1.99,0.004-3.054c1.165,0,2.224,0.021,3.284-0.004c1.65-0.039,2.917-1.302,2.932-2.892
			c0.018-1.629-1.264-2.918-2.959-2.952C31.2,33.381,30.166,33.397,28.979,33.397z"/>
		<path fill-rule="evenodd" clip-rule="evenodd" fill="#FFFFFF" d="M43.803,34.21c0.694,0.231,1.29,0.644,1.671,0.497
			c0.408-0.158,0.766-0.806,0.879-1.301c0.414-1.833,0.735-3.686,1.75-5.603c0.208,0.912,0.388,1.595,0.517,2.286
			c0.144,0.784,0.558,1.142,1.378,1.139c4.171-0.018,8.344-0.017,12.515,0c0.813,0.003,1.243-0.352,1.393-1.133
			c0.13-0.681,0.299-1.354,0.659-2.091c0.229,0.564,0.517,1.114,0.675,1.698c0.336,1.231,0.618,2.478,0.895,3.726
			c0.131,0.578,0.209,1.262,0.907,1.306c0.488,0.032,0.994-0.279,1.632-0.481c0.552,0.487,0.786,2.862,0.132,3.594
			c-0.184,0.205-0.512,0.364-0.784,0.385c-1.088,0.078-1.478,0.69-1.651,1.704c-0.676,3.945-4.676,7.998-8.561,8.702
			c-2.255,0.408-4.38,0.017-6.275-1.299c-2.814-1.953-5.013-4.348-5.481-7.935c-0.097-0.734-0.589-1.126-1.302-1.194
			c-0.906-0.085-1.272-0.621-1.304-1.459C43.409,35.814,43.345,34.87,43.803,34.21z M56.275,40.46c-1.249,0-2.497-0.008-3.746,0.005
			c-0.992,0.011-1.209,0.312-0.938,1.239c0.597,2.036,2.476,3.438,4.646,3.466c2.196,0.028,4.162-1.373,4.786-3.415
			c0.277-0.899,0.028-1.273-0.913-1.288C58.833,40.448,57.554,40.462,56.275,40.46z M52.113,37.765
			c1.052,0.011,1.926-0.834,1.957-1.894c0.033-1.103-0.824-1.995-1.927-2.005c-1.06-0.008-1.931,0.827-1.964,1.884
			C50.148,36.838,51.029,37.755,52.113,37.765z M60.401,33.87c-1.059-0.002-1.926,0.836-1.953,1.89
			c-0.026,1.079,0.865,2.001,1.942,2.006c1.085,0.004,1.961-0.896,1.941-1.996C62.313,34.694,61.477,33.872,60.401,33.87z"/>
	</g>
</g>
</svg>
