<?xml version="1.0" encoding="utf-8"?>
<!-- Generator: Adobe Illustrator 16.0.2, SVG Export Plug-In . SVG Version: 6.00 Build 0)  -->
<!DOCTYPE svg PUBLIC "-//W3C//DTD SVG 1.1//EN" "http://www.w3.org/Graphics/SVG/1.1/DTD/svg11.dtd">
<svg version="1.1" id="Слой_1" xmlns="http://www.w3.org/2000/svg" xmlns:xlink="http://www.w3.org/1999/xlink" x="0px" y="0px"
	 width="16.156px" height="16.063px" viewBox="14.266 -36.531 16.156 16.063" enable-background="new 14.266 -36.531 16.156 16.063"
	 xml:space="preserve">
<g>
	<g>
		<path fill-rule="evenodd" clip-rule="evenodd" fill="#FFFFFF" d="M23.154-20.503c-0.563,0-1.11,0-1.675,0
			c-0.04-0.409-0.085-0.813-0.117-1.217c-0.036-0.444-0.1-0.528-0.53-0.633c-0.662-0.161-1.275-0.436-1.853-0.795
			c-0.277-0.172-0.409-0.163-0.658,0.043c-0.343,0.283-0.685,0.565-1.021,0.844c-0.399-0.399-0.79-0.79-1.188-1.187
			c0.283-0.343,0.571-0.689,0.857-1.037c0.188-0.229,0.197-0.377,0.035-0.628c-0.395-0.608-0.667-1.268-0.832-1.974
			c-0.063-0.271-0.168-0.369-0.445-0.398c-0.454-0.049-0.908-0.092-1.373-0.138c0-0.558,0-1.109,0-1.681
			c0.366-0.037,0.733-0.073,1.101-0.109c0.043-0.004,0.085-0.005,0.128-0.009c0.456-0.048,0.512-0.097,0.622-0.543
			c0.162-0.655,0.435-1.264,0.792-1.835c0.172-0.275,0.164-0.41-0.04-0.658c-0.282-0.342-0.565-0.684-0.844-1.02
			c0.397-0.398,0.787-0.791,1.185-1.189c0.34,0.281,0.683,0.564,1.024,0.847c0.247,0.204,0.385,0.213,0.658,0.038
			c0.6-0.385,1.248-0.653,1.941-0.817c0.306-0.073,0.397-0.176,0.431-0.501c0.043-0.436,0.082-0.871,0.124-1.318
			c0.56,0,1.111,0,1.687,0c0.031,0.314,0.064,0.633,0.096,0.951c0.016,0.151,0.025,0.304,0.042,0.455
			c0.022,0.208,0.14,0.353,0.346,0.398c0.745,0.164,1.432,0.464,2.075,0.871c0.204,0.128,0.362,0.115,0.554-0.041
			c0.354-0.288,0.704-0.581,1.033-0.852c0.401,0.388,0.796,0.771,1.198,1.161c-0.279,0.337-0.567,0.684-0.854,1.031
			c-0.19,0.231-0.2,0.378-0.039,0.627c0.394,0.609,0.668,1.268,0.834,1.973c0.064,0.275,0.168,0.373,0.443,0.402
			c0.453,0.048,0.907,0.092,1.374,0.139c0,0.555,0,1.105,0,1.681c-0.354,0.036-0.716,0.072-1.075,0.108
			c-0.049,0.005-0.098,0.006-0.146,0.011c-0.437,0.048-0.492,0.099-0.599,0.522c-0.166,0.66-0.438,1.275-0.798,1.853
			c-0.175,0.279-0.164,0.416,0.049,0.673c0.279,0.337,0.559,0.674,0.828,1c-0.396,0.398-0.782,0.785-1.186,1.19
			c-0.196-0.162-0.406-0.335-0.615-0.508c-0.156-0.128-0.308-0.259-0.466-0.383c-0.176-0.138-0.339-0.152-0.523-0.033
			c-0.646,0.418-1.341,0.711-2.091,0.878c-0.217,0.048-0.324,0.198-0.346,0.437c-0.037,0.413-0.077,0.824-0.117,1.236
			C23.177-20.596,23.165-20.555,23.154-20.503z M22.315-24.415c2.226-0.004,4.049-1.831,4.044-4.053
			c-0.005-2.227-1.83-4.047-4.054-4.043c-2.226,0.004-4.047,1.829-4.043,4.053C18.267-26.233,20.092-24.411,22.315-24.415z"/>
		<path fill-rule="evenodd" clip-rule="evenodd" fill="#FFFFFF" d="M19.125-28.46c-0.002-1.771,1.42-3.192,3.19-3.189
			c1.764,0.002,3.18,1.418,3.181,3.182c0.003,1.77-1.421,3.192-3.19,3.19C20.543-25.281,19.127-26.697,19.125-28.46z"/>
	</g>
</g>
</svg>
