<?xml version="1.0" encoding="utf-8"?>
<!-- Generator: Adobe Illustrator 16.0.2, SVG Export Plug-In . SVG Version: 6.00 Build 0)  -->
<!DOCTYPE svg PUBLIC "-//W3C//DTD SVG 1.1//EN" "http://www.w3.org/Graphics/SVG/1.1/DTD/svg11.dtd">
<svg version="1.1" id="Слой_1" xmlns="http://www.w3.org/2000/svg" xmlns:xlink="http://www.w3.org/1999/xlink" x="0px" y="0px"
	 width="17.844px" height="13.594px" viewBox="14.922 -35.625 17.844 13.594" enable-background="new 14.922 -35.625 17.844 13.594"
	 xml:space="preserve">
<g>
	<path fill-rule="evenodd" clip-rule="evenodd" fill="#FFFFFF" d="M24.461-30.486c3.217,0.009,3.012,0.006,6.232,0
		c1.133-0.002,1.813-0.743,1.82-1.968c0.014-1.249-0.684-2.016-1.846-2.028c-0.066,0-0.129,0-0.189,0c-1.885,0-2.58,0-2.813,0
		c-0.006,0-0.018,0-0.023,0c-0.002,0-0.004,0-0.006,0c-0.018,0-0.031,0-0.049,0c-0.201,0-0.873,0-2.83,0
		c-0.236,0-0.471-0.008-0.703,0.033c-0.951,0.167-1.523,1.272-1.297,2.481C22.934-31.022,23.527-30.488,24.461-30.486z"/>
	<path fill-rule="evenodd" clip-rule="evenodd" fill="#FFFFFF" d="M20.912-35.498c-1.688-0.001-3.376-0.002-5.064,0
		c-0.572,0-0.818,0.248-0.818,0.826c-0.003,1.632-0.002,3.264,0,4.896c0,0.592,0.243,0.83,0.843,0.831c0.834,0.001,1.668,0,2.503,0
		c0.845,0,1.689,0.001,2.532-0.001c0.566-0.001,0.818-0.245,0.818-0.798c0.004-1.651,0.003-3.301,0-4.952
		C21.726-35.25,21.473-35.497,20.912-35.498z M19.76-32.884c-0.277,0.532-0.556,1.063-0.84,1.59c-0.27,0.5-0.688,0.586-1.141,0.241
		c-0.201-0.154-0.4-0.309-0.599-0.468c-0.329-0.264-0.404-0.629-0.196-0.942c0.216-0.323,0.586-0.388,0.967-0.171
		c0.03,0.018,0.064,0.033,0.113,0.06c0.173-0.322,0.337-0.636,0.505-0.947c0.223-0.412,0.602-0.551,0.959-0.358
		C19.882-33.689,19.976-33.297,19.76-32.884z"/>
	<path fill-rule="evenodd" clip-rule="evenodd" fill="#FFFFFF" d="M20.953-28.647c-1.716-0.001-3.433-0.001-5.148,0
		c-0.514,0-0.772,0.244-0.774,0.749c-0.005,1.679-0.005,3.357,0,5.036c0.002,0.506,0.26,0.752,0.771,0.753
		c0.853,0.002,1.707,0,2.561,0c0.863,0,1.726,0.001,2.588,0c0.514-0.001,0.773-0.246,0.774-0.75
		c0.005-1.679,0.005-3.357,0.001-5.037C21.724-28.401,21.466-28.647,20.953-28.647z M19.774-26.066
		c-0.285,0.547-0.573,1.093-0.868,1.635c-0.258,0.473-0.692,0.558-1.123,0.228c-0.2-0.154-0.399-0.31-0.596-0.469
		c-0.341-0.278-0.414-0.644-0.194-0.961c0.217-0.312,0.593-0.369,0.967-0.147c0.023,0.014,0.049,0.023,0.104,0.051
		c0.175-0.329,0.339-0.643,0.509-0.955c0.221-0.407,0.599-0.544,0.956-0.35C19.874-26.847,19.978-26.457,19.774-26.066z"/>
	<path fill-rule="evenodd" clip-rule="evenodd" fill="#FFFFFF" d="M30.668-27.523c-0.066,0-0.129,0-0.189,0
		c-1.885,0-2.582,0-2.813,0c-0.006,0-0.018,0-0.023,0c-0.002,0-0.004,0-0.008,0c-0.016,0-0.029,0-0.047,0c-0.201,0-0.873,0-2.83,0
		c-0.236,0-0.471-0.008-0.703,0.033c-0.951,0.167-1.523,1.272-1.297,2.481c0.176,0.946,0.77,1.479,1.703,1.481
		c3.217,0.009,3.012,0.006,6.232,0c1.133-0.002,1.813-0.743,1.82-1.968C32.527-26.744,31.83-27.51,30.668-27.523z"/>
</g>
</svg>
