<?xml version="1.0" encoding="utf-8"?>
<!-- Generator: Adobe Illustrator 16.0.2, SVG Export Plug-In . SVG Version: 6.00 Build 0)  -->
<!DOCTYPE svg PUBLIC "-//W3C//DTD SVG 1.1//EN" "http://www.w3.org/Graphics/SVG/1.1/DTD/svg11.dtd">
<svg version="1.1" id="Слой_1" xmlns="http://www.w3.org/2000/svg" xmlns:xlink="http://www.w3.org/1999/xlink" x="0px" y="0px"
	 width="12.625px" height="15.917px" viewBox="16.401 -36.885 12.625 15.917" enable-background="new 16.401 -36.885 12.625 15.917"
	 xml:space="preserve">
<g>
	<g>
		<path fill-rule="evenodd" clip-rule="evenodd" fill="#FEFEFF" d="M22.718-21.015c-1.635,0-1.725,0.001-3.358,0
			c-2.25,0-2.83-1.47-2.822-2.266c0.036-3.614,3.275-5.475,6.873-5.051c3.127,0.369,5.487,1.953,5.501,5.051
			c0.004,0.741-0.427,2.265-2.489,2.265C24.77-21.013,24.37-21.015,22.718-21.015z"/>
		<path fill-rule="evenodd" clip-rule="evenodd" fill="#FEFEFF" d="M22.736-29.043c-2.125,0.004-3.854-1.714-3.859-3.834
			c-0.004-2.127,1.713-3.854,3.834-3.859c2.125-0.004,3.854,1.713,3.859,3.833C26.575-30.779,24.856-29.048,22.736-29.043z"/>
	</g>
</g>
</svg>
