<?xml version="1.0" encoding="utf-8"?>
<!-- Generator: Adobe Illustrator 16.0.2, SVG Export Plug-In . SVG Version: 6.00 Build 0)  -->
<!DOCTYPE svg PUBLIC "-//W3C//DTD SVG 1.1//EN" "http://www.w3.org/Graphics/SVG/1.1/DTD/svg11.dtd">
<svg version="1.1" id="Слой_1" xmlns="http://www.w3.org/2000/svg" xmlns:xlink="http://www.w3.org/1999/xlink" x="0px" y="0px"
	 width="16.34px" height="15.262px" viewBox="25.943 -22.388 16.34 15.262" enable-background="new 25.943 -22.388 16.34 15.262"
	 xml:space="preserve">
<path fill-rule="evenodd" clip-rule="evenodd" fill="#FEFFFE" d="M40.203-21.226c-1.002-0.804-2.178-1.084-3.441-1.069
	c-0.865,0.009-1.629,0.29-2.291,0.85c-0.215,0.182-0.213,0.178-0.441,0.02c-1.311-0.916-2.748-1.189-4.289-0.772
	c-2.199,0.596-3.738,2.609-3.795,4.951c-0.035,1.506,0.502,2.802,1.545,3.886c1.846,1.917,3.693,3.832,5.539,5.748
	c0.596,0.618,1.475,0.644,2.139,0.103c0.383-0.313,0.678-0.702,1.018-1.053c1.508-1.561,3.027-3.112,4.541-4.669
	c1.016-1.046,1.529-2.304,1.557-3.823C42.242-18.724,41.555-20.144,40.203-21.226z M34.074-10.828c-5.775,0-5.775-8.954,0-8.954
	C39.848-19.782,39.848-10.828,34.074-10.828z M37.301-15.299c0,1.761-1.426,3.188-3.188,3.188c-1.76,0-3.188-1.427-3.188-3.188
	s1.428-3.188,3.188-3.188C35.875-18.486,37.301-17.06,37.301-15.299z"/>
</svg>
