<?xml version="1.0" encoding="utf-8"?>
<!-- Generator: Adobe Illustrator 16.0.2, SVG Export Plug-In . SVG Version: 6.00 Build 0)  -->
<!DOCTYPE svg PUBLIC "-//W3C//DTD SVG 1.1//EN" "http://www.w3.org/Graphics/SVG/1.1/DTD/svg11.dtd">
<svg version="1.1" id="Слой_1" xmlns="http://www.w3.org/2000/svg" xmlns:xlink="http://www.w3.org/1999/xlink" x="0px" y="0px"
	 width="19.333px" height="17.083px" viewBox="2.438 -0.23 19.333 17.083" enable-background="new 2.438 -0.23 19.333 17.083"
	 xml:space="preserve">
<g>
	<g>
		<path fill-rule="evenodd" clip-rule="evenodd" fill="#172C60" d="M19.203,7.946c0.414,0,0.809,0.004,1.203-0.001
			c0.411-0.006,0.729,0.156,0.928,0.515c0.2,0.358,0.172,0.716-0.044,1.062c-0.962,1.541-1.923,3.084-2.889,4.624
			c-0.427,0.681-1.312,0.679-1.739-0.004c-0.962-1.535-1.919-3.074-2.88-4.61c-0.22-0.351-0.252-0.713-0.048-1.075
			c0.201-0.357,0.52-0.518,0.93-0.512c0.389,0.007,0.777,0.002,1.18,0.002c-0.009-0.398-0.086-0.767-0.196-1.128
			c-0.654-2.133-2.69-3.563-4.92-3.458c-2.356,0.111-4.3,1.863-4.648,4.193c-0.401,2.675,1.409,5.155,4.084,5.573
			c0.398,0.063,0.81,0.057,1.215,0.057c0.859,0,1.548,0.604,1.673,1.487c0.11,0.792-0.427,1.607-1.223,1.796
			c-0.311,0.073-0.644,0.085-0.965,0.074c-3.018-0.105-5.357-1.428-6.973-3.977c-0.937-1.477-1.314-3.117-1.187-4.86
			C2.96,4.189,5.31,1.301,8.686,0.319c3.467-1.007,7.248,0.424,9.187,3.473c0.777,1.221,1.221,2.547,1.315,3.99
			C19.191,7.831,19.197,7.879,19.203,7.946z"/>
	</g>
</g>
</svg>
