<?xml version="1.0" encoding="utf-8"?>
<!-- Generator: Adobe Illustrator 16.0.2, SVG Export Plug-In . SVG Version: 6.00 Build 0)  -->
<!DOCTYPE svg PUBLIC "-//W3C//DTD SVG 1.1//EN" "http://www.w3.org/Graphics/SVG/1.1/DTD/svg11.dtd">
<svg version="1.1" id="Слой_1" xmlns="http://www.w3.org/2000/svg" xmlns:xlink="http://www.w3.org/1999/xlink" x="0px" y="0px"
	 width="17.323px" height="17.22px" viewBox="16.63 -35.657 17.323 17.22" enable-background="new 16.63 -35.657 17.323 17.22"
	 xml:space="preserve">
<g>
	<g>
		<path fill-rule="evenodd" clip-rule="evenodd" fill="#394A6E" d="M16.742-29.617c0-1.102-0.002-2.204,0-3.307
			c0.002-1.302,0.865-2.356,2.139-2.607c0.175-0.035,0.357-0.045,0.537-0.045c2.189-0.002,4.381-0.002,6.57-0.002
			c1.527,0.001,2.672,1.137,2.682,2.665c0.004,0.762,0.002,1.522-0.002,2.285c0,0.106,0.032,0.143,0.137,0.164
			c2.535,0.509,4.211,1.997,4.884,4.492c0.878,3.255-1.2,6.61-4.495,7.377c-3.373,0.785-6.738-1.441-7.326-4.854
			c-0.029-0.166-0.082-0.207-0.243-0.206c-0.842,0.004-1.685,0.022-2.525-0.02c-1.15-0.057-2.183-1.059-2.325-2.201
			c-0.02-0.16-0.029-0.319-0.029-0.479C16.74-27.443,16.742-28.531,16.742-29.617z M26.992-30.518c0-0.037,0-0.086,0-0.136
			c0-0.747,0.001-1.494,0-2.24c-0.001-0.618-0.387-1.004-1.004-1.004c-2.18-0.001-4.359-0.001-6.539,0
			c-0.654,0-1.027,0.371-1.027,1.023c0,2.18,0,4.359,0,6.538c0,0.626,0.385,1.007,1.016,1.008c0.742,0.001,1.482,0,2.225,0
			c0.053,0,0.105,0,0.14,0C22.405-28.204,24.127-29.922,26.992-30.518z M28.49-25.17c0-0.078,0-0.137,0-0.196
			c0-0.742-0.002-1.483,0-2.226c0-0.192-0.047-0.366-0.18-0.511c-0.186-0.205-0.471-0.275-0.727-0.178
			c-0.268,0.101-0.432,0.338-0.434,0.641c-0.001,1.013,0,2.025,0,3.037c0,0.509,0.26,0.771,0.766,0.772c0.792,0,1.584,0,2.376-0.001
			c0.064,0,0.13-0.003,0.194-0.012c0.307-0.048,0.529-0.286,0.563-0.6c0.031-0.29-0.154-0.587-0.438-0.682
			c-0.093-0.03-0.196-0.043-0.295-0.043C29.715-25.172,29.115-25.17,28.49-25.17z"/>
	</g>
</g>
</svg>
