<?xml version="1.0" encoding="utf-8"?>
<!-- Generator: Adobe Illustrator 16.0.2, SVG Export Plug-In . SVG Version: 6.00 Build 0)  -->
<!DOCTYPE svg PUBLIC "-//W3C//DTD SVG 1.1//EN" "http://www.w3.org/Graphics/SVG/1.1/DTD/svg11.dtd">
<svg version="1.1" id="Слой_1" xmlns="http://www.w3.org/2000/svg" xmlns:xlink="http://www.w3.org/1999/xlink" x="0px" y="0px"
	 width="16.125px" height="16.031px" viewBox="17.984 -34.344 16.125 16.031" enable-background="new 17.984 -34.344 16.125 16.031"
	 xml:space="preserve">
<path fill-rule="evenodd" clip-rule="evenodd" fill="#C4CAD5" d="M26.016-34.312c-4.384,0-7.938,3.554-7.938,7.938
	s3.554,7.938,7.938,7.938s7.938-3.554,7.938-7.938S30.399-34.312,26.016-34.312z M29.503-22.606
	c-0.586,0.586-1.582,0.539-2.227-0.104l-1.198-1.199l-1.198,1.199c-0.645,0.644-1.641,0.69-2.227,0.104s-0.539-1.582,0.104-2.226
	l1.199-1.199l-1.198-1.198c-0.645-0.645-0.691-1.641-0.105-2.227s1.582-0.539,2.227,0.105l1.198,1.198l1.198-1.198
	c0.645-0.645,1.641-0.691,2.227-0.105s0.539,1.582-0.105,2.227l-1.198,1.198l1.199,1.199C30.042-24.188,30.089-23.192,29.503-22.606
	z"/>
</svg>
