<?xml version="1.0" encoding="utf-8"?>
<!-- Generator: Adobe Illustrator 16.0.0, SVG Export Plug-In . SVG Version: 6.00 Build 0)  -->
<!DOCTYPE svg PUBLIC "-//W3C//DTD SVG 1.1//EN" "http://www.w3.org/Graphics/SVG/1.1/DTD/svg11.dtd">
<svg version="1.1" id="Слой_1" xmlns="http://www.w3.org/2000/svg" xmlns:xlink="http://www.w3.org/1999/xlink" x="0px" y="0px"
	 width="17.656px" height="17.594px" viewBox="0 0 17.656 17.594" enable-background="new 0 0 17.656 17.594" xml:space="preserve">
<g>
	
		<linearGradient id="SVGID_1_" gradientUnits="userSpaceOnUse" x1="110.115" y1="-154.9365" x2="110.115" y2="-172.3662" gradientTransform="matrix(1 0 0 -1 -85 -190.9063)">
		<stop  offset="0" style="stop-color:#3CCFBC"/>
		<stop  offset="1" style="stop-color:#219BA5"/>
	</linearGradient>
	<path fill="url(#SVGID_1_)" d="M16.401-27.265c0.009-4.816,3.926-8.722,8.731-8.705c4.813,0.017,8.706,3.922,8.697,8.724
		c-0.01,4.816-3.93,8.725-8.731,8.706C20.283-18.559,16.393-22.462,16.401-27.265z M25.108-26.229c-1.354,0-2.709,0.019-4.063-0.007
		c-0.707-0.013-0.737,0.267-0.688,0.779c0.136,1.358,0.729,2.488,1.738,3.393c1.063,0.953,2.303,1.411,3.737,1.16
		c2.188-0.383,4.01-2.552,4.052-4.788c0.008-0.383-0.143-0.536-0.525-0.536C27.943-26.229,26.526-26.228,25.108-26.229z
		 M21.953-27.428c0.356,0,0.714,0.001,1.071,0c0.414-0.002,0.711-0.28,0.707-0.662c-0.002-0.376-0.297-0.65-0.701-0.651
		c-0.721-0.002-1.44-0.002-2.16,0c-0.403,0.001-0.697,0.278-0.699,0.653c-0.002,0.376,0.293,0.657,0.693,0.66
		C21.228-27.427,21.591-27.428,21.953-27.428z M28.386-28.742c-0.369,0-0.737-0.003-1.105,0c-0.388,0.004-0.678,0.29-0.677,0.659
		s0.292,0.652,0.682,0.653c0.731,0.003,1.464,0.003,2.194,0c0.391-0.001,0.682-0.281,0.686-0.65c0.002-0.376-0.291-0.659-0.69-0.662
		C29.111-28.745,28.749-28.742,28.386-28.742z"/>
</g>
</svg>
