<?xml version="1.0" encoding="utf-8"?>
<!-- Generator: Adobe Illustrator 16.0.2, SVG Export Plug-In . SVG Version: 6.00 Build 0)  -->
<!DOCTYPE svg PUBLIC "-//W3C//DTD SVG 1.1//EN" "http://www.w3.org/Graphics/SVG/1.1/DTD/svg11.dtd">
<svg version="1.1" id="Слой_1" xmlns="http://www.w3.org/2000/svg" xmlns:xlink="http://www.w3.org/1999/xlink" x="0px" y="0px"
	 width="51.5px" height="50.75px" viewBox="0 0 51.5 50.75" enable-background="new 0 0 51.5 50.75" xml:space="preserve">
<path fill-rule="evenodd" clip-rule="evenodd" fill="#959EB5" d="M50.833,45.5c0,2.761-2.239,5-5,5H5.5c-2.762,0-5-2.239-5-5V5.333
	c0-2.761,2.238-5,5-5h40.333c2.761,0,5,2.239,5,5V45.5z"/>
<g>
	<g>
		<path fill-rule="evenodd" clip-rule="evenodd" fill="#FFFFFF" d="M26.136,44.054C15.846,44.06,7.447,35.664,7.447,25.373
			c0-10.293,8.395-18.684,18.688-18.68c10.29,0.004,18.682,8.408,18.671,18.698C44.796,35.668,36.411,44.049,26.136,44.054z
			 M17.97,23.011c0.077,2.204,0.812,4.417,1.97,6.5c0.835,1.502,1.863,2.85,3.303,3.832c1.537,1.048,3.187,1.332,4.889,0.484
			c0.712-0.354,1.387-0.845,1.965-1.393c1.648-1.557,2.69-3.509,3.428-5.631c0.566-1.634,0.917-3.31,0.696-5.046
			c-0.558-4.388-4.392-7.477-8.801-7.118C21.205,14.982,17.912,18.594,17.97,23.011z M14.4,36.951
			c6.536,6.752,17.415,6.384,23.488-0.058c-0.429-0.399-0.83-0.836-1.293-1.191c-1.422-1.09-3.074-1.687-4.792-2.12
			c-0.108-0.028-0.271,0.05-0.372,0.126c-0.575,0.437-1.107,0.939-1.713,1.325c-1.659,1.055-3.457,1.373-5.369,0.829
			c-1.354-0.386-2.477-1.165-3.492-2.117c-0.104-0.098-0.303-0.187-0.428-0.156c-1.48,0.365-2.904,0.88-4.199,1.706
			C15.533,35.738,14.9,36.254,14.4,36.951z"/>
	</g>
</g>
</svg>
