<?xml version="1.0" encoding="utf-8"?>
<!-- Generator: Adobe Illustrator 16.0.0, SVG Export Plug-In . SVG Version: 6.00 Build 0)  -->
<!DOCTYPE svg PUBLIC "-//W3C//DTD SVG 1.1//EN" "http://www.w3.org/Graphics/SVG/1.1/DTD/svg11.dtd">
<svg version="1.1" id="Layer_1" xmlns="http://www.w3.org/2000/svg" xmlns:xlink="http://www.w3.org/1999/xlink" x="0px" y="0px"
	 width="268.457px" height="168.029px" viewBox="0 0 268.457 168.029" enable-background="new 0 0 268.457 168.029"
	 xml:space="preserve">
<g>
	<g>
		<g>
			<g>
				<path fill="#3D4859" d="M161.333,73.758c-16.824,16.914-44.272,16.986-61.186,0.16c-16.913-16.824-16.985-44.273-0.161-61.187
					c16.825-16.913,44.274-16.985,61.187-0.159C178.087,29.398,178.158,56.846,161.333,73.758z M106.733,19.441
					c-13.126,13.193-13.069,34.606,0.125,47.731s34.605,13.068,47.73-0.125s13.069-34.604-0.125-47.729
					C141.27,6.193,119.857,6.248,106.733,19.441z"/>
			</g>
		</g>
		<path fill="#3D4859" d="M188.738,82.15L188.738,82.15c-2.051,3.125-4.981,4.827-6.543,3.802l-20.928-13.737
			c-1.563-1.025-1.166-4.391,0.885-7.517l0,0c2.053-3.125,4.982-4.828,6.545-3.802l20.927,13.736
			C191.188,75.658,190.791,79.024,188.738,82.15z"/>
		
			<radialGradient id="SVGID_1_" cx="215.6602" cy="-83.717" r="30.1782" gradientTransform="matrix(1 0 0 -1 -85 -40.4712)" gradientUnits="userSpaceOnUse">
			<stop  offset="0" style="stop-color:#6BC9CA"/>
			<stop  offset="0.2435" style="stop-color:#67C4C6"/>
			<stop  offset="0.5201" style="stop-color:#59BABD"/>
			<stop  offset="0.8118" style="stop-color:#3DABAF"/>
			<stop  offset="1" style="stop-color:#17A0A5"/>
		</radialGradient>
		<circle fill="url(#SVGID_1_)" cx="130.661" cy="43.246" r="30.178"/>
		<g>
			<path fill="#FFFFFF" d="M129.887,75.99h0.88c0.908,0,1.645-0.736,1.645-1.646V23.278c0-0.908-0.737-1.646-1.645-1.646h-0.88
				c-0.908,0-1.645,0.737-1.645,1.646v51.066C128.242,75.254,128.979,75.99,129.887,75.99z"/>
			<path fill="#FFFFFF" d="M142.133,25.422l-27.32,4.101c-0.945,0.143-1.685,0.881-1.838,1.824
				c-0.427,2.612-0.266,5.269,0.369,7.961c0.225,0.953,1.084,1.625,2.064,1.65l27.715,0.706c0.693,0.019,1.352-0.293,1.779-0.839
				l4.809-6.156c0.67-0.857,0.605-2.079-0.148-2.862l-5.529-5.739C143.54,25.558,142.833,25.317,142.133,25.422z"/>
			<path fill="#FFFFFF" d="M117.229,45.673l27.162,0.966c1.121,0.041,2.082,0.827,2.33,1.922c0.516,2.267,0.668,4.693,0.488,7.269
				c-0.081,1.171-0.968,2.13-2.131,2.293l-26.999,3.776c-0.778,0.108-1.561-0.157-2.111-0.717l-5.194-5.288
				c-0.864-0.88-0.949-2.264-0.198-3.241l4.598-6.008C115.661,46.007,116.428,45.645,117.229,45.673z"/>
		</g>
	</g>
	<g>
		<path fill="#3D4859" d="M15.894,105.101H1.397c-0.379,0-0.707,0.137-0.982,0.414C0.139,105.792,0,106.12,0,106.499v1.656
			c0,0.379,0.139,0.707,0.415,0.983c0.275,0.276,0.603,0.414,0.982,0.414h2.745v20.659H1.397c-0.379,0-0.707,0.139-0.982,0.413
			C0.139,130.903,0,131.231,0,131.61v1.658c0,0.38,0.139,0.708,0.415,0.983c0.275,0.276,0.603,0.413,0.982,0.413h6.058
			c0.379,0,0.708-0.137,0.984-0.413c0.277-0.276,0.416-0.604,0.416-0.983v-23.714h6.781c2.591,0,4.645,0.76,6.164,2.278
			c1.517,1.52,2.278,3.573,2.278,6.161v15.274c0,0.38,0.136,0.708,0.413,0.983c0.277,0.276,0.605,0.413,0.984,0.413h1.917
			c0.379,0,0.705-0.137,0.981-0.413c0.277-0.276,0.416-0.604,0.416-0.983v-15.534c0-3.969-1.139-7.067-3.417-9.294
			C23.094,106.213,19.933,105.101,15.894,105.101z"/>
		<path fill="#3D4859" d="M39.765,105.101h-1.917c-0.379,0-0.707,0.137-0.983,0.414c-0.277,0.276-0.413,0.604-0.413,0.983v26.77
			c0,0.38,0.136,0.708,0.413,0.983c0.276,0.276,0.604,0.413,0.983,0.413h1.917c0.379,0,0.708-0.137,0.984-0.413
			c0.274-0.276,0.413-0.604,0.413-0.983v-26.77c0-0.379-0.139-0.708-0.413-0.983C40.472,105.238,40.144,105.101,39.765,105.101z"/>
		<path fill="#3D4859" d="M67.154,105.101H50.69v-5.801c0-0.38-0.139-0.708-0.416-0.983s-0.605-0.414-0.984-0.414h-1.914
			c-0.381,0-0.708,0.138-0.984,0.414c-0.276,0.275-0.415,0.604-0.415,0.983v8.854c0,0.379,0.139,0.707,0.415,0.983
			c0.277,0.276,0.603,0.414,0.984,0.414h16.463v16.103c0,0.656-0.059,1.295-0.179,1.916c-0.123,0.622-0.338,1.166-0.648,1.632
			c-0.311,0.467-0.751,0.838-1.321,1.114c-0.568,0.276-1.304,0.414-2.201,0.414h-1.604c-0.38,0-0.708,0.139-0.984,0.414
			c-0.277,0.276-0.413,0.604-0.413,0.983v1.657c0,0.38,0.136,0.708,0.413,0.984c0.276,0.275,0.604,0.414,0.984,0.414h2.38
			c2.865,0,4.962-0.863,6.292-2.59c1.328-1.726,1.995-4.123,1.995-7.196V106.5c0-0.379-0.139-0.708-0.416-0.983
			C67.862,105.238,67.534,105.101,67.154,105.101z"/>
		<path fill="#3D4859" d="M100.085,105.101H77.717c-0.379,0-0.707,0.137-0.983,0.414c-0.277,0.276-0.413,0.604-0.413,0.983v1.656
			c0,0.379,0.136,0.707,0.413,0.983c0.276,0.276,0.604,0.414,0.983,0.414h19.055v16.312c0,3.244-1.641,4.866-4.918,4.866H89.16
			c-0.379,0-0.708,0.139-0.984,0.414c-0.277,0.276-0.412,0.604-0.412,0.983v1.657c0,0.38,0.135,0.708,0.412,0.984
			c0.276,0.275,0.605,0.414,0.984,0.414h2.952c3.07,0,5.4-0.759,6.989-2.278c1.588-1.52,2.383-3.781,2.383-6.783v-19.623
			c0-0.379-0.139-0.708-0.416-0.983C100.793,105.238,100.466,105.101,100.085,105.101z"/>
		<path fill="#3D4859" d="M79.634,111.987h-1.917c-0.379,0-0.707,0.138-0.983,0.414c-0.277,0.276-0.413,0.604-0.413,0.983v26.239
			c0,0.379,0.136,0.708,0.413,0.982c0.276,0.276,0.604,0.416,0.983,0.416h1.917c0.379,0,0.708-0.14,0.984-0.416
			c0.274-0.275,0.412-0.604,0.412-0.982v-26.239c0-0.379-0.138-0.707-0.412-0.983C80.342,112.125,80.014,111.987,79.634,111.987z"/>
		<path fill="#3D4859" d="M131.047,130.212h-1.71v-12.427c0-1.967-0.301-3.735-0.904-5.306c-0.605-1.571-1.469-2.9-2.588-3.988
			c-1.123-1.086-2.487-1.923-4.091-2.51c-1.606-0.587-3.394-0.88-5.358-0.88h-7.199c-0.38,0-0.707,0.137-0.984,0.414
			c-0.277,0.276-0.413,0.604-0.413,0.983v1.656c0,0.379,0.136,0.707,0.413,0.983s0.604,0.414,0.984,0.414h6.94
			c2.622,0,4.693,0.761,6.212,2.279c1.517,1.52,2.278,3.59,2.278,6.212v12.168h-15.948c-0.379,0-0.708,0.139-0.984,0.413
			c-0.277,0.277-0.413,0.605-0.413,0.984v1.658c0,0.38,0.136,0.708,0.413,0.983c0.277,0.276,0.605,0.413,0.984,0.413h22.368
			c0.38,0,0.708-0.137,0.984-0.413c0.276-0.276,0.414-0.604,0.414-0.983v-1.658c0-0.379-0.138-0.707-0.414-0.984
			C131.755,130.351,131.427,130.212,131.047,130.212z"/>
		<path fill="#3D4859" d="M155.583,105.101h-14.497c-0.348,0-0.646,0.12-0.904,0.361c-0.26,0.241-0.391,0.553-0.391,0.932v4.453
			c0,0.345,0.131,0.646,0.391,0.905c0.258,0.26,0.557,0.389,0.904,0.389h3.105c-0.551,2.21-0.828,4.763-0.828,7.664v8.13h-4.191
			c-0.347,0-0.648,0.122-0.906,0.361c-0.261,0.242-0.389,0.554-0.389,0.933v4.09c0,0.345,0.128,0.647,0.389,0.907
			c0.258,0.258,0.561,0.388,0.906,0.388l11.027,0.051c0.379,0,0.689-0.129,0.933-0.388c0.241-0.259,0.361-0.563,0.361-0.907
			l-0.415-13.617c0-1.554,0.063-2.917,0.182-4.09c0.121-1.174,0.336-2.348,0.648-3.521h3.365c3.898,0,5.851,1.969,5.851,5.902
			v15.326c0,0.38,0.119,0.691,0.36,0.933c0.242,0.241,0.554,0.362,0.933,0.362h6.161c0.379,0,0.689-0.129,0.934-0.388
			c0.24-0.259,0.36-0.563,0.36-0.907v-15.585c0-4.349-1.199-7.551-3.599-9.604C163.876,106.128,160.313,105.101,155.583,105.101z"/>
		<path fill="#3D4859" d="M183.493,105.101h-6.474c-0.347,0-0.646,0.12-0.906,0.361c-0.258,0.241-0.389,0.553-0.389,0.932v26.976
			c0,0.345,0.131,0.647,0.389,0.907c0.261,0.258,0.561,0.388,0.906,0.388h6.474c0.379,0,0.696-0.121,0.956-0.362
			c0.259-0.24,0.389-0.552,0.389-0.933v-26.976c0-0.379-0.13-0.69-0.389-0.932C184.189,105.221,183.872,105.101,183.493,105.101z"/>
		<path fill="#3D4859" d="M199.438,105.101h-8.181c-0.346,0-0.646,0.12-0.903,0.361c-0.26,0.241-0.391,0.553-0.391,0.932v4.453
			c0,0.345,0.131,0.646,0.391,0.905c0.258,0.26,0.559,0.389,0.903,0.389h7.87c3.9,0,5.852,1.969,5.852,5.902v15.326
			c0,0.38,0.131,0.691,0.39,0.933c0.26,0.241,0.577,0.362,0.956,0.362h6.109c0.379,0,0.692-0.129,0.935-0.388
			c0.239-0.259,0.36-0.563,0.36-0.907v-15.637c0-4.487-1.181-7.715-3.545-9.683C207.818,106.083,204.236,105.101,199.438,105.101z"
			/>
		<path fill="#3D4859" d="M227.141,105.101h-6.474c-0.347,0-0.647,0.12-0.905,0.361c-0.259,0.241-0.389,0.553-0.389,0.932v14.705
			c0,0.346,0.13,0.647,0.389,0.906c0.258,0.26,0.559,0.39,0.905,0.39h6.474c0.379,0,0.696-0.121,0.955-0.363
			c0.26-0.241,0.391-0.553,0.391-0.933v-14.705c0-0.379-0.131-0.69-0.391-0.932S227.52,105.101,227.141,105.101z"/>
		<path fill="#3D4859" d="M268.093,105.463c-0.241-0.241-0.551-0.361-0.93-0.361h-5.438c-0.379,0-0.697,0.12-0.957,0.361
			c-0.258,0.241-0.389,0.553-0.389,0.932V119.7c0,1.589-0.398,3.022-1.191,4.298c-0.795,1.277-1.89,2.278-3.285,3.003
			c-1.399,0.725-2.979,1.086-4.739,1.086h-1.243c-1.346,0-2.545-0.292-3.598-0.88c-1.055-0.585-1.907-1.432-2.563-2.538
			c3.728-0.379,6.609-1.708,8.646-3.985c2.037-2.278,3.056-5.385,3.056-9.319v-4.867c0-0.379-0.131-0.708-0.39-0.983
			c-0.26-0.276-0.562-0.414-0.904-0.414h-5.438c-0.379,0-0.689,0.128-0.932,0.388c-0.244,0.258-0.363,0.594-0.363,1.01v4.762
			c0,2.349-0.379,4.152-1.139,5.412c-0.761,1.26-2.07,1.978-3.938,2.149l-0.051-12.427c0-0.379-0.127-0.69-0.388-0.932
			c-0.258-0.242-0.579-0.361-0.958-0.361h-5.438c-0.344,0-0.646,0.119-0.905,0.361c-0.259,0.241-0.388,0.553-0.388,0.932v16.672
			c0,2.209,0.545,4.229,1.631,6.057c1.087,1.832,2.666,3.281,4.736,4.352c2.074,1.068,4.488,1.604,7.25,1.604h4.918
			c2.934,0.035,5.592-0.568,7.976-1.811c2.381-1.244,4.262-3.013,5.643-5.309c1.38-2.296,2.071-4.962,2.071-8v-13.564
			C268.457,106.015,268.335,105.705,268.093,105.463z"/>
	</g>
	<g>
		<path fill="#17A0A5" d="M48.957,153.267h-3.354c-0.143,0-0.263,0.048-0.361,0.138c-0.1,0.093-0.15,0.216-0.15,0.373v1.252
			c0,0.141,0.05,0.263,0.15,0.36c0.099,0.101,0.219,0.149,0.361,0.149h3.248c2.012,0,3.017,1.005,3.017,3.017v8.962
			c0,0.141,0.048,0.26,0.147,0.36c0.1,0.1,0.22,0.148,0.361,0.148h1.72c0.158,0,0.281-0.046,0.373-0.137
			c0.092-0.095,0.138-0.218,0.138-0.372v-9.07c0-1.813-0.466-3.129-1.402-3.949C52.271,153.677,50.856,153.267,48.957,153.267z"/>
		<path fill="#17A0A5" d="M60.531,153.267h-3.1c-0.142,0-0.264,0.048-0.36,0.138c-0.101,0.093-0.15,0.216-0.15,0.373v1.252
			c0,0.141,0.049,0.263,0.15,0.36c0.097,0.101,0.219,0.149,0.36,0.149h2.994c2.012,0,3.017,1.005,3.017,3.017v6.328
			c0,0.142,0.049,0.261,0.148,0.361c0.099,0.099,0.219,0.148,0.362,0.148h1.72c0.142,0,0.262-0.051,0.362-0.148
			c0.099-0.101,0.147-0.22,0.147-0.361v-6.437c0-1.783-0.466-3.092-1.401-3.928C63.846,153.685,62.429,153.267,60.531,153.267z"/>
		<path fill="#17A0A5" d="M77.714,153.267h-9.302c-0.141,0-0.263,0.048-0.36,0.138c-0.1,0.093-0.15,0.216-0.15,0.373v1.252
			c0,0.141,0.05,0.263,0.15,0.36c0.097,0.101,0.219,0.149,0.36,0.149h5.352c-0.325,0.439-0.488,1.225-0.488,2.358v7.028
			c0,0.144,0.043,0.257,0.128,0.34c0.084,0.086,0.196,0.129,0.339,0.129h1.699c0.141,0,0.27-0.046,0.383-0.139
			c0.113-0.093,0.169-0.202,0.169-0.33v-6.838c0-0.552,0.049-1.055,0.148-1.508c0.099-0.454,0.242-0.801,0.424-1.041h1.147
			c0.142,0,0.263-0.05,0.363-0.149c0.097-0.098,0.147-0.22,0.147-0.36v-1.252c0-0.144-0.05-0.263-0.147-0.362
			C77.977,153.318,77.856,153.267,77.714,153.267z"/>
		<path fill="#17A0A5" d="M85.508,153.267h-4.501c-0.143,0-0.263,0.048-0.361,0.138c-0.1,0.093-0.148,0.216-0.148,0.373v1.252
			c0,0.141,0.048,0.263,0.148,0.36c0.099,0.101,0.219,0.149,0.361,0.149h4.396c2.01,0,3.017,1.005,3.017,3.017v6.328
			c0,0.142,0.049,0.261,0.147,0.361c0.099,0.099,0.219,0.148,0.362,0.148h1.72c0.157,0,0.281-0.051,0.372-0.148
			c0.093-0.101,0.137-0.22,0.137-0.361v-6.351C91.157,155.023,89.275,153.267,85.508,153.267z"/>
		<path fill="#17A0A5" d="M82.705,157.707h-1.699c-0.143,0-0.263,0.046-0.361,0.139c-0.1,0.093-0.148,0.217-0.148,0.371v6.671
			c0,0.141,0.048,0.26,0.148,0.36c0.099,0.1,0.219,0.148,0.361,0.148h1.699c0.156,0,0.283-0.05,0.383-0.148
			c0.099-0.101,0.147-0.22,0.147-0.36v-6.671c0-0.141-0.049-0.261-0.147-0.36C82.988,157.756,82.861,157.707,82.705,157.707z"/>
		<path fill="#17A0A5" d="M102.139,153.267h-0.424h-1.042v-1.21c0-0.155-0.045-0.278-0.137-0.371
			c-0.092-0.093-0.215-0.139-0.373-0.139h-1.571c-0.141,0-0.263,0.045-0.36,0.139c-0.101,0.093-0.149,0.216-0.149,0.371v3.059
			c0,0.143,0.045,0.258,0.137,0.351c0.092,0.092,0.217,0.138,0.372,0.138l2.399,0.021h0.065h0.574c0.75,0,1.334,0.1,1.751,0.299
			c0.419,0.197,0.716,0.521,0.892,0.965c0.178,0.446,0.266,1.061,0.266,1.838c0,1.133-0.222,1.997-0.669,2.591
			c-0.446,0.594-1.081,1.055-1.9,1.381l-0.764,0.296c-0.156,0.07-0.276,0.161-0.361,0.266c-0.085,0.106-0.127,0.223-0.127,0.35v1.55
			c0,0.157,0.055,0.284,0.168,0.383c0.114,0.1,0.242,0.129,0.383,0.085l0.872-0.274c1.515-0.453,2.761-1.225,3.739-2.316
			c0.976-1.09,1.464-2.534,1.464-4.331c0-1.897-0.396-3.276-1.189-4.142C105.359,153.699,104.021,153.267,102.139,153.267z"/>
		<path fill="#17A0A5" d="M117.611,154.648c-0.899-0.92-2.297-1.381-4.194-1.381h-3.165c-0.141,0-0.261,0.048-0.359,0.138
			c-0.101,0.093-0.15,0.216-0.15,0.373v1.337c0,0.143,0.05,0.263,0.15,0.361c0.098,0.099,0.218,0.147,0.359,0.147h3.059
			c1.996,0,3.037,1.012,3.123,3.038c0.014,0.169,0.021,0.389,0.021,0.658s-0.007,0.496-0.021,0.679
			c-0.058,0.992-0.337,1.747-0.84,2.264c-0.503,0.516-1.265,0.773-2.283,0.773h-3.059c-0.141,0-0.261,0.048-0.359,0.138
			c-0.101,0.095-0.15,0.218-0.15,0.372v1.339c0,0.142,0.05,0.261,0.15,0.361c0.098,0.099,0.218,0.148,0.359,0.148h3.165
			c1.896,0,3.294-0.46,4.194-1.381c0.899-0.92,1.385-2.244,1.456-3.972c0.014-0.185,0.021-0.425,0.021-0.723
			c0-0.282-0.007-0.518-0.021-0.7C118.996,156.894,118.51,155.569,117.611,154.648z"/>
		<path fill="#17A0A5" d="M129.089,153.267h-3.354c-0.143,0-0.263,0.048-0.362,0.138c-0.099,0.093-0.149,0.216-0.149,0.373v1.252
			c0,0.141,0.05,0.263,0.149,0.36c0.099,0.101,0.219,0.149,0.362,0.149h3.248c2.013,0,3.017,1.005,3.017,3.017v8.962
			c0,0.141,0.049,0.26,0.148,0.36c0.1,0.1,0.219,0.148,0.362,0.148h1.719c0.156,0,0.28-0.046,0.372-0.137
			c0.092-0.095,0.137-0.218,0.137-0.372v-9.07c0-1.813-0.466-3.129-1.402-3.949C132.403,153.677,130.988,153.267,129.089,153.267z"
			/>
		<path fill="#17A0A5" d="M140.665,153.267h-3.101c-0.142,0-0.263,0.048-0.36,0.138c-0.101,0.093-0.149,0.216-0.149,0.373v1.252
			c0,0.141,0.049,0.263,0.149,0.36c0.098,0.101,0.219,0.149,0.36,0.149h2.994c2.012,0,3.017,1.005,3.017,3.017v6.328
			c0,0.142,0.049,0.261,0.147,0.361c0.1,0.099,0.219,0.148,0.361,0.148h1.721c0.143,0,0.262-0.051,0.36-0.148
			c0.101-0.101,0.147-0.22,0.147-0.361v-6.437c0-1.783-0.465-3.092-1.4-3.928C143.98,153.685,142.564,153.267,140.665,153.267z"/>
		<path fill="#17A0A5" d="M151.432,153.267h-1.804c-0.144,0-0.263,0.048-0.362,0.138c-0.099,0.093-0.146,0.216-0.146,0.373v11.107
			c0,0.142,0.048,0.261,0.146,0.361c0.101,0.1,0.219,0.148,0.362,0.148h1.804c0.142,0,0.264-0.051,0.362-0.148
			c0.101-0.101,0.147-0.22,0.147-0.361v-11.107c0-0.144-0.049-0.263-0.147-0.362C151.693,153.318,151.573,153.267,151.432,153.267z"
			/>
		<path fill="#17A0A5" d="M162.71,161.104c0.978-0.608,1.64-1.268,1.985-1.975c0.347-0.708,0.521-1.528,0.521-2.463v-2.868
			c0-0.154-0.05-0.282-0.148-0.382c-0.098-0.098-0.227-0.148-0.383-0.148h-1.528c-0.142,0-0.261,0.051-0.361,0.148
			c-0.099,0.101-0.149,0.228-0.149,0.382v2.762c0,0.424-0.021,0.774-0.063,1.052c-0.043,0.276-0.156,0.552-0.34,0.827
			c-0.186,0.276-0.475,0.537-0.87,0.775l-3.929-5.544c-0.199-0.269-0.424-0.403-0.682-0.403h-1.72c-0.129,0-0.233,0.043-0.319,0.127
			c-0.084,0.085-0.127,0.19-0.127,0.318c0,0.114,0.043,0.229,0.127,0.34l2.082,2.953c-0.92,0.638-1.543,1.337-1.869,2.104
			c-0.326,0.764-0.487,1.712-0.487,2.845v2.91c0,0.156,0.049,0.282,0.147,0.383c0.098,0.1,0.219,0.148,0.362,0.148h1.442
			c0.156,0,0.281-0.051,0.371-0.148c0.094-0.101,0.141-0.227,0.141-0.383v-2.889c0-0.608,0.08-1.171,0.243-1.688
			c0.163-0.517,0.491-0.973,0.987-1.37l4.291,6.097c0.098,0.126,0.194,0.224,0.285,0.287c0.094,0.063,0.223,0.096,0.395,0.096h1.783
			c0.113,0,0.213-0.042,0.297-0.129c0.086-0.083,0.127-0.188,0.127-0.317s-0.043-0.242-0.127-0.34L162.71,161.104z"/>
		<path fill="#17A0A5" d="M170.975,153.267h-0.425h-1.042v-1.21c0-0.155-0.045-0.278-0.137-0.371s-0.217-0.139-0.372-0.139h-1.571
			c-0.141,0-0.263,0.045-0.361,0.139c-0.101,0.093-0.148,0.216-0.148,0.371v3.059c0,0.143,0.045,0.258,0.137,0.351
			c0.094,0.092,0.219,0.138,0.375,0.138l2.398,0.021h0.064h0.573c0.75,0,1.334,0.1,1.751,0.299c0.42,0.197,0.717,0.521,0.893,0.965
			c0.178,0.446,0.268,1.061,0.268,1.838c0,1.133-0.223,1.997-0.671,2.591c-0.444,0.594-1.079,1.055-1.899,1.381l-0.763,0.296
			c-0.157,0.07-0.276,0.161-0.362,0.266c-0.084,0.106-0.125,0.223-0.125,0.35v1.55c0,0.157,0.055,0.284,0.168,0.383
			c0.111,0.1,0.241,0.129,0.383,0.085l0.871-0.274c1.514-0.453,2.762-1.225,3.738-2.316c0.975-1.09,1.463-2.534,1.463-4.331
			c0-1.897-0.396-3.276-1.188-4.142C174.193,153.699,172.857,153.267,170.975,153.267z"/>
		<path fill="#17A0A5" d="M186.2,153.267h-3.354c-0.143,0-0.263,0.048-0.361,0.138c-0.099,0.093-0.149,0.216-0.149,0.373v1.252
			c0,0.141,0.051,0.263,0.149,0.36c0.099,0.101,0.219,0.149,0.361,0.149h3.248c2.012,0,3.018,1.005,3.018,3.017v8.962
			c0,0.141,0.049,0.26,0.147,0.36c0.099,0.1,0.22,0.148,0.362,0.148h1.72c0.156,0,0.279-0.046,0.372-0.137
			c0.092-0.095,0.137-0.218,0.137-0.372v-9.07c0-1.813-0.465-3.129-1.4-3.949C189.516,153.677,188.1,153.267,186.2,153.267z"/>
		<path fill="#17A0A5" d="M200.771,153.267h-5.248c-0.143,0-0.262,0.048-0.361,0.138c-0.1,0.093-0.146,0.216-0.146,0.373v1.252
			c0,0.141,0.049,0.263,0.146,0.36c0.1,0.101,0.219,0.149,0.361,0.149h1.211c-0.157,0.636-0.26,1.235-0.308,1.793
			c-0.051,0.56-0.067,1.201-0.055,1.923v3.951l-1.677-0.022c-0.143,0-0.262,0.047-0.36,0.14c-0.099,0.091-0.149,0.215-0.149,0.372
			v1.167c0,0.141,0.051,0.263,0.149,0.362c0.099,0.099,0.22,0.147,0.36,0.147l3.738,0.021c0.155,0,0.279-0.051,0.373-0.148
			c0.09-0.101,0.137-0.22,0.137-0.361l-0.106-5.691c-0.014-0.695,0.006-1.318,0.063-1.87c0.057-0.552,0.156-1.146,0.298-1.783h1.444
			c2.024,0,3.037,1.005,3.037,3.017v6.328c0,0.142,0.047,0.261,0.147,0.361c0.099,0.1,0.22,0.148,0.36,0.148h1.699
			c0.158,0,0.281-0.051,0.372-0.148c0.093-0.101,0.138-0.22,0.138-0.361v-6.437c0-1.741-0.465-3.039-1.4-3.896
			C204.063,153.695,202.652,153.267,200.771,153.267z"/>
		<path fill="#17A0A5" d="M211.391,153.267h-1.806c-0.144,0-0.263,0.048-0.362,0.138c-0.1,0.093-0.148,0.216-0.148,0.373v6.139
			c0,0.14,0.049,0.26,0.148,0.36c0.1,0.099,0.219,0.147,0.362,0.147h1.806c0.141,0,0.26-0.049,0.359-0.147
			c0.1-0.101,0.148-0.221,0.148-0.36v-6.139c0-0.144-0.049-0.263-0.148-0.362C211.65,153.318,211.531,153.267,211.391,153.267z"/>
		<path fill="#17A0A5" d="M225.045,164.609l-2.484-3.505c0.978-0.608,1.638-1.268,1.985-1.975c0.347-0.708,0.521-1.528,0.521-2.463
			v-2.868c0-0.154-0.049-0.282-0.148-0.382c-0.1-0.098-0.229-0.148-0.383-0.148h-1.53c-0.14,0-0.261,0.051-0.36,0.148
			c-0.099,0.101-0.149,0.228-0.149,0.382v2.762c0,0.424-0.021,0.774-0.062,1.052c-0.045,0.276-0.158,0.552-0.342,0.827
			c-0.184,0.276-0.474,0.537-0.869,0.775l-3.931-5.544c-0.196-0.269-0.424-0.403-0.679-0.403h-1.721
			c-0.127,0-0.235,0.043-0.319,0.127c-0.084,0.085-0.127,0.19-0.127,0.318c0,0.114,0.043,0.229,0.127,0.34l2.081,2.953
			c-0.92,0.638-1.543,1.337-1.868,2.104c-0.326,0.764-0.489,1.712-0.489,2.845v2.91c0,0.156,0.049,0.282,0.148,0.383
			c0.099,0.1,0.219,0.148,0.361,0.148h1.443c0.156,0,0.28-0.051,0.372-0.148c0.093-0.101,0.14-0.227,0.14-0.383v-2.889
			c0-0.608,0.08-1.172,0.243-1.688c0.164-0.517,0.492-0.973,0.988-1.37l4.29,6.097c0.099,0.126,0.195,0.224,0.287,0.287
			c0.093,0.063,0.223,0.096,0.394,0.096h1.784c0.111,0,0.211-0.042,0.297-0.129c0.085-0.083,0.126-0.188,0.126-0.317
			S225.131,164.708,225.045,164.609z"/>
	</g>
</g>
</svg>
