<?xml version="1.0" encoding="utf-8"?>
<!-- Generator: Adobe Illustrator 16.0.2, SVG Export Plug-In . SVG Version: 6.00 Build 0)  -->
<!DOCTYPE svg PUBLIC "-//W3C//DTD SVG 1.1//EN" "http://www.w3.org/Graphics/SVG/1.1/DTD/svg11.dtd">
<svg version="1.1" id="Слой_1" xmlns="http://www.w3.org/2000/svg" xmlns:xlink="http://www.w3.org/1999/xlink" x="0px" y="0px"
	 width="46.833px" height="47.667px" viewBox="4.25 2.625 46.833 47.667" enable-background="new 4.25 2.625 46.833 47.667"
	 xml:space="preserve">
<circle fill="#293F6C" cx="27.957" cy="26.268" r="22.75"/>
<g>
	<path fill-rule="evenodd" clip-rule="evenodd" fill="#FFFFFF" d="M27.98,19.183c3.018,0,6.034,0,9.054,0
		c0.58,0,0.99,0.261,1.182,0.747c0.135,0.339,0.131,0.351-0.161,0.555c-3.026,2.118-6.054,4.235-9.08,6.352
		c-0.68,0.475-1.352,0.477-2.029,0.003c-3.063-2.143-6.128-4.288-9.194-6.427c-0.121-0.085-0.143-0.163-0.109-0.297
		c0.123-0.492,0.557-0.876,1.063-0.921c0.109-0.01,0.219-0.011,0.327-0.011C22.015,19.183,24.997,19.183,27.98,19.183z"/>
	<path fill-rule="evenodd" clip-rule="evenodd" fill="#FFFFFF" d="M18.304,33.228c2.299-2.129,4.6-4.26,6.906-6.395
		c0.38,0.269,0.75,0.529,1.119,0.791c1.098,0.778,2.207,0.779,3.305,0.003c0.328-0.231,0.661-0.458,0.982-0.7
		c0.112-0.083,0.175-0.067,0.271,0.023c1.967,1.842,3.939,3.678,5.909,5.518c0.272,0.252,0.544,0.507,0.815,0.762
		c-0.002,0.018-0.003,0.036-0.005,0.054c-0.205,0.023-0.411,0.066-0.616,0.066c-2.96,0.005-5.918,0.003-8.879,0.003
		c-3.051,0-6.102,0.002-9.152-0.003c-0.216,0-0.432-0.04-0.646-0.062C18.31,33.269,18.307,33.247,18.304,33.228z"/>
	<path fill-rule="evenodd" clip-rule="evenodd" fill="#FFFFFF" d="M24.338,26.269c-2.23,2.057-4.44,4.098-6.692,6.177
		c-0.014-0.144-0.032-0.245-0.032-0.349c-0.002-2.752-0.001-5.505-0.001-8.258c0-0.696,0-1.392,0-2.087c0-0.057,0-0.113,0-0.208
		C19.862,23.124,22.087,24.687,24.338,26.269z"/>
	<path fill-rule="evenodd" clip-rule="evenodd" fill="#FFFFFF" d="M31.578,26.269c2.243-1.576,4.468-3.14,6.713-4.716
		c0,3.625,0,7.228,0,10.865C36.051,30.365,33.826,28.327,31.578,26.269z"/>
</g>
</svg>
