<?xml version="1.0" encoding="utf-8"?>
<!-- Generator: Adobe Illustrator 16.0.2, SVG Export Plug-In . SVG Version: 6.00 Build 0)  -->
<!DOCTYPE svg PUBLIC "-//W3C//DTD SVG 1.1//EN" "http://www.w3.org/Graphics/SVG/1.1/DTD/svg11.dtd">
<svg version="1.1" id="Слой_1" xmlns="http://www.w3.org/2000/svg" xmlns:xlink="http://www.w3.org/1999/xlink" x="0px" y="0px"
	 width="20.646px" height="22.292px" viewBox="0.208 -3.646 20.646 22.292" enable-background="new 0.208 -3.646 20.646 22.292"
	 xml:space="preserve">
<g>
	<g>
		<path fill-rule="evenodd" clip-rule="evenodd" fill="#172C61" d="M1.73,3.794c-0.295,0-0.556,0.013-0.814-0.003
			C0.503,3.767,0.226,3.502,0.22,3.09c-0.015-0.991-0.016-1.983,0-2.975c0.007-0.481,0.315-0.718,0.878-0.719
			c2.271-0.002,4.54-0.001,6.81-0.001c0.143,0,0.284,0,0.473,0c-0.213-0.911-0.072-1.709,0.608-2.35
			c0.45-0.423,0.996-0.621,1.61-0.584c1.432,0.086,2.213,1.209,2.004,2.934c0.142,0,0.277,0,0.412,0c2.257,0,4.514,0,6.771,0
			c0.748,0,0.971,0.226,0.971,0.985c0.002,0.822,0.002,1.644,0,2.465c-0.001,0.72-0.235,0.948-0.969,0.95c-0.168,0-0.338,0-0.557,0
			c-0.068,0.645-0.139,1.274-0.201,1.904c-0.398,3.997-0.794,7.995-1.191,11.993c-0.053,0.527-0.311,0.785-0.836,0.785
			c-4.344,0.004-8.688,0.004-13.033,0c-0.541,0-0.787-0.258-0.842-0.818C2.68,13.144,2.232,8.627,1.783,4.11
			C1.774,4.021,1.753,3.933,1.73,3.794z M4.542,16.982c3.986,0,7.93,0,11.887,0c0.439-4.395,0.877-8.765,1.316-13.16
			c-4.85,0-9.666,0-14.52,0C3.666,8.216,4.103,12.585,4.542,16.982z M19.278,0.901c-5.884,0-11.728,0-17.571,0
			c0,0.482,0,0.932,0,1.392c5.871,0,11.714,0,17.571,0C19.278,1.819,19.278,1.377,19.278,0.901z M10.482-0.607
			c0.392,0.002,0.717-0.316,0.728-0.711c0.011-0.413-0.313-0.751-0.722-0.753c-0.395-0.001-0.717,0.314-0.727,0.709
			C9.75-0.947,10.074-0.608,10.482-0.607z"/>
		<path fill-rule="evenodd" clip-rule="evenodd" fill="#172C61" d="M14.881,7.575c-0.169,1.355-0.344,2.763-0.52,4.171
			c-0.066,0.53-0.132,1.06-0.201,1.589c-0.065,0.498-0.394,0.783-0.835,0.729c-0.435-0.053-0.689-0.414-0.627-0.914
			c0.233-1.899,0.469-3.799,0.711-5.697c0.063-0.484,0.388-0.773,0.797-0.739S14.896,7.082,14.881,7.575z"/>
		<path fill-rule="evenodd" clip-rule="evenodd" fill="#172C61" d="M8.285,13.259c0.006,0.453-0.272,0.773-0.668,0.809
			c-0.415,0.035-0.744-0.232-0.803-0.68c-0.188-1.473-0.369-2.946-0.553-4.419C6.203,8.504,6.134,8.04,6.095,7.573
			C6.054,7.117,6.32,6.788,6.73,6.741c0.398-0.045,0.75,0.193,0.807,0.622C7.798,9.337,8.04,11.315,8.285,13.259z"/>
		<path fill-rule="evenodd" clip-rule="evenodd" fill="#172C61" d="M9.749,10.405C9.75,9.479,9.746,8.553,9.75,7.626
			c0.003-0.568,0.289-0.901,0.754-0.89c0.445,0.011,0.717,0.338,0.717,0.888c0.003,1.878,0.005,3.755-0.002,5.634
			c-0.002,0.502-0.314,0.824-0.752,0.813c-0.422-0.01-0.7-0.324-0.717-0.811c-0.002-0.092-0.001-0.184-0.001-0.275
			C9.749,12.126,9.749,11.265,9.749,10.405z"/>
	</g>
</g>
</svg>
