<?xml version="1.0" encoding="utf-8"?>
<!-- Generator: Adobe Illustrator 16.0.2, SVG Export Plug-In . SVG Version: 6.00 Build 0)  -->
<!DOCTYPE svg PUBLIC "-//W3C//DTD SVG 1.1//EN" "http://www.w3.org/Graphics/SVG/1.1/DTD/svg11.dtd">
<svg version="1.1" id="Слой_1" xmlns="http://www.w3.org/2000/svg" xmlns:xlink="http://www.w3.org/1999/xlink" x="0px" y="0px"
	 width="17.329px" height="17.392px" viewBox="0 0 17.329 17.392" enable-background="new 0 0 17.329 17.392" xml:space="preserve">
<g>
	<path fill-rule="evenodd" clip-rule="evenodd" fill="#FFFFFF" d="M2.8,10.925c0.157-0.27,0.249-0.536,0.427-0.718
		c3.29-3.305,6.588-6.6,9.889-9.895c0.423-0.422,0.807-0.413,1.227,0.005c0.872,0.866,1.742,1.736,2.609,2.608
		c0.508,0.512,0.502,0.875-0.009,1.387c-3.246,3.246-6.493,6.493-9.739,9.739c-0.551,0.55-0.981,0.55-1.535-0.005
		c-0.819-0.818-1.645-1.631-2.452-2.462C3.049,11.413,2.952,11.173,2.8,10.925z"/>
	<path fill-rule="evenodd" clip-rule="evenodd" fill="#FFFFFF" d="M1.807,15.584c0.728-0.188,1.375-0.357,2.023-0.522
		c0.533-0.136,0.942,0.069,1.051,0.518c0.111,0.465-0.134,0.829-0.668,0.968c-1.036,0.27-2.072,0.538-3.11,0.795
		c-0.815,0.203-1.236-0.222-1.064-1.053c0.212-1.035,0.423-2.069,0.634-3.104c0.121-0.593,0.525-0.934,0.991-0.831
		c0.442,0.098,0.665,0.543,0.555,1.133C2.092,14.158,1.956,14.828,1.807,15.584z"/>
</g>
</svg>
