<?xml version="1.0" encoding="utf-8"?>
<!-- Generator: Adobe Illustrator 16.0.2, SVG Export Plug-In . SVG Version: 6.00 Build 0)  -->
<!DOCTYPE svg PUBLIC "-//W3C//DTD SVG 1.1//EN" "http://www.w3.org/Graphics/SVG/1.1/DTD/svg11.dtd">
<svg version="1.1" id="Слой_1" xmlns="http://www.w3.org/2000/svg" xmlns:xlink="http://www.w3.org/1999/xlink" x="0px" y="0px"
	 width="74.733px" height="54.687px" viewBox="0 0 74.733 54.687" enable-background="new 0 0 74.733 54.687" xml:space="preserve">
<g>
	<path fill-rule="evenodd" clip-rule="evenodd" fill="#FFFFFF" d="M68.78,42.111c0,2.542,0,5.007,0,7.557
		c1.198,0,2.35-0.011,3.502,0.003c1.275,0.016,2.287,0.877,2.429,2.042c0.169,1.387-0.604,2.589-1.885,2.905
		c-0.25,0.062-0.52,0.067-0.78,0.067c-23.118,0.002-46.238,0.003-69.356,0c-1.563,0-2.695-1.074-2.689-2.519
		c0.006-1.444,1.137-2.491,2.709-2.498c1.175-0.006,2.35-0.001,3.582-0.001c0-2.556,0-5.04,0-7.566
		c1.608-0.171,2.726-1.194,3.931-2.047c1.534-1.085,2.27-1.096,3.781-0.018c0.552,0.393,1.098,0.794,1.656,1.18
		c1.726,1.194,3.87,1.202,5.595,0.016c0.684-0.47,1.352-0.966,2.031-1.444c1.038-0.729,2.001-0.734,3.029-0.014
		c0.68,0.478,1.347,0.973,2.03,1.446c1.725,1.192,3.871,1.196,5.596,0.01c0.702-0.483,1.384-0.997,2.083-1.484
		c0.967-0.676,1.959-0.679,2.924-0.006c0.699,0.487,1.381,0.999,2.082,1.483c1.73,1.193,3.862,1.195,5.596,0.003
		c0.721-0.496,1.419-1.022,2.139-1.519c0.909-0.628,1.899-0.628,2.813,0c0.72,0.496,1.419,1.022,2.139,1.519
		c1.723,1.189,3.868,1.188,5.596-0.004c0.72-0.497,1.418-1.024,2.139-1.519c0.911-0.626,1.899-0.62,2.813,0.006
		c0.469,0.321,0.938,0.645,1.388,0.991C66.563,41.406,67.548,41.947,68.78,42.111z"/>
	<path fill-rule="evenodd" clip-rule="evenodd" fill="#FFFFFF" d="M5.815,39.468c0.045-2.194-0.181-4.209,0.401-6.18
		c1.229-4.163,4.992-6.948,9.442-6.952c9.494-0.01,18.987-0.004,28.482-0.004c4.878,0,9.756-0.014,14.634,0.005
		c4.718,0.018,8.668,3.186,9.526,7.806c0.316,1.699,0.215,3.476,0.312,5.401c-0.48-0.236-0.805-0.354-1.083-0.54
		c-0.652-0.438-1.282-0.912-1.924-1.367c-1.879-1.331-3.992-1.34-5.865-0.026c-0.626,0.439-1.244,0.891-1.87,1.331
		c-1.09,0.767-2.039,0.761-3.139-0.016c-0.624-0.442-1.243-0.892-1.871-1.331c-1.839-1.289-3.966-1.28-5.81,0.021
		c-0.644,0.454-1.277,0.919-1.922,1.372c-0.998,0.699-1.987,0.703-2.979,0.01c-0.681-0.476-1.349-0.972-2.03-1.446
		c-1.762-1.222-3.888-1.223-5.648-0.004c-0.701,0.486-1.384,0.997-2.085,1.481c-0.936,0.648-1.931,0.649-2.871,0
		c-0.701-0.484-1.383-0.999-2.084-1.484c-1.756-1.216-3.894-1.213-5.649,0.007c-0.7,0.487-1.382,0.999-2.084,1.483
		c-0.938,0.646-1.932,0.639-2.871-0.013c-0.7-0.486-1.383-0.997-2.085-1.481c-1.697-1.172-3.753-1.204-5.487-0.094
		c-0.773,0.495-1.536,1.006-2.318,1.487C6.633,39.122,6.289,39.246,5.815,39.468z"/>
	<path fill-rule="evenodd" clip-rule="evenodd" fill="#FFFFFF" d="M16.292,23.868c0-0.295,0-0.552,0-0.807
		c0-2.624-0.001-5.248,0.001-7.873c0.001-1.336,0.575-1.907,1.919-1.911c1.334-0.003,2.667-0.014,4.001,0.005
		c1.009,0.014,1.648,0.636,1.655,1.641c0.016,2.887,0.005,5.773,0.002,8.66c0,0.082-0.028,0.165-0.049,0.285
		C21.324,23.868,18.844,23.868,16.292,23.868z"/>
	<path fill-rule="evenodd" clip-rule="evenodd" fill="#FFFFFF" d="M41.191,23.882c-2.485,0-4.929,0-7.422,0
		c-0.018-0.209-0.047-0.396-0.047-0.584c-0.003-2.735-0.004-5.469,0-8.204c0.002-1.239,0.564-1.808,1.799-1.815
		c1.378-0.008,2.758-0.017,4.134,0.005c0.97,0.016,1.589,0.599,1.595,1.549c0.02,2.931,0.007,5.863,0.003,8.794
		C41.251,23.69,41.222,23.753,41.191,23.882z"/>
	<path fill-rule="evenodd" clip-rule="evenodd" fill="#FFFFFF" d="M58.519,23.882c-2.483,0-4.928,0-7.422,0
		c-0.019-0.208-0.048-0.396-0.049-0.583c-0.003-2.735-0.004-5.469-0.001-8.204c0.002-1.239,0.564-1.809,1.799-1.816
		c1.378-0.008,2.757-0.017,4.134,0.005c0.97,0.016,1.59,0.599,1.596,1.548c0.021,2.931,0.007,5.863,0.004,8.794
		C58.58,23.689,58.55,23.752,58.519,23.882z"/>
	<path fill-rule="evenodd" clip-rule="evenodd" fill="#FFFFFF" d="M52.52,11.327c-1.795-1.071-2.593-3.239-1.914-5.295
		c0.728-2.202,2.143-3.991,3.626-5.722c0.388-0.454,1.09-0.398,1.503,0.108c1.325,1.628,2.621,3.288,3.404,5.263
		c0.799,2.017-0.08,4.544-1.908,5.598c-0.34-0.721-0.653-1.457-1.029-2.159c-0.377-0.703-0.815-1.373-1.315-2.205
		C53.793,8.332,53.078,9.75,52.52,11.327z"/>
	<path fill-rule="evenodd" clip-rule="evenodd" fill="#FFFFFF" d="M39.891,11.266c-0.762-1.427-1.506-2.821-2.25-4.215
		c-0.086,0.002-0.172,0.005-0.26,0.007c-1,1.271-1.713,2.708-2.258,4.241c-1.674-0.888-2.568-3.14-1.957-5.118
		c0.254-0.825,0.631-1.639,1.097-2.366c0.74-1.156,1.578-2.254,2.417-3.342c0.461-0.597,1.174-0.63,1.634-0.071
		c1.318,1.606,2.596,3.253,3.39,5.198C42.543,7.652,41.745,10.042,39.891,11.266z"/>
	<path fill-rule="evenodd" clip-rule="evenodd" fill="#FFFFFF" d="M22.373,11.324c-0.537-1.563-1.33-2.947-2.319-4.371
		c-1.09,1.396-1.799,2.828-2.339,4.356c-1.757-1-2.603-3.296-1.908-5.332c0.74-2.169,2.137-3.946,3.605-5.661
		c0.376-0.439,1.065-0.421,1.456,0.051c1.407,1.704,2.787,3.44,3.542,5.554C25.093,7.837,24.194,10.198,22.373,11.324z"/>
</g>
</svg>
