<?xml version="1.0" encoding="utf-8"?>
<!-- Generator: Adobe Illustrator 16.0.2, SVG Export Plug-In . SVG Version: 6.00 Build 0)  -->
<!DOCTYPE svg PUBLIC "-//W3C//DTD SVG 1.1//EN" "http://www.w3.org/Graphics/SVG/1.1/DTD/svg11.dtd">
<svg version="1.1" id="Слой_1" xmlns="http://www.w3.org/2000/svg" xmlns:xlink="http://www.w3.org/1999/xlink" x="0px" y="0px"
	 width="71.402px" height="61.954px" viewBox="0 0 71.402 61.954" enable-background="new 0 0 71.402 61.954" xml:space="preserve">
<g>
	<g>
		<path fill-rule="evenodd" clip-rule="evenodd" fill="#FFFEFD" d="M16.64,19.001C16.642,8.505,25.152-0.003,35.649,0
			c10.499,0.002,19.003,8.511,19.002,19.009c-0.002,10.471-8.518,19.01-18.949,19.002C25.139,38.002,16.639,29.524,16.64,19.001z
			 M38.601,26.642c0-0.985,0-1.94,0-2.912c-0.366-0.021-0.678-0.038-1.052-0.059c0-2.983,0-5.907,0-8.837c-1.688,0-3.31,0-4.925,0
			c0,0.994,0,1.93,0,2.875c0.367,0.017,0.683,0.031,0.993,0.044c0,2.043,0,4.032,0,6.028c-0.364,0.018-0.679,0.034-0.996,0.049
			c0,0.97,0,1.886,0,2.858c1.885,0,3.723,0.001,5.562-0.002C38.318,26.687,38.456,26.659,38.601,26.642z M35.325,8.705
			c-1.217,0.005-2.087,0.921-2.078,2.188c0.009,1.202,0.951,2.153,2.147,2.168c1.201,0.015,2.206-0.982,2.205-2.188
			C37.596,9.638,36.612,8.7,35.325,8.705z"/>
		<path fill-rule="evenodd" clip-rule="evenodd" fill="#FFFEFD" d="M49.061,61.953c-1.761,0-3.521,0.001-5.282,0
			c-0.868-0.001-1.19-0.287-1.242-1.129c-0.168-2.745-0.378-5.489-0.479-8.237c-0.13-3.545,1.182-6.625,3.41-9.292
			c1.028-1.231,2.327-2.235,3.49-3.355c0.798-0.767,1.661-1.485,2.348-2.345c2.221-2.781,4.374-5.616,6.555-8.432
			c0.813-1.05,2.31-1.298,3.431-0.568c1.22,0.791,1.635,2.38,0.893,3.625c-1.419,2.378-2.872,4.735-4.313,7.102
			c-0.607,1.001-1.214,2.006-1.83,3.005c-0.248,0.404-0.352,0.815,0.078,1.129c0.46,0.334,0.84,0.101,1.134-0.305
			c2.813-3.889,5.447-7.883,7.485-12.246c0.72-1.541,0.526-3.209,0.731-4.824c0.368-2.886,0.795-5.764,1.206-8.643
			c0.04-0.276,0.144-0.548,0.238-0.813c0.442-1.243,1.335-1.854,2.463-1.693c1.146,0.163,2.046,1.178,2.023,2.442
			c-0.02,1.108-0.167,2.218-0.277,3.323c-0.425,4.226-0.856,8.451-1.291,12.676c-0.12,1.166-0.201,2.342-0.413,3.492
			c-0.353,1.914-1.315,3.53-2.563,5.015c-3.594,4.274-7.155,8.575-10.714,12.877c-0.162,0.196-0.248,0.504-0.261,0.765
			c-0.085,1.737-0.132,3.478-0.21,5.216c-0.039,0.866-0.347,1.157-1.208,1.162c-1.802,0.01-3.603,0.002-5.403,0.002
			C49.061,61.918,49.061,61.936,49.061,61.953z"/>
		<path fill-rule="evenodd" clip-rule="evenodd" fill="#FFFEFD" d="M22.319,61.901c-1.76,0-3.521,0.007-5.283-0.002
			c-0.982-0.003-1.268-0.273-1.3-1.255c-0.055-1.719-0.079-3.438-0.149-5.159c-0.011-0.273-0.137-0.594-0.313-0.807
			c-3.615-4.337-7.228-8.676-10.878-12.982c-1.736-2.051-2.482-4.417-2.711-7.057c-0.402-4.655-0.928-9.299-1.397-13.949
			c-0.107-1.066-0.229-2.133-0.283-3.203c-0.04-0.802,0.245-1.515,0.892-2.035c1.233-0.992,2.912-0.634,3.446,0.852
			c0.42,1.169,0.705,2.412,0.858,3.646c0.352,2.847,0.555,5.714,0.893,8.563c0.106,0.89,0.333,1.804,0.707,2.613
			c1.964,4.263,4.561,8.145,7.294,11.941c0.082,0.114,0.167,0.291,0.275,0.312c0.308,0.06,0.703,0.173,0.921,0.037
			c0.18-0.113,0.197-0.55,0.204-0.846c0.004-0.154-0.169-0.313-0.264-0.467c-1.987-3.266-3.975-6.53-5.959-9.797
			c-0.568-0.933-0.564-1.893-0.009-2.817c0.528-0.878,1.332-1.346,2.375-1.307c0.788,0.03,1.439,0.364,1.929,0.996
			c2.255,2.912,4.493,5.837,6.778,8.723c0.521,0.659,1.152,1.259,1.826,1.761c3.586,2.667,6.163,6.002,7.017,10.478
			c0.162,0.845,0.195,1.73,0.157,2.593c-0.118,2.627-0.303,5.251-0.454,7.877c-0.063,1.096-0.315,1.344-1.408,1.343
			c-1.721-0.002-3.441,0-5.162,0C22.319,61.937,22.319,61.919,22.319,61.901z"/>
		<path fill-rule="evenodd" clip-rule="evenodd" fill="#FFFEFD" d="M8.106,26.849c-0.163-1.682-0.28-3.335-0.492-4.976
			c-0.212-1.643-0.519-3.271-0.8-4.999c0.875,0.332,1.41,0.908,1.589,1.756c0.459,2.153,0.866,4.317,1.321,6.472
			c0.128,0.607,0.11,1.022-0.632,1.18C8.74,26.356,8.434,26.653,8.106,26.849z"/>
		<path fill-rule="evenodd" clip-rule="evenodd" fill="#FFFEFD" d="M63.25,26.8c-0.411-0.215-0.918-0.455-1.395-0.742
			c-0.106-0.063-0.178-0.313-0.149-0.455c0.472-2.417,0.935-4.836,1.459-7.243c0.158-0.727,0.692-1.205,1.33-1.423
			C64.083,20.22,63.666,23.518,63.25,26.8z"/>
		<path fill-rule="evenodd" clip-rule="evenodd" fill="#FFFEFD" d="M13.136,25.988c-0.545-0.105-1.019-0.195-1.415-0.271
			c-0.489-2.084-0.971-4.138-1.451-6.187c0.596,0.148,1.167,0.558,1.391,1.237c0.527,1.605,0.976,3.237,1.454,4.86
			C13.142,25.718,13.128,25.821,13.136,25.988z"/>
		<path fill-rule="evenodd" clip-rule="evenodd" fill="#FFFEFD" d="M59.675,25.791c-0.435,0.068-0.886,0.142-1.429,0.227
			c0.114-0.488,0.202-0.936,0.326-1.373c0.327-1.146,0.667-2.286,1.006-3.429c0.235-0.801,0.707-1.383,1.578-1.709
			C60.652,21.646,60.165,23.713,59.675,25.791z"/>
	</g>
</g>
</svg>
