<?xml version="1.0" encoding="utf-8"?>
<!-- Generator: Adobe Illustrator 16.0.0, SVG Export Plug-In . SVG Version: 6.00 Build 0)  -->
<!DOCTYPE svg PUBLIC "-//W3C//DTD SVG 1.1//EN" "http://www.w3.org/Graphics/SVG/1.1/DTD/svg11.dtd">
<svg version="1.1" id="Слой_1" xmlns="http://www.w3.org/2000/svg" xmlns:xlink="http://www.w3.org/1999/xlink" x="0px" y="0px"
	 width="17.682px" height="11.213px" viewBox="0 0 17.682 11.213" enable-background="new 0 0 17.682 11.213" xml:space="preserve">
<g>
	
		<linearGradient id="SVGID_1_" gradientUnits="userSpaceOnUse" x1="93.8411" y1="-198.3921" x2="93.8411" y2="-208.5005" gradientTransform="matrix(1 0 0 -1 -85 -197.2871)">
		<stop  offset="0" style="stop-color:#3CCFBC"/>
		<stop  offset="1" style="stop-color:#219BA5"/>
	</linearGradient>
	<path fill="url(#SVGID_1_)" d="M17.682,1.105c0,0.114,0,0.185,0,0.255c0,2.832,0.001,5.667,0,8.499
		c0,0.803-0.552,1.354-1.354,1.354c-4.988,0.002-9.978,0-14.966,0c-0.814,0-1.36-0.548-1.361-1.363c0-2.828,0-5.654,0-8.479
		c0-0.071,0-0.143,0-0.262C0.086,1.173,0.146,1.216,0.2,1.263c2.409,2.054,4.82,4.109,7.232,6.163
		c0.854,0.726,1.964,0.716,2.818-0.013c2.421-2.061,4.844-4.119,7.266-6.179C17.557,1.2,17.6,1.169,17.682,1.105z"/>
	
		<linearGradient id="SVGID_2_" gradientUnits="userSpaceOnUse" x1="93.8391" y1="-197.2871" x2="93.8391" y2="-203.9824" gradientTransform="matrix(1 0 0 -1 -85 -197.2871)">
		<stop  offset="0" style="stop-color:#3CCFBC"/>
		<stop  offset="1" style="stop-color:#219BA5"/>
	</linearGradient>
	<path fill="url(#SVGID_2_)" d="M0.798,0.066c0.204-0.025,0.356-0.063,0.509-0.063c5.024-0.004,10.049-0.004,15.073,0
		c0.15,0,0.301,0.038,0.501,0.065c-0.376,0.319-0.706,0.603-1.037,0.884c-2.152,1.832-4.305,3.664-6.458,5.495
		c-0.382,0.325-0.713,0.331-1.092,0.01c-2.45-2.083-4.899-4.168-7.349-6.251C0.911,0.177,0.878,0.142,0.798,0.066z"/>
</g>
</svg>
