<?xml version="1.0" encoding="utf-8"?>
<!-- Generator: Adobe Illustrator 16.0.0, SVG Export Plug-In . SVG Version: 6.00 Build 0)  -->
<!DOCTYPE svg PUBLIC "-//W3C//DTD SVG 1.1//EN" "http://www.w3.org/Graphics/SVG/1.1/DTD/svg11.dtd">
<svg version="1.1" id="Слой_1" xmlns="http://www.w3.org/2000/svg" xmlns:xlink="http://www.w3.org/1999/xlink" x="0px" y="0px"
	 width="21.008px" height="26.104px" viewBox="0 0 21.008 26.104" enable-background="new 0 0 21.008 26.104" xml:space="preserve">
<g>
	
		<linearGradient id="SVGID_1_" gradientUnits="userSpaceOnUse" x1="154.7988" y1="-111.7688" x2="154.7988" y2="-137.8733" gradientTransform="matrix(1 0 0 -1 -85 -182.397)">
		<stop  offset="0" style="stop-color:#3CCFBC"/>
		<stop  offset="1" style="stop-color:#219BA5"/>
	</linearGradient>
	<path fill="url(#SVGID_1_)" d="M80.294-61.242c0,2.043-0.021,4.086,0.009,6.128c0.016,1.16-0.298,2.214-0.847,3.214
		c-0.858,1.563-2.077,2.813-3.463,3.913c-1.765,1.396-3.718,2.476-5.765,3.393c-0.162,0.072-0.398,0.099-0.56,0.036
		c-3.006-1.182-5.754-2.771-7.955-5.183c-1.141-1.25-1.979-2.677-2.354-4.348c-0.039-0.173-0.063-0.354-0.063-0.531
		c-0.002-4.436,0-8.872,0.001-13.308c0-0.039-0.001-0.078,0.001-0.117c0.015-0.351,0.153-0.532,0.5-0.604
		c0.793-0.163,1.589-0.314,2.384-0.474c2.457-0.487,4.918-0.97,7.373-1.474c0.471-0.096,0.897,0.045,1.336,0.131
		c2.947,0.578,5.895,1.169,8.842,1.755c0.432,0.086,0.563,0.241,0.563,0.686c0.001,2.261,0,4.521,0,6.781
		C80.296-61.242,80.295-61.242,80.294-61.242z M68.135-56.581c-0.092-0.121-0.136-0.196-0.195-0.257
		c-0.864-0.867-1.731-1.729-2.596-2.599c-0.246-0.248-0.533-0.352-0.871-0.259c-0.611,0.167-0.775,0.933-0.303,1.408
		c1.1,1.104,2.203,2.205,3.307,3.309c0.432,0.431,0.894,0.429,1.328-0.005c2.156-2.154,4.313-4.31,6.469-6.465
		c0.094-0.094,0.189-0.187,0.271-0.291c0.369-0.479,0.131-1.155-0.458-1.289c-0.333-0.076-0.602,0.043-0.842,0.283
		c-1.909,1.916-3.823,3.827-5.735,5.741C68.393-56.888,68.291-56.759,68.135-56.581z"/>
</g>
</svg>
