<?xml version="1.0" encoding="utf-8"?>
<!-- Generator: Adobe Illustrator 16.0.0, SVG Export Plug-In . SVG Version: 6.00 Build 0)  -->
<!DOCTYPE svg PUBLIC "-//W3C//DTD SVG 1.1//EN" "http://www.w3.org/Graphics/SVG/1.1/DTD/svg11.dtd">
<svg version="1.1" id="Слой_1" xmlns="http://www.w3.org/2000/svg" xmlns:xlink="http://www.w3.org/1999/xlink" x="0px" y="0px"
	 width="18.52px" height="20.541px" viewBox="0 0 18.52 20.541" enable-background="new 0 0 18.52 20.541" xml:space="preserve">
<g>
	
		<linearGradient id="SVGID_1_" gradientUnits="userSpaceOnUse" x1="153.5544" y1="-117.332" x2="153.5544" y2="-137.8726" gradientTransform="matrix(1 0 0 -1 -85 -187.959)">
		<stop  offset="0" style="stop-color:#3CCFBC"/>
		<stop  offset="1" style="stop-color:#219BA5"/>
	</linearGradient>
	<path fill="url(#SVGID_1_)" d="M71.42-68.541c0.08,0,0.146,0,0.209,0c1.465,0,2.93-0.001,4.394,0.001
		c1.021,0.001,1.791,0.77,1.792,1.795c0.001,4.954,0.001,9.907,0,14.862c-0.001,1.021-0.771,1.795-1.794,1.795
		c-4.978,0.002-9.955,0.002-14.934,0c-1.001-0.001-1.756-0.747-1.79-1.748c-0.001-0.036,0-0.072,0-0.106
		c0-4.907,0-9.814-0.001-14.721c0-0.778,0.313-1.379,1.034-1.707c0.243-0.109,0.533-0.16,0.803-0.163
		c1.459-0.016,2.917-0.009,4.376-0.005c0.112,0,0.177-0.021,0.223-0.139c0.473-1.195,1.569-1.951,2.818-1.95
		c1.228,0.002,2.344,0.771,2.813,1.943C71.381-68.64,71.398-68.597,71.42-68.541z M73.571-53.391
		c0.036-1.545-0.775-3.44-2.637-4.404c-1.874-0.972-3.717-0.824-5.411,0.436c-1.313,0.973-1.935,2.33-1.976,3.969
		C66.905-53.391,70.232-53.391,73.571-53.391z M68.584-64.265c-1.385-0.009-2.521,1.111-2.526,2.493
		c-0.008,1.374,1.111,2.508,2.483,2.517c1.391,0.01,2.523-1.103,2.536-2.484C71.09-63.119,69.968-64.256,68.584-64.265z
		 M68.548-66.589c0.57-0.002,1.038-0.464,1.041-1.033c0.005-0.571-0.474-1.05-1.046-1.048c-0.576,0.002-1.043,0.477-1.038,1.054
		C67.51-67.047,67.976-66.588,68.548-66.589z"/>
</g>
</svg>
