<?xml version="1.0" encoding="utf-8"?>
<!-- Generator: Adobe Illustrator 16.0.2, SVG Export Plug-In . SVG Version: 6.00 Build 0)  -->
<!DOCTYPE svg PUBLIC "-//W3C//DTD SVG 1.1//EN" "http://www.w3.org/Graphics/SVG/1.1/DTD/svg11.dtd">
<svg version="1.1" id="Слой_1" xmlns="http://www.w3.org/2000/svg" xmlns:xlink="http://www.w3.org/1999/xlink" x="0px" y="0px"
	 width="147.75px" height="147.5px" viewBox="-33.5 -85.875 147.75 147.5" enable-background="new -33.5 -85.875 147.75 147.5"
	 xml:space="preserve">
<g>
	<path fill="#EAECF0" d="M58.487,11.584c-0.311-0.079-0.785,0.145-1.076,0.366c-1.674,1.267-3.215,2.725-4.977,3.848
		c-4.816,3.062-10.035,3.987-15.586,2.404c-3.936-1.117-7.195-3.38-10.143-6.145c-0.303-0.287-0.877-0.542-1.24-0.453
		c-4.299,1.06-8.434,2.554-12.193,4.953c-2.025,1.287-3.861,2.785-5.314,4.81c18.977,19.604,50.564,18.536,68.201-0.171
		c-1.246-1.157-2.41-2.427-3.754-3.456C68.274,14.572,63.479,12.843,58.487,11.584z"/>
	<path fill="#EAECF0" d="M99.228-84.959H-17.884c-8.02,0-14.52,6.502-14.52,14.519v116.63c0,8.017,6.5,14.519,14.52,14.519H99.228
		c8.016,0,14.518-6.502,14.518-14.519V-70.44C113.745-78.457,107.243-84.959,99.228-84.959z M42.036,41.993
		C12.155,42.01-12.231,17.629-12.231-12.252c0-29.887,24.375-54.252,54.262-54.24c29.879,0.013,54.244,24.414,54.217,54.293
		C96.216,17.641,71.868,41.977,42.036,41.993z"/>
	<path fill="#EAECF0" d="M33.636,10.889c4.459,3.043,9.25,3.868,14.193,1.407c2.066-1.029,4.029-2.453,5.709-4.047
		c4.783-4.52,7.809-10.188,9.953-16.35c1.641-4.744,2.658-9.61,2.018-14.651c-1.619-12.74-12.75-21.711-25.553-20.668
		c-12.24,0.996-21.801,11.483-21.631,24.309c0.221,6.399,2.355,12.825,5.717,18.874C26.468,4.126,29.452,8.039,33.636,10.889z
		 M30.71-17.334h9.045v-9.044h4.412v9.044h9.043v4.412h-9.043v9.044h-4.412v-9.044H30.71V-17.334z"/>
</g>
</svg>
