<?xml version="1.0" encoding="utf-8"?>
<!-- Generator: Adobe Illustrator 16.0.2, SVG Export Plug-In . SVG Version: 6.00 Build 0)  -->
<!DOCTYPE svg PUBLIC "-//W3C//DTD SVG 1.1//EN" "http://www.w3.org/Graphics/SVG/1.1/DTD/svg11.dtd">
<svg version="1.1" id="Слой_1" xmlns="http://www.w3.org/2000/svg" xmlns:xlink="http://www.w3.org/1999/xlink" x="0px" y="0px"
	 width="75.332px" height="55.125px" viewBox="-11.626 -19.914 75.332 55.125"
	 enable-background="new -11.626 -19.914 75.332 55.125" xml:space="preserve">
<g>
	<g>
		<g>
			<path fill="#FFFFFF" d="M57.706,22.533c0,2.566,0,5.049,0,7.619c1.205,0,2.368-0.014,3.527,0c1.287,0.019,2.306,0.886,2.449,2.06
				c0.168,1.398-0.609,2.61-1.902,2.928c-0.25,0.063-0.521,0.067-0.788,0.067c-23.299,0.003-46.605,0.005-69.906,0.002
				c-1.578,0-2.719-1.084-2.712-2.541c0.006-1.455,1.147-2.51,2.731-2.516c1.181-0.008,2.365-0.003,3.61-0.003
				c0-2.575,0-5.079,0-7.625c1.623-0.175,2.747-1.206,3.964-2.063c1.548-1.093,2.288-1.104,3.811-0.021
				c0.556,0.399,1.106,0.805,1.669,1.19c1.741,1.203,3.9,1.212,5.638,0.017c0.693-0.477,1.365-0.973,2.05-1.456
				c1.045-0.733,2.017-0.738,3.053-0.012c0.684,0.481,1.355,0.978,2.046,1.454c1.737,1.203,3.899,1.209,5.638,0.013
				c0.711-0.489,1.396-1.006,2.103-1.498c0.973-0.682,1.973-0.685,2.947-0.006c0.705,0.492,1.395,1.007,2.102,1.494
				c1.744,1.203,3.892,1.206,5.639,0.003c0.727-0.498,1.433-1.031,2.156-1.529c0.915-0.634,1.914-0.634,2.835,0.002
				c0.727,0.498,1.431,1.031,2.155,1.527c1.736,1.2,3.901,1.2,5.641-0.003c0.726-0.499,1.429-1.032,2.157-1.531
				c0.918-0.631,1.915-0.625,2.837,0.008c0.472,0.324,0.943,0.648,1.396,1C55.472,21.822,56.462,22.368,57.706,22.533z"/>
			<path fill="#FFFFFF" d="M-5.765,19.868c0.047-2.21-0.184-4.243,0.403-6.227c1.241-4.196,5.034-7.007,9.52-7.012
				c9.569-0.01,19.141-0.004,28.709-0.004c4.915,0,9.834-0.014,14.751,0.006c4.756,0.02,8.738,3.21,9.604,7.869
				c0.318,1.712,0.215,3.504,0.314,5.445c-0.487-0.236-0.815-0.357-1.093-0.544c-0.659-0.442-1.294-0.919-1.94-1.377
				c-1.893-1.343-4.024-1.352-5.91-0.026c-0.634,0.443-1.256,0.898-1.889,1.34c-1.098,0.774-2.056,0.768-3.163-0.015
				c-0.632-0.445-1.251-0.901-1.886-1.342c-1.854-1.3-3.998-1.292-5.857,0.021c-0.646,0.459-1.287,0.928-1.937,1.384
				c-1.006,0.703-2.003,0.706-3.005,0.009c-0.686-0.479-1.357-0.979-2.044-1.457c-1.775-1.231-3.918-1.234-5.695-0.005
				c-0.705,0.49-1.395,1.005-2.102,1.496c-0.943,0.652-1.946,0.652-2.893,0c-0.706-0.491-1.396-1.009-2.1-1.499
				c-1.771-1.227-3.927-1.22-5.696,0.008c-0.703,0.49-1.394,1.008-2.1,1.497c-0.947,0.649-1.947,0.642-2.896-0.017
				c-0.703-0.486-1.395-1.003-2.1-1.491c-1.711-1.181-3.784-1.214-5.529-0.096c-0.781,0.5-1.55,1.015-2.339,1.501
				C-4.939,19.521-5.287,19.646-5.765,19.868z"/>
			<path fill="#FFFFFF" d="M4.795,4.144c0-0.296,0-0.556,0-0.813c0-2.644-0.002-5.291,0.002-7.936c0-1.347,0.578-1.922,1.932-1.925
				c1.346-0.004,2.694-0.015,4.035,0.004c1.018,0.016,1.663,0.641,1.669,1.653c0.016,2.91,0.003,5.82,0.003,8.73
				c0,0.083-0.027,0.165-0.052,0.286C9.867,4.144,7.368,4.144,4.795,4.144z"/>
			<path fill="#FFFFFF" d="M29.895,4.16c-2.505,0-4.967,0-7.482,0c-0.019-0.212-0.048-0.4-0.048-0.588
				c-0.001-2.758-0.005-5.513,0-8.271c0.001-1.248,0.567-1.823,1.813-1.829c1.389-0.009,2.78-0.017,4.165,0.005
				c0.979,0.016,1.604,0.604,1.608,1.563c0.021,2.956,0.006,5.909,0.004,8.866C29.954,3.967,29.925,4.031,29.895,4.16z"/>
			<path fill="#FFFFFF" d="M47.358,4.16c-2.503,0-4.964,0-7.479,0c-0.019-0.21-0.049-0.397-0.049-0.588
				c-0.001-2.755-0.004-5.511-0.001-8.268c0.003-1.249,0.568-1.826,1.813-1.832c1.391-0.009,2.779-0.017,4.168,0.005
				c0.975,0.016,1.603,0.604,1.608,1.561c0.021,2.954,0.007,5.909,0.004,8.864C47.422,3.965,47.394,4.029,47.358,4.16z"/>
			<path fill="#FFFFFF" d="M41.313-8.495c-1.81-1.081-2.614-3.267-1.93-5.339c0.733-2.22,2.164-4.022,3.654-5.765
				c0.394-0.458,1.1-0.402,1.516,0.108c1.337,1.642,2.641,3.312,3.432,5.305c0.806,2.035-0.083,4.581-1.925,5.641
				c-0.343-0.725-0.657-1.469-1.036-2.177c-0.377-0.707-0.821-1.38-1.324-2.221C42.597-11.515,41.876-10.085,41.313-8.495z"/>
			<path fill="#FFFFFF" d="M28.584-8.56c-0.767-1.437-1.516-2.841-2.269-4.248c-0.086,0.002-0.175,0.005-0.263,0.007
				c-1.008,1.282-1.725,2.73-2.275,4.274c-1.687-0.896-2.588-3.164-1.971-5.159c0.256-0.832,0.638-1.65,1.104-2.383
				c0.745-1.166,1.589-2.273,2.436-3.37c0.466-0.601,1.183-0.635,1.645-0.072c1.332,1.621,2.621,3.282,3.42,5.24
				C31.258-12.2,30.45-9.79,28.584-8.56z"/>
			<path fill="#FFFFFF" d="M10.925-8.499c-0.542-1.574-1.338-2.969-2.337-4.406C7.49-11.498,6.774-10.054,6.23-8.515
				c-1.771-1.009-2.624-3.321-1.925-5.372c0.747-2.187,2.154-3.977,3.634-5.707c0.38-0.444,1.074-0.426,1.469,0.051
				c1.417,1.716,2.809,3.469,3.568,5.598C13.667-12.014,12.761-9.633,10.925-8.499z"/>
		</g>
	</g>
</g>
</svg>
