<?xml version="1.0" encoding="utf-8"?>
<!-- Generator: Adobe Illustrator 16.0.0, SVG Export Plug-In . SVG Version: 6.00 Build 0)  -->
<!DOCTYPE svg PUBLIC "-//W3C//DTD SVG 1.1//EN" "http://www.w3.org/Graphics/SVG/1.1/DTD/svg11.dtd">
<svg version="1.1" id="Слой_1" xmlns="http://www.w3.org/2000/svg" xmlns:xlink="http://www.w3.org/1999/xlink" x="0px" y="0px"
	 width="20.385px" height="20.083px" viewBox="0 0 20.385 20.083" enable-background="new 0 0 20.385 20.083" xml:space="preserve">
<g>
	
		<linearGradient id="SVGID_1_" gradientUnits="userSpaceOnUse" x1="95.1152" y1="-188.583" x2="95.1152" y2="-208.4404" gradientTransform="matrix(1 0 0 -1 -85 -188.417)">
		<stop  offset="0" style="stop-color:#3CCFBC"/>
		<stop  offset="1" style="stop-color:#219BA5"/>
	</linearGradient>
	<path fill="url(#SVGID_1_)" d="M10.925,18.722c0.335,0,0.641,0,0.959,0c0-4.234,0-8.459,0-12.716
		c2.369,0.649,4.719,1.293,7.076,1.939c0,3.601,0,7.192,0,10.808c0.43,0,0.846,0,1.271,0c0,0.434,0,0.846,0,1.271
		c-6.742,0-13.482,0-20.231,0c0-0.419,0-0.83,0-1.265c0.42,0,0.836,0,1.267,0c0-5.567,0-11.112,0-16.674
		c3.22-0.64,6.429-1.276,9.658-1.918C10.925,6.365,10.925,12.538,10.925,18.722z M7.307,18.743c0-1.072,0-2.134,0-3.197
		c-0.814,0-1.617,0-2.424,0C4.878,15.577,4.87,15.6,4.87,15.622c-0.001,1,0.001,2-0.003,3.002c0,0.117,0.052,0.135,0.15,0.135
		c0.717-0.004,1.433-0.002,2.148-0.002C7.212,18.754,7.258,18.749,7.307,18.743z M2.877,3.713c0,0.555,0,1.097,0,1.645
		c0.426,0,0.842,0,1.262,0c0-0.554,0-1.096,0-1.645C3.718,3.713,3.306,3.713,2.877,3.713z M9.294,3.714c-0.43,0-0.841,0-1.256,0
		c0,0.554,0,1.099,0,1.646c0.425,0,0.836,0,1.256,0C9.294,4.808,9.294,4.267,9.294,3.714z M4.137,8.32c0-0.557,0-1.097,0-1.643
		c-0.427,0-0.842,0-1.258,0c0,0.554,0,1.095,0,1.643C3.301,8.32,3.711,8.32,4.137,8.32z M2.874,11.26c0.429,0,0.845,0,1.264,0
		c0-0.553,0-1.094,0-1.642c-0.426,0-0.842,0-1.264,0C2.874,10.168,2.874,10.706,2.874,11.26z M8.037,9.617c0,0.555,0,1.1,0,1.646
		c0.425,0,0.836,0,1.252,0c0-0.554,0-1.099,0-1.646C8.865,9.617,8.454,9.617,8.037,9.617z M14.755,11.263c0-0.556,0-1.096,0-1.645
		c-0.425,0-0.84,0-1.26,0c0,0.553,0,1.095,0,1.645C13.915,11.263,14.326,11.263,14.755,11.263z M13.499,15.543
		c0,0.554,0,1.099,0,1.646c0.424,0,0.835,0,1.253,0c0-0.557,0-1.102,0-1.646C14.328,15.543,13.916,15.543,13.499,15.543z
		 M5.459,5.355c0.435,0,0.845,0,1.257,0c0-0.556,0-1.098,0-1.641c-0.424,0-0.836,0-1.257,0C5.459,4.265,5.459,4.806,5.459,5.355z
		 M5.462,6.666c0,0.568,0,1.107,0,1.652c0.424,0,0.835,0,1.266,0c0-0.526,0.002-1.045-0.005-1.563c0-0.03-0.063-0.085-0.098-0.086
		C6.242,6.664,5.86,6.666,5.462,6.666z M9.288,8.319c0-0.56,0-1.1,0-1.642c-0.425,0-0.837,0-1.253,0c0,0.553,0,1.093,0,1.642
		C8.457,8.319,8.869,8.319,9.288,8.319z M5.464,9.616c0,0.556,0,1.101,0,1.644c0.426,0,0.837,0,1.253,0c0-0.553,0-1.094,0-1.644
		C6.294,9.616,5.883,9.616,5.464,9.616z M17.33,9.621c-0.435,0-0.845,0-1.259,0c0,0.556,0,1.098,0,1.642c0.425,0,0.837,0,1.259,0
		C17.33,10.711,17.33,10.169,17.33,9.621z M16.071,15.542c0,0.558,0,1.1,0,1.649c0.423,0,0.832,0,1.254,0c0-0.556,0-1.101,0-1.649
		C16.903,15.542,16.496,15.542,16.071,15.542z M2.878,12.583c0,0.551,0,1.092,0,1.637c0.425,0,0.841,0,1.257,0
		c0-0.555,0-1.094,0-1.637C3.71,12.583,3.299,12.583,2.878,12.583z M6.718,12.584c-0.426,0-0.837,0-1.256,0c0,0.551,0,1.09,0,1.637
		c0.424,0,0.834,0,1.256,0C6.718,13.676,6.718,13.14,6.718,12.584z M9.29,14.225c0-0.557,0-1.098,0-1.641c-0.424,0-0.836,0-1.253,0
		c0,0.553,0,1.094,0,1.641C8.458,14.225,8.865,14.225,9.29,14.225z M13.497,12.583c0,0.551,0,1.09,0,1.633c0.426,0,0.842,0,1.257,0
		c0-0.553,0-1.088,0-1.633C14.33,12.583,13.919,12.583,13.497,12.583z M17.329,12.588c-0.434,0-0.844,0-1.26,0
		c0,0.552,0,1.086,0,1.629c0.427,0,0.843,0,1.26,0C17.329,13.667,17.329,13.131,17.329,12.588z"/>
</g>
</svg>
