<?xml version="1.0" encoding="utf-8"?>
<!-- Generator: Adobe Illustrator 16.0.0, SVG Export Plug-In . SVG Version: 6.00 Build 0)  -->
<!DOCTYPE svg PUBLIC "-//W3C//DTD SVG 1.1//EN" "http://www.w3.org/Graphics/SVG/1.1/DTD/svg11.dtd">
<svg version="1.1" id="Слой_1" xmlns="http://www.w3.org/2000/svg" xmlns:xlink="http://www.w3.org/1999/xlink" x="0px" y="0px"
	 width="47.75px" height="47.739px" viewBox="0 0 47.75 47.739" enable-background="new 0 0 47.75 47.739" xml:space="preserve">
<linearGradient id="SVGID_1_" gradientUnits="userSpaceOnUse" x1="108.832" y1="-161.2109" x2="108.832" y2="-208.2109" gradientTransform="matrix(1 0 0 -1 -85 -160.7607)">
	<stop  offset="0" style="stop-color:#3CCFBC"/>
	<stop  offset="1" style="stop-color:#219BA5"/>
</linearGradient>
<circle fill="url(#SVGID_1_)" cx="23.832" cy="23.95" r="23.5"/>
<g>
	<path fill="#FFFFFF" d="M18.045,26.15c0.156-0.269,0.246-0.53,0.423-0.708c3.245-3.261,6.499-6.513,9.757-9.764
		c0.418-0.417,0.795-0.407,1.209,0.005c0.861,0.855,1.721,1.713,2.575,2.574c0.501,0.504,0.496,0.863-0.009,1.367
		c-3.203,3.204-6.406,6.408-9.609,9.61c-0.544,0.543-0.969,0.541-1.514-0.005c-0.81-0.809-1.624-1.607-2.42-2.43
		C18.291,26.633,18.196,26.394,18.045,26.15z"/>
	<path fill="#FFFFFF" d="M17.066,30.747c0.719-0.187,1.356-0.354,1.996-0.516c0.525-0.134,0.93,0.068,1.036,0.512
		c0.11,0.457-0.132,0.817-0.659,0.955c-1.021,0.266-2.044,0.529-3.068,0.782c-0.805,0.2-1.219-0.218-1.051-1.038
		c0.211-1.021,0.418-2.042,0.626-3.063c0.12-0.586,0.519-0.92,0.979-0.819c0.437,0.097,0.657,0.534,0.547,1.116
		C17.348,29.34,17.213,30,17.066,30.747z"/>
</g>
</svg>
