<?xml version="1.0" encoding="utf-8"?>
<!-- Generator: Adobe Illustrator 16.0.0, SVG Export Plug-In . SVG Version: 6.00 Build 0)  -->
<!DOCTYPE svg PUBLIC "-//W3C//DTD SVG 1.1//EN" "http://www.w3.org/Graphics/SVG/1.1/DTD/svg11.dtd">
<svg version="1.1" id="Слой_1" xmlns="http://www.w3.org/2000/svg" xmlns:xlink="http://www.w3.org/1999/xlink" x="0px" y="0px"
	 width="47.332px" height="47.333px" viewBox="0 0 47.332 47.333" enable-background="new 0 0 47.332 47.333" xml:space="preserve">
<linearGradient id="SVGID_1_" gradientUnits="userSpaceOnUse" x1="-1.333" y1="-127.334" x2="45.999" y2="-127.334" gradientTransform="matrix(1 0 0 -1 -85 -161.167)">
	<stop  offset="0" style="stop-color:#3CCFBC"/>
	<stop  offset="1" style="stop-color:#219BA5"/>
</linearGradient>
<circle fill="url(#SVGID_1_)" cx="-62.667" cy="-33.833" r="23.666"/>
<path fill="#FFFFFF" d="M-67.898-31.221c0.157-0.27,0.249-0.536,0.427-0.718c3.29-3.305,6.588-6.6,9.889-9.895
	c0.423-0.422,0.807-0.413,1.227,0.005c0.872,0.866,1.742,1.736,2.609,2.608c0.508,0.512,0.502,0.875-0.009,1.387
	c-3.246,3.246-6.493,6.493-9.739,9.739c-0.551,0.55-0.981,0.55-1.535-0.005c-0.819-0.818-1.645-1.631-2.452-2.462
	C-67.649-30.733-67.746-30.973-67.898-31.221z"/>
<path fill="#FFFFFF" d="M-68.892-26.562c0.728-0.188,1.375-0.357,2.023-0.522c0.533-0.136,0.942,0.069,1.051,0.518
	c0.111,0.465-0.134,0.829-0.668,0.968c-1.036,0.27-2.072,0.538-3.11,0.795c-0.815,0.203-1.236-0.222-1.064-1.053
	c0.212-1.035,0.423-2.069,0.634-3.104c0.121-0.593,0.525-0.934,0.991-0.831c0.442,0.098,0.665,0.543,0.555,1.133
	C-68.606-27.988-68.742-27.318-68.892-26.562z"/>
</svg>
