<?xml version="1.0" encoding="utf-8"?>
<!-- Generator: Adobe Illustrator 16.0.2, SVG Export Plug-In . SVG Version: 6.00 Build 0)  -->
<!DOCTYPE svg PUBLIC "-//W3C//DTD SVG 1.1//EN" "http://www.w3.org/Graphics/SVG/1.1/DTD/svg11.dtd">
<svg version="1.1" id="Слой_1" xmlns="http://www.w3.org/2000/svg" xmlns:xlink="http://www.w3.org/1999/xlink" x="0px" y="0px"
	 width="70.46px" height="61.141px" viewBox="-17.968 -50.049 70.46 61.141" enable-background="new -17.968 -50.049 70.46 61.141"
	 xml:space="preserve">
<g>
	<g>
		<path fill="#FFFFFF" d="M-1.548-31.297c0.001-10.358,8.4-18.753,18.757-18.751c10.359,0.003,18.752,8.399,18.75,18.76
			c0,10.334-8.403,18.758-18.697,18.75C6.839-12.546-1.551-20.913-1.548-31.297z M20.123-23.755c0-0.973,0-1.915,0-2.875
			c-0.36-0.019-0.67-0.035-1.037-0.055c0-2.945,0-5.833,0-8.722c-1.666,0-3.265,0-4.86,0c0,0.98,0,1.905,0,2.837
			c0.361,0.016,0.674,0.031,0.979,0.045c0,2.015,0,3.977,0,5.947c-0.359,0.021-0.672,0.033-0.982,0.047c0,0.956,0,1.862,0,2.82
			c1.859,0,3.674,0.003,5.489-0.001C19.845-23.713,19.979-23.742,20.123-23.755z M16.889-41.458c-1.203,0.006-2.061,0.91-2.049,2.16
			c0.006,1.187,0.938,2.124,2.118,2.137c1.188,0.018,2.177-0.969,2.177-2.156C19.134-40.534,18.16-41.46,16.889-41.458z"/>
		<path fill="#FFFFFF" d="M30.443,11.089c-1.738,0-3.474,0-5.211,0c-0.857-0.001-1.177-0.285-1.227-1.114
			c-0.166-2.709-0.372-5.416-0.472-8.13C23.406-1.653,24.7-4.69,26.9-7.323c1.017-1.214,2.295-2.206,3.446-3.311
			c0.783-0.754,1.639-1.466,2.313-2.314c2.193-2.745,4.318-5.543,6.467-8.32c0.804-1.037,2.282-1.28,3.387-0.562
			c1.201,0.783,1.614,2.349,0.882,3.577c-1.401,2.348-2.837,4.676-4.255,7.01c-0.602,0.989-1.199,1.98-1.806,2.965
			c-0.245,0.4-0.347,0.806,0.078,1.117c0.452,0.329,0.828,0.099,1.117-0.305c2.777-3.835,5.376-7.779,7.387-12.08
			c0.711-1.521,0.519-3.17,0.724-4.763c0.359-2.846,0.781-5.686,1.188-8.53c0.037-0.271,0.144-0.539,0.234-0.8
			c0.436-1.227,1.317-1.831,2.431-1.672c1.133,0.163,2.019,1.163,1.997,2.409c-0.021,1.094-0.166,2.188-0.273,3.279
			c-0.422,4.17-0.845,8.34-1.277,12.507c-0.117,1.151-0.197,2.313-0.407,3.448c-0.347,1.888-1.295,3.482-2.527,4.947
			c-3.545,4.219-7.061,8.465-10.574,12.708c-0.16,0.194-0.244,0.497-0.256,0.754c-0.086,1.717-0.127,3.434-0.205,5.149
			c-0.039,0.854-0.344,1.14-1.196,1.146c-1.776,0.009-3.554,0.003-5.331,0.003C30.443,11.054,30.443,11.071,30.443,11.089z"/>
		<path fill="#FFFFFF" d="M4.055,11.037c-1.737,0-3.477,0.006-5.213,0c-0.97-0.003-1.253-0.274-1.283-1.237
			C-2.494,8.103-2.521,6.404-2.59,4.708C-2.602,4.437-2.725,4.124-2.9,3.914C-6.465-0.368-10.03-4.65-13.633-8.901
			c-1.714-2.02-2.45-4.359-2.672-6.963c-0.4-4.591-0.916-9.175-1.38-13.763c-0.106-1.051-0.231-2.103-0.279-3.16
			c-0.04-0.792,0.239-1.496,0.88-2.009c1.217-0.979,2.874-0.625,3.398,0.842c0.415,1.152,0.695,2.378,0.848,3.599
			c0.348,2.808,0.548,5.636,0.88,8.449c0.105,0.878,0.33,1.781,0.699,2.58c1.936,4.205,4.498,8.038,7.196,11.782
			c0.083,0.112,0.165,0.288,0.274,0.31c0.301,0.057,0.69,0.169,0.904,0.032c0.18-0.108,0.197-0.543,0.203-0.833
			c0.003-0.152-0.166-0.308-0.259-0.46c-1.961-3.222-3.922-6.443-5.883-9.667c-0.56-0.924-0.557-1.871-0.007-2.782
			c0.522-0.866,1.313-1.329,2.343-1.288c0.775,0.029,1.419,0.358,1.905,0.983c2.225,2.873,4.433,5.757,6.69,8.608
			c0.511,0.649,1.137,1.242,1.802,1.735c3.539,2.631,6.078,5.927,6.925,10.339c0.16,0.834,0.19,1.711,0.155,2.56
			c-0.117,2.593-0.299,5.184-0.447,7.774c-0.064,1.082-0.313,1.325-1.39,1.325c-1.698-0.001-3.396,0-5.095,0
			C4.055,11.072,4.055,11.057,4.055,11.037z"/>
		<path fill="#FFFFFF" d="M-9.968-23.552c-0.164-1.661-0.277-3.294-0.488-4.91c-0.211-1.619-0.513-3.228-0.791-4.935
			c0.863,0.331,1.394,0.896,1.571,1.734c0.452,2.126,0.852,4.261,1.301,6.385c0.126,0.601,0.108,1.014-0.625,1.167
			C-9.345-24.039-9.646-23.746-9.968-23.552z"/>
		<path fill="#FFFFFF" d="M44.447-23.601c-0.407-0.212-0.906-0.448-1.378-0.732c-0.104-0.063-0.174-0.308-0.145-0.449
			c0.461-2.387,0.92-4.771,1.437-7.147c0.157-0.715,0.687-1.19,1.314-1.404C45.268-30.095,44.855-26.84,44.447-23.601z"/>
		<path fill="#FFFFFF" d="M-5.007-24.403c-0.538-0.102-1.006-0.19-1.396-0.266c-0.481-2.059-0.957-4.085-1.431-6.106
			c0.588,0.15,1.153,0.552,1.373,1.221c0.52,1.585,0.965,3.196,1.434,4.796C-5.002-24.669-5.014-24.567-5.007-24.403z"/>
		<path fill="#FFFFFF" d="M40.918-24.596c-0.428,0.068-0.874,0.139-1.41,0.225c0.113-0.481,0.199-0.925,0.322-1.353
			c0.322-1.132,0.657-2.26,0.991-3.386c0.232-0.788,0.7-1.362,1.559-1.683C41.885-28.684,41.401-26.646,40.918-24.596z"/>
	</g>
</g>
</svg>
