<?xml version="1.0" encoding="utf-8"?>
<!-- Generator: Adobe Illustrator 16.0.0, SVG Export Plug-In . SVG Version: 6.00 Build 0)  -->
<!DOCTYPE svg PUBLIC "-//W3C//DTD SVG 1.1//EN" "http://www.w3.org/Graphics/SVG/1.1/DTD/svg11.dtd">
<svg version="1.1" id="Слой_1" xmlns="http://www.w3.org/2000/svg" xmlns:xlink="http://www.w3.org/1999/xlink" x="0px" y="0px"
	 width="18.25px" height="21.583px" viewBox="0 0 18.25 21.583" enable-background="new 0 0 18.25 21.583" xml:space="preserve">
<linearGradient id="SVGID_1_" gradientUnits="userSpaceOnUse" x1="94.0332" y1="-187.252" x2="94.0332" y2="-208.2441" gradientTransform="matrix(1 0 0 -1 -85 -186.917)">
	<stop  offset="0" style="stop-color:#3CCFBC"/>
	<stop  offset="1" style="stop-color:#219BA5"/>
</linearGradient>
<path fill="url(#SVGID_1_)" d="M9.091,0.335c2.896,0.002,5.245,2.358,5.239,5.259c-0.005,2.896-2.368,5.239-5.269,5.23
	c-2.878-0.009-5.218-2.358-5.22-5.239C3.84,2.684,6.188,0.334,9.091,0.335z M12.423,5.592c0.007-1.838-1.481-3.34-3.315-3.349
	C7.267,2.235,5.76,3.716,5.749,5.547c-0.012,1.861,1.481,3.37,3.334,3.37C10.919,8.918,12.418,7.426,12.423,5.592z M0.405,20.111
	c0.134,0.313,0.212,0.671,0.415,0.931c0.233,0.303,0.61,0.354,0.98,0.203c0.446-0.187,0.604-0.541,0.615-1.012
	c0.111-5.132,5.722-8.248,10.099-5.589c2.088,1.269,3.152,3.181,3.244,5.623c0.024,0.626,0.399,1.045,0.954,1.046
	c0.569,0.001,0.968-0.438,0.949-1.083c-0.013-0.407-0.032-0.821-0.103-1.224c-0.805-4.631-4.842-7.662-9.521-7.157
	c-4.121,0.442-7.445,4.069-7.532,8.217C0.473,20.083,0.439,20.094,0.405,20.111z M9.107,2.244C7.267,2.235,5.76,3.716,5.749,5.547
	c-0.012,1.861,1.481,3.37,3.334,3.37c1.836,0.002,3.335-1.49,3.34-3.324C12.43,3.754,10.941,2.252,9.107,2.244z"/>
</svg>
