<?xml version="1.0" encoding="utf-8"?>
<!-- Generator: Adobe Illustrator 16.0.2, SVG Export Plug-In . SVG Version: 6.00 Build 0)  -->
<!DOCTYPE svg PUBLIC "-//W3C//DTD SVG 1.1//EN" "http://www.w3.org/Graphics/SVG/1.1/DTD/svg11.dtd">
<svg version="1.1" id="Слой_1" xmlns="http://www.w3.org/2000/svg" xmlns:xlink="http://www.w3.org/1999/xlink" x="0px" y="0px"
	 width="47.789px" height="69.767px" viewBox="0 0 47.789 69.767" enable-background="new 0 0 47.789 69.767" xml:space="preserve">
<g>
	<g>
		<path fill-rule="evenodd" clip-rule="evenodd" fill="#FFFFFF" d="M25.215,19.984c-1.54-0.684-2.775-1.626-3.436-3.228
			c-0.538-1.308-2.052-1.712-3.063-0.742c-2.492,2.391-5.574,3.492-8.842,4.209c-1.187,0.261-2.398,0.411-3.599,0.608
			c-0.926,0.152-1.61,0.769-1.609,1.689c0.005,3.76-0.208,7.548,0.172,11.275c0.641,6.322,4.037,11.029,9.492,14.233
			c0.652,0.383,0.959,0.76,0.742,1.545c-3.698,0-7.417,0-11.111,0C3.684,47.434,3.531,45.29,3.107,43.2
			c-0.63-3.108-1.522-6.163-2.179-9.267C-0.465,27.325-0.455,20.75,2.103,14.4C5.562,5.813,12.042,1.123,21.208,0.162
			c5.181-0.543,10.158,0.246,14.74,2.827c6.062,3.416,9.475,8.777,10.998,15.429c1.372,5.991,1.008,11.958-0.648,17.836
			c-1.227,4.35-2.128,8.741-2.366,13.316c-3.791,0-7.564,0-11.379,0c-0.184-0.659-0.062-1.084,0.636-1.496
			c6.321-3.73,9.631-9.273,9.785-16.632c0.06-2.835,0.012-5.672,0.009-8.507c-0.001-1.291-0.575-1.958-1.858-2.124
			c-2.874-0.37-5.727-0.882-8.326-2.201c-1.373-0.696-2.607-1.68-3.857-2.6c-0.625-0.46-1.212-0.87-2.018-0.614
			c-0.834,0.265-1.345,0.846-1.451,1.715C25.358,18.028,25.304,18.952,25.215,19.984z"/>
		<path fill-rule="evenodd" clip-rule="evenodd" fill="#FFFFFF" d="M8.647,24.555c4.039-0.718,7.75-1.802,11.032-4.074
			c2.542,3.07,5.994,4.069,9.725,4.425c1.193,0.114,2.202-0.851,2.232-2.047c0.004-0.126,0.017-0.251,0.022-0.358
			c1.601,0.481,3.156,0.979,4.73,1.412c0.763,0.209,1.564,0.272,2.333,0.463c0.21,0.052,0.527,0.33,0.523,0.499
			c-0.082,3.408,0.365,6.843-0.402,10.218c-1.573,6.917-8.15,12.016-15.142,11.769c-7.506-0.266-13.783-5.629-14.725-12.889
			C8.578,30.893,8.742,27.741,8.647,24.555z"/>
		<path fill-rule="evenodd" clip-rule="evenodd" fill="#FFFFFF" d="M19.187,50.048c3.141,0.877,6.257,0.789,9.404-0.014
			c0.078,0.626,0.124,1.197,0.227,1.757c0.591,3.242,3.273,5.723,6.555,6.129c1.519,0.188,3.028,0.447,4.697,0.698
			c-0.232,0.813-0.391,1.584-0.67,2.307c-0.814,2.106-2.216,3.776-3.986,5.148c-6.48,5.025-16.973,4.909-23.323-0.271
			c-2.064-1.684-3.556-3.762-4.165-6.402c-0.041-0.179-0.072-0.363-0.091-0.546c-0.009-0.072,0.027-0.149,0.06-0.305
			c1.446-0.206,2.906-0.43,4.371-0.618c4.074-0.521,6.655-3.313,6.864-7.443C19.136,50.362,19.161,50.236,19.187,50.048z"/>
	</g>
</g>
</svg>
