<?xml version="1.0" encoding="utf-8"?>
<!-- Generator: Adobe Illustrator 16.0.2, SVG Export Plug-In . SVG Version: 6.00 Build 0)  -->
<!DOCTYPE svg PUBLIC "-//W3C//DTD SVG 1.1//EN" "http://www.w3.org/Graphics/SVG/1.1/DTD/svg11.dtd">
<svg version="1.1" id="Слой_1" xmlns="http://www.w3.org/2000/svg" xmlns:xlink="http://www.w3.org/1999/xlink" x="0px" y="0px"
	 width="45.667px" height="66.979px" viewBox="-6.083 -21.354 45.667 66.979" enable-background="new -6.083 -21.354 45.667 66.979"
	 xml:space="preserve">
<g>
	<g>
		<path fill="#FFFFFF" d="M18.024-1.847c-1.46-0.649-2.633-1.544-3.259-3.063c-0.513-1.241-1.946-1.625-2.906-0.704
			c-2.364,2.27-5.286,3.314-8.389,3.994C2.346-1.372,1.196-1.23,0.056-1.043C-0.82-0.899-1.472-0.313-1.47,0.56
			c0.004,3.567-0.196,7.162,0.159,10.695c0.61,6,3.833,10.464,9.008,13.505c0.618,0.363,0.908,0.721,0.702,1.465
			c-3.507,0-7.037,0-10.54,0c-0.265-2.029-0.408-4.065-0.811-6.047c-0.598-2.95-1.447-5.848-2.066-8.79
			C-6.339,5.118-6.331-1.12-3.905-7.145c3.283-8.146,9.429-12.596,18.125-13.507c4.916-0.516,9.638,0.233,13.986,2.684
			c5.749,3.238,8.99,8.326,10.434,14.637c1.303,5.685,0.955,11.346-0.616,16.922c-1.162,4.127-2.017,8.292-2.243,12.634
			c-3.598,0-7.177,0-10.796,0c-0.175-0.624-0.058-1.029,0.603-1.419c5.999-3.539,9.138-8.799,9.283-15.78
			c0.058-2.689,0.012-5.38,0.009-8.071c0-1.224-0.543-1.859-1.763-2.013c-2.726-0.351-5.435-0.838-7.899-2.088
			c-1.304-0.66-2.474-1.595-3.659-2.467c-0.594-0.436-1.15-0.825-1.916-0.582c-0.788,0.251-1.274,0.803-1.377,1.626
			C18.161-3.703,18.11-2.827,18.024-1.847z"/>
		<path fill="#FFFFFF" d="M2.307,2.489c3.83-0.681,7.354-1.709,10.466-3.865c2.411,2.911,5.688,3.859,9.227,4.197
			c1.133,0.107,2.09-0.809,2.118-1.942C24.12,0.76,24.131,0.641,24.14,0.54c1.516,0.457,2.992,0.928,4.486,1.339
			c0.724,0.198,1.483,0.258,2.212,0.438c0.202,0.05,0.502,0.314,0.499,0.474c-0.08,3.234,0.346,6.492-0.383,9.695
			c-1.493,6.561-7.733,11.399-14.365,11.167c-7.123-0.254-13.076-5.342-13.971-12.23C2.24,8.502,2.396,5.512,2.307,2.489z"/>
		<path fill="#FFFFFF" d="M12.305,26.674c2.978,0.832,5.936,0.75,8.923-0.013c0.075,0.594,0.119,1.136,0.213,1.666
			c0.563,3.077,3.104,5.43,6.22,5.816c1.439,0.177,2.873,0.423,4.455,0.661c-0.218,0.772-0.37,1.503-0.637,2.19
			c-0.772,1.997-2.102,3.582-3.778,4.884c-6.151,4.766-16.104,4.657-22.129-0.258c-1.959-1.598-3.372-3.568-3.949-6.072
			c-0.04-0.171-0.069-0.344-0.089-0.519c-0.007-0.068,0.026-0.142,0.056-0.289c1.375-0.194,2.758-0.407,4.148-0.585
			c3.866-0.495,6.314-3.145,6.514-7.062C12.256,26.973,12.282,26.854,12.305,26.674z"/>
	</g>
</g>
</svg>
