<?xml version="1.0" encoding="utf-8"?>
<!-- Generator: Adobe Illustrator 16.0.0, SVG Export Plug-In . SVG Version: 6.00 Build 0)  -->
<!DOCTYPE svg PUBLIC "-//W3C//DTD SVG 1.1//EN" "http://www.w3.org/Graphics/SVG/1.1/DTD/svg11.dtd">
<svg version="1.1" id="Слой_1" xmlns="http://www.w3.org/2000/svg" xmlns:xlink="http://www.w3.org/1999/xlink" x="0px" y="0px"
	 width="43.333px" height="41.667px" viewBox="0 0 43.333 41.667" enable-background="new 0 0 43.333 41.667" xml:space="preserve">
<g>
	
		<linearGradient id="SVGID_1_" gradientUnits="userSpaceOnUse" x1="108.1606" y1="-169.668" x2="108.1606" y2="-209.6768" gradientTransform="matrix(1 0 0 -1 -85 -166.833)">
		<stop  offset="0" style="stop-color:#3CCFBC"/>
		<stop  offset="1" style="stop-color:#219BA5"/>
	</linearGradient>
	<path fill="url(#SVGID_1_)" d="M29.152,16.654c0.19,0,0.333,0,0.478,0c3.244,0,6.488-0.007,9.733,0.002
		c2.361,0.007,4.291,1.539,4.858,3.792c0.195,0.776,0.057,1.525-0.063,2.283c-0.604,3.851-1.207,7.703-1.812,11.556
		c-0.185,1.166-0.339,2.34-0.563,3.5c-0.471,2.41-2.102,3.92-4.549,4.238c-0.554,0.07-1.117,0.098-1.677,0.1
		c-5.745,0.008-11.49-0.016-17.236,0.019c-1.587,0.01-3.028-0.261-4.188-1.408c-0.046,0.027-0.075,0.035-0.083,0.054
		c-0.604,1.395-1.663,2.065-3.185,2.055c-1.878-0.018-3.757-0.002-5.635-0.004s-3.224-1.348-3.224-3.232
		c-0.003-6.344-0.003-12.686,0-19.03c0.001-1.915,1.319-3.248,3.234-3.261c1.929-0.012,3.856-0.014,5.782,0.001
		c1.531,0.011,2.532,0.802,3.1,2.191c0.022,0.006,0.048,0.023,0.066,0.018c2.123-0.749,4.033-1.841,5.558-3.528
		c1.4-1.546,2.109-3.368,2.107-5.46c-0.002-2.343,0.007-4.686-0.008-7.026c-0.003-0.303,0.08-0.428,0.376-0.485
		c1.039-0.201,2.083-0.28,3.124-0.058c1.953,0.42,3.09,1.69,3.515,3.587c0.19,0.848,0.263,1.737,0.277,2.609
		c0.034,2.329,0.012,4.66,0.012,6.988C29.152,16.298,29.152,16.444,29.152,16.654z M5.181,39.684c1.983,0,3.937,0,5.884,0
		c0-6.399,0-12.772,0-19.143c-1.976,0-3.922,0-5.884,0C5.181,26.927,5.181,33.289,5.181,39.684z"/>
</g>
</svg>
