<?xml version="1.0" encoding="utf-8"?>
<!-- Generator: Adobe Illustrator 16.0.2, SVG Export Plug-In . SVG Version: 6.00 Build 0)  -->
<!DOCTYPE svg PUBLIC "-//W3C//DTD SVG 1.1//EN" "http://www.w3.org/Graphics/SVG/1.1/DTD/svg11.dtd">
<svg version="1.1" id="Слой_1" xmlns="http://www.w3.org/2000/svg" xmlns:xlink="http://www.w3.org/1999/xlink" x="0px" y="0px"
	 width="56.625px" height="56.625px" viewBox="0 0 56.625 56.625" enable-background="new 0 0 56.625 56.625" xml:space="preserve">
<g>
	<g>
		<g>
			<g>
				<path fill-rule="evenodd" clip-rule="evenodd" fill="#FFFFFF" d="M32.467,22.806c0.138,0,0.241,0,0.345,0
					c2.345,0,4.69-0.005,7.035,0.002c1.706,0.005,3.102,1.112,3.511,2.741c0.141,0.561,0.042,1.102-0.044,1.648
					c-0.437,2.784-0.873,5.567-1.311,8.352c-0.132,0.844-0.243,1.691-0.407,2.529c-0.34,1.742-1.518,2.833-3.287,3.063
					c-0.4,0.052-0.808,0.072-1.212,0.072c-4.152,0.005-8.304-0.012-12.456,0.013c-1.147,0.007-2.188-0.188-3.027-1.018
					c-0.032,0.02-0.054,0.025-0.059,0.038c-0.437,1.008-1.202,1.495-2.302,1.485c-1.358-0.011-2.716-0.001-4.073-0.003
					s-2.329-0.974-2.33-2.335c-0.002-4.584-0.002-9.168,0-13.752c0-1.385,0.953-2.348,2.338-2.357c1.393-0.01,2.786-0.01,4.178,0
					c1.106,0.009,1.83,0.579,2.24,1.584c0.016,0.004,0.035,0.017,0.047,0.012c1.535-0.541,2.915-1.33,4.018-2.548
					c1.011-1.119,1.523-2.435,1.522-3.947c-0.001-1.693,0.004-3.385-0.006-5.078c-0.001-0.219,0.059-0.309,0.272-0.351
					c0.751-0.146,1.505-0.204,2.258-0.042c1.413,0.304,2.233,1.223,2.54,2.593c0.137,0.613,0.189,1.255,0.199,1.885
					c0.026,1.684,0.009,3.368,0.009,5.051C32.467,22.549,32.467,22.654,32.467,22.806z M15.144,39.449c1.433,0,2.846,0,4.253,0
					c0-4.626,0-9.231,0-13.834c-1.428,0-2.834,0-4.253,0C15.144,30.229,15.144,34.829,15.144,39.449z"/>
			</g>
		</g>
		<g>
			<path fill="#FFFFFF" d="M28.313,56.625C12.701,56.625,0,43.924,0,28.313S12.701,0,28.313,0s28.313,12.701,28.313,28.313
				S43.924,56.625,28.313,56.625z M28.313,3C14.355,3,3,14.355,3,28.313s11.355,25.313,25.313,25.313S53.625,42.27,53.625,28.313
				S42.27,3,28.313,3z"/>
		</g>
	</g>
</g>
</svg>
