<?xml version="1.0" encoding="utf-8"?>
<!-- Generator: Adobe Illustrator 16.0.2, SVG Export Plug-In . SVG Version: 6.00 Build 0)  -->
<!DOCTYPE svg PUBLIC "-//W3C//DTD SVG 1.1//EN" "http://www.w3.org/Graphics/SVG/1.1/DTD/svg11.dtd">
<svg version="1.1" id="Слой_1" xmlns="http://www.w3.org/2000/svg" xmlns:xlink="http://www.w3.org/1999/xlink" x="0px" y="0px"
	 width="29.167px" height="26.75px" viewBox="10.083 8.667 29.167 26.75" enable-background="new 10.083 8.667 29.167 26.75"
	 xml:space="preserve">
<g>
	<g>
		<path fill-rule="evenodd" clip-rule="evenodd" fill="#BABDC7" d="M10.486,18.97c0.939-0.177,1.835-0.346,2.73-0.512
			c2.153-0.402,4.307-0.807,6.462-1.199c0.236-0.043,0.373-0.145,0.489-0.352c1.44-2.553,2.89-5.102,4.337-7.651
			c0.049-0.087,0.105-0.17,0.178-0.289c0.075,0.12,0.134,0.209,0.188,0.304c1.448,2.549,2.896,5.097,4.338,7.651
			c0.112,0.199,0.246,0.29,0.468,0.332c2.923,0.538,5.845,1.085,8.767,1.631c0.131,0.024,0.261,0.052,0.439,0.087
			c-0.096,0.104-0.168,0.184-0.242,0.263c-2.052,2.127-4.102,4.257-6.158,6.378c-0.171,0.176-0.213,0.342-0.184,0.576
			c0.354,2.682,0.697,5.367,1.042,8.051c0.04,0.303,0.079,0.605,0.125,0.954c-0.548-0.248-1.052-0.476-1.556-0.706
			c-2.312-1.053-4.624-2.104-6.932-3.163c-0.203-0.093-0.367-0.104-0.576-0.009c-2.719,1.249-5.442,2.488-8.165,3.729
			c-0.093,0.043-0.188,0.08-0.329,0.139c0.051-0.426,0.096-0.816,0.146-1.206c0.323-2.511,0.63-5.023,0.985-7.529
			c0.067-0.47-0.067-0.753-0.377-1.071c-1.985-2.034-3.951-4.086-5.924-6.132C10.663,19.167,10.59,19.084,10.486,18.97z
			 M17.855,32.531c0.135-0.053,0.229-0.084,0.319-0.125c1.862-0.848,3.726-1.692,5.585-2.547c0.618-0.283,1.221-0.289,1.839-0.004
			c1.393,0.641,2.788,1.271,4.183,1.905c0.56,0.255,1.119,0.508,1.712,0.777c-0.008-0.144-0.006-0.243-0.02-0.343
			c-0.25-1.959-0.492-3.92-0.76-5.877c-0.095-0.696,0.087-1.269,0.572-1.769c1.205-1.24,2.403-2.488,3.603-3.734
			c0.253-0.262,0.499-0.53,0.777-0.827c-0.098-0.024-0.144-0.039-0.192-0.048c-1.99-0.372-3.979-0.761-5.975-1.106
			c-0.801-0.138-1.358-0.499-1.754-1.23c-0.925-1.709-1.909-3.387-2.87-5.078c-0.057-0.099-0.118-0.197-0.195-0.326
			c-0.067,0.114-0.104,0.176-0.139,0.238c-1.005,1.771-2.015,3.54-3.014,5.315c-0.305,0.541-0.717,0.897-1.35,1.01
			c-1.66,0.297-3.315,0.619-4.973,0.931c-0.489,0.092-0.978,0.186-1.514,0.289c0.345,0.364,0.645,0.687,0.951,1.005
			c1.149,1.194,2.298,2.389,3.453,3.578c0.418,0.43,0.65,0.936,0.582,1.529c-0.156,1.349-0.346,2.694-0.52,4.041
			C18.057,30.917,17.959,31.703,17.855,32.531z"/>
	</g>
</g>
</svg>
