<?xml version="1.0" encoding="utf-8"?>
<!-- Generator: Adobe Illustrator 16.0.0, SVG Export Plug-In . SVG Version: 6.00 Build 0)  -->
<!DOCTYPE svg PUBLIC "-//W3C//DTD SVG 1.1//EN" "http://www.w3.org/Graphics/SVG/1.1/DTD/svg11.dtd">
<svg version="1.1" id="Слой_1" xmlns="http://www.w3.org/2000/svg" xmlns:xlink="http://www.w3.org/1999/xlink" x="0px" y="0px"
	 width="46.083px" height="46.083px" viewBox="0 0 46.083 46.083" enable-background="new 0 0 46.083 46.083" xml:space="preserve">
<g>
	
		<linearGradient id="SVGID_1_" gradientUnits="userSpaceOnUse" x1="109.6694" y1="-166.123" x2="109.6694" y2="-208.2324" gradientTransform="matrix(1 0 0 -1 -85 -162.417)">
		<stop  offset="0" style="stop-color:#3CCFBC"/>
		<stop  offset="1" style="stop-color:#219BA5"/>
	</linearGradient>
	<path fill="url(#SVGID_1_)" d="M25.223,29.602C18.456,33.829,10.32,31.635,6.266,26C2.182,20.32,2.848,12.494,7.827,7.71
		c5.126-4.925,12.917-5.353,18.446-1.027c5.578,4.363,7.172,12.306,3.208,18.642c0.354,0.344,0.719,0.696,1.077,1.053
		c0.873,0.869,1.735,1.746,2.618,2.604c0.139,0.136,0.349,0.235,0.543,0.272c0.894,0.168,1.678,0.559,2.318,1.195
		c2.836,2.821,5.676,5.639,8.481,8.492c1.099,1.119,1.524,2.494,1.001,4.021c-0.525,1.537-1.627,2.5-3.236,2.789
		c-1.322,0.238-2.479-0.221-3.408-1.137c-2.859-2.816-5.691-5.662-8.521-8.51c-0.646-0.65-1.036-1.452-1.186-2.365
		c-0.021-0.136-0.07-0.293-0.162-0.387c-1.223-1.236-2.457-2.464-3.688-3.693C25.292,29.635,25.252,29.622,25.223,29.602z
		 M29.683,17.771C29.7,11.14,24.338,5.753,17.69,5.721C11.006,5.688,5.62,11.046,5.602,17.745
		c-0.019,6.654,5.362,12.052,12.021,12.059C24.276,29.811,29.667,24.432,29.683,17.771z M26.956,28.317
		c0.941,0.946,1.879,1.891,2.676,2.691c0.428-0.434,0.88-0.893,1.246-1.264c-0.808-0.83-1.733-1.781-2.629-2.703
		C27.816,27.467,27.37,27.907,26.956,28.317z"/>
	
		<linearGradient id="SVGID_2_" gradientUnits="userSpaceOnUse" x1="102.7124" y1="-162.7515" x2="102.7124" y2="-197.5234" gradientTransform="matrix(1 0 0 -1 -85 -162.417)">
		<stop  offset="0" style="stop-color:#3CCFBC"/>
		<stop  offset="1" style="stop-color:#219BA5"/>
	</linearGradient>
	<path fill="url(#SVGID_2_)" d="M26.336,32.792c-6.48,3.862-16.199,3.156-22.146-4.135C-1.51,21.67-0.814,11.245,5.759,5.109
		c6.817-6.364,17.167-6.377,23.917,0.025c6.656,6.312,6.533,15.585,3.1,21.182c-0.479-0.396-0.945-0.792-1.421-1.177
		c-0.169-0.137-0.222-0.26-0.106-0.473c1.737-3.246,2.071-6.7,1.338-10.246c-0.51-2.47-1.666-4.67-3.318-6.595
		c-2.066-2.406-4.655-3.996-7.692-4.844c-1.929-0.539-3.923-0.656-5.888-0.332C9.044,3.747,4.731,7.618,2.946,14.049
		c-1.13,4.069-0.445,8.049,1.814,11.679c2.213,3.556,5.394,5.868,9.437,6.829c3.504,0.832,6.968,0.506,10.224-1.18
		c0.332-0.172,0.547-0.162,0.783,0.119C25.569,31.933,25.952,32.354,26.336,32.792z"/>
	
		<linearGradient id="SVGID_3_" gradientUnits="userSpaceOnUse" x1="102.6636" y1="-184.1953" x2="102.6636" y2="-186.2046" gradientTransform="matrix(1 0 0 -1 -85 -162.417)">
		<stop  offset="0" style="stop-color:#3CCFBC"/>
		<stop  offset="1" style="stop-color:#219BA5"/>
	</linearGradient>
	<path fill="url(#SVGID_3_)" d="M17.687,21.78c1.952,0,3.904,0,5.856,0c0.707,0,1.162,0.383,1.172,0.982
		c0.012,0.609-0.461,1.023-1.179,1.023c-3.931,0.002-7.862,0.002-11.793,0c-0.553,0-0.909-0.234-1.068-0.678
		c-0.144-0.405-0.036-0.876,0.329-1.104c0.212-0.133,0.494-0.212,0.746-0.214C13.729,21.772,15.708,21.78,17.687,21.78z"/>
	
		<linearGradient id="SVGID_4_" gradientUnits="userSpaceOnUse" x1="102.6646" y1="-174.1582" x2="102.6646" y2="-176.1689" gradientTransform="matrix(1 0 0 -1 -85 -162.417)">
		<stop  offset="0" style="stop-color:#3CCFBC"/>
		<stop  offset="1" style="stop-color:#219BA5"/>
	</linearGradient>
	<path fill="url(#SVGID_4_)" d="M17.671,11.742c1.992,0,3.984,0.002,5.977-0.001c0.429-0.001,0.752,0.165,0.95,0.546
		c0.189,0.367,0.15,0.727-0.092,1.055c-0.225,0.305-0.543,0.411-0.912,0.41c-1.163-0.004-2.327-0.001-3.49-0.001
		c-2.701,0-5.402,0-8.104,0c-0.106,0-0.213,0.002-0.32-0.001c-0.628-0.021-1.073-0.442-1.068-1.014
		c0.003-0.573,0.449-0.99,1.082-0.991C13.686,11.74,15.678,11.742,17.671,11.742z"/>
	
		<linearGradient id="SVGID_5_" gradientUnits="userSpaceOnUse" x1="102.6353" y1="-179.1592" x2="102.6353" y2="-181.1729" gradientTransform="matrix(1 0 0 -1 -85 -162.417)">
		<stop  offset="0" style="stop-color:#3CCFBC"/>
		<stop  offset="1" style="stop-color:#219BA5"/>
	</linearGradient>
	<path fill="url(#SVGID_5_)" d="M17.63,18.752c-1.994,0-3.987,0.003-5.98-0.002c-0.496-0.002-0.833-0.249-0.98-0.679
		c-0.134-0.39-0.034-0.86,0.315-1.074c0.236-0.146,0.543-0.237,0.821-0.241c1.618-0.022,3.236-0.011,4.855-0.011
		c2.234,0,4.468,0,6.702,0.001c0.161,0,0.323-0.001,0.479,0.03c0.527,0.104,0.859,0.553,0.813,1.077
		c-0.045,0.497-0.441,0.885-0.965,0.894c-0.962,0.015-1.926,0.006-2.889,0.006C19.743,18.753,18.687,18.752,17.63,18.752z"/>
</g>
</svg>
