<?xml version="1.0" encoding="utf-8"?>
<!-- Generator: Adobe Illustrator 16.0.2, SVG Export Plug-In . SVG Version: 6.00 Build 0)  -->
<!DOCTYPE svg PUBLIC "-//W3C//DTD SVG 1.1//EN" "http://www.w3.org/Graphics/SVG/1.1/DTD/svg11.dtd">
<svg version="1.1" id="Слой_1" xmlns="http://www.w3.org/2000/svg" xmlns:xlink="http://www.w3.org/1999/xlink" x="0px" y="0px"
	 width="39.834px" height="46.332px" viewBox="2.292 -3.957 39.834 46.332" enable-background="new 2.292 -3.957 39.834 46.332"
	 xml:space="preserve">
<g>
	<g>
		<g>
			<path fill="#C3C8D3" d="M7.534,21.245c0-2.023,0.003-2.771,0-4.766c-0.004-1.877-0.097-3.767,0.412-5.6
				c1.6-5.762,5.297-9.386,11.117-10.82c0.172-0.042,0.344-0.083,0.583-0.138c0-0.52-0.005-1.048,0.003-1.578
				c0.014-1.287,0.877-2.146,2.168-2.163c0.256-0.003,0.514-0.007,0.77,0.001c1.145,0.04,2.008,0.9,2.043,2.049
				c0.018,0.551,0.004,1.102,0.004,1.494c1.535,0.608,3.063,1.026,4.402,1.778c4.967,2.797,7.541,7.121,7.697,12.823
				c0.073,2.706,0.012,4.167,0.012,6.921C27.018,21.245,17.316,21.245,7.534,21.245z"/>
			<path fill="#C3C8D3" d="M15.348,35.361c-2.33,0-4.621,0.007-6.912-0.004c-0.451-0.002-0.91-0.025-1.354-0.105
				c-2.879-0.508-4.801-3.139-4.521-6.169c0.268-2.856,2.689-5.114,5.525-5.116c9.375-0.006,18.754-0.008,28.132,0
				c3.032,0.002,5.497,2.561,5.513,5.682c0.014,3.158-2.372,5.671-5.445,5.707c-2.414,0.029-4.828,0.013-7.244,0.02
				c-0.016,0-0.035,0.014-0.109,0.042c-0.113,2.243-1.014,4.124-2.889,5.466c-1.34,0.959-2.85,1.368-4.484,1.222
				C18.28,41.816,15.499,39.216,15.348,35.361z M25.258,35.396c-2.109,0-4.176,0-6.246,0c0.156,1.615,1.528,2.826,3.152,2.813
				C23.76,38.199,25.109,36.987,25.258,35.396z"/>
		</g>
	</g>
</g>
</svg>
