<?xml version="1.0" encoding="utf-8"?>
<!-- Generator: Adobe Illustrator 16.0.0, SVG Export Plug-In . SVG Version: 6.00 Build 0)  -->
<!DOCTYPE svg PUBLIC "-//W3C//DTD SVG 1.1//EN" "http://www.w3.org/Graphics/SVG/1.1/DTD/svg11.dtd">
<svg version="1.1" id="Слой_1" xmlns="http://www.w3.org/2000/svg" xmlns:xlink="http://www.w3.org/1999/xlink" x="0px" y="0px"
	 width="45.083px" height="44.75px" viewBox="0 0 45.083 44.75" enable-background="new 0 0 45.083 44.75" xml:space="preserve">
<circle fill="#2B3E6E" cx="13.562" cy="14.645" r="22.292"/>
<g>
	<g>
		<path fill="#FFFFFF" d="M4.787,15.9c0-1.217,0.002-1.666,0-2.865c-0.002-1.128-0.058-2.264,0.248-3.366
			c0.961-3.463,3.184-5.641,6.682-6.503c0.104-0.025,0.207-0.05,0.351-0.083c0-0.312-0.003-0.63,0.001-0.948
			c0.009-0.773,0.527-1.29,1.303-1.3c0.154-0.002,0.309-0.004,0.463,0.001c0.688,0.024,1.207,0.541,1.228,1.232
			c0.01,0.331,0.002,0.662,0.002,0.898c0.923,0.365,1.841,0.616,2.646,1.068c2.986,1.682,4.533,4.28,4.627,7.707
			c0.044,1.626,0.007,2.505,0.007,4.16C16.498,15.9,10.667,15.9,4.787,15.9z"/>
		<path fill="#FFFFFF" d="M9.484,24.385c-1.4,0-2.777,0.004-4.154-0.003c-0.271-0.001-0.548-0.016-0.814-0.063
			c-1.73-0.305-2.885-1.886-2.717-3.708c0.16-1.717,1.616-3.075,3.32-3.076c5.636-0.003,11.273-0.004,16.91,0
			c1.822,0.002,3.304,1.539,3.313,3.415c0.008,1.899-1.426,3.409-3.273,3.431c-1.451,0.018-2.902,0.008-4.354,0.012
			c-0.01,0-0.021,0.008-0.066,0.025c-0.068,1.348-0.609,2.479-1.737,3.285c-0.804,0.576-1.712,0.822-2.694,0.734
			C11.246,28.264,9.574,26.701,9.484,24.385z M15.441,24.405c-1.268,0-2.51,0-3.754,0c0.094,0.971,0.918,1.698,1.895,1.69
			C14.54,26.09,15.351,25.361,15.441,24.405z"/>
	</g>
</g>
</svg>
