<?xml version="1.0" encoding="utf-8"?>
<!-- Generator: Adobe Illustrator 16.0.2, SVG Export Plug-In . SVG Version: 6.00 Build 0)  -->
<!DOCTYPE svg PUBLIC "-//W3C//DTD SVG 1.1//EN" "http://www.w3.org/Graphics/SVG/1.1/DTD/svg11.dtd">
<svg version="1.1" id="Слой_1" xmlns="http://www.w3.org/2000/svg" xmlns:xlink="http://www.w3.org/1999/xlink" x="0px" y="0px"
	 width="48.783px" height="48.766px" viewBox="0 0 48.783 48.766" enable-background="new 0 0 48.783 48.766" xml:space="preserve">
<g>
	<g>
		<path fill-rule="evenodd" clip-rule="evenodd" fill="#FEFFFF" d="M43.396,8.909c-0.581,0.813-1.179,1.663-1.794,2.5
			c-0.151,0.205-0.167,0.355-0.016,0.567c0.311,0.435,0.577,0.901,0.896,1.329c0.083,0.111,0.31,0.201,0.444,0.172
			c1.027-0.222,2.051-0.475,3.119-0.729c0.623,1.514,1.241,3.016,1.873,4.553c-0.896,0.558-1.77,1.116-2.661,1.646
			c-0.267,0.158-0.351,0.316-0.275,0.619c0.115,0.461,0.202,0.932,0.27,1.403c0.042,0.3,0.151,0.432,0.475,0.477
			c1.016,0.139,2.023,0.323,3.056,0.493c0,1.624,0,3.224,0,4.881c-0.734,0.138-1.481,0.276-2.227,0.418
			c-0.425,0.081-0.967,0.039-1.236,0.289c-0.248,0.229-0.198,0.777-0.283,1.185c-0.198,0.964-0.198,0.963,0.645,1.489
			c0.71,0.442,1.42,0.884,2.154,1.342c-0.626,1.523-1.243,3.027-1.868,4.551c-1.04-0.245-2.053-0.47-3.058-0.729
			c-0.275-0.071-0.415-0.016-0.558,0.224c-0.318,0.532-0.667,1.045-1.013,1.58c0.666,0.934,1.327,1.863,1.953,2.741
			c-1.143,1.146-2.271,2.278-3.436,3.445c-0.867-0.617-1.806-1.286-2.764-1.969c-0.572,0.377-1.146,0.738-1.698,1.131
			c-0.084,0.061-0.113,0.277-0.086,0.404c0.229,1.026,0.478,2.049,0.729,3.103c-1.524,0.626-3.028,1.244-4.553,1.87
			c-0.566-0.908-1.126-1.783-1.657-2.676c-0.15-0.253-0.295-0.334-0.584-0.263c-0.477,0.116-0.962,0.205-1.446,0.275
			c-0.283,0.041-0.41,0.14-0.453,0.449c-0.143,1.027-0.327,2.049-0.498,3.085c-1.637,0-3.238,0-4.881,0
			c-0.169-0.911-0.342-1.815-0.503-2.721c-0.143-0.794-0.137-0.795-0.938-0.945c-0.284-0.054-0.581-0.077-0.848-0.177
			c-0.439-0.164-0.663-0.007-0.883,0.378c-0.48,0.839-1.013,1.648-1.549,2.511c-1.512-0.618-3.013-1.234-4.553-1.865
			c0.24-1.023,0.463-2.034,0.723-3.036c0.074-0.29,0.029-0.44-0.232-0.593c-0.523-0.306-1.023-0.651-1.565-1.001
			c-0.928,0.663-1.866,1.331-2.763,1.971c-1.145-1.146-2.268-2.267-3.435-3.436c0.435-0.611,0.919-1.29,1.401-1.968
			c0.586-0.821,0.59-0.823,0.02-1.667c-0.225-0.332-0.402-0.803-0.718-0.934c-0.294-0.122-0.741,0.116-1.12,0.204
			c-0.717,0.166-1.434,0.338-2.15,0.506c-0.013,0.003-0.028-0.004-0.104-0.019c-0.604-1.47-1.223-2.972-1.855-4.511
			c0.894-0.557,1.767-1.115,2.657-1.646c0.264-0.157,0.355-0.311,0.279-0.617c-0.123-0.49-0.208-0.989-0.288-1.488
			c-0.035-0.231-0.113-0.346-0.368-0.382c-0.929-0.131-1.855-0.289-2.782-0.439C0.197,26.86-0.003,26.868,0,26.558
			c0.013-1.517,0.006-3.035,0.006-4.608c0.757-0.143,1.503-0.281,2.248-0.423c0.425-0.081,0.967-0.039,1.236-0.289
			c0.247-0.229,0.2-0.777,0.283-1.184c0.196-0.969,0.196-0.968-0.643-1.49c-0.71-0.442-1.42-0.885-2.155-1.343
			c0.626-1.522,1.243-3.026,1.87-4.551c1.038,0.245,2.051,0.47,3.055,0.73c0.277,0.071,0.415,0.015,0.558-0.225
			c0.319-0.532,0.667-1.046,1.012-1.58c-0.665-0.934-1.327-1.861-1.954-2.74C6.662,7.707,7.789,6.576,8.952,5.41
			c0.87,0.619,1.809,1.287,2.765,1.968c0.563-0.37,1.126-0.722,1.663-1.11c0.096-0.068,0.146-0.294,0.117-0.426
			c-0.226-1.027-0.476-2.049-0.724-3.103c1.523-0.625,3.027-1.243,4.552-1.869c0.574,0.921,1.138,1.811,1.682,2.712
			c0.134,0.221,0.263,0.293,0.519,0.233c0.506-0.118,1.018-0.217,1.531-0.292c0.282-0.04,0.369-0.168,0.408-0.44
			c0.149-1.026,0.329-2.049,0.5-3.084c1.639,0,3.24,0,4.881,0c0.17,0.913,0.342,1.817,0.504,2.724
			c0.141,0.792,0.136,0.792,0.94,0.942c0.284,0.053,0.581,0.075,0.847,0.177c0.443,0.169,0.663-0.001,0.882-0.381
			c0.482-0.839,1.013-1.648,1.548-2.509c1.512,0.62,3.015,1.236,4.552,1.867c-0.241,1.025-0.464,2.036-0.724,3.038
			c-0.076,0.294-0.02,0.44,0.238,0.592c0.523,0.307,1.022,0.651,1.561,0.998c0.933-0.665,1.869-1.332,2.77-1.974
			C41.109,6.621,42.231,7.744,43.396,8.909z M39.059,24.369c-0.018-8.037-6.61-14.629-14.645-14.637
			C16.371,9.724,9.742,16.355,9.756,24.396c0.014,8.037,6.605,14.627,14.643,14.638C32.435,39.045,39.073,32.404,39.059,24.369z"/>
		<path fill-rule="evenodd" clip-rule="evenodd" fill="#FEFFFF" d="M21.963,24.385c0.806,1.874,1.6,3.724,2.443,5.686
			c0.839-1.952,1.633-3.799,2.442-5.685c1.024,0.29,2.032,0.575,3.041,0.86c0.403,0.115,0.807,0.227,1.208,0.344
			c0.889,0.26,1.487,0.835,1.734,1.72c0.361,1.293,0.692,2.595,1.006,3.9c0.191,0.795-0.199,1.534-0.976,1.874
			c-1.997,0.874-4.076,1.462-6.245,1.706c-3.675,0.414-7.196-0.196-10.588-1.634c-0.965-0.409-1.338-1.148-1.084-2.161
			c0.291-1.163,0.586-2.323,0.885-3.484c0.255-0.992,0.867-1.64,1.863-1.918C19.107,25.197,20.521,24.793,21.963,24.385z"/>
		<path fill-rule="evenodd" clip-rule="evenodd" fill="#FEFFFF" d="M21.1,17.321c0.061-0.615,0.049-1.249,0.192-1.844
			c0.397-1.647,1.82-2.626,3.48-2.468c1.536,0.146,2.765,1.47,2.882,3.086c0.134,1.872-0.216,3.685-0.715,5.468
			c-0.248,0.89-1.013,1.429-1.688,1.979c-0.415,0.338-1.665,0.097-2.054-0.289c-0.226-0.224-0.446-0.452-0.674-0.674
			c-0.396-0.382-0.654-0.832-0.762-1.378C21.51,19.918,21.041,18.668,21.1,17.321z"/>
	</g>
</g>
</svg>
