<?xml version="1.0" encoding="utf-8"?>
<!-- Generator: Adobe Illustrator 16.0.2, SVG Export Plug-In . SVG Version: 6.00 Build 0)  -->
<!DOCTYPE svg PUBLIC "-//W3C//DTD SVG 1.1//EN" "http://www.w3.org/Graphics/SVG/1.1/DTD/svg11.dtd">
<svg version="1.1" id="Слой_1" xmlns="http://www.w3.org/2000/svg" xmlns:xlink="http://www.w3.org/1999/xlink" x="0px" y="0px"
	 width="45.491px" height="45.475px" viewBox="0 0 45.491 45.475" enable-background="new 0 0 45.491 45.475" xml:space="preserve">
<g>
	<path fill-rule="evenodd" clip-rule="evenodd" fill="#FFFFFF" d="M42.315,39.396c0.115,0.014,0.34,0.032,0.563,0.067
		c1.608,0.253,2.672,1.631,2.547,3.295c-0.111,1.487-1.413,2.694-2.962,2.707c-1.926,0.017-3.85,0.005-5.774,0.006
		c-11.159,0-22.318,0.001-33.478,0c-1.434,0-2.544-0.724-3.005-1.951c-0.723-1.917,0.594-3.936,2.672-4.101
		c0.118-0.01,0.237-0.016,0.251-0.016c0.057-1.248,0.1-2.463,0.168-3.676c0.171-2.997,0.354-5.991,0.531-8.987
		c0.215-3.64,0.429-7.281,0.649-10.921c0.011-0.198,0.068-0.394,0.112-0.636c-0.478,0-0.932,0.002-1.385,0
		c-1.6-0.01-2.803-0.945-3.133-2.435c-0.314-1.41,0.41-2.803,1.822-3.459C8.317,6.304,14.74,3.318,21.17,0.35
		c1.012-0.467,2.082-0.466,3.094,0c6.471,2.979,12.933,5.973,19.396,8.969c1.383,0.643,2.076,2.044,1.754,3.493
		c-0.313,1.404-1.549,2.362-3.064,2.372c-0.483,0.003-0.967,0.001-1.404,0.001c0.239,4.052,0.484,8.077,0.711,12.103
		C41.881,31.311,42.2,35.331,42.315,39.396z M30.306,15.2c0.042,0.504,0.095,0.983,0.123,1.462
		c0.209,3.491,0.414,6.982,0.621,10.473c0.15,2.537,0.307,5.075,0.451,7.612c0.087,1.539,0.152,3.078,0.229,4.635
		c1.038,0,2.181,0,3.216,0c0.104-4.064,0.438-8.082,0.653-12.104c0.214-4.022,0.477-8.043,0.719-12.079
		C34.332,15.2,32.315,15.2,30.306,15.2z M19.671,15.205c0.051,0.297,0.113,0.546,0.129,0.798c0.2,3.342,0.392,6.686,0.588,10.029
		c0.149,2.563,0.322,5.127,0.447,7.692c0.094,1.885,0.319,3.766,0.251,5.667c1.084,0,2.222,0,3.362,0
		c-0.148-1.039,0.974-21.505,1.324-24.187C23.745,15.205,21.72,15.205,19.671,15.205z M9.097,15.206
		c0.047,0.461,0.107,0.899,0.132,1.338c0.125,2.068,0.235,4.136,0.357,6.204c0.284,4.793,0.577,9.585,0.851,14.379
		c0.043,0.745,0.006,1.495,0.006,2.257c1.105,0,2.251,0,3.402,0c-0.146-0.992,1.006-21.81,1.332-24.177
		C13.149,15.206,11.123,15.206,9.097,15.206z M19.643,11.243c-0.029,0.729,0.544,1.109,1.12,0.814
		c0.588-0.299,1.149-0.645,1.736-0.943c0.125-0.064,0.335-0.064,0.464-0.004c0.521,0.249,1.027,0.529,1.533,0.808
		c0.335,0.185,0.666,0.301,1.017,0.044c0.354-0.258,0.323-0.619,0.262-0.988c-0.098-0.57-0.186-1.142-0.292-1.709
		c-0.05-0.263,0.013-0.453,0.21-0.642c0.449-0.427,0.87-0.881,1.307-1.32c0.242-0.242,0.334-0.526,0.22-0.846
		c-0.107-0.306-0.354-0.452-0.675-0.498c-0.625-0.09-1.252-0.179-1.872-0.299c-0.141-0.027-0.309-0.157-0.374-0.286
		c-0.3-0.586-0.569-1.186-0.844-1.785c-0.141-0.308-0.362-0.51-0.705-0.518c-0.361-0.008-0.598,0.193-0.748,0.517
		c-0.272,0.598-0.543,1.199-0.843,1.785c-0.064,0.128-0.231,0.259-0.372,0.287c-0.605,0.119-1.219,0.21-1.831,0.292
		c-0.336,0.045-0.6,0.181-0.717,0.502c-0.122,0.338-0.008,0.626,0.245,0.876c0.421,0.417,0.814,0.86,1.251,1.261
		c0.241,0.222,0.286,0.448,0.229,0.75C19.839,10.004,19.738,10.669,19.643,11.243z"/>
	<path fill-rule="evenodd" clip-rule="evenodd" fill="#FFFFFF" d="M20.523,7.188c0.391,0.465,0.843,0.798,0.984,1.231
		c0.144,0.441-0.021,0.983-0.058,1.609c0.883-0.865,1.744-0.778,2.602-0.017c-0.046-0.594-0.221-1.127-0.081-1.56
		c0.144-0.444,0.593-0.79,0.985-1.272c-1.206,0.145-1.896-0.406-2.229-1.545C22.442,6.823,21.699,7.295,20.523,7.188z"/>
	<path fill-rule="evenodd" clip-rule="evenodd" fill="#FFFFFF" d="M20.523,7.188c1.176,0.108,1.919-0.364,2.203-1.554
		c0.334,1.139,1.023,1.689,2.229,1.545c-0.393,0.482-0.842,0.828-0.985,1.272c-0.14,0.433,0.035,0.966,0.081,1.56
		c-0.857-0.762-1.719-0.849-2.602,0.017c0.036-0.626,0.201-1.167,0.058-1.609C21.366,7.985,20.914,7.653,20.523,7.188z"/>
</g>
</svg>
