<?xml version="1.0" encoding="utf-8"?>
<!-- Generator: Adobe Illustrator 16.0.2, SVG Export Plug-In . SVG Version: 6.00 Build 0)  -->
<!DOCTYPE svg PUBLIC "-//W3C//DTD SVG 1.1//EN" "http://www.w3.org/Graphics/SVG/1.1/DTD/svg11.dtd">
<svg version="1.1" id="Слой_1" xmlns="http://www.w3.org/2000/svg" xmlns:xlink="http://www.w3.org/1999/xlink" x="0px" y="0px"
	 width="49.208px" height="39.823px" viewBox="0 0 49.208 39.823" enable-background="new 0 0 49.208 39.823" xml:space="preserve">
<g>
	<path fill-rule="evenodd" clip-rule="evenodd" fill="#FFFFFF" d="M5.483,16.735c-1.554-0.854-3.122-1.685-4.657-2.569
		c-1.141-0.657-1.089-2.157,0.081-2.811c2.58-1.444,5.172-2.869,7.758-4.302c3.224-1.785,6.438-3.592,9.674-5.352
		c4.178-2.269,8.392-2.273,12.558,0.008c5.8,3.174,11.571,6.402,17.358,9.602c0.594,0.329,0.955,0.794,0.953,1.484
		c-0.004,0.672-0.351,1.143-0.933,1.452c-0.066,0.037-0.133,0.074-0.2,0.11c-5.65,3.13-11.294,6.276-16.962,9.375
		c-1.03,0.562-2.133,1.049-3.261,1.359c-3.244,0.895-6.381,0.49-9.334-1.124c-3.582-1.955-7.141-3.947-10.711-5.923
		c-0.142-0.079-0.287-0.148-0.483-0.249c-0.009,0.177-0.02,0.305-0.021,0.434c-0.003,0.288,0.014,0.578-0.003,0.865
		c-0.181,2.827,0.257,5.596,0.767,8.359c0.092,0.489,0.136,0.992,0.14,1.489c0.015,2.186,0.006,4.372,0.006,6.592
		c-1.214,0-2.401,0-3.644,0c0-0.171,0-0.333,0-0.496c0-1.26,0.045-2.523-0.012-3.78c-0.095-2.185,0.16-4.332,0.59-6.462
		c0.265-1.315,0.367-2.637,0.338-3.979c-0.028-1.364-0.006-2.73-0.008-4.096c0.584,0.337,1.168,0.675,1.839,1.063
		c0-1.115,0-2.133,0-3.186c6.399,0,12.736,0,19.086,0c0-0.618,0-1.2,0-1.767c-6.988,0-13.943,0-20.919,0
		C5.483,14.159,5.483,15.447,5.483,16.735z"/>
	<path fill-rule="evenodd" clip-rule="evenodd" fill="#FFFFFF" d="M11.858,24.487c0.273,0.135,0.407,0.195,0.535,0.267
		c1.394,0.769,2.775,1.56,4.181,2.31c5.346,2.854,10.704,2.855,16.055,0.012c1.254-0.667,2.489-1.374,3.771-2.083
		c0.207,1.08,0.386,2.118,0.606,3.146c0.193,0.904,0.412,1.804,0.664,2.693c0.11,0.387,0.343,0.739,0.499,1.115
		c0.407,0.983,0.022,1.618-1.034,1.508c-1.75-0.184-3.262,0.417-4.705,1.252c-1.854,1.072-3.61,2.295-5.201,3.742
		c-0.38,0.346-0.785,0.673-1.222,0.944c-0.936,0.583-1.912,0.566-2.838-0.009c-0.485-0.303-0.925-0.689-1.339-1.086
		c-1.819-1.749-3.783-3.285-6.162-4.207c-1.283-0.497-2.601-0.825-4.001-0.608c-0.23,0.036-0.487-0.001-0.719-0.061
		c-0.629-0.161-0.87-0.633-0.655-1.255c0.055-0.155,0.12-0.314,0.216-0.449c0.944-1.36,1.232-2.921,1.34-4.522
		C11.903,26.336,11.858,25.47,11.858,24.487z"/>
</g>
</svg>
