<?xml version="1.0" encoding="utf-8"?>
<!-- Generator: Adobe Illustrator 16.0.2, SVG Export Plug-In . SVG Version: 6.00 Build 0)  -->
<!DOCTYPE svg PUBLIC "-//W3C//DTD SVG 1.1//EN" "http://www.w3.org/Graphics/SVG/1.1/DTD/svg11.dtd">
<svg version="1.1" id="Слой_1" xmlns="http://www.w3.org/2000/svg" xmlns:xlink="http://www.w3.org/1999/xlink" x="0px" y="0px"
	 width="32.155px" height="46.188px" viewBox="0 0 32.155 46.188" enable-background="new 0 0 32.155 46.188" xml:space="preserve">
<g>
	<g>
		<path fill-rule="evenodd" clip-rule="evenodd" fill="#FEFFFF" d="M24.084,0c0,0.934,0,1.867,0,2.838c-0.619,0-1.189,0-1.815,0
			c0,0.175,0,0.312,0,0.449c0,3.874,0.005,7.747-0.008,11.62c-0.001,0.313,0.114,0.437,0.379,0.563
			c5.287,2.518,8.474,6.661,9.342,12.452c1.284,8.581-4.7,16.637-13.301,18.05c-8.704,1.43-16.893-4.391-18.44-13.11
			c-1.27-7.159,2.584-14.417,9.24-17.376c0.302-0.134,0.416-0.278,0.414-0.617C9.881,11.021,9.886,7.174,9.886,3.326
			c0-0.139,0-0.279,0-0.457c-0.602,0-1.172,0-1.813,0c0-0.982,0-1.926,0-2.869C13.41,0,18.747,0,24.084,0z M12.213,4.017
			c0,0.171,0,0.321,0,0.471c0,3.874,0,7.747,0,11.621c0,0.789,0,0.789-0.732,1.055c-6.304,2.297-10.017,8.573-8.964,15.151
			c1.206,7.537,8.35,12.641,15.883,11.349c8.118-1.394,13.223-9.562,10.841-17.447c-1.357-4.501-4.346-7.52-8.763-9.113
			c-0.417-0.151-0.55-0.332-0.547-0.778c0.021-3.95,0.012-7.901,0.012-11.852c0-0.149,0-0.297,0-0.457
			C17.346,4.017,14.801,4.017,12.213,4.017z"/>
		<path fill-rule="evenodd" clip-rule="evenodd" fill="#FEFFFF" d="M31.137,28.542c0.364,5.126-3.065,11.413-7.416,14.167
			c-4.364,2.762-12.127,1.834-16.5-0.917c-4.374-2.751-6.865-8.023-6.5-13.167C9.004,28.625,22.822,28.542,31.137,28.542z
			 M20.498,32.824c0.897,0,1.612-0.71,1.619-1.608c0.006-0.889-0.711-1.623-1.6-1.636c-0.894-0.014-1.654,0.742-1.646,1.636
			C18.879,32.104,19.605,32.823,20.498,32.824z M12.778,32.962c0.007-0.762-0.586-1.379-1.34-1.396
			c-0.767-0.016-1.4,0.606-1.4,1.376c0,0.753,0.612,1.374,1.362,1.38C12.15,34.329,12.77,33.716,12.778,32.962z M18.448,39.045
			c0.612,0,1.095-0.479,1.098-1.089c0.003-0.611-0.474-1.095-1.084-1.102c-0.627-0.007-1.133,0.491-1.124,1.108
			C17.348,38.569,17.836,39.045,18.448,39.045z"/>
		<path fill-rule="evenodd" clip-rule="evenodd" fill="#FEFFFF" d="M14.656,22.37c1.179,0.004,2.121,0.955,2.113,2.132
			c-0.008,1.153-0.953,2.097-2.109,2.106c-1.168,0.009-2.125-0.945-2.127-2.121C12.533,23.306,13.475,22.366,14.656,22.37z"/>
		<path fill-rule="evenodd" clip-rule="evenodd" fill="#FEFFFF" d="M15.408,17.644c-0.631,0.002-1.115-0.484-1.111-1.116
			c0.003-0.609,0.48-1.097,1.086-1.112c0.605-0.014,1.133,0.497,1.143,1.106C16.535,17.135,16.03,17.642,15.408,17.644z"/>
	</g>
</g>
</svg>
