<?xml version="1.0" encoding="utf-8"?>
<!-- Generator: Adobe Illustrator 16.0.2, SVG Export Plug-In . SVG Version: 6.00 Build 0)  -->
<!DOCTYPE svg PUBLIC "-//W3C//DTD SVG 1.1//EN" "http://www.w3.org/Graphics/SVG/1.1/DTD/svg11.dtd">
<svg version="1.1" id="Слой_1" xmlns="http://www.w3.org/2000/svg" xmlns:xlink="http://www.w3.org/1999/xlink" x="0px" y="0px"
	 width="46.106px" height="46.394px" viewBox="0 0 46.106 46.394" enable-background="new 0 0 46.106 46.394" xml:space="preserve">
<g>
	<g>
		<path fill-rule="evenodd" clip-rule="evenodd" fill="#FFFFFF" d="M23.063,46.388c-0.639,0-1.277,0.007-1.915-0.001
			c-0.85-0.013-1.336-0.476-1.385-1.322c-0.163-2.751-0.321-5.502-0.468-8.254c-0.014-0.276-0.102-0.366-0.373-0.396
			c-0.538-0.062-1.074-0.153-1.606-0.255c-0.653-0.125-0.941-0.497-0.87-1.15c0.141-1.253,0.266-2.512,0.462-3.757
			c0.345-2.197,1.961-3.738,4.175-3.89c1.351-0.092,2.719-0.079,4.066,0.017c2.067,0.148,3.804,1.87,4.077,3.932
			c0.167,1.25,0.309,2.504,0.454,3.757c0.062,0.533-0.209,0.935-0.738,1.051c-0.556,0.121-1.119,0.23-1.684,0.284
			c-0.34,0.032-0.422,0.167-0.437,0.476c-0.083,1.667-0.186,3.333-0.279,5c-0.06,1.071-0.11,2.142-0.176,3.212
			c-0.047,0.768-0.575,1.275-1.351,1.293C24.365,46.399,23.713,46.387,23.063,46.388z"/>
		<path fill-rule="evenodd" clip-rule="evenodd" fill="#FFFFFF" d="M10.424,36.483c-0.088,1.511-0.172,2.987-0.258,4.464
			c-0.08,1.396-0.154,2.792-0.24,4.187c-0.044,0.711-0.551,1.234-1.259,1.245c-1.356,0.021-2.714,0.021-4.07,0
			c-0.733-0.011-1.227-0.525-1.271-1.274c-0.146-2.534-0.288-5.068-0.418-7.603c-0.054-1.02-0.042-1.016-1.067-1.172
			c-0.389-0.059-0.776-0.128-1.157-0.227c-0.444-0.114-0.729-0.489-0.678-0.939c0.151-1.375,0.263-2.76,0.514-4.118
			c0.387-2.094,2.009-3.542,4.145-3.683c1.35-0.089,2.718-0.078,4.068,0.019c2.098,0.149,3.783,1.864,4.033,3.945
			c0.143,1.186,0.308,2.368,0.468,3.551c0.105,0.769-0.165,1.159-0.926,1.295C11.693,36.28,11.081,36.375,10.424,36.483z"/>
		<path fill-rule="evenodd" clip-rule="evenodd" fill="#FFFFFF" d="M39.48,46.388c-0.625,0-1.25,0.005-1.875-0.001
			c-0.879-0.01-1.377-0.46-1.43-1.33c-0.125-2.086-0.234-4.174-0.349-6.263c-0.035-0.65-0.079-1.301-0.099-1.953
			c-0.009-0.278-0.094-0.401-0.397-0.431c-0.538-0.052-1.073-0.152-1.605-0.255c-0.64-0.124-0.915-0.482-0.846-1.124
			c0.136-1.268,0.259-2.539,0.446-3.8c0.313-2.112,1.981-3.712,4.123-3.862c1.362-0.096,2.744-0.087,4.107,0.009
			c2.056,0.145,3.772,1.861,4.049,3.904c0.16,1.184,0.319,2.367,0.476,3.55c0.111,0.857-0.139,1.196-1.001,1.349
			c-0.494,0.087-0.989,0.173-1.486,0.236c-0.225,0.028-0.332,0.094-0.347,0.343c-0.13,2.508-0.271,5.016-0.412,7.523
			c-0.016,0.299-0.027,0.598-0.06,0.895c-0.078,0.716-0.577,1.186-1.3,1.204C40.811,46.4,40.146,46.387,39.48,46.388L39.48,46.388z"
			/>
		<path fill-rule="evenodd" clip-rule="evenodd" fill="#FFFFFF" d="M23.051,0c2.362,0.005,4.292,1.942,4.291,4.306
			c-0.001,2.36-1.938,4.296-4.303,4.3c-2.377,0.004-4.326-1.954-4.313-4.332C18.742,1.911,20.68-0.004,23.051,0z"/>
		<path fill-rule="evenodd" clip-rule="evenodd" fill="#FFFFFF" d="M26.947,12.96c-0.002-2.37,1.921-4.304,4.285-4.314
			c2.377-0.008,4.335,1.95,4.322,4.323c-0.014,2.367-1.952,4.297-4.311,4.293C28.878,17.258,26.948,15.326,26.947,12.96z"/>
		<path fill-rule="evenodd" clip-rule="evenodd" fill="#FFFFFF" d="M19.123,12.957c0,2.365-1.931,4.3-4.295,4.306
			c-2.36,0.005-4.299-1.923-4.313-4.291c-0.013-2.375,1.942-4.332,4.319-4.325C17.199,8.655,19.125,10.59,19.123,12.957z"/>
		<path fill-rule="evenodd" clip-rule="evenodd" fill="#FFFFFF" d="M23.033,25.91c-2.367,0-4.301-1.929-4.307-4.293
			c-0.004-2.377,1.956-4.333,4.33-4.315c2.368,0.018,4.294,1.957,4.285,4.318C27.336,23.983,25.399,25.912,23.033,25.91z"/>
		<path fill-rule="evenodd" clip-rule="evenodd" fill="#FFFFFF" d="M10.903,21.627C10.895,24,8.975,25.913,6.598,25.91
			c-2.37-0.002-4.281-1.92-4.285-4.3c0-2.391,1.948-4.333,4.325-4.308C9.016,17.328,10.911,19.248,10.903,21.627z"/>
		<path fill-rule="evenodd" clip-rule="evenodd" fill="#FFFFFF" d="M43.756,21.604c0,2.381-1.91,4.302-4.279,4.306
			c-2.395,0.005-4.313-1.919-4.31-4.318c0.004-2.372,1.934-4.295,4.3-4.291C41.838,17.307,43.756,19.23,43.756,21.604z"/>
	</g>
</g>
</svg>
