<?xml version="1.0" encoding="utf-8"?>
<!-- Generator: Adobe Illustrator 16.0.2, SVG Export Plug-In . SVG Version: 6.00 Build 0)  -->
<!DOCTYPE svg PUBLIC "-//W3C//DTD SVG 1.1//EN" "http://www.w3.org/Graphics/SVG/1.1/DTD/svg11.dtd">
<svg version="1.1" id="Слой_1" xmlns="http://www.w3.org/2000/svg" xmlns:xlink="http://www.w3.org/1999/xlink" x="0px" y="0px"
	 width="29.591px" height="40.166px" viewBox="0 0 29.591 40.166" enable-background="new 0 0 29.591 40.166" xml:space="preserve">
<g>
	<path fill-rule="evenodd" clip-rule="evenodd" fill="#FFFFFF" d="M13.91,24.527c-0.073-0.967,0.216-1.757,1.172-2.007
		c1.214-0.317,2.017,0.337,2.558,1.437c-0.086-1.05,0.367-1.772,1.298-2.039c1.055-0.302,1.688,0.41,2.237,1.278
		c0-0.354-0.031-0.645,0.009-0.923c0.085-0.597,0.529-1.038,1.114-1.157c0.759-0.155,1.564,0.101,1.872,0.595
		c0.833,1.336,1.673,2.665,2.491,4.008c0.648,1.064,1.279,2.143,1.903,3.223c0.445,0.772,0.687,1.602,0.569,2.505
		c-0.094,0.742,0.036,1.436,0.457,2.136c-3.603,2.194-7.198,4.385-10.811,6.585c-0.331-0.51-0.639-1.005-0.969-1.485
		c-0.654-0.951-1.482-1.593-2.678-1.814c-1.518-0.282-3.01-0.708-4.511-1.083c-0.305-0.076-0.605-0.181-0.89-0.313
		c-1.257-0.583-1.518-1.896-0.593-2.936c0.626-0.702,1.413-0.95,2.325-0.743c0.996,0.227,1.983,0.481,2.977,0.722
		c0.084,0.021,0.171,0.033,0.322,0.062c-0.108-0.196-0.181-0.337-0.264-0.473c-2.404-3.938-4.809-7.877-7.213-11.815
		c-0.558-0.913-0.372-1.931,0.451-2.454c0.854-0.541,1.87-0.276,2.441,0.65c1.17,1.893,2.332,3.79,3.496,5.684
		C13.752,24.289,13.833,24.407,13.91,24.527z"/>
	<path fill-rule="evenodd" clip-rule="evenodd" fill="#FFFFFF" d="M6.134,11.334c-1.413,0-2.827,0.003-4.242-0.001
		c-1.239-0.004-1.888-0.655-1.889-1.897C0,6.939-0.001,4.442,0.003,1.944c0.002-1.247,0.679-1.938,1.916-1.94
		c2.828-0.005,5.656-0.005,8.483,0c1.218,0.001,1.891,0.681,1.893,1.909c0.006,2.498,0.005,4.995,0,7.491
		c-0.002,1.251-0.679,1.929-1.919,1.93C8.963,11.336,7.548,11.334,6.134,11.334z M4.619,3.877C5.156,3.878,5.588,3.44,5.581,2.901
		C5.574,2.371,5.129,1.945,4.587,1.954C4.044,1.962,3.663,2.353,3.66,2.901C3.657,3.453,4.073,3.876,4.619,3.877z M4.605,4.546
		c-0.551,0-0.938,0.382-0.944,0.932C3.653,6.026,4.067,6.46,4.61,6.471c0.558,0.012,0.973-0.397,0.971-0.958
		C5.58,4.968,5.153,4.546,4.605,4.546z M8.569,5.536c0.008-0.552-0.402-0.982-0.945-0.989C7.081,4.539,6.648,4.966,6.65,5.509
		c0.001,0.536,0.437,0.965,0.978,0.962C8.171,6.469,8.562,6.08,8.569,5.536z M7.636,9.458c0.545-0.005,0.929-0.392,0.934-0.94
		C8.575,7.969,8.158,7.54,7.615,7.537C7.073,7.535,6.645,7.966,6.649,8.508C6.655,9.046,7.089,9.464,7.636,9.458z M8.567,2.981
		c0.033-0.54-0.378-1.002-0.91-1.026C7.148,1.932,6.681,2.376,6.651,2.909C6.626,3.396,7.024,3.833,7.528,3.873
		C8.075,3.916,8.535,3.52,8.567,2.981z"/>
	<path fill-rule="evenodd" clip-rule="evenodd" fill="#FFFFFF" d="M19.622,11.334c-1.414,0-2.827-0.024-4.24,0.008
		c-0.939,0.021-1.912-0.655-1.888-1.881c0.052-2.525,0.014-5.053,0.018-7.579c0-1.191,0.677-1.875,1.872-1.878
		c2.842-0.005,5.685-0.005,8.526,0c1.189,0.002,1.885,0.698,1.886,1.875c0.002,2.526,0.002,5.053,0,7.579
		c-0.001,1.171-0.707,1.872-1.889,1.875C22.479,11.337,21.051,11.334,19.622,11.334z M20.041,5.517c0-0.547-0.411-0.964-0.959-0.972
		c-0.563-0.006-0.963,0.388-0.962,0.951c0,0.538,0.423,0.968,0.959,0.976C19.639,6.48,20.041,6.08,20.041,5.517z M17.188,9.458
		c0.555,0.022,0.984-0.369,1.008-0.918c0.021-0.524-0.408-0.981-0.939-1.003c-0.561-0.021-0.987,0.366-1.008,0.917
		C16.228,8.979,16.656,9.438,17.188,9.458z M23.036,5.531c0.007-0.546-0.413-0.98-0.954-0.985c-0.538-0.003-0.979,0.434-0.976,0.967
		c0.004,0.512,0.426,0.94,0.943,0.958C22.611,6.49,23.027,6.094,23.036,5.531z M18.12,2.589c0.002,0.535,0.446,0.984,0.972,0.98
		c0.522-0.003,0.958-0.463,0.947-1c-0.008-0.512-0.438-0.939-0.954-0.949C18.538,1.611,18.117,2.032,18.12,2.589z M22.083,3.568
		c0.521-0.004,0.964-0.468,0.951-1.001c-0.012-0.509-0.457-0.948-0.961-0.946c-0.488,0.001-0.965,0.501-0.967,1.013
		C21.105,3.119,21.579,3.573,22.083,3.568z"/>
	<path fill-rule="evenodd" clip-rule="evenodd" fill="#FFFFFF" d="M7.369,23.775c-0.203,0.011-0.318,0.023-0.433,0.023
		c-1.686,0.001-3.372,0.003-5.057-0.001c-1.172-0.002-1.875-0.706-1.877-1.889c-0.004-2.543-0.005-5.086,0.001-7.629
		c0.003-1.192,0.685-1.877,1.878-1.879c2.858-0.006,5.717-0.006,8.576,0c1.147,0.002,1.829,0.675,1.836,1.819
		c0.011,1.473,0.003,2.945-0.049,4.462c-0.812-1.404-1.659-2.743-3.565-2.654c-0.024-0.559-0.235-0.958-0.782-1.097
		c-0.375-0.095-0.691,0.027-0.932,0.311c-0.334,0.395-0.3,0.827-0.048,1.255c-0.044,0.041-0.072,0.076-0.106,0.1
		C4.998,17.82,4.685,19.72,5.96,21.518C6.459,22.223,6.878,22.983,7.369,23.775z M5.581,15.783
		c-0.001-0.531-0.445-0.969-0.978-0.961c-0.518,0.008-0.935,0.428-0.942,0.95c-0.009,0.535,0.425,0.985,0.951,0.987
		C5.138,16.762,5.581,16.314,5.581,15.783z"/>
	<path fill-rule="evenodd" clip-rule="evenodd" fill="#FFFFFF" d="M17.048,20.279c-0.985-1.14-2.124-1.231-3.408-0.393
		c-0.013-0.186-0.031-0.312-0.031-0.438c-0.002-1.761,0.033-3.522-0.016-5.281c-0.025-0.954,0.732-1.867,1.867-1.848
		c2.903,0.051,5.808,0.004,8.712-0.001c0.933-0.001,1.703,0.695,1.711,1.617c0.02,2.467,0.007,4.935,0.007,7.532
		c-0.193-0.194-0.307-0.316-0.428-0.433c-0.887-0.85-1.894-1.419-3.169-1.307c-0.34,0.03-0.669,0.16-1.006,0.226
		c-0.125,0.024-0.292,0.049-0.386-0.012C19.554,19.062,18.315,19.424,17.048,20.279z M21.376,16.923
		c0.517-0.005,0.977-0.484,0.961-1.002c-0.017-0.503-0.463-0.938-0.972-0.945c-0.544-0.009-0.977,0.422-0.974,0.969
		C20.396,16.471,20.854,16.928,21.376,16.923z M21.398,19.496c0.551-0.01,0.96-0.44,0.938-0.986
		c-0.021-0.533-0.467-0.947-1.006-0.938c-0.549,0.011-0.959,0.443-0.939,0.988C20.411,19.09,20.856,19.505,21.398,19.496z
		 M18.3,14.976c-0.485-0.002-0.972,0.499-0.979,1.005c-0.006,0.478,0.474,0.941,0.976,0.941c0.516,0.001,0.978-0.474,0.966-0.995
		C19.251,15.425,18.798,14.978,18.3,14.976z M18.298,17.572c-0.513-0.001-0.902,0.426-0.893,0.979
		c0.009,0.516,0.402,0.898,0.926,0.9c0.524,0.001,0.924-0.384,0.931-0.896C19.271,18.024,18.829,17.574,18.298,17.572z"/>
</g>
</svg>
