<?xml version="1.0" encoding="utf-8"?>
<!-- Generator: Adobe Illustrator 16.0.2, SVG Export Plug-In . SVG Version: 6.00 Build 0)  -->
<!DOCTYPE svg PUBLIC "-//W3C//DTD SVG 1.1//EN" "http://www.w3.org/Graphics/SVG/1.1/DTD/svg11.dtd">
<svg version="1.1" id="Слой_1" xmlns="http://www.w3.org/2000/svg" xmlns:xlink="http://www.w3.org/1999/xlink" x="0px" y="0px"
	 width="44.919px" height="44.674px" viewBox="0 0 44.919 44.674" enable-background="new 0 0 44.919 44.674" xml:space="preserve">
<g>
	<g>
		<path fill-rule="evenodd" clip-rule="evenodd" fill="#FFFFFF" d="M11.429,44.674C7.622,41.552,3.83,38.441,0,35.297
			c0.127-0.14,0.226-0.26,0.337-0.368c2.059-2.021,4.087-4.074,6.185-6.054c3.875-3.657,8.361-4.607,13.412-2.906
			c0.186,0.063,0.393,0.089,0.591,0.09c2.588,0.005,5.177-0.006,7.767,0.007c1.729,0.009,3.107,1.486,3.002,3.183
			c-0.097,1.579-1.449,2.869-3.054,2.881c-1.956,0.014-3.91,0.003-5.864,0.003c-0.108,0-0.217-0.002-0.325,0.001
			c-0.616,0.016-1.049,0.423-1.053,0.991c-0.005,0.558,0.436,0.997,1.04,1.018c0.432,0.014,0.863,0.003,1.295,0.003
			c1.805,0,3.613-0.021,5.42,0.007c1.334,0.021,2.38-0.478,3.254-1.487c2.423-2.805,4.878-5.582,7.318-8.374
			c0.457-0.524,1.008-0.894,1.683-1.056c1.343-0.321,2.706,0.24,3.431,1.4c0.723,1.158,0.631,2.62-0.266,3.693
			c-0.926,1.106-1.876,2.192-2.815,3.287c-2.229,2.599-4.454,5.203-6.69,7.796c-1.533,1.777-3.492,2.658-5.836,2.662
			c-4.8,0.007-9.6,0.005-14.399-0.004c-0.294,0-0.499,0.078-0.704,0.29C12.977,43.137,12.209,43.893,11.429,44.674z"/>
		<path fill-rule="evenodd" clip-rule="evenodd" fill="#FFFFFF" d="M27.176,3.395c0.737-1.086,1.587-1.958,2.686-2.563
			c3.325-1.833,7.599-0.436,9.354,3.074c1.168,2.334,0.995,4.693,0.026,7.037c-1.012,2.446-2.697,4.396-4.637,6.146
			c-2.182,1.97-4.631,3.562-7.201,4.975c-0.115,0.063-0.322,0.08-0.431,0.02c-3.354-1.855-6.515-3.974-9.091-6.856
			c-1.592-1.781-2.842-3.757-3.365-6.129c-0.826-3.735,1.006-7.326,4.412-8.638c2.924-1.125,5.995-0.147,7.951,2.537
			C26.968,3.114,27.054,3.229,27.176,3.395z"/>
	</g>
</g>
</svg>
