<?xml version="1.0" encoding="utf-8"?>
<!-- Generator: Adobe Illustrator 16.0.2, SVG Export Plug-In . SVG Version: 6.00 Build 0)  -->
<!DOCTYPE svg PUBLIC "-//W3C//DTD SVG 1.1//EN" "http://www.w3.org/Graphics/SVG/1.1/DTD/svg11.dtd">
<svg version="1.1" id="Слой_1" xmlns="http://www.w3.org/2000/svg" xmlns:xlink="http://www.w3.org/1999/xlink" x="0px" y="0px"
	 width="23.981px" height="15.655px" viewBox="-169.027 -149.154 23.981 15.655"
	 enable-background="new -169.027 -149.154 23.981 15.655" xml:space="preserve">
<g>
	<g>
		<path fill="#FFFFFF" d="M-159.61-136.932c-0.901-0.852-1.805-1.7-2.709-2.55c-0.073-0.069-0.153-0.132-0.296-0.255
			c0.205-0.011,0.305-0.021,0.405-0.021c5.617,0,11.234,0,16.849,0c0.106,0,0.211,0.015,0.315,0.022c0-1.062,0-2.122,0-3.183
			c-0.116,0.007-0.231,0.021-0.347,0.021c-5.595,0.001-11.19,0.001-16.787,0.001c-0.109,0-0.222,0-0.332,0
			c-0.021-0.034-0.042-0.069-0.063-0.104c0.093-0.063,0.196-0.118,0.276-0.194c2.016-1.895,4.027-3.792,6.041-5.689
			c0.093-0.087,0.178-0.181,0.266-0.271c-1.569,0-3.139,0-4.708,0c-0.086,0.092-0.168,0.189-0.259,0.275
			c-2.584,2.436-5.168,4.871-7.752,7.307c-0.077,0.071-0.153,0.143-0.317,0.297c0.128,0.082,0.247,0.135,0.339,0.219
			c2.579,2.426,5.154,4.854,7.73,7.283c0.091,0.086,0.173,0.182,0.259,0.273c1.569,0,3.139,0,4.708,0
			C-157.198-134.643-158.402-135.789-159.61-136.932z"/>
	</g>
</g>
</svg>
