<?xml version="1.0" encoding="utf-8"?>
<!-- Generator: Adobe Illustrator 16.0.0, SVG Export Plug-In . SVG Version: 6.00 Build 0)  -->
<!DOCTYPE svg PUBLIC "-//W3C//DTD SVG 1.1//EN" "http://www.w3.org/Graphics/SVG/1.1/DTD/svg11.dtd">
<svg version="1.1" id="Слой_1" xmlns="http://www.w3.org/2000/svg" xmlns:xlink="http://www.w3.org/1999/xlink" x="0px" y="0px"
	 width="43.667px" height="39.167px" viewBox="0 0 43.667 39.167" enable-background="new 0 0 43.667 39.167" xml:space="preserve">
<g>
	<linearGradient id="SVGID_1_" gradientUnits="userSpaceOnUse" x1="22.0112" y1="0.3213" x2="22.0112" y2="38.8286">
		<stop  offset="0" style="stop-color:#3CCFBC"/>
		<stop  offset="1" style="stop-color:#219BA5"/>
	</linearGradient>
	<path fill-rule="evenodd" clip-rule="evenodd" fill="url(#SVGID_1_)" d="M40.102,21.349c1.015,2.01,0.325,4.972-3.247,5.589
		c-0.255,2.137-1.473,3.356-3.63,3.681c-0.026,0.109-0.057,0.226-0.082,0.343c-0.443,2.137-2.226,3.368-4.37,2.998
		c-0.262-0.044-0.378,0.031-0.551,0.213c-1.188,1.262-2.332,2.58-3.618,3.736c-1.799,1.616-5.378,1.136-6.422-1.701
		c-0.115-0.313-0.274-0.465-0.609-0.572c-1.754-0.56-3.051-1.614-3.565-3.467c-0.033-0.123-0.188-0.27-0.313-0.301
		c-1.8-0.454-2.849-1.64-3.306-3.389c-0.075-0.283-0.193-0.4-0.47-0.47c-1.988-0.504-3.302-2-3.584-4.026
		c-0.021-0.146-0.121-0.305-0.227-0.413c-0.917-0.931-1.846-1.85-2.767-2.776C-0.247,17.182-0.25,11.7,3.336,8.095
		C5.021,6.4,6.712,4.71,8.406,3.025c3.632-3.612,9.089-3.604,12.72,0.019C21.411,3.326,21.674,3.63,22,3.981
		c0.315-0.333,0.574-0.62,0.846-0.891c3.674-3.664,9.158-3.668,12.823-0.011c1.682,1.678,3.364,3.357,5.04,5.041
		c3.554,3.568,3.554,9.066,0.003,12.634C40.517,20.951,40.314,21.142,40.102,21.349z M17.797,20.706
		c0.063,0.014,0.102,0.029,0.143,0.032c1.94,0.166,3.154,1.192,3.668,3.081c0.031,0.11,0.172,0.238,0.286,0.268
		c1.888,0.491,3.133,1.598,3.509,3.575c0.021,0.115,0.149,0.273,0.255,0.299c1.705,0.421,2.728,1.512,3.197,3.174
		c0.034,0.12,0.109,0.277,0.208,0.324c0.445,0.208,1.119-0.015,1.409-0.437c0.334-0.486,0.3-1.074-0.087-1.471
		c-2.523-2.586-5.045-5.172-7.567-7.758c-0.116-0.119-0.237-0.237-0.338-0.368c-0.299-0.388-0.328-0.95-0.083-1.372
		c0.253-0.436,0.74-0.709,1.232-0.582c0.316,0.081,0.65,0.26,0.879,0.492c2.546,2.582,5.073,5.181,7.606,7.776
		c0.533,0.546,1.539,0.453,1.975-0.181c0.375-0.547,0.332-1.055-0.133-1.524c-2.483-2.507-4.968-5.014-7.451-7.521
		c-0.117-0.118-0.239-0.234-0.334-0.371c-0.53-0.757-0.106-1.771,0.8-1.927c0.517-0.089,0.906,0.123,1.261,0.482
		c2.45,2.482,4.907,4.957,7.365,7.43c0.113,0.114,0.251,0.259,0.392,0.277c0.563,0.076,1.111,0.007,1.584-0.351
		c0.561-0.425,0.608-1.067,0.119-1.565c-3.41-3.467-6.82-6.935-10.231-10.401c-0.094-0.095-0.195-0.185-0.297-0.279
		c-1.283,1.24-2.52,2.482-3.811,3.661c-0.579,0.528-1.225,1.019-1.919,1.374c-2.622,1.337-5.904,0.668-7.611-1.486
		c-0.922-1.164-0.879-2.342,0.158-3.389c1.965-1.982,3.943-3.954,5.92-5.927c0.107-0.107,0.247-0.182,0.311-0.227
		c-0.48-0.523-0.899-0.979-1.346-1.467c-4.793,4.681-9.568,9.343-14.367,14.029c1.087,1.037,2.139,2.04,3.207,3.059
		c1.182-1.145,2.424-2.357,3.677-3.56c0.922-0.887,2.036-1.171,3.268-0.911C16.345,17.32,17.53,18.75,17.797,20.706z M25.739,3.818
		c-3.433,3.236-6.657,6.637-10.039,9.934c0.238,0.21,0.414,0.39,0.613,0.536c1.57,1.151,3.616,0.984,5.139-0.457
		c1.523-1.442,3.018-2.915,4.521-4.377c0.961-0.936,1.482-0.937,2.412,0.008c3.205,3.259,6.412,6.517,9.612,9.779
		c0.112,0.116,0.164,0.29,0.265,0.474c0.562-0.609,0.98-1.062,1.413-1.532C35.021,13.386,30.419,8.642,25.739,3.818z M23.008,28.31
		c-0.076-0.789-0.709-1.579-1.44-1.73c-0.282-0.058-0.523-0.022-0.753,0.211c-1.395,1.414-2.8,2.814-4.213,4.209
		c-0.187,0.185-0.212,0.357-0.146,0.593c0.25,0.886,0.924,1.308,1.715,1.617c0.236,0.092,0.399,0.054,0.582-0.138
		c1.29-1.361,2.598-2.703,3.883-4.068C22.81,28.82,22.886,28.544,23.008,28.31z M15.371,20.992
		c-0.107-0.678-0.408-1.139-0.921-1.461c-0.433-0.273-0.968-0.211-1.34,0.147c-1.369,1.318-2.736,2.64-4.089,3.976
		c-0.097,0.095-0.143,0.328-0.101,0.462c0.247,0.796,0.824,1.248,1.608,1.477c0.259,0.076,0.434,0.026,0.627-0.164
		c1.25-1.224,2.52-2.426,3.761-3.657C15.124,21.568,15.222,21.255,15.371,20.992z M17.672,23.148
		c-0.324,0.131-0.718,0.186-0.958,0.407c-1.284,1.189-2.531,2.418-3.785,3.64c-0.088,0.086-0.189,0.238-0.174,0.341
		c0.125,0.842,0.49,1.583,1.382,1.853c0.283,0.085,0.506,0.059,0.742-0.181c1.312-1.34,2.632-2.672,3.98-3.975
		c0.43-0.414,0.372-0.763,0.204-1.157C18.813,23.494,18.35,23.208,17.672,23.148z M22,36.313c0.017,0.037,0.035,0.072,0.052,0.108
		c0.375-0.185,0.794-0.312,1.114-0.565c0.509-0.402,0.971-0.873,1.419-1.345c0.592-0.624,1.157-1.273,1.721-1.923
		c0.102-0.117,0.194-0.29,0.2-0.44c0.032-0.747-0.608-1.57-1.338-1.703c-0.173-0.031-0.435,0.029-0.553,0.15
		c-1.361,1.388-2.704,2.792-4.041,4.205c-0.086,0.091-0.121,0.304-0.081,0.429C20.721,35.935,21.226,36.285,22,36.313z"/>
</g>
</svg>
