<?xml version="1.0" encoding="utf-8"?>
<!-- Generator: Adobe Illustrator 16.0.2, SVG Export Plug-In . SVG Version: 6.00 Build 0)  -->
<!DOCTYPE svg PUBLIC "-//W3C//DTD SVG 1.1//EN" "http://www.w3.org/Graphics/SVG/1.1/DTD/svg11.dtd">
<svg version="1.1" id="Слой_1" xmlns="http://www.w3.org/2000/svg" xmlns:xlink="http://www.w3.org/1999/xlink" x="0px" y="0px"
	 width="51.5px" height="55px" viewBox="0 0 51.5 55" enable-background="new 0 0 51.5 55" xml:space="preserve">
<g>
	<g>
		<path fill-rule="evenodd" clip-rule="evenodd" fill="#273763" d="M47.619,23.235c-0.422,3.466,0.326,6.761,1.398,10.025
			c0.368,1.117,0.599,2.29,0.772,3.454c0.224,1.513-0.198,2.832-1.279,3.994c-0.854,0.919-1.475,2.015-1.372,3.378
			c0.049,0.661,0.058,1.332-0.004,1.99c-0.102,1.074-0.433,2.047-1.346,2.758c-1.812,1.412-3.88,1.854-6.118,1.72
			c-0.269-0.016-0.558,0.011-0.801-0.08c-1.053-0.398-1.754,0.101-2.55,0.749c-5.462,4.45-13.421,4.042-18.499-0.909
			c-0.295-0.289-0.531-0.36-0.929-0.244c-3.986,1.15-7.911-0.809-9.129-4.595c-0.305-0.945-0.721-1.854-1.107-2.771
			c-0.362-0.862-1.109-1.372-1.812-1.924c-3.038-2.391-3.483-5.552-2.637-9.065c0.465-1.935,1.411-3.67,2.376-5.392
			c0.789-1.407,1.574-2.816,2.332-4.239c0.172-0.325,0.243-0.679,0.28-1.09c0.153-1.689,0.415-3.377,0.772-5.036
			C9.433,9.17,15.223,3.918,22.124,3.115c1.332-0.155,2.686-0.133,4.029-0.145c1.901-0.015,3.805-0.044,5.704,0.032
			c7.204,0.292,13.635,5.655,15.306,12.682c0.445,1.872,0.475,3.764,0.457,5.667C47.614,21.979,47.619,22.607,47.619,23.235z
			 M40.191,17.912c-1.989,5.124-5.256,9.106-10.022,11.795c-4.786,2.702-9.902,3.387-15.314,2.246c0,0.25,0,0.445,0,0.642
			c0,2.601-0.008,5.201,0.006,7.803c0.002,0.588,0.042,1.183,0.132,1.765c1.313,8.452,10.307,13.298,18.005,9.622
			c4.559-2.176,7.145-5.935,7.296-10.959c0.208-6.882,0.058-13.775,0.045-20.663C40.339,19.41,40.244,18.662,40.191,17.912z
			 M42.017,41.153c1.917-0.038,3.373-1.57,3.297-3.414c-0.073-1.777-1.614-3.262-3.297-3.151
			C42.017,36.762,42.017,38.941,42.017,41.153z M13.144,34.54c-1.353,0.083-2.333,0.664-2.912,1.812
			c-0.607,1.206-0.508,2.404,0.296,3.496c0.636,0.863,1.509,1.309,2.616,1.318C13.144,38.931,13.144,36.769,13.144,34.54z"/>
		<path fill-rule="evenodd" clip-rule="evenodd" fill="#273763" d="M24.931,41.462c0.407,0,0.78,0,1.219,0
			c0.019,0.618-0.049,1.296,0.577,1.671c0.233,0.14,0.536,0.236,0.804,0.23c0.778-0.016,1.096-0.517,1.25-1.884
			c0.382,0,0.771,0,1.162,0c0.271,0.928-0.104,2.013-0.923,2.651c-0.833,0.648-1.96,0.721-2.874,0.181
			C25.193,43.75,24.751,42.734,24.931,41.462z"/>
		<path fill-rule="evenodd" clip-rule="evenodd" fill="#273763" d="M17.669,37.977c-0.079-1.504,1.186-2.761,2.684-2.758
			c1.501,0.003,2.769,1.273,2.671,2.758c-0.272,0-0.559,0.038-0.828-0.015c-0.162-0.03-0.375-0.174-0.426-0.317
			c-0.253-0.697-0.746-1.121-1.399-1.133c-0.67-0.012-1.191,0.421-1.445,1.143c-0.046,0.135-0.236,0.282-0.379,0.307
			C18.271,38.011,17.982,37.977,17.669,37.977z"/>
		<path fill-rule="evenodd" clip-rule="evenodd" fill="#273763" d="M32.017,37.977c-0.156-1.382,1.061-2.672,2.538-2.755
			c1.518-0.085,2.806,1.124,2.834,2.751c-0.347,0-0.697,0.025-1.04-0.016c-0.1-0.011-0.214-0.201-0.258-0.331
			c-0.239-0.697-0.756-1.116-1.411-1.114c-0.653,0.002-1.182,0.442-1.419,1.118c-0.05,0.145-0.25,0.301-0.406,0.332
			C32.583,38.016,32.292,37.977,32.017,37.977z"/>
	</g>
</g>
</svg>
