<?xml version="1.0" encoding="utf-8"?>
<!-- Generator: Adobe Illustrator 16.0.2, SVG Export Plug-In . SVG Version: 6.00 Build 0)  -->
<!DOCTYPE svg PUBLIC "-//W3C//DTD SVG 1.1//EN" "http://www.w3.org/Graphics/SVG/1.1/DTD/svg11.dtd">
<svg version="1.1" id="Слой_1" xmlns="http://www.w3.org/2000/svg" xmlns:xlink="http://www.w3.org/1999/xlink" x="0px" y="0px"
	 width="46.25px" height="62px" viewBox="0 0 46.25 62" enable-background="new 0 0 46.25 62" xml:space="preserve">
<g>
	<g>
		<path fill-rule="evenodd" clip-rule="evenodd" fill="#273763" d="M42.449,22c1.669,1.058,2.522,2.571,2.879,4.413
			c0.397,2.057-0.358,3.914-1.019,5.78c-0.291,0.823-0.625,1.635-1.011,2.413c-0.459,0.927-0.995,1.814-1.503,2.717
			c-0.071,0.124-0.163,0.245-0.269,0.343c-0.866,0.794-1.74,1.579-2.599,2.38c-0.126,0.117-0.259,0.312-0.255,0.467
			c0.02,0.852,0.073,1.702,0.138,2.552c0.016,0.198,0.073,0.438,0.2,0.576c1.031,1.112,1.37,2.386,0.885,3.83
			c-0.496,1.476-1.663,2.24-3.107,2.399c-1.094,0.119-1.456,0.753-1.824,1.598c-1.932,4.438-5.052,7.602-9.82,8.909
			c-6.074,1.667-12.656-1.044-15.826-6.524c-0.632-1.094-1.102-2.278-1.681-3.402c-0.093-0.182-0.354-0.355-0.559-0.386
			c-0.771-0.111-1.556-0.136-2.328-0.243c-1.528-0.214-2.776-1.326-3.095-2.711c-0.348-1.51,0.212-2.928,1.505-3.878
			c0.141-0.104,0.282-0.335,0.271-0.497c-0.163-2.358-0.316-4.72-0.547-7.073c-0.151-1.535-0.426-3.056-0.643-4.583
			c-0.017-0.125-0.023-0.252-0.041-0.435c0.944-0.2,1.882-0.388,2.813-0.603c4.493-1.039,8.905-2.331,12.995-4.514
			c4.676-2.495,8.665-5.868,12.229-9.765c0.301-0.331,0.599-0.666,0.908-1.009c-1.849,1.19-3.652,2.399-5.5,3.533
			c-4.097,2.515-8.305,4.82-12.843,6.459c-3.398,1.228-6.899,2.043-10.474,2.55c-0.196,0.028-0.396,0.029-0.691,0.05
			c-0.35-2.498-0.752-4.974-0.595-7.557c5.365-0.249,10.608-0.966,15.628-2.852c4.988-1.872,9.522-4.58,13.853-7.678
			c-0.218,0.098-0.435,0.191-0.652,0.29c-5.039,2.283-10.159,4.351-15.51,5.798c-2.769,0.747-5.577,1.233-8.46,1.141
			c-1.48-0.046-2.933-0.253-4.322-0.806c-0.349-0.141-0.533-0.326-0.481-0.729c0.28-2.173,0.954-4.18,2.439-5.847
			C6.825,5.42,10.97,3.005,15.679,1.832c4.116-1.024,8.385-1.338,12.615-0.335c3.746,0.888,6.97,2.686,9.563,5.572
			c0.458,0.511,1.05,0.902,1.513,1.409c0.849,0.927,1.45,1.988,1.966,3.162c1.301,2.966,1.516,6.036,1.285,9.19
			C42.59,21.244,42.501,21.654,42.449,22z M33.345,50.329c-1.395,0-2.756,0.017-4.118-0.005c-3.063-0.047-5.52-2.055-6.115-4.994
			c-0.099-0.492-0.117-1.002-0.171-1.504c-0.978,0-1.928,0-2.85,0c-0.086,0.642-0.112,1.247-0.255,1.821
			c-0.698,2.793-3.123,4.646-6.093,4.68c-1.359,0.015-2.717,0.002-4.071,0.002c1.24,4.497,5.844,8.928,12.16,8.77
			C28.079,58.941,32.261,54.392,33.345,50.329z M11.97,40.784c-1.637,0-3.273-0.006-4.909,0.002c-0.591,0.002-0.793,0.202-0.8,0.782
			c-0.009,0.8-0.019,1.6,0.002,2.399c0.056,2.159,1.545,3.97,3.683,4.214c1.47,0.169,2.987,0.175,4.459,0.023
			c2.084-0.216,3.475-1.862,3.57-3.966c0.034-0.743,0.014-1.49,0.01-2.236c-0.006-0.897-0.322-1.216-1.215-1.218
			C15.17,40.78,13.57,40.783,11.97,40.784z M31.528,40.784c-1.456,0-2.913-0.012-4.369,0.003c-1.292,0.013-2.11,0.846-2.122,2.129
			c-0.004,0.438-0.008,0.874,0.002,1.311c0.045,1.974,1.451,3.72,3.413,3.944c1.49,0.171,3.026,0.19,4.516,0.032
			c2.271-0.242,3.753-2.057,3.781-4.349c0.008-0.746,0.006-1.492,0-2.239c-0.005-0.662-0.175-0.828-0.853-0.83
			C34.441,40.78,32.984,40.783,31.528,40.784z M31.739,31.285c-2.682,4.657-6.858,7.572-11.858,9.43
			c0.069,0.373,0.125,0.671,0.185,0.988c1.033,0,2.047,0,3.053,0c0.895-2.161,2.08-2.952,4.409-2.953c1.911,0,3.822,0,5.735,0
			c0.196,0,0.392,0,0.671,0c-0.022-0.49,0.052-0.948-0.078-1.339C33.18,35.363,32.452,33.332,31.739,31.285z"/>
		<path fill-rule="evenodd" clip-rule="evenodd" fill="#273763" d="M18.816,48.522c0.439,0,0.848,0,1.096,0
			c0.268,0.621,0.442,1.201,0.761,1.686c0.141,0.212,0.576,0.311,0.88,0.317c0.829,0.018,1.148-0.471,1.385-2.03
			c0.2,0,0.412,0,0.623,0c0.213,0,0.426,0,0.664,0c0.122,1.223-0.161,2.227-1.159,2.916c-0.917,0.631-1.91,0.687-2.881,0.139
			C19.038,50.901,18.669,49.854,18.816,48.522z"/>
		<path fill-rule="evenodd" clip-rule="evenodd" fill="#273763" d="M12.692,44.87c-0.665,0-1.296,0-1.924,0
			c-0.189-1.592,1.317-3.159,3.073-3.228c1.786-0.069,3.366,1.453,3.3,3.216c-0.642,0-1.288,0-1.971,0
			c-0.148-0.663-0.499-1.152-1.265-1.152C13.318,43.706,12.97,44.047,12.692,44.87z"/>
		<path fill-rule="evenodd" clip-rule="evenodd" fill="#273763" d="M27.837,44.863c-0.671,0-1.302,0-1.93,0
			c-0.116-1.688,1.387-3.205,3.157-3.221c1.776-0.015,3.309,1.508,3.214,3.223c-0.646,0-1.295,0-1.944,0
			c-0.282-0.829-0.631-1.159-1.237-1.164C28.49,43.694,28.141,44.015,27.837,44.863z"/>
	</g>
</g>
</svg>
