<?xml version="1.0" encoding="utf-8"?>
<!-- Generator: Adobe Illustrator 16.0.2, SVG Export Plug-In . SVG Version: 6.00 Build 0)  -->
<!DOCTYPE svg PUBLIC "-//W3C//DTD SVG 1.1//EN" "http://www.w3.org/Graphics/SVG/1.1/DTD/svg11.dtd">
<svg version="1.1" id="Слой_1" xmlns="http://www.w3.org/2000/svg" xmlns:xlink="http://www.w3.org/1999/xlink" x="0px" y="0px"
	 width="51.5px" height="55px" viewBox="0 0 51.5 55" enable-background="new 0 0 51.5 55" xml:space="preserve">
<g>
	<g>
		<path fill-rule="evenodd" clip-rule="evenodd" fill="#273763" d="M18.068,51.024c-0.781,1.429-1.83,2.543-3.342,3.045
			C8.004,56.297,2.39,52.327,1.115,46.981c-0.311-1.298-0.332-2.626-0.078-3.953c0.253-1.32,1.002-2.347,1.976-3.184
			c1.133-0.973,1.882-2.151,2.312-3.556c0.063-0.203,0.079-0.428,0.08-0.642c0.005-2.546,0.045-5.092-0.014-7.636
			c-0.031-1.34-0.234-2.677-0.365-4.015c-0.439-4.536,0.003-8.981,2.049-13.079c3.064-6.135,8.148-9.348,15.022-9.594
			c2.451-0.088,4.909-0.036,7.362-0.01c8.047,0.086,15.164,6.303,16.326,14.264c0.133,0.914,0.188,1.844,0.207,2.769
			c0.033,1.617,0.048,3.237-0.008,4.854c-0.026,0.778,0.18,1.419,0.654,2.003c0.676,0.832,1.355,1.661,2.025,2.498
			c1.056,1.319,1.719,2.77,1.875,4.499c0.162,1.821,0.331,3.62-0.164,5.409c-0.415,1.495-0.934,2.943-2.002,4.125
			c-0.666,0.737-1.267,1.542-1.988,2.219c-1.238,1.163-2.744,1.805-4.441,1.977c-0.842,0.085-1.667,0.054-2.461-0.296
			c-0.33-0.146-0.686-0.232-1.029-0.345c-1.922,3.763-4.88,6.266-8.916,7.41C25.51,53.836,21.697,53.202,18.068,51.024z
			 M12.848,39.583c0.352,4.858,2.553,8.597,6.879,10.831c4.773,2.466,9.463,2.02,13.793-1.155c3.209-2.353,5.588-7.276,4.984-9.945
			c-0.016,0.001-0.037-0.002-0.047,0.006c-0.113,0.091-0.227,0.182-0.336,0.277c-0.99,0.854-2.168,1.231-3.445,1.294
			c-0.906,0.045-1.817,0.024-2.726,0.005c-2.444-0.05-4.509-1.72-5.067-4.103c-0.109-0.468-0.145-0.953-0.213-1.425
			c-0.769,0-1.506,0-2.263,0c-0.009,0.193-0.015,0.354-0.024,0.515c-0.135,2.373-1.859,4.558-4.195,4.857
			C17.688,41.062,15.093,41.388,12.848,39.583z M12.691,18.754c0.282-1.148,0.489-2.219,0.809-3.254
			c1.57-5.087,6.508-8.806,11.838-8.952c5.887-0.161,11.189,3.805,12.788,9.587c0.079,0.288,0.066,0.657-0.044,0.932
			c-2.616,6.559-7.283,10.952-13.989,13.168c-0.657,0.217-1.333,0.376-2.072,0.582c1.166,0.339,1.694,1.178,2.095,2.152
			c0.066,0.162,0.262,0.375,0.408,0.383c0.777,0.038,1.557,0.018,2.232,0.018c0.363-0.621,0.645-1.192,1.01-1.704
			c0.375-0.522,0.912-0.829,1.582-0.829c2.71-0.001,5.419-0.001,8.128-0.002c0.823,0,1.646,0,2.521,0c0-0.189,0-0.367,0-0.545
			c0-3.654,0.002-7.31-0.002-10.964c0-0.321-0.028-0.641-0.04-0.962c-0.032-0.888,0.024-1.79-0.108-2.664
			C38.799,8.772,32.718,3.593,25.733,3.642c-6.489,0.045-12.005,4.201-13.81,10.43c-0.432,1.49-0.609,3.015-0.402,4.602
			C11.945,18.703,12.338,18.73,12.691,18.754z M33.615,32.799c-1.273,0-2.547,0.017-3.818-0.011
			c-0.416-0.009-0.625,0.162-0.799,0.504c-0.439,0.861-0.354,1.776-0.264,2.674c0.17,1.662,1.508,2.9,3.177,2.962
			c0.927,0.035,1.855,0.031,2.782,0.001c1.701-0.055,3.108-1.257,3.354-2.946c0.123-0.838,0.049-1.704,0.088-2.556
			c0.021-0.479-0.184-0.641-0.646-0.635C36.197,32.811,34.906,32.799,33.615,32.799z M17.515,32.785c0,0.005,0,0.009,0,0.014
			c-1.308,0-2.616,0.008-3.925-0.004c-0.41-0.004-0.604,0.143-0.592,0.571c0.019,0.763-0.021,1.528,0.024,2.288
			c0.095,1.613,1.253,2.958,2.854,3.187c0.963,0.137,1.955,0.084,2.934,0.096c3.561,0.041,4.195-3.536,3.278-5.668
			c-0.151-0.354-0.406-0.5-0.813-0.492C20.023,32.8,18.769,32.785,17.515,32.785z M11.016,40.018c0-2.248,0-4.451,0-6.652
			c-1.824,0-3.281,1.492-3.293,3.295C7.711,38.49,9.225,40.031,11.016,40.018z M40.338,40.015c1.914,0.021,3.256-1.569,3.312-3.32
			c0.058-1.829-1.468-3.359-3.312-3.347C40.338,35.555,40.338,37.763,40.338,40.015z"/>
		<path fill-rule="evenodd" clip-rule="evenodd" fill="#273763" d="M26.908,40.352c0.424,0,0.813,0,1.234,0
			c0.121,1.141-0.152,2.094-1.1,2.747c-0.904,0.623-1.879,0.657-2.82,0.094c-1.053-0.63-1.379-1.617-1.229-2.837
			c0.414,0,0.816,0,1.213,0c0.254,1.512,0.559,1.919,1.395,1.896C26.414,42.23,26.75,41.754,26.908,40.352z"/>
		<path fill-rule="evenodd" clip-rule="evenodd" fill="#273763" d="M35.629,36.754c-0.426,0-0.818,0-1.206,0
			c-0.329-1.008-0.746-1.405-1.481-1.424c-0.781-0.021-1.174,0.328-1.596,1.423c-0.391,0-0.785,0-1.177,0
			c-0.087-1.422,1.116-2.681,2.585-2.731C34.352,33.967,35.631,35.155,35.629,36.754z"/>
		<path fill-rule="evenodd" clip-rule="evenodd" fill="#273763" d="M19.861,36.751c-0.211-0.914-0.663-1.372-1.377-1.417
			c-0.823-0.054-1.273,0.33-1.649,1.409c-0.409,0-0.819,0-1.229,0c0.08-1.685,1.341-2.815,2.99-2.715
			c1.411,0.085,2.6,1.375,2.484,2.724C20.689,36.751,20.295,36.751,19.861,36.751z"/>
	</g>
</g>
</svg>
