<?xml version="1.0" encoding="utf-8"?>
<!-- Generator: Adobe Illustrator 16.0.0, SVG Export Plug-In . SVG Version: 6.00 Build 0)  -->
<!DOCTYPE svg PUBLIC "-//W3C//DTD SVG 1.1//EN" "http://www.w3.org/Graphics/SVG/1.1/DTD/svg11.dtd">
<svg version="1.1" id="Слой_1" xmlns="http://www.w3.org/2000/svg" xmlns:xlink="http://www.w3.org/1999/xlink" x="0px" y="0px"
	 width="45.5px" height="39.5px" viewBox="0 0 45.5 39.5" enable-background="new 0 0 45.5 39.5" xml:space="preserve">
<g>
	
		<linearGradient id="SVGID_1_" gradientUnits="userSpaceOnUse" x1="107.7773" y1="-169.2261" x2="107.7773" y2="-208.3511" gradientTransform="matrix(1 0 0 -1 -85 -169)">
		<stop  offset="0" style="stop-color:#3CCFBC"/>
		<stop  offset="1" style="stop-color:#219BA5"/>
	</linearGradient>
	<path fill="url(#SVGID_1_)" d="M17.449,33.266c0-1.144-0.02-2.287,0.009-3.431c0.01-0.399-0.113-0.62-0.463-0.824
		c-5.077-2.977-10.147-5.966-15.218-8.956c-1.038-0.612-1.507-1.614-1.238-2.688c0.211-0.846,0.763-1.396,1.576-1.712
		c4.506-1.756,9.008-3.52,13.51-5.28c8.443-3.303,16.893-6.6,25.33-9.917c0.91-0.357,1.783-0.267,2.645,0.036
		c1.049,0.369,1.666,1.454,1.449,2.553c-0.605,3.097-1.246,6.187-1.877,9.279c-1.668,8.173-3.337,16.345-5.01,24.518
		c-0.076,0.371-0.146,0.754-0.292,1.1c-0.41,0.982-1.445,1.5-2.519,1.394c-0.801-0.079-1.49-0.364-2.17-0.771
		c-2.23-1.338-4.483-2.642-6.718-3.975c-0.284-0.17-0.446-0.15-0.688,0.071c-1.441,1.319-2.884,2.637-4.355,3.921
		c-1.355,1.182-3.369,0.604-3.869-1.09c-0.079-0.27-0.096-0.563-0.099-0.846C17.441,35.521,17.449,34.393,17.449,33.266z
		 M39.625,8.485c-0.038-0.01-0.074-0.021-0.111-0.03c-5.734,6.403-11.467,12.807-17.223,19.236
		c4.018,2.365,7.971,4.691,11.969,7.049C36.059,25.938,37.842,17.211,39.625,8.485z M5.834,18.886
		c0.153-0.048,0.384-0.107,0.602-0.193c9.457-3.711,18.912-7.423,28.366-11.136c0.783-0.307,1.572-0.603,2.345-0.934
		c0.519-0.222,0.72-0.739,0.528-1.219c-0.183-0.46-0.657-0.675-1.182-0.53c-0.121,0.034-0.24,0.082-0.358,0.128
		c-10.15,3.986-20.298,7.972-30.446,11.96c-0.176,0.069-0.36,0.143-0.504,0.259c-0.33,0.265-0.439,0.619-0.299,1.024
		C5.025,18.648,5.333,18.845,5.834,18.886z M21.042,34.124c0.705-0.635,1.35-1.217,2.026-1.827
		c-0.707-0.416-1.343-0.789-2.026-1.191C21.042,32.132,21.042,33.083,21.042,34.124z"/>
</g>
</svg>
