<?xml version="1.0" encoding="utf-8"?>
<!-- Generator: Adobe Illustrator 16.0.0, SVG Export Plug-In . SVG Version: 6.00 Build 0)  -->
<!DOCTYPE svg PUBLIC "-//W3C//DTD SVG 1.1//EN" "http://www.w3.org/Graphics/SVG/1.1/DTD/svg11.dtd">
<svg version="1.1" id="Слой_1" xmlns="http://www.w3.org/2000/svg" xmlns:xlink="http://www.w3.org/1999/xlink" x="0px" y="0px"
	 width="47.625px" height="48.125px" viewBox="0 0 47.625 48.125" enable-background="new 0 0 47.625 48.125" xml:space="preserve">
<linearGradient id="SVGID_1_" gradientUnits="userSpaceOnUse" x1="108.4111" y1="-151.6909" x2="108.4111" y2="-198.8926" gradientTransform="matrix(1 0 0 -1 -85 -160.375)">
	<stop  offset="0" style="stop-color:#3CCFBC"/>
	<stop  offset="1" style="stop-color:#219BA5"/>
</linearGradient>
<path fill="url(#SVGID_1_)" d="M28.037,28.563c0.104,0.983,0.1,1.906,0.314,2.774c0.324,1.302,1.188,2.243,2.383,2.865
	c1.111,0.577,2.228,1.142,3.33,1.733c0.523,0.28,0.761,0.758,0.688,1.347c-0.071,0.577-0.382,0.999-0.959,1.172
	c-0.168,0.051-0.353,0.062-0.528,0.062c-6.57,0.002-13.14,0.002-19.708,0c-0.789,0-1.299-0.371-1.48-1.057
	c-0.166-0.634,0.086-1.209,0.76-1.574c1.016-0.55,2.051-1.064,3.077-1.595c1.852-0.953,2.786-2.47,2.791-4.554
	c0.001-0.37,0-0.739,0-1.174c-0.21,0-0.382,0-0.555,0c-5.192,0-10.384,0-15.575-0.002c-1.234-0.002-2.141-0.619-2.455-1.691
	c-0.084-0.285-0.116-0.596-0.116-0.895C-0.001,15.288-0.001,4.602,0.001-6.086c0.001-1.662,0.952-2.597,2.626-2.598
	c13.84,0,27.68,0,41.521,0c1.629,0.001,2.675,1.05,2.675,2.691c0.001,10.645,0.001,21.29,0,31.937c0,1.637-0.983,2.617-2.628,2.617
	c-5.163,0.002-10.328,0.002-15.492,0.002C28.527,28.563,28.354,28.563,28.037,28.563z M41.936,20.21c0-8.044,0-16.064,0-24.098
	c-12.395,0-24.766,0-37.139,0c0,8.051,0,16.07,0,24.098C17.189,20.21,29.553,20.21,41.936,20.21z M23.374,25.969
	c0.892-0.006,1.632-0.746,1.63-1.63c-0.004-0.903-0.762-1.64-1.676-1.626c-0.888,0.013-1.622,0.768-1.607,1.65
	C21.735,25.251,22.48,25.975,23.374,25.969z M22.585,15.932c0.571-0.072,0.835-0.479,0.762-1.071
	c-0.128-1.022-0.261-2.046-0.394-3.068c-0.228-1.768-1.665-3.227-3.442-3.368c-1.135-0.09-2.285-0.093-3.423-0.023
	c-1.932,0.117-3.332,1.416-3.653,3.328c-0.173,1.03-0.282,2.071-0.397,3.109c-0.071,0.648,0.188,1.014,0.829,1.101
	c1.578,0.215,3.161,0.393,4.741,0.585C19.285,16.326,20.938,16.143,22.585,15.932z M34.107,9.663
	c0.463-0.003,0.597-0.128,0.602-0.581c0.008-0.604,0.008-1.21,0-1.815c-0.005-0.455-0.135-0.575-0.604-0.577
	c-0.771-0.003-1.541,0-2.313-0.002c-0.131-0.001-0.261-0.012-0.404-0.018c0-0.934,0.002-1.813-0.002-2.694
	c-0.002-0.487-0.117-0.6-0.613-0.603c-0.564-0.004-1.129-0.003-1.693,0c-0.551,0.001-0.666,0.119-0.666,0.687
	c-0.002,0.862-0.001,1.726-0.001,2.629c-0.946,0-1.851,0.003-2.755-0.002c-0.374-0.002-0.563,0.164-0.561,0.545
	c0.004,0.605-0.005,1.211,0.002,1.816c0.004,0.436,0.188,0.61,0.639,0.615c0.439,0.005,0.881,0.001,1.32,0.001
	c0.463,0,0.926,0,1.418,0c0,0.935-0.004,1.813,0,2.69c0.002,0.516,0.111,0.622,0.637,0.624c0.496,0.003,0.99,0.001,1.486,0.001
	c0.797,0,0.852-0.055,0.852-0.834c0.001-0.811,0-1.619,0-2.481C32.377,9.664,33.242,9.667,34.107,9.663z M21.431,3.686
	c0.022-2.043-1.666-3.743-3.72-3.745c-2.041-0.003-3.7,1.648-3.714,3.699c-0.013,2.072,1.633,3.731,3.708,3.734
	C19.755,7.377,21.408,5.74,21.431,3.686z"/>
</svg>
