<?xml version="1.0" encoding="utf-8"?>
<!-- Generator: Adobe Illustrator 16.0.2, SVG Export Plug-In . SVG Version: 6.00 Build 0)  -->
<!DOCTYPE svg PUBLIC "-//W3C//DTD SVG 1.1//EN" "http://www.w3.org/Graphics/SVG/1.1/DTD/svg11.dtd">
<svg version="1.1" id="Слой_1" xmlns="http://www.w3.org/2000/svg" xmlns:xlink="http://www.w3.org/1999/xlink" x="0px" y="0px"
	 width="17.417px" height="13.379px" viewBox="-0.208 0.812 17.417 13.379" enable-background="new -0.208 0.812 17.417 13.379"
	 xml:space="preserve">
<g>
	<g>
		<path fill-rule="evenodd" clip-rule="evenodd" fill="#FFFFFF" d="M3.277,7.375c-0.817,0-1.633,0.001-2.45-0.001
			C0.241,7.374,0.003,7.14,0.002,6.562C0,4.965,0,3.369,0.002,1.772c0-0.565,0.241-0.808,0.801-0.809
			c1.652-0.001,3.304-0.001,4.956,0c0.548,0.001,0.795,0.243,0.796,0.786c0.002,1.615,0.002,3.23,0,4.845
			c0,0.542-0.247,0.779-0.8,0.781C4.929,7.376,4.103,7.375,3.277,7.375z M2.973,3.825C2.924,3.799,2.893,3.783,2.862,3.766
			C2.489,3.554,2.126,3.618,1.917,3.933C1.713,4.238,1.786,4.596,2.108,4.855C2.301,5.01,2.497,5.162,2.694,5.313
			C3.137,5.65,3.546,5.566,3.809,5.077C4.088,4.561,4.36,4.04,4.631,3.52c0.212-0.404,0.12-0.786-0.227-0.973
			c-0.351-0.189-0.72-0.052-0.938,0.35C3.302,3.203,3.141,3.508,2.973,3.825z"/>
		<path fill-rule="evenodd" clip-rule="evenodd" fill="#FFFFFF" d="M3.264,14.064c-0.834,0-1.67,0.002-2.505,0
			c-0.5-0.002-0.754-0.242-0.755-0.736c-0.004-1.643-0.004-3.287,0-4.928c0.001-0.495,0.256-0.733,0.758-0.733
			c1.68-0.001,3.359-0.001,5.039,0c0.501,0,0.753,0.24,0.755,0.735c0.004,1.643,0.004,3.286,0,4.928
			c-0.001,0.494-0.256,0.732-0.758,0.734C4.953,14.066,4.108,14.064,3.264,14.064z M2.973,10.521
			c-0.054-0.027-0.08-0.037-0.103-0.051c-0.366-0.217-0.734-0.16-0.945,0.145c-0.215,0.311-0.145,0.668,0.189,0.939
			c0.192,0.156,0.387,0.309,0.583,0.461c0.42,0.322,0.847,0.24,1.099-0.225c0.289-0.529,0.57-1.063,0.849-1.598
			c0.199-0.383,0.098-0.766-0.239-0.949c-0.35-0.189-0.72-0.056-0.936,0.343C3.305,9.893,3.145,10.199,2.973,10.521z"/>
	</g>
	<path fill-rule="evenodd" clip-rule="evenodd" fill="#FFFFFF" d="M17.083,4.021c0,1.087-0.881,1.969-1.969,1.969H9.989
		c-1.088,0-1.969-0.881-1.969-1.969l0,0c0-1.087,0.881-1.969,1.969-1.969h5.125C16.202,2.052,17.083,2.934,17.083,4.021
		L17.083,4.021z"/>
	<path fill-rule="evenodd" clip-rule="evenodd" fill="#FFFFFF" d="M17.083,10.834c0,1.088-0.881,1.969-1.969,1.969H9.989
		c-1.088,0-1.969-0.881-1.969-1.969l0,0c0-1.088,0.881-1.969,1.969-1.969h5.125C16.202,8.865,17.083,9.746,17.083,10.834
		L17.083,10.834z"/>
</g>
</svg>
