<?xml version="1.0" encoding="utf-8"?>
<!-- Generator: Adobe Illustrator 16.0.2, SVG Export Plug-In . SVG Version: 6.00 Build 0)  -->
<!DOCTYPE svg PUBLIC "-//W3C//DTD SVG 1.1//EN" "http://www.w3.org/Graphics/SVG/1.1/DTD/svg11.dtd">
<svg version="1.1" id="Слой_1" xmlns="http://www.w3.org/2000/svg" xmlns:xlink="http://www.w3.org/1999/xlink" x="0px" y="0px"
	 width="12.875px" height="16.188px" viewBox="3.578 -2.781 12.875 16.188" enable-background="new 3.578 -2.781 12.875 16.188"
	 xml:space="preserve">
<g>
	<g>
		<path fill-rule="evenodd" clip-rule="evenodd" fill="#FFFEFF" d="M9.968,13.248c-1.653,0-3.306,0.002-4.96,0
			c-0.811,0-1.301-0.493-1.293-1.298c0.037-3.657,3.313-6.533,6.953-6.104c3.164,0.373,5.552,3.01,5.566,6.144
			c0.003,0.75-0.496,1.257-1.25,1.258C13.313,13.25,11.64,13.248,9.968,13.248z"/>
		<path fill-rule="evenodd" clip-rule="evenodd" fill="#FFFEFF" d="M9.986,5.127C7.837,5.131,6.088,3.393,6.083,1.248
			C6.078-0.903,7.814-2.651,9.961-2.656c2.15-0.004,3.9,1.732,3.904,3.878C13.871,3.371,12.132,5.122,9.986,5.127z"/>
	</g>
</g>
</svg>
