<?xml version="1.0" encoding="utf-8"?>
<!-- Generator: Adobe Illustrator 16.0.2, SVG Export Plug-In . SVG Version: 6.00 Build 0)  -->
<!DOCTYPE svg PUBLIC "-//W3C//DTD SVG 1.1//EN" "http://www.w3.org/Graphics/SVG/1.1/DTD/svg11.dtd">
<svg version="1.1" id="Слой_1" xmlns="http://www.w3.org/2000/svg" xmlns:xlink="http://www.w3.org/1999/xlink" x="0px" y="0px"
	 width="17.208px" height="16.005px" viewBox="-0.125 1.005 17.208 16.005" enable-background="new -0.125 1.005 17.208 16.005"
	 xml:space="preserve">
<g>
	<g>
		<path fill-rule="evenodd" clip-rule="evenodd" fill="#FFFFFF" d="M14.752,2.267c-1.037-0.83-2.254-1.12-3.561-1.106
			C10.296,1.17,9.506,1.462,8.822,2.04C8.599,2.228,8.6,2.224,8.365,2.06C7.008,1.113,5.522,0.83,3.927,1.261
			c-2.274,0.616-3.867,2.7-3.925,5.122c-0.037,1.558,0.519,2.899,1.599,4.02c1.908,1.982,3.819,3.965,5.729,5.946
			c0.617,0.64,1.525,0.665,2.212,0.106c0.396-0.324,0.701-0.727,1.053-1.089c1.562-1.614,3.133-3.22,4.698-4.831
			c1.052-1.082,1.582-2.383,1.611-3.955C16.86,4.856,16.15,3.387,14.752,2.267z M8.321,12.196c-5.401,0-5.401-8.375,0-8.375
			S13.722,12.196,8.321,12.196z"/>
	</g>
	<circle fill-rule="evenodd" clip-rule="evenodd" fill="#FFFFFF" cx="8.453" cy="8.042" r="2.948"/>
</g>
</svg>
