<?xml version="1.0" encoding="utf-8"?>
<!-- Generator: Adobe Illustrator 16.0.2, SVG Export Plug-In . SVG Version: 6.00 Build 0)  -->
<!DOCTYPE svg PUBLIC "-//W3C//DTD SVG 1.1//EN" "http://www.w3.org/Graphics/SVG/1.1/DTD/svg11.dtd">
<svg version="1.1" id="Слой_1" xmlns="http://www.w3.org/2000/svg" xmlns:xlink="http://www.w3.org/1999/xlink" x="0px" y="0px"
	 width="16.156px" height="16.063px" viewBox="0 0 16.156 16.063" enable-background="new 0 0 16.156 16.063" xml:space="preserve">
<g>
	<g>
		<path fill="#FFFFFF" d="M8.801,16.063c-0.563,0-1.11,0-1.676,0c-0.039-0.409-0.084-0.813-0.117-1.217
			c-0.035-0.444-0.1-0.528-0.529-0.634c-0.662-0.161-1.275-0.436-1.854-0.795c-0.276-0.172-0.408-0.163-0.658,0.043
			c-0.342,0.283-0.684,0.565-1.021,0.845c-0.399-0.399-0.79-0.79-1.188-1.188c0.283-0.343,0.572-0.689,0.857-1.037
			c0.188-0.229,0.197-0.377,0.035-0.628c-0.395-0.608-0.667-1.268-0.832-1.974C1.756,9.207,1.65,9.11,1.373,9.08
			C0.92,9.031,0.465,8.989,0,8.943c0-0.559,0-1.109,0-1.682c0.367-0.036,0.733-0.072,1.102-0.108
			c0.043-0.004,0.085-0.005,0.128-0.009c0.456-0.049,0.513-0.098,0.622-0.543c0.162-0.655,0.436-1.265,0.792-1.835
			c0.172-0.275,0.164-0.41-0.04-0.658C2.321,3.766,2.039,3.423,1.76,3.087C2.156,2.69,2.547,2.296,2.944,1.899
			C3.285,2.18,3.627,2.462,3.969,2.745c0.246,0.204,0.385,0.213,0.658,0.038c0.6-0.385,1.248-0.653,1.94-0.817
			C6.873,1.894,6.965,1.79,6.998,1.465C7.041,1.03,7.08,0.594,7.123,0.148c0.56,0,1.11,0,1.687,0
			c0.03,0.313,0.063,0.633,0.096,0.951c0.017,0.15,0.025,0.304,0.042,0.454C8.97,1.761,9.088,1.906,9.293,1.951
			c0.746,0.164,1.433,0.464,2.076,0.871c0.203,0.128,0.361,0.115,0.553-0.041c0.354-0.288,0.705-0.581,1.033-0.852
			c0.401,0.388,0.797,0.771,1.198,1.16c-0.278,0.337-0.567,0.685-0.854,1.031C13.109,4.353,13.1,4.499,13.26,4.748
			c0.395,0.609,0.669,1.269,0.835,1.974c0.063,0.274,0.168,0.372,0.442,0.401c0.453,0.048,0.907,0.092,1.375,0.139
			c0,0.556,0,1.105,0,1.682c-0.354,0.036-0.717,0.072-1.076,0.107c-0.049,0.006-0.098,0.007-0.146,0.012
			c-0.437,0.048-0.492,0.099-0.599,0.521c-0.166,0.66-0.438,1.275-0.799,1.854c-0.174,0.278-0.164,0.416,0.049,0.673
			c0.279,0.337,0.56,0.674,0.828,1c-0.396,0.397-0.781,0.785-1.186,1.189c-0.195-0.161-0.406-0.335-0.615-0.508
			c-0.156-0.128-0.308-0.259-0.466-0.383c-0.176-0.138-0.339-0.152-0.522-0.033c-0.646,0.418-1.342,0.711-2.092,0.878
			c-0.217,0.048-0.324,0.198-0.346,0.438c-0.037,0.413-0.076,0.824-0.117,1.235C8.823,15.969,8.812,16.01,8.801,16.063z
			 M7.961,12.151c2.227-0.004,4.049-1.831,4.045-4.053C12,5.87,10.176,4.05,7.951,4.055C5.726,4.059,3.904,5.883,3.908,8.108
			C3.914,10.332,5.738,12.155,7.961,12.151z"/>
		<path fill="#FFFFFF" d="M4.771,8.106C4.77,6.334,6.191,4.913,7.961,4.916c1.765,0.002,3.181,1.418,3.182,3.183
			c0.003,1.77-1.421,3.191-3.189,3.189C6.189,11.284,4.773,9.868,4.771,8.106z"/>
	</g>
</g>
</svg>
