<?xml version="1.0" encoding="utf-8"?>
<!-- Generator: Adobe Illustrator 16.0.0, SVG Export Plug-In . SVG Version: 6.00 Build 0)  -->
<!DOCTYPE svg PUBLIC "-//W3C//DTD SVG 1.1//EN" "http://www.w3.org/Graphics/SVG/1.1/DTD/svg11.dtd">
<svg version="1.1" id="Layer_1" xmlns="http://www.w3.org/2000/svg" xmlns:xlink="http://www.w3.org/1999/xlink" x="0px" y="0px"
	 width="47.896px" height="29.979px" viewBox="0 0 47.896 29.979" enable-background="new 0 0 47.896 29.979" xml:space="preserve">
<g>
	<g>
		<g>
			<g>
				<path fill="#3D4859" d="M28.785,13.16c-3.002,3.018-7.898,3.03-10.917,0.027c-3.019-3.002-3.03-7.898-0.028-10.917
					c3.002-3.018,7.898-3.029,10.916-0.027S31.787,10.142,28.785,13.16z M19.044,3.469c-2.342,2.354-2.332,6.174,0.021,8.516
					c2.354,2.342,6.175,2.332,8.517-0.021c2.341-2.354,2.331-6.174-0.022-8.516C25.205,1.105,21.385,1.115,19.044,3.469z"/>
			</g>
		</g>
		<path fill="#3D4859" d="M33.675,14.657L33.675,14.657c-0.366,0.558-0.889,0.86-1.168,0.679l-3.733-2.451
			c-0.277-0.183-0.208-0.784,0.158-1.341l0,0c0.365-0.559,0.889-0.861,1.167-0.678l3.734,2.45
			C34.111,13.499,34.041,14.099,33.675,14.657z"/>
		
			<radialGradient id="SVGID_1_" cx="108.3127" cy="-186.2361" r="5.3838" gradientTransform="matrix(1 0 0 -1 -85 -178.521)" gradientUnits="userSpaceOnUse">
			<stop  offset="0" style="stop-color:#6BC9CA"/>
			<stop  offset="0.2435" style="stop-color:#67C4C6"/>
			<stop  offset="0.5201" style="stop-color:#59BABD"/>
			<stop  offset="0.8118" style="stop-color:#3DABAF"/>
			<stop  offset="1" style="stop-color:#17A0A5"/>
		</radialGradient>
		<circle fill="url(#SVGID_1_)" cx="23.313" cy="7.715" r="5.384"/>
		<g>
			<path fill="#FFFFFF" d="M23.175,13.558h0.157c0.162,0,0.293-0.132,0.293-0.293V4.153c0-0.161-0.131-0.294-0.293-0.294h-0.157
				c-0.162,0-0.294,0.133-0.294,0.294v9.111C22.881,13.426,23.013,13.558,23.175,13.558z"/>
			<path fill="#FFFFFF" d="M25.359,4.536l-4.874,0.73c-0.169,0.025-0.301,0.157-0.327,0.326c-0.076,0.466-0.049,0.94,0.064,1.42
				c0.04,0.17,0.193,0.29,0.368,0.294l4.944,0.126c0.124,0.003,0.241-0.052,0.317-0.149l0.858-1.099
				c0.119-0.152,0.106-0.371-0.027-0.511L25.697,4.65C25.61,4.56,25.484,4.517,25.359,4.536z"/>
			<path fill="#FFFFFF" d="M20.916,8.149l4.846,0.172c0.2,0.008,0.372,0.147,0.416,0.344c0.092,0.403,0.119,0.837,0.087,1.296
				c-0.014,0.209-0.173,0.38-0.38,0.409l-4.817,0.674c-0.138,0.02-0.277-0.028-0.376-0.128l-0.927-0.943
				c-0.154-0.158-0.17-0.404-0.035-0.579l0.819-1.072C20.637,8.208,20.773,8.144,20.916,8.149z"/>
		</g>
	</g>
	<g>
		<path fill="#3D4859" d="M2.836,18.751H0.25c-0.067,0-0.126,0.024-0.176,0.074S0,18.933,0,19.001v0.295
			c0,0.068,0.024,0.126,0.074,0.176c0.05,0.049,0.107,0.074,0.176,0.074h0.488v3.686H0.25c-0.067,0-0.126,0.024-0.176,0.074
			C0.025,23.355,0,23.414,0,23.481v0.295c0,0.068,0.024,0.126,0.074,0.177c0.05,0.049,0.107,0.073,0.176,0.073h1.08
			c0.067,0,0.126-0.023,0.176-0.073c0.05-0.051,0.074-0.108,0.074-0.177v-4.23h1.21c0.462,0,0.829,0.136,1.101,0.407
			c0.271,0.271,0.405,0.638,0.405,1.099v2.725c0,0.068,0.023,0.126,0.074,0.177c0.049,0.049,0.107,0.073,0.175,0.073h0.343
			c0.067,0,0.125-0.023,0.175-0.073c0.05-0.051,0.074-0.108,0.074-0.177v-2.771c0-0.708-0.203-1.261-0.609-1.658
			C4.12,18.95,3.557,18.751,2.836,18.751z"/>
		<path fill="#3D4859" d="M7.095,18.751H6.753c-0.067,0-0.126,0.024-0.175,0.074C6.528,18.874,6.504,18.932,6.504,19v4.775
			c0,0.068,0.023,0.126,0.074,0.177c0.049,0.049,0.106,0.073,0.175,0.073h0.342c0.068,0,0.127-0.023,0.177-0.073
			c0.048-0.05,0.072-0.108,0.072-0.177V19c0-0.068-0.024-0.126-0.072-0.175C7.222,18.776,7.163,18.751,7.095,18.751z"/>
		<path fill="#3D4859" d="M11.981,18.751H9.044v-1.035c0-0.068-0.024-0.126-0.074-0.176c-0.049-0.049-0.107-0.074-0.175-0.074H8.453
			c-0.068,0-0.126,0.025-0.177,0.074c-0.049,0.049-0.072,0.107-0.072,0.176v1.58c0,0.068,0.023,0.126,0.072,0.176
			c0.051,0.049,0.107,0.074,0.177,0.074h2.938v2.873c0,0.117-0.011,0.23-0.032,0.341c-0.021,0.111-0.06,0.208-0.114,0.292
			c-0.056,0.084-0.136,0.149-0.235,0.199c-0.102,0.049-0.233,0.074-0.394,0.074h-0.286c-0.067,0-0.126,0.024-0.176,0.073
			c-0.05,0.05-0.073,0.108-0.073,0.177v0.295c0,0.067,0.023,0.126,0.073,0.176c0.05,0.049,0.107,0.074,0.176,0.074h0.425
			c0.511,0,0.886-0.154,1.123-0.462c0.235-0.309,0.354-0.736,0.354-1.284v-3.372c0-0.068-0.023-0.126-0.073-0.175
			C12.108,18.776,12.05,18.751,11.981,18.751z"/>
		<path fill="#3D4859" d="M17.857,18.751h-3.99c-0.067,0-0.126,0.024-0.176,0.074c-0.05,0.049-0.073,0.106-0.073,0.175v0.295
			c0,0.067,0.023,0.126,0.073,0.176c0.05,0.049,0.107,0.074,0.176,0.074h3.398v2.91c0,0.579-0.292,0.868-0.877,0.868h-0.479
			c-0.067,0-0.126,0.024-0.177,0.073c-0.049,0.049-0.072,0.108-0.072,0.177v0.295c0,0.067,0.023,0.126,0.072,0.176
			c0.051,0.049,0.108,0.074,0.177,0.074h0.525c0.548,0,0.964-0.136,1.247-0.406c0.284-0.271,0.426-0.675,0.426-1.21v-3.501
			c0-0.068-0.024-0.126-0.073-0.175C17.983,18.776,17.926,18.751,17.857,18.751z"/>
		<path fill="#3D4859" d="M14.209,19.98h-0.343c-0.067,0-0.126,0.024-0.176,0.074c-0.05,0.049-0.073,0.108-0.073,0.175v4.683
			c0,0.067,0.023,0.126,0.073,0.175s0.107,0.074,0.176,0.074h0.343c0.066,0,0.126-0.025,0.175-0.074s0.074-0.107,0.074-0.175v-4.683
			c0-0.066-0.025-0.126-0.074-0.175S14.276,19.98,14.209,19.98z"/>
		<path fill="#3D4859" d="M23.381,23.232h-0.305v-2.217c0-0.351-0.054-0.667-0.161-0.946c-0.108-0.28-0.263-0.518-0.462-0.712
			c-0.2-0.193-0.443-0.343-0.729-0.447c-0.286-0.105-0.604-0.157-0.956-0.157h-1.284c-0.067,0-0.126,0.024-0.176,0.074
			c-0.05,0.049-0.074,0.106-0.074,0.175v0.295c0,0.068,0.024,0.126,0.074,0.176s0.107,0.074,0.176,0.074h1.238
			c0.468,0,0.837,0.136,1.107,0.407c0.271,0.271,0.406,0.641,0.406,1.107v2.171H19.39c-0.068,0-0.126,0.024-0.176,0.074
			s-0.073,0.108-0.073,0.176v0.295c0,0.068,0.023,0.126,0.073,0.177c0.05,0.05,0.106,0.073,0.176,0.073h3.99
			c0.068,0,0.127-0.023,0.177-0.073c0.049-0.05,0.073-0.108,0.073-0.177v-0.295c0-0.067-0.024-0.126-0.073-0.176
			S23.449,23.232,23.381,23.232z"/>
		<path fill="#3D4859" d="M27.759,18.751h-2.587c-0.062,0-0.114,0.021-0.16,0.064c-0.047,0.043-0.07,0.099-0.07,0.166v0.794
			c0,0.063,0.023,0.115,0.07,0.162c0.046,0.046,0.1,0.069,0.16,0.069h0.555c-0.099,0.395-0.147,0.851-0.147,1.368v1.451h-0.747
			c-0.063,0-0.116,0.021-0.162,0.063c-0.047,0.043-0.069,0.1-0.069,0.166v0.73c0,0.062,0.022,0.115,0.069,0.162
			c0.046,0.046,0.101,0.068,0.162,0.068l1.967,0.009c0.068,0,0.123-0.022,0.167-0.068c0.043-0.046,0.063-0.101,0.063-0.162
			l-0.073-2.429c0-0.277,0.011-0.521,0.032-0.73s0.06-0.419,0.115-0.629h0.601c0.695,0,1.044,0.352,1.044,1.054v2.734
			c0,0.067,0.021,0.123,0.063,0.167c0.044,0.043,0.1,0.063,0.167,0.063h1.101c0.066,0,0.123-0.022,0.166-0.068
			s0.063-0.101,0.063-0.162v-2.781c0-0.776-0.214-1.347-0.643-1.713C29.239,18.935,28.603,18.751,27.759,18.751z"/>
		<path fill="#3D4859" d="M32.738,18.751h-1.153c-0.063,0-0.116,0.021-0.162,0.064c-0.046,0.043-0.069,0.099-0.069,0.166v4.813
			c0,0.062,0.023,0.116,0.069,0.162s0.1,0.068,0.162,0.068h1.153c0.067,0,0.124-0.021,0.172-0.063
			c0.046-0.043,0.068-0.1,0.068-0.167v-4.813c0-0.067-0.022-0.123-0.068-0.166C32.862,18.773,32.806,18.751,32.738,18.751z"/>
		<path fill="#3D4859" d="M35.584,18.751h-1.46c-0.063,0-0.116,0.021-0.161,0.064c-0.047,0.043-0.07,0.099-0.07,0.166v0.794
			c0,0.063,0.023,0.115,0.07,0.162c0.045,0.046,0.099,0.069,0.161,0.069h1.403c0.695,0,1.044,0.352,1.044,1.054v2.734
			c0,0.067,0.023,0.123,0.069,0.167c0.046,0.043,0.104,0.063,0.171,0.063h1.09c0.068,0,0.123-0.022,0.166-0.068
			s0.064-0.101,0.064-0.162v-2.79c0-0.8-0.21-1.376-0.632-1.728C37.078,18.927,36.439,18.751,35.584,18.751z"/>
		<path fill="#3D4859" d="M40.525,18.751h-1.153c-0.063,0-0.115,0.021-0.161,0.064c-0.047,0.043-0.069,0.099-0.069,0.166v2.624
			c0,0.063,0.022,0.116,0.069,0.162c0.046,0.046,0.1,0.069,0.161,0.069h1.153c0.068,0,0.125-0.022,0.171-0.065
			c0.047-0.043,0.069-0.099,0.069-0.167v-2.624c0-0.067-0.022-0.123-0.069-0.166C40.65,18.773,40.594,18.751,40.525,18.751z"/>
		<path fill="#3D4859" d="M47.833,18.816c-0.043-0.043-0.1-0.064-0.166-0.064h-0.972c-0.066,0-0.124,0.021-0.17,0.064
			c-0.047,0.043-0.069,0.099-0.069,0.166v2.374c0,0.284-0.071,0.539-0.212,0.768c-0.144,0.228-0.337,0.405-0.587,0.536
			c-0.249,0.129-0.531,0.193-0.846,0.193H44.59c-0.24,0-0.454-0.052-0.644-0.157c-0.188-0.104-0.34-0.255-0.456-0.452
			c0.664-0.068,1.179-0.306,1.542-0.711c0.363-0.407,0.546-0.962,0.546-1.663V19c0-0.068-0.023-0.126-0.07-0.175
			c-0.046-0.05-0.1-0.074-0.16-0.074h-0.972c-0.066,0-0.122,0.022-0.165,0.068c-0.044,0.047-0.064,0.106-0.064,0.181v0.85
			c0,0.418-0.067,0.741-0.204,0.965c-0.135,0.226-0.368,0.354-0.701,0.384l-0.01-2.218c0-0.067-0.021-0.123-0.068-0.166
			c-0.046-0.043-0.104-0.064-0.171-0.064h-0.971c-0.062,0-0.116,0.021-0.162,0.064c-0.046,0.043-0.068,0.099-0.068,0.166v2.976
			c0,0.394,0.098,0.754,0.291,1.081s0.476,0.585,0.845,0.775c0.371,0.191,0.802,0.286,1.294,0.286h0.878
			c0.523,0.006,0.998-0.101,1.423-0.323c0.425-0.222,0.762-0.536,1.007-0.946c0.246-0.41,0.369-0.886,0.369-1.428v-2.42
			C47.897,18.915,47.876,18.859,47.833,18.816z"/>
	</g>
	<g>
		<path fill="#17A0A5" d="M8.735,27.345H8.137c-0.025,0-0.047,0.009-0.063,0.024c-0.019,0.017-0.027,0.039-0.027,0.066v0.224
			c0,0.024,0.01,0.047,0.027,0.063c0.018,0.019,0.038,0.027,0.063,0.027h0.579c0.359,0,0.539,0.179,0.539,0.538v1.599
			c0,0.025,0.009,0.046,0.024,0.064c0.02,0.018,0.04,0.025,0.065,0.025h0.307c0.028,0,0.051-0.008,0.066-0.023
			c0.017-0.018,0.024-0.039,0.024-0.066V28.27c0-0.322-0.083-0.559-0.25-0.705C9.326,27.418,9.074,27.345,8.735,27.345z"/>
		<path fill="#17A0A5" d="M10.8,27.345h-0.553c-0.025,0-0.047,0.009-0.064,0.024c-0.018,0.017-0.025,0.039-0.025,0.066v0.224
			c0,0.024,0.009,0.047,0.025,0.063c0.019,0.019,0.039,0.027,0.064,0.027h0.533c0.359,0,0.538,0.179,0.538,0.538v1.129
			c0,0.024,0.01,0.047,0.026,0.064c0.018,0.019,0.039,0.026,0.064,0.026h0.307c0.025,0,0.047-0.009,0.064-0.026
			c0.019-0.018,0.025-0.04,0.025-0.064V28.27c0-0.317-0.083-0.552-0.249-0.701C11.392,27.42,11.139,27.345,10.8,27.345z"/>
		<path fill="#17A0A5" d="M13.865,27.345h-1.659c-0.025,0-0.046,0.009-0.064,0.024c-0.018,0.017-0.025,0.039-0.025,0.066v0.224
			c0,0.024,0.009,0.047,0.025,0.063c0.02,0.019,0.039,0.027,0.064,0.027h0.955c-0.059,0.078-0.087,0.218-0.087,0.42v1.254
			c0,0.025,0.008,0.045,0.021,0.061c0.014,0.017,0.035,0.023,0.062,0.023h0.304c0.023,0,0.048-0.008,0.066-0.024
			c0.021-0.017,0.03-0.035,0.03-0.059v-1.22c0-0.1,0.009-0.188,0.026-0.27s0.044-0.143,0.076-0.186h0.203
			c0.025,0,0.049-0.009,0.065-0.027c0.017-0.018,0.026-0.039,0.026-0.063v-0.224c0-0.024-0.011-0.047-0.026-0.064
			S13.891,27.345,13.865,27.345z"/>
		<path fill="#17A0A5" d="M15.257,27.345h-0.804c-0.025,0-0.048,0.009-0.064,0.024c-0.018,0.017-0.026,0.039-0.026,0.066v0.224
			c0,0.024,0.01,0.047,0.026,0.063c0.019,0.019,0.039,0.027,0.064,0.027h0.784c0.357,0,0.537,0.179,0.537,0.538v1.129
			c0,0.024,0.01,0.047,0.026,0.064c0.019,0.019,0.039,0.026,0.065,0.026h0.307c0.027,0,0.05-0.009,0.065-0.026
			c0.017-0.018,0.024-0.04,0.024-0.064v-1.133C16.265,27.659,15.929,27.345,15.257,27.345z"/>
		<path fill="#17A0A5" d="M14.757,28.137h-0.304c-0.025,0-0.048,0.008-0.064,0.024c-0.018,0.017-0.026,0.039-0.026,0.065v1.19
			c0,0.024,0.01,0.047,0.026,0.064c0.019,0.019,0.039,0.026,0.064,0.026h0.304c0.027,0,0.05-0.009,0.068-0.026
			c0.018-0.018,0.025-0.04,0.025-0.064v-1.19c0-0.024-0.009-0.046-0.025-0.063C14.807,28.146,14.784,28.137,14.757,28.137z"/>
		<path fill="#17A0A5" d="M18.224,27.345h-0.075h-0.186v-0.216c0-0.028-0.009-0.05-0.025-0.066
			c-0.016-0.016-0.038-0.023-0.065-0.023h-0.28c-0.025,0-0.047,0.008-0.064,0.023c-0.017,0.017-0.027,0.039-0.027,0.066v0.545
			c0,0.026,0.008,0.046,0.023,0.063c0.018,0.017,0.039,0.024,0.066,0.024l0.429,0.004h0.012h0.103c0.134,0,0.238,0.019,0.313,0.053
			c0.074,0.035,0.128,0.094,0.159,0.173s0.047,0.188,0.047,0.327c0,0.202-0.039,0.356-0.118,0.463
			c-0.079,0.105-0.192,0.188-0.34,0.246l-0.137,0.054c-0.027,0.013-0.049,0.027-0.063,0.047c-0.016,0.019-0.022,0.04-0.022,0.063
			v0.276c0,0.028,0.01,0.051,0.03,0.068c0.02,0.017,0.043,0.022,0.067,0.015l0.155-0.049c0.271-0.081,0.493-0.218,0.667-0.413
			c0.174-0.194,0.262-0.452,0.262-0.773c0-0.338-0.07-0.584-0.213-0.738C18.799,27.422,18.56,27.345,18.224,27.345z"/>
		<path fill="#17A0A5" d="M20.984,27.591c-0.159-0.164-0.409-0.246-0.748-0.246h-0.563c-0.025,0-0.047,0.009-0.064,0.024
			c-0.019,0.017-0.026,0.039-0.026,0.066v0.238c0,0.026,0.009,0.047,0.026,0.063c0.019,0.019,0.039,0.027,0.064,0.027h0.545
			c0.356,0,0.542,0.181,0.558,0.542c0.002,0.03,0.003,0.069,0.003,0.117s-0.001,0.088-0.003,0.121
			c-0.011,0.177-0.061,0.312-0.149,0.404c-0.089,0.092-0.227,0.138-0.407,0.138h-0.545c-0.025,0-0.047,0.008-0.064,0.023
			c-0.019,0.018-0.026,0.039-0.026,0.066v0.239c0,0.024,0.009,0.047,0.026,0.064c0.019,0.019,0.039,0.026,0.064,0.026h0.563
			c0.339,0,0.589-0.082,0.748-0.247c0.16-0.164,0.247-0.4,0.261-0.708c0.002-0.033,0.003-0.076,0.003-0.129
			c0-0.05-0.001-0.092-0.003-0.125C21.231,27.992,21.145,27.756,20.984,27.591z"/>
		<path fill="#17A0A5" d="M23.032,27.345h-0.6c-0.024,0-0.047,0.009-0.063,0.024c-0.019,0.017-0.026,0.039-0.026,0.066v0.224
			c0,0.024,0.009,0.047,0.026,0.063c0.018,0.019,0.039,0.027,0.063,0.027h0.579c0.359,0,0.539,0.179,0.539,0.538v1.599
			c0,0.025,0.009,0.046,0.026,0.064c0.018,0.018,0.039,0.025,0.063,0.025h0.308c0.027,0,0.05-0.008,0.065-0.023
			c0.017-0.018,0.024-0.039,0.024-0.066V28.27c0-0.322-0.083-0.559-0.25-0.705C23.623,27.418,23.371,27.345,23.032,27.345z"/>
		<path fill="#17A0A5" d="M25.098,27.345h-0.554c-0.025,0-0.046,0.009-0.064,0.024c-0.018,0.017-0.025,0.039-0.025,0.066v0.224
			c0,0.024,0.009,0.047,0.025,0.063c0.02,0.019,0.039,0.027,0.064,0.027h0.534c0.358,0,0.539,0.179,0.539,0.538v1.129
			c0,0.024,0.008,0.047,0.025,0.064c0.018,0.019,0.039,0.026,0.064,0.026h0.307c0.025,0,0.047-0.009,0.064-0.026
			s0.025-0.04,0.025-0.064V28.27c0-0.317-0.083-0.552-0.25-0.701C25.688,27.42,25.436,27.345,25.098,27.345z"/>
		<path fill="#17A0A5" d="M27.019,27.345h-0.322c-0.024,0-0.047,0.009-0.063,0.024c-0.018,0.017-0.026,0.039-0.026,0.066v1.981
			c0,0.024,0.01,0.047,0.026,0.064c0.018,0.019,0.039,0.026,0.063,0.026h0.322c0.025,0,0.047-0.009,0.064-0.026
			s0.025-0.04,0.025-0.064v-1.981c0-0.024-0.009-0.047-0.025-0.064C27.065,27.354,27.044,27.345,27.019,27.345z"/>
		<path fill="#17A0A5" d="M29.031,28.744c0.175-0.109,0.293-0.227,0.354-0.354c0.063-0.126,0.094-0.271,0.094-0.438V27.44
			c0-0.027-0.01-0.05-0.026-0.067c-0.019-0.018-0.04-0.026-0.068-0.026h-0.273c-0.024,0-0.046,0.009-0.063,0.026
			c-0.019,0.018-0.026,0.041-0.026,0.067v0.493c0,0.076-0.004,0.138-0.012,0.188c-0.008,0.05-0.027,0.099-0.061,0.147
			c-0.034,0.049-0.086,0.097-0.155,0.139l-0.701-0.989c-0.035-0.048-0.075-0.072-0.122-0.072h-0.307
			c-0.022,0-0.042,0.008-0.058,0.023c-0.015,0.015-0.021,0.033-0.021,0.057c0,0.021,0.008,0.041,0.021,0.061l0.371,0.527
			c-0.163,0.114-0.273,0.238-0.332,0.375c-0.06,0.136-0.088,0.305-0.088,0.507v0.521c0,0.027,0.009,0.05,0.026,0.067
			c0.018,0.019,0.039,0.026,0.063,0.026h0.258c0.027,0,0.051-0.009,0.066-0.026c0.017-0.018,0.024-0.041,0.024-0.067V28.9
			c0-0.107,0.015-0.209,0.043-0.301s0.088-0.174,0.177-0.244l0.766,1.087c0.019,0.022,0.034,0.04,0.052,0.052
			c0.017,0.011,0.04,0.017,0.069,0.017h0.318c0.021,0,0.038-0.008,0.053-0.023c0.017-0.015,0.022-0.033,0.022-0.057
			c0-0.022-0.008-0.043-0.022-0.061L29.031,28.744z"/>
		<path fill="#17A0A5" d="M30.505,27.345H30.43h-0.187v-0.216c0-0.028-0.009-0.05-0.024-0.066s-0.038-0.023-0.066-0.023h-0.279
			c-0.025,0-0.047,0.008-0.064,0.023c-0.017,0.017-0.025,0.039-0.025,0.066v0.545c0,0.026,0.008,0.046,0.023,0.063
			c0.018,0.017,0.039,0.024,0.066,0.024l0.428,0.004h0.012h0.104c0.134,0,0.237,0.019,0.313,0.053
			c0.074,0.035,0.128,0.094,0.159,0.173s0.048,0.188,0.048,0.327c0,0.202-0.041,0.356-0.12,0.463
			c-0.079,0.105-0.191,0.188-0.339,0.246l-0.136,0.054c-0.028,0.013-0.05,0.027-0.065,0.047c-0.015,0.019-0.021,0.04-0.021,0.063
			v0.276c0,0.028,0.01,0.051,0.03,0.068c0.02,0.017,0.043,0.022,0.067,0.015l0.155-0.049c0.271-0.081,0.493-0.218,0.667-0.413
			c0.174-0.194,0.262-0.452,0.262-0.773c0-0.338-0.07-0.584-0.213-0.738C31.081,27.42,30.841,27.345,30.505,27.345z"/>
		<path fill="#17A0A5" d="M33.222,27.345h-0.599c-0.025,0-0.047,0.009-0.064,0.024c-0.018,0.017-0.025,0.039-0.025,0.066v0.224
			c0,0.024,0.009,0.047,0.025,0.063c0.019,0.019,0.039,0.027,0.064,0.027h0.58c0.357,0,0.538,0.179,0.538,0.538v1.599
			c0,0.025,0.009,0.046,0.025,0.064c0.019,0.018,0.039,0.025,0.064,0.025h0.307c0.028,0,0.05-0.008,0.066-0.023
			c0.017-0.018,0.023-0.039,0.023-0.066V28.27c0-0.322-0.083-0.559-0.25-0.705C33.813,27.418,33.561,27.345,33.222,27.345z"/>
		<path fill="#17A0A5" d="M35.821,27.345h-0.936c-0.026,0-0.048,0.009-0.065,0.024c-0.018,0.017-0.025,0.039-0.025,0.066v0.224
			c0,0.024,0.009,0.047,0.025,0.063c0.019,0.019,0.039,0.027,0.065,0.027h0.216c-0.027,0.114-0.047,0.22-0.055,0.319
			c-0.01,0.101-0.013,0.215-0.011,0.344v0.705l-0.3-0.004c-0.024,0-0.047,0.009-0.063,0.024c-0.018,0.016-0.026,0.039-0.026,0.066
			v0.208c0,0.024,0.009,0.047,0.026,0.063c0.017,0.018,0.039,0.026,0.063,0.026l0.667,0.004c0.028,0,0.051-0.009,0.066-0.026
			c0.017-0.018,0.024-0.04,0.024-0.064l-0.02-1.016c-0.002-0.124,0.001-0.234,0.011-0.334c0.012-0.098,0.028-0.204,0.055-0.317
			h0.257c0.362,0,0.542,0.179,0.542,0.538v1.129c0,0.024,0.009,0.047,0.025,0.064c0.02,0.019,0.04,0.026,0.065,0.026h0.303
			c0.027,0,0.051-0.009,0.065-0.026c0.018-0.018,0.024-0.04,0.024-0.064V28.27c0-0.311-0.083-0.542-0.25-0.694
			C36.408,27.421,36.157,27.345,35.821,27.345z"/>
		<path fill="#17A0A5" d="M37.716,27.345h-0.321c-0.025,0-0.048,0.009-0.064,0.024c-0.019,0.017-0.026,0.039-0.026,0.066v1.096
			c0,0.024,0.009,0.046,0.026,0.063c0.018,0.017,0.039,0.026,0.064,0.026h0.321c0.025,0,0.046-0.01,0.063-0.026
			c0.019-0.018,0.026-0.04,0.026-0.063v-1.096c0-0.024-0.009-0.047-0.026-0.064S37.741,27.345,37.716,27.345z"/>
		<path fill="#17A0A5" d="M40.152,29.369l-0.442-0.625c0.174-0.109,0.293-0.227,0.354-0.354c0.063-0.126,0.093-0.271,0.093-0.438
			V27.44c0-0.027-0.009-0.05-0.026-0.067s-0.04-0.026-0.068-0.026h-0.271c-0.024,0-0.046,0.009-0.064,0.026
			c-0.018,0.018-0.025,0.041-0.025,0.067v0.493c0,0.076-0.004,0.138-0.012,0.188c-0.008,0.05-0.027,0.099-0.061,0.147
			s-0.085,0.097-0.156,0.139l-0.7-0.989c-0.036-0.048-0.076-0.072-0.122-0.072h-0.307c-0.023,0-0.042,0.008-0.057,0.023
			c-0.017,0.015-0.022,0.033-0.022,0.057c0,0.021,0.007,0.041,0.022,0.061l0.37,0.527c-0.163,0.114-0.274,0.238-0.333,0.375
			c-0.059,0.136-0.088,0.305-0.088,0.507v0.521c0,0.027,0.01,0.05,0.027,0.067c0.018,0.019,0.038,0.026,0.064,0.026h0.258
			c0.026,0,0.05-0.009,0.064-0.026c0.018-0.018,0.025-0.041,0.025-0.067V28.9c0-0.107,0.014-0.209,0.043-0.301
			s0.088-0.174,0.176-0.244l0.768,1.087c0.017,0.022,0.033,0.04,0.051,0.052c0.017,0.011,0.039,0.017,0.069,0.017H40.1
			c0.021,0,0.037-0.008,0.053-0.023c0.017-0.015,0.022-0.033,0.022-0.057S40.168,29.386,40.152,29.369z"/>
	</g>
</g>
</svg>
