<?xml version="1.0" encoding="utf-8"?>
<!-- Generator: Adobe Illustrator 16.0.2, SVG Export Plug-In . SVG Version: 6.00 Build 0)  -->
<!DOCTYPE svg PUBLIC "-//W3C//DTD SVG 1.1//EN" "http://www.w3.org/Graphics/SVG/1.1/DTD/svg11.dtd">
<svg version="1.1" id="Слой_1" xmlns="http://www.w3.org/2000/svg" xmlns:xlink="http://www.w3.org/1999/xlink" x="0px" y="0px"
	 width="42.036px" height="28.789px" viewBox="0 0 42.036 28.789" enable-background="new 0 0 42.036 28.789" xml:space="preserve">
<g>
	<g>
		<path fill-rule="evenodd" clip-rule="evenodd" fill="#C3C8D3" d="M21.066,0c6.131,0,12.261-0.001,18.393,0.001
			c1.181,0,2.016,0.53,2.404,1.518c0.271,0.688,0.265,0.713-0.329,1.128c-6.149,4.302-12.299,8.604-18.448,12.904
			c-1.381,0.967-2.745,0.97-4.122,0.008C12.738,11.204,6.514,6.847,0.282,2.5C0.035,2.327-0.007,2.169,0.061,1.895
			c0.25-1.001,1.131-1.78,2.159-1.872c0.221-0.02,0.443-0.022,0.664-0.022C8.945,0,15.006,0,21.066,0z"/>
		<path fill-rule="evenodd" clip-rule="evenodd" fill="#C3C8D3" d="M1.404,28.537c4.673-4.327,9.347-8.654,14.034-12.993
			c0.77,0.545,1.522,1.075,2.273,1.607c2.229,1.58,4.483,1.583,6.713,0.005c0.667-0.472,1.342-0.932,1.996-1.421
			c0.229-0.171,0.354-0.137,0.551,0.047c3.998,3.74,8.004,7.474,12.008,11.209c0.552,0.516,1.104,1.031,1.656,1.547
			c-0.003,0.037-0.007,0.073-0.011,0.11c-0.417,0.047-0.835,0.133-1.251,0.134c-6.013,0.009-12.025,0.006-18.038,0.006
			c-6.199,0-12.398,0.002-18.598-0.005c-0.438,0-0.876-0.081-1.313-0.124C1.418,28.619,1.411,28.578,1.404,28.537z"/>
		<path fill-rule="evenodd" clip-rule="evenodd" fill="#C3C8D3" d="M13.665,14.395c-4.529,4.183-9.022,8.33-13.598,12.552
			c-0.027-0.291-0.064-0.499-0.064-0.706C-0.001,20.646,0,15.053,0,9.459C0,8.046,0,6.633,0,5.22c0-0.115,0-0.23,0-0.422
			C4.571,8.008,9.092,11.183,13.665,14.395z"/>
		<path fill-rule="evenodd" clip-rule="evenodd" fill="#C3C8D3" d="M28.374,14.396c4.559-3.201,9.079-6.376,13.641-9.58
			c0,7.365,0,14.684,0,22.072C37.464,22.72,32.944,18.58,28.374,14.396z"/>
	</g>
</g>
</svg>
