<?xml version="1.0" encoding="utf-8"?>
<!-- Generator: Adobe Illustrator 16.0.2, SVG Export Plug-In . SVG Version: 6.00 Build 0)  -->
<!DOCTYPE svg PUBLIC "-//W3C//DTD SVG 1.1//EN" "http://www.w3.org/Graphics/SVG/1.1/DTD/svg11.dtd">
<svg version="1.1" id="Слой_1" xmlns="http://www.w3.org/2000/svg" xmlns:xlink="http://www.w3.org/1999/xlink" x="0px" y="0px"
	 width="14.497px" height="9.62px" viewBox="0 0 14.497 9.62" enable-background="new 0 0 14.497 9.62" xml:space="preserve">
<g>
	<path fill="#FFFFFF" d="M6.302,8.059c0.355,0.358,0.355,0.938-0.004,1.294l0,0C5.94,9.711,5.36,9.709,5.003,9.351l-4.736-4.76
		C-0.09,4.23-0.089,3.652,0.271,3.295l0,0c0.357-0.356,0.938-0.355,1.294,0.004L6.302,8.059z"/>
	<path fill="#FFFFFF" d="M5.637,7.574C5.108,8.104,4.969,8.825,5.328,9.18l0,0c0.358,0.357,1.081,0.214,1.611-0.317l7.048-7.059
		c0.53-0.533,0.669-1.252,0.309-1.607l0,0c-0.357-0.356-1.08-0.214-1.609,0.319L5.637,7.574z"/>
</g>
</svg>
