<?xml version="1.0" encoding="utf-8"?>
<!-- Generator: Adobe Illustrator 16.0.2, SVG Export Plug-In . SVG Version: 6.00 Build 0)  -->
<!DOCTYPE svg PUBLIC "-//W3C//DTD SVG 1.1//EN" "http://www.w3.org/Graphics/SVG/1.1/DTD/svg11.dtd">
<svg version="1.1" id="Слой_1" xmlns="http://www.w3.org/2000/svg" xmlns:xlink="http://www.w3.org/1999/xlink" x="0px" y="0px"
	 width="23.406px" height="21.219px" viewBox="-0.479 -0.386 23.406 21.219" enable-background="new -0.479 -0.386 23.406 21.219"
	 xml:space="preserve">
<g>
	<g>
		<g>
			<path fill-rule="evenodd" clip-rule="evenodd" fill="#A8AABA" d="M11.037,14.481c0.563,0.705,1.102,1.379,1.661,2.078
				c-0.088,0.066-0.161,0.127-0.231,0.188c-1.172,0.932-2.335,1.865-3.507,2.792c-1.921,1.523-4.564,1.507-6.369-0.143
				c-1.072-0.982-1.973-2.147-2.515-3.523c-0.721-1.817-0.37-3.482,0.993-4.861c0.794-0.808,1.712-1.499,2.588-2.229
				c0.563-0.471,1.143-0.917,1.732-1.388c0.556,0.698,1.098,1.374,1.655,2.079c-0.095,0.075-0.18,0.149-0.269,0.217
				c-1.045,0.835-2.101,1.667-3.138,2.508c-0.276,0.223-0.541,0.466-0.763,0.739c-0.594,0.722-0.697,1.625-0.163,2.395
				c0.512,0.748,1.091,1.457,1.726,2.104c0.748,0.748,1.769,0.801,2.618,0.164c1.223-0.916,2.415-1.885,3.616-2.832
				C10.786,14.681,10.896,14.591,11.037,14.481z"/>
			<path fill-rule="evenodd" clip-rule="evenodd" fill="#A8AABA" d="M11.526,5.902c-0.563-0.706-1.097-1.378-1.656-2.078
				c0.077-0.064,0.153-0.118,0.225-0.179c1.173-0.935,2.349-1.879,3.526-2.813c1.902-1.506,4.561-1.486,6.352,0.148
				c1.079,0.986,1.973,2.155,2.521,3.526c0.725,1.83,0.365,3.503-1.014,4.889c-0.806,0.81-1.731,1.504-2.611,2.24
				c-0.545,0.458-1.117,0.895-1.689,1.354c-0.559-0.701-1.096-1.38-1.66-2.084c0.107-0.085,0.205-0.16,0.301-0.238
				c1.189-0.959,2.4-1.899,3.565-2.895c0.97-0.83,1.071-1.98,0.298-2.996c-0.482-0.63-0.975-1.264-1.533-1.818
				c-0.764-0.752-1.766-0.822-2.618-0.187c-1.253,0.931-2.464,1.918-3.691,2.881C11.745,5.728,11.649,5.803,11.526,5.902z"/>
			<path fill-rule="evenodd" clip-rule="evenodd" fill="#A8AABA" d="M5.525,7.301c0.359-0.288,0.7-0.559,1.06-0.848
				C7.131,7.138,7.673,7.82,8.229,8.512C7.876,8.798,7.529,9.073,7.166,9.36C6.618,8.673,6.079,8,5.525,7.301z"/>
			<path fill-rule="evenodd" clip-rule="evenodd" fill="#A8AABA" d="M11.39,5.992c-0.359,0.288-0.706,0.563-1.063,0.848
				C9.779,6.153,9.236,5.478,8.69,4.787C9.043,4.508,9.389,4.231,9.755,3.94C10.293,4.617,10.831,5.292,11.39,5.992z"/>
			<path fill-rule="evenodd" clip-rule="evenodd" fill="#A8AABA" d="M11.178,14.388c0.359-0.283,0.706-0.563,1.064-0.846
				c0.546,0.684,1.083,1.364,1.636,2.051c-0.352,0.279-0.699,0.561-1.064,0.848C12.275,15.765,11.737,15.093,11.178,14.388z"/>
			<path fill-rule="evenodd" clip-rule="evenodd" fill="#A8AABA" d="M14.34,11.867c0.353-0.285,0.699-0.56,1.064-0.847
				c0.545,0.69,1.083,1.365,1.635,2.058c-0.353,0.277-0.699,0.554-1.064,0.842C15.438,13.239,14.89,12.559,14.34,11.867z"/>
		</g>
		<path fill-rule="evenodd" clip-rule="evenodd" fill="#A8AABA" d="M7.245,13.412c0.516,0.649,0.407,1.587-0.234,2.101
			c-0.649,0.517-1.589,0.411-2.102-0.234c-0.516-0.648-0.407-1.582,0.236-2.102C5.792,12.665,6.732,12.771,7.245,13.412z"/>
		<path fill-rule="evenodd" clip-rule="evenodd" fill="#A8AABA" d="M17.67,5.104c0.511,0.647,0.407,1.587-0.234,2.101
			c-0.649,0.516-1.591,0.41-2.102-0.235c-0.518-0.647-0.41-1.59,0.235-2.101C16.216,4.356,17.157,4.462,17.67,5.104z"/>
	</g>
</g>
</svg>
