<?xml version="1.0" encoding="utf-8"?>
<!-- Generator: Adobe Illustrator 16.0.0, SVG Export Plug-In . SVG Version: 6.00 Build 0)  -->
<!DOCTYPE svg PUBLIC "-//W3C//DTD SVG 1.1//EN" "http://www.w3.org/Graphics/SVG/1.1/DTD/svg11.dtd">
<svg version="1.1" id="Слой_1" xmlns="http://www.w3.org/2000/svg" xmlns:xlink="http://www.w3.org/1999/xlink" x="0px" y="0px"
	 width="49.375px" height="49.25px" viewBox="0 0 49.375 49.25" enable-background="new 0 0 49.375 49.25" xml:space="preserve">
<g>
	<g>
		<circle fill="#30BAB2" cx="-12.452" cy="15.748" r="22.249"/>
	</g>
	<g>
		<path fill="#C1EAE8" d="M-12.452,40.148c-13.456,0-24.402-10.945-24.402-24.4c0-13.456,10.947-24.403,24.402-24.403
			S11.951,2.292,11.951,15.748C11.951,29.203,1.004,40.148-12.452,40.148z M-12.452-4.349c-11.081,0-20.096,9.016-20.096,20.097
			c0,11.08,9.015,20.095,20.096,20.095S7.644,26.828,7.644,15.748C7.644,4.667-1.371-4.349-12.452-4.349z"/>
	</g>
</g>
<g>
	<g>
		<path fill="#FFFFFF" d="M-17.665,6.451c1.279,0.478,2.104,1.426,2.695,2.612c0.052,0.105,0.09,0.219,0.14,0.327
			c0.188,0.414,0.125,0.788-0.15,1.145c-0.389,0.502-0.769,1.012-1.149,1.521c-0.111,0.148-0.216,0.303-0.313,0.46
			c-0.199,0.327-0.201,0.66,0.011,0.979c1.432,2.154,3.096,4.106,5.059,5.796c0.301,0.258,0.623,0.494,0.947,0.725
			c0.27,0.191,0.576,0.215,0.864,0.052c0.521-0.293,1.032-0.605,1.543-0.914c0.212-0.129,0.414-0.274,0.625-0.402
			c0.354-0.219,0.72-0.229,1.092-0.044c1.102,0.551,1.942,1.369,2.507,2.466c0.292,0.567,0.255,1.119-0.127,1.631
			c-0.623,0.833-1.378,1.509-2.357,1.902c-1.121,0.453-2.252,0.42-3.398,0.089c-1.14-0.331-2.135-0.918-3.072-1.63
			c-1.103-0.837-2.091-1.794-3.029-2.809c-1.101-1.192-2.226-2.362-3.197-3.666c-0.792-1.063-1.491-2.181-1.932-3.441
			c-0.347-0.992-0.491-2.003-0.328-3.048c0.14-0.894,0.552-1.656,1.143-2.331c0.438-0.498,0.95-0.902,1.525-1.228
			c0.145-0.083,0.312-0.129,0.468-0.19C-17.954,6.451-17.809,6.451-17.665,6.451z"/>
	</g>
</g>
</svg>
