<?xml version="1.0" encoding="utf-8"?>
<!-- Generator: Adobe Illustrator 16.0.0, SVG Export Plug-In . SVG Version: 6.00 Build 0)  -->
<!DOCTYPE svg PUBLIC "-//W3C//DTD SVG 1.1//EN" "http://www.w3.org/Graphics/SVG/1.1/DTD/svg11.dtd">
<svg version="1.1" id="Слой_1" xmlns="http://www.w3.org/2000/svg" xmlns:xlink="http://www.w3.org/1999/xlink" x="0px" y="0px"
	 width="50px" height="49.375px" viewBox="0 0 50 49.375" enable-background="new 0 0 50 49.375" xml:space="preserve">
<g>
	<g>
		<circle fill="#30BAB2" cx="-12.032" cy="16.33" r="22.249"/>
	</g>
	<g>
		<path fill="#C1EAE8" d="M-12.032,40.73c-13.456,0-24.402-10.945-24.402-24.4c0-13.456,10.947-24.403,24.402-24.403
			C1.423-8.073,12.37,2.874,12.37,16.33C12.37,29.785,1.423,40.73-12.032,40.73z M-12.032-3.767
			c-11.081,0-20.096,9.016-20.096,20.097c0,11.08,9.015,20.095,20.096,20.095c11.081,0,20.095-9.015,20.095-20.095
			C8.063,5.249-0.951-3.767-12.032-3.767z"/>
	</g>
</g>
<g>
	<text transform="matrix(1 0 0 1 -25.2314 20.4053)" fill="#FFFFFF" font-family="'Assistant-ExtraBold'" font-size="13.8648">SMS</text>
</g>
</svg>
