<?xml version="1.0" encoding="utf-8"?>
<!-- Generator: Adobe Illustrator 16.0.2, SVG Export Plug-In . SVG Version: 6.00 Build 0)  -->
<!DOCTYPE svg PUBLIC "-//W3C//DTD SVG 1.1//EN" "http://www.w3.org/Graphics/SVG/1.1/DTD/svg11.dtd">
<svg version="1.1" id="Слой_1" xmlns="http://www.w3.org/2000/svg" xmlns:xlink="http://www.w3.org/1999/xlink" x="0px" y="0px"
	 width="24.5px" height="24.375px" viewBox="-0.292 -2.104 24.5 24.375" enable-background="new -0.292 -2.104 24.5 24.375"
	 xml:space="preserve">
<g>
	<g>
		<g>
			<path fill-rule="evenodd" clip-rule="evenodd" fill="#A6ABB9" d="M18.498,20.302c0.217,0,0.414,0,0.609,0
				c1.318,0,2.635-0.003,3.951,0.002c0.679,0.002,1.123,0.569,0.945,1.189c-0.106,0.368-0.43,0.628-0.834,0.665
				c-0.049,0.005-0.099,0.004-0.148,0.004c-7.341,0-14.682,0-22.024,0c-0.485,0-0.832-0.222-0.974-0.612
				c-0.219-0.604,0.206-1.22,0.867-1.246c0.302-0.012,0.604-0.001,0.933-0.001c0-0.134,0-0.239,0-0.344
				c0-5.679,0.008-11.358-0.01-17.037C1.811,2.106,2.317,1.749,2.958,1.775c0.755,0.031,1.514,0.007,2.271,0.007
				c0.089,0,0.177,0,0.297,0c0-0.111,0-0.199,0-0.287c0-0.807-0.002-1.614,0-2.42c0.004-0.793,0.688-1.216,1.399-0.861
				c3.663,1.828,7.322,3.659,10.984,5.488c0.385,0.192,0.576,0.491,0.573,0.925c-0.006,0.806-0.002,1.613-0.002,2.42
				c0,0.088,0,0.177,0,0.298c0.111,0,0.199,0,0.287,0c0.814,0,1.629-0.002,2.444,0.001c0.597,0.003,0.971,0.374,0.972,0.972
				c0.002,3.053,0.002,6.107,0,9.16c-0.001,0.529-0.328,0.907-0.826,0.971c-0.426,0.055-0.859-0.23-0.979-0.662
				c-0.035-0.132-0.036-0.275-0.036-0.414c-0.003-2.626-0.002-5.252-0.002-7.877c0-0.089,0-0.179,0-0.288c-0.622,0-1.226,0-1.845,0
				C18.498,12.899,18.498,16.582,18.498,20.302z M16.638,20.29c0-0.099,0-0.171,0-0.244c0-4.896-0.001-9.793,0.006-14.69
				c0-0.183-0.074-0.255-0.221-0.328c-2.926-1.459-5.851-2.923-8.776-4.385C7.569,0.604,7.488,0.571,7.37,0.518
				c0,0.14,0,0.243,0,0.346c0,5.481,0.001,10.962,0,16.442c0,0.107,0.003,0.215-0.005,0.322c-0.044,0.52-0.555,0.907-1.066,0.813
				c-0.495-0.094-0.771-0.455-0.772-1.017c0-4.485,0-8.97,0-13.455c0-0.104,0-0.208,0-0.313c-0.636,0-1.234,0-1.846,0
				c0,5.547,0,11.081,0,16.63c1.848,0,3.686,0,5.549,0c0-0.103,0-0.191,0-0.279c0-0.799-0.001-1.597,0-2.395
				c0.002-0.64,0.373-1.013,1.013-1.014c1.176-0.003,2.354-0.003,3.529,0.001c0.625,0.001,1.002,0.377,1.005,0.997
				c0.003,0.807,0.001,1.611,0.001,2.418c0,0.088,0,0.177,0,0.275C15.408,20.29,16.005,20.29,16.638,20.29z M12.914,20.288
				c0-0.613,0-1.215,0-1.816c-0.617,0-1.213,0-1.819,0c0,0.613,0,1.214,0,1.816C11.712,20.288,12.309,20.288,12.914,20.288z"/>
			<path fill-rule="evenodd" clip-rule="evenodd" fill="#A6ABB9" d="M9.252,5.497c0.603,0,1.191,0,1.801,0c0,0.607,0,1.21,0,1.831
				c-0.589,0-1.184,0-1.801,0C9.252,6.729,9.252,6.126,9.252,5.497z"/>
			<path fill-rule="evenodd" clip-rule="evenodd" fill="#A6ABB9" d="M14.765,5.507c0,0.604,0,1.201,0,1.818
				c-0.602,0-1.203,0-1.817,0c0-0.604,0-1.201,0-1.818C13.55,5.507,14.151,5.507,14.765,5.507z"/>
			<path fill-rule="evenodd" clip-rule="evenodd" fill="#A6ABB9" d="M11.06,11.038c-0.609,0-1.205,0-1.814,0
				c0-0.616,0-1.218,0-1.834c0.609,0,1.205,0,1.814,0C11.06,9.819,11.06,10.422,11.06,11.038z"/>
			<path fill-rule="evenodd" clip-rule="evenodd" fill="#A6ABB9" d="M14.763,11.037c-0.608,0-1.203,0-1.813,0
				c0-0.614,0-1.216,0-1.833c0.608,0,1.202,0,1.813,0C14.763,9.818,14.763,10.42,14.763,11.037z"/>
			<path fill-rule="evenodd" clip-rule="evenodd" fill="#A6ABB9" d="M11.059,14.74c-0.608,0-1.203,0-1.813,0
				c0-0.614,0-1.216,0-1.833c0.607,0,1.203,0,1.813,0C11.059,13.522,11.059,14.124,11.059,14.74z"/>
			<path fill-rule="evenodd" clip-rule="evenodd" fill="#A6ABB9" d="M12.945,14.737c0-0.614,0-1.211,0-1.826
				c0.604,0,1.199,0,1.814,0c0,0.604,0,1.207,0,1.826C14.164,14.737,13.569,14.737,12.945,14.737z"/>
		</g>
		<rect x="3.215" y="3.306" fill-rule="evenodd" clip-rule="evenodd" fill="#A6ABB9" width="4.124" height="18.028"/>
		<rect x="18.049" y="8.723" fill-rule="evenodd" clip-rule="evenodd" fill="#A6ABB9" width="4.124" height="12.594"/>
	</g>
</g>
</svg>
