<?xml version="1.0" encoding="utf-8"?>
<!-- Generator: Adobe Illustrator 16.0.0, SVG Export Plug-In . SVG Version: 6.00 Build 0)  -->
<!DOCTYPE svg PUBLIC "-//W3C//DTD SVG 1.1//EN" "http://www.w3.org/Graphics/SVG/1.1/DTD/svg11.dtd">
<svg version="1.1" id="Слой_1" xmlns="http://www.w3.org/2000/svg" xmlns:xlink="http://www.w3.org/1999/xlink" x="0px" y="0px"
	 width="49.375px" height="49.25px" viewBox="0 0 49.375 49.25" enable-background="new 0 0 49.375 49.25" xml:space="preserve">
<g>
	<g>
		<circle fill="#30BAB2" cx="-12.452" cy="15.748" r="22.249"/>
	</g>
	<g>
		<path fill="#C1EAE8" d="M-12.452,40.148c-13.456,0-24.402-10.945-24.402-24.4c0-13.456,10.947-24.403,24.402-24.403
			S11.951,2.292,11.951,15.748C11.951,29.203,1.004,40.148-12.452,40.148z M-12.452-4.349c-11.081,0-20.096,9.016-20.096,20.097
			c0,11.08,9.015,20.095,20.096,20.095S7.644,26.828,7.644,15.748C7.644,4.667-1.371-4.349-12.452-4.349z"/>
	</g>
</g>
<g>
	<g>
		<path fill="#FFFFFF" d="M-23.069,26.053c0.329-1.207,0.642-2.365,0.958-3.521c0.168-0.619,0.355-1.233,0.501-1.855
			c0.041-0.171,0.022-0.396-0.058-0.553c-1.672-3.265-1.82-6.589-0.254-9.907c1.59-3.367,4.275-5.461,7.934-6.134
			C-8.851,3.139-4.021,5.752-1.9,10.486c1.762,3.936,0.904,8.817-2.071,11.918c-1.95,2.03-4.313,3.2-7.113,3.439
			c-2.055,0.177-4.021-0.202-5.861-1.152c-0.226-0.116-0.423-0.124-0.659-0.062c-1.722,0.463-3.446,0.915-5.17,1.371
			C-22.851,26.02-22.93,26.029-23.069,26.053z M-20.436,23.459c1.042-0.27,2.006-0.497,2.954-0.778
			c0.361-0.105,0.634-0.053,0.947,0.126c1.837,1.049,3.806,1.418,5.9,1.115c5.153-0.746,8.671-5.774,7.603-10.865
			C-4.088,8.025-8.873,4.908-13.936,5.95c-5.965,1.229-9.084,8.227-5.98,13.466c0.293,0.497,0.379,0.908,0.196,1.453
			C-19.995,21.694-20.188,22.546-20.436,23.459z"/>
		<path fill="#FFFFFF" d="M-15.629,9.732c0.659,0.076,0.698,0.104,0.937,0.677c0.251,0.602,0.491,1.21,0.764,1.803
			c0.145,0.314,0.123,0.589-0.076,0.852c-0.182,0.242-0.37,0.482-0.577,0.704c-0.18,0.196-0.188,0.376-0.055,0.599
			c0.899,1.505,2.146,2.598,3.783,3.242c0.22,0.088,0.387,0.049,0.529-0.124c0.268-0.325,0.548-0.639,0.791-0.98
			c0.188-0.265,0.396-0.35,0.686-0.21c0.727,0.345,1.458,0.68,2.171,1.052c0.129,0.066,0.247,0.284,0.252,0.437
			c0.044,1.304-0.797,2.05-2.109,2.334c-1.014,0.219-1.931-0.178-2.844-0.537c-2.159-0.846-3.717-2.408-5.04-4.249
			c-0.537-0.748-0.988-1.535-1.12-2.46c-0.16-1.127,0.195-2.087,1.057-2.819C-16.264,9.865-15.917,9.835-15.629,9.732z"/>
	</g>
</g>
</svg>
