<?xml version="1.0" encoding="utf-8"?>
<!-- Generator: Adobe Illustrator 16.0.2, SVG Export Plug-In . SVG Version: 6.00 Build 0)  -->
<!DOCTYPE svg PUBLIC "-//W3C//DTD SVG 1.1//EN" "http://www.w3.org/Graphics/SVG/1.1/DTD/svg11.dtd">
<svg version="1.1" id="Слой_1" xmlns="http://www.w3.org/2000/svg" xmlns:xlink="http://www.w3.org/1999/xlink" x="0px" y="0px"
	 width="25px" height="24.833px" viewBox="6.521 7.792 25 24.833" enable-background="new 6.521 7.792 25 24.833"
	 xml:space="preserve">
<g>
	<path fill-rule="evenodd" clip-rule="evenodd" fill="#FFFFFF" d="M10.864,23.159c0.217-0.371,0.342-0.738,0.588-0.986
		c4.523-4.546,9.061-9.079,13.6-13.609c0.582-0.581,1.109-0.569,1.688,0.007c1.199,1.192,2.396,2.388,3.589,3.588
		c0.698,0.704,0.69,1.203-0.013,1.906c-4.465,4.466-8.93,8.931-13.396,13.396c-0.758,0.758-1.349,0.755-2.11-0.005
		c-1.127-1.126-2.264-2.244-3.373-3.387C11.206,23.832,11.073,23.5,10.864,23.159z"/>
	<path fill-rule="evenodd" clip-rule="evenodd" fill="#FFFFFF" d="M9.499,29.566c1-0.258,1.891-0.491,2.783-0.717
		c0.732-0.187,1.295,0.095,1.443,0.711c0.154,0.639-0.184,1.141-0.919,1.332c-1.424,0.37-2.849,0.738-4.277,1.093
		c-1.12,0.278-1.7-0.305-1.464-1.449c0.293-1.422,0.582-2.846,0.872-4.269c0.165-0.814,0.724-1.282,1.364-1.142
		c0.607,0.134,0.915,0.746,0.762,1.559C9.891,27.607,9.704,28.527,9.499,29.566z"/>
</g>
</svg>
