<?xml version="1.0" encoding="utf-8"?>
<!-- Generator: Adobe Illustrator 16.0.0, SVG Export Plug-In . SVG Version: 6.00 Build 0)  -->
<!DOCTYPE svg PUBLIC "-//W3C//DTD SVG 1.1//EN" "http://www.w3.org/Graphics/SVG/1.1/DTD/svg11.dtd">
<svg version="1.1" id="Слой_1" xmlns="http://www.w3.org/2000/svg" xmlns:xlink="http://www.w3.org/1999/xlink" x="0px" y="0px"
	 width="46.167px" height="45.667px" viewBox="0 0 46.167 45.667" enable-background="new 0 0 46.167 45.667" xml:space="preserve">
<g>
	<g>
		<g>
			<path fill="#258C91" d="M19.6,28.359c-12.275,0-22.266-9.986-22.266-22.262c0-12.279,9.99-22.264,22.266-22.264
				c12.274,0,22.261,9.986,22.261,22.264C41.861,18.371,31.873,28.359,19.6,28.359z M19.6-13.237
				c-10.66,0-19.335,8.673-19.335,19.334c0,10.658,8.675,19.332,19.333,19.332c10.659,0,19.331-8.674,19.331-19.332
				C38.929-4.564,30.259-13.237,19.6-13.237z"/>
		</g>
	</g>
</g>
<polygon fill="#75859D" points="25.117,10.396 19.294,5.431 13.472,10.396 12.335,9.26 19.255,3.355 19.294,3.393 19.331,3.355 
	26.251,9.26 "/>
</svg>
