<?xml version="1.0" encoding="utf-8"?>
<!-- Generator: Adobe Illustrator 16.0.2, SVG Export Plug-In . SVG Version: 6.00 Build 0)  -->
<!DOCTYPE svg PUBLIC "-//W3C//DTD SVG 1.1//EN" "http://www.w3.org/Graphics/SVG/1.1/DTD/svg11.dtd">
<svg version="1.1" id="Слой_1" xmlns="http://www.w3.org/2000/svg" xmlns:xlink="http://www.w3.org/1999/xlink" x="0px" y="0px"
	 width="46.5px" height="45.75px" viewBox="-8.479 -25.479 46.5 45.75" enable-background="new -8.479 -25.479 46.5 45.75"
	 xml:space="preserve">
<g>
	<g>
		<path fill-rule="evenodd" clip-rule="evenodd" fill="#C4C8D4" d="M27.423-0.93c-2.023,0-2.023-3.139,0-3.139h9.495
			c-0.786-11.509-10.462-20.68-22.062-20.618C3.143-24.687-6.51-15.483-7.25-4.068H3.673c2.023,0,2.023,3.139,0,3.139H-7.226
			c0.883,11.44,10.466,20.412,21.888,20.496c11.764,0.087,21.404-9.104,22.249-20.496H27.423z M17.525,9.302
			c-0.096,1.024-0.708,1.664-1.734,1.765c-0.53,0.053-1.068,0.043-1.603,0.026c-1.258-0.041-1.763-0.782-1.881-1.866
			C12.239,8.59,12.27,7.927,12.362,7.29c0.156-1.068,0.578-1.495,1.637-1.646c0.599-0.085,1.229-0.089,1.828-0.003
			c1.064,0.152,1.607,0.798,1.694,1.879c0.024,0.295,0.004,0.594,0.004,0.891c0.002,0,0.002,0,0.004,0
			C17.529,8.708,17.551,9.008,17.525,9.302z M22.933-5.785c-0.603,2.905-2.658,4.694-6.016,5.193c0,1.079,0.023,2.156-0.008,3.231
			c-0.022,0.757-0.229,0.99-1.003,1.043c-0.845,0.059-1.7,0.049-2.547,0.007c-0.444-0.021-0.643-0.321-0.655-0.803
			c-0.032-1.264-0.121-2.526-0.185-3.79c-0.013-0.241-0.031-0.484-0.02-0.725c0.06-1.019,0.274-1.711,1.635-1.663
			c0.579,0.021,1.187-0.11,1.743-0.29c1.102-0.355,1.812-1.129,2.086-2.27c0.22-0.915,0.275-1.836,0.028-2.755
			c-0.456-1.694-1.713-2.683-3.454-2.801c-1.57-0.106-3.016,0.269-4.395,0.981c-0.651,0.337-0.922,0.239-1.035-0.495
			c-0.1-0.639-0.12-1.293-0.134-1.941c-0.014-0.576,0.291-0.971,0.806-1.229c1.725-0.861,3.563-1.117,5.462-1.055
			c1.438,0.047,2.845,0.271,4.144,0.944c2.377,1.231,3.557,3.245,3.712,5.865C23.148-7.489,23.105-6.612,22.933-5.785z"/>
	</g>
</g>
</svg>
