<?xml version="1.0" encoding="utf-8"?>
<!-- Generator: Adobe Illustrator 16.0.2, SVG Export Plug-In . SVG Version: 6.00 Build 0)  -->
<!DOCTYPE svg PUBLIC "-//W3C//DTD SVG 1.1//EN" "http://www.w3.org/Graphics/SVG/1.1/DTD/svg11.dtd">
<svg version="1.1" id="Слой_1" xmlns="http://www.w3.org/2000/svg" xmlns:xlink="http://www.w3.org/1999/xlink" x="0px" y="0px"
	 width="17px" height="18.503px" viewBox="1.417 2.622 17 18.503" enable-background="new 1.417 2.622 17 18.503"
	 xml:space="preserve">
<g>
	<path fill-rule="evenodd" clip-rule="evenodd" fill="#8C95B2" d="M18.283,11.961c0,1.002,0.02,2.006-0.006,3.008
		c-0.028,1.149-0.549,2.059-1.526,2.646c-1.731,1.04-3.485,2.044-5.242,3.041c-1.023,0.58-2.09,0.554-3.101-0.008
		c-1.785-0.991-3.556-2.013-5.31-3.06c-0.961-0.573-1.478-1.479-1.496-2.593c-0.034-2.039-0.014-4.079-0.008-6.118
		c0.003-1.153,0.507-2.047,1.488-2.64c1.29-0.779,2.603-1.523,3.907-2.28c0.433-0.251,0.868-0.499,1.302-0.749
		c1.065-0.613,2.153-0.61,3.205-0.021c1.773,0.992,3.529,2.013,5.274,3.055c0.981,0.587,1.469,1.51,1.505,2.643
		C18.308,9.91,18.283,10.936,18.283,11.961z M7.607,12.789c0.061,0.099,0.099,0.194,0.165,0.263c0.321,0.332,0.65,0.655,0.977,0.981
		c0.221,0.22,0.392,0.221,0.611,0.001c1.293-1.293,2.586-2.585,3.879-3.878c0.203-0.204,0.205-0.348,0.003-0.552
		c-0.345-0.348-0.691-0.693-1.039-1.039c-0.167-0.167-0.32-0.17-0.488-0.002c-1.314,1.312-2.628,2.624-3.938,3.94
		C7.706,12.575,7.669,12.681,7.607,12.789z M7.211,14.644c0.06-0.301,0.113-0.567,0.163-0.834c0.045-0.235-0.044-0.413-0.221-0.451
		c-0.185-0.041-0.347,0.095-0.395,0.331c-0.084,0.412-0.168,0.824-0.252,1.236c-0.069,0.331,0.099,0.5,0.423,0.419
		c0.414-0.103,0.826-0.209,1.238-0.316c0.214-0.055,0.312-0.2,0.267-0.386c-0.043-0.178-0.206-0.259-0.418-0.206
		C7.759,14.501,7.501,14.569,7.211,14.644z"/>
</g>
</svg>
