<?xml version="1.0" encoding="utf-8"?>
<!-- Generator: Adobe Illustrator 16.0.2, SVG Export Plug-In . SVG Version: 6.00 Build 0)  -->
<!DOCTYPE svg PUBLIC "-//W3C//DTD SVG 1.1//EN" "http://www.w3.org/Graphics/SVG/1.1/DTD/svg11.dtd">
<svg version="1.1" id="Слой_1" xmlns="http://www.w3.org/2000/svg" xmlns:xlink="http://www.w3.org/1999/xlink" x="0px" y="0px"
	 width="17.688px" height="18px" viewBox="-0.25 0.814 17.688 18" enable-background="new -0.25 0.814 17.688 18"
	 xml:space="preserve">
<g>
	<g>
		<path fill-rule="evenodd" clip-rule="evenodd" fill="#8B95B1" d="M0,9.796c0-4.809,3.898-8.705,8.707-8.704
			s8.705,3.898,8.704,8.708c-0.001,4.795-3.901,8.707-8.68,8.703C3.893,18.5-0.001,14.617,0,9.796z M10.059,13.296
			c0-0.452,0-0.889,0-1.334c-0.167-0.01-0.311-0.018-0.482-0.027c0-1.367,0-2.706,0-4.048c-0.771,0-1.516,0-2.255,0
			c0,0.455,0,0.884,0,1.317c0.168,0.008,0.313,0.014,0.455,0.021c0,0.935,0,1.847,0,2.761c-0.167,0.008-0.312,0.016-0.457,0.021
			c0,0.444,0,0.865,0,1.311c0.864,0,1.706,0,2.549-0.001C9.93,13.317,9.991,13.304,10.059,13.296z M8.559,5.08
			C8,5.082,7.603,5.502,7.605,6.083C7.61,6.633,8.042,7.068,8.59,7.075C9.141,7.083,9.6,6.625,9.6,6.073
			C9.6,5.507,9.147,5.078,8.559,5.08z"/>
	</g>
</g>
</svg>
