<?xml version="1.0" encoding="utf-8"?>
<!-- Generator: Adobe Illustrator 16.0.2, SVG Export Plug-In . SVG Version: 6.00 Build 0)  -->
<!DOCTYPE svg PUBLIC "-//W3C//DTD SVG 1.1//EN" "http://www.w3.org/Graphics/SVG/1.1/DTD/svg11.dtd">
<svg version="1.1" id="Слой_1" xmlns="http://www.w3.org/2000/svg" xmlns:xlink="http://www.w3.org/1999/xlink" x="0px" y="0px"
	 width="16.417px" height="21.75px" viewBox="0.75 1.583 16.417 21.75" enable-background="new 0.75 1.583 16.417 21.75"
	 xml:space="preserve">
<g>
	<g>
		<g>
			<path fill-rule="evenodd" clip-rule="evenodd" fill="#8B95AE" d="M7.583,11.167c0.195-0.244,0.359-0.469,0.545-0.676
				c0.311-0.348,0.615-0.702,0.959-1.02c0.342-0.318,0.768-0.474,1.246-0.45c0.34,0.017,0.688-0.005,1.021,0.048
				c0.67,0.108,1.219,0.668,1.338,1.337c0.295,1.668,0.582,3.337,0.873,5.008c0.008,0.047,0.008,0.096,0.012,0.138
				c-2.631,0.248-4.072,1.681-4.365,4.322c-0.051,0-0.125,0-0.199,0c-2.299,0-4.596,0-6.893,0c-0.773,0-1.193-0.475-1.084-1.233
				c0.393-2.729,0.787-5.455,1.182-8.181C2.33,9.681,3.025,9.052,3.814,9.024c0.334-0.012,0.67,0,1.004-0.012
				c0.504-0.015,0.943,0.161,1.295,0.5c0.373,0.361,0.709,0.766,1.059,1.155C7.304,10.818,7.427,10.979,7.583,11.167z"/>
			<path fill-rule="evenodd" clip-rule="evenodd" fill="#8B95AE" d="M5.306,6.612C5.13,6.8,4.974,6.978,4.808,7.146
				C4.603,7.354,4.404,7.573,4.175,7.753C3.738,8.099,3.318,8.088,2.876,7.744C2.492,7.443,2.244,7.037,1.99,6.585
				c0.174,0.083,0.305,0.16,0.445,0.208c0.283,0.1,0.555,0.03,0.746-0.189c0.203-0.235,0.391-0.492,0.535-0.766
				c0.285-0.535,0.527-1.092,0.799-1.634c0.262-0.526,0.568-1.025,0.996-1.438c0.824-0.797,2.125-1.023,3.17-0.551
				c1.068,0.482,1.736,1.571,1.678,2.739C10.302,6.127,9.572,7.13,8.488,7.517C7.388,7.91,6.216,7.609,5.416,6.73
				C5.388,6.699,5.359,6.67,5.306,6.612z"/>
		</g>
	</g>
	<g>
		<path fill-rule="evenodd" clip-rule="evenodd" fill="#8B95AE" d="M12.991,16.491c0.012,0.002,0.024,0.007,0.036,0.008
			c0.201,0.013,0.395,0.057,0.583,0.128C14.598,17,15.164,18,14.979,19.042c-0.174,0.979-1.029,1.726-2.02,1.765
			c-0.482,0.019-0.923-0.108-1.321-0.379c-0.011-0.008-0.023-0.015-0.041-0.026c-0.049,0.051-0.095,0.102-0.144,0.149
			c-0.032,0.032-1.12,1.158-1.12,1.158h-1c0,0,1.665-1.716,1.763-1.813c-0.001-0.001-0.006-0.008-0.01-0.015
			c-0.261-0.378-0.394-0.797-0.388-1.257c0.006-0.461,0.145-0.881,0.42-1.251c0.339-0.454,0.789-0.738,1.348-0.844
			c0.084-0.016,0.17-0.024,0.255-0.037C12.812,16.491,12.901,16.491,12.991,16.491z M14.295,18.65c0-0.795-0.645-1.44-1.439-1.44
			c-0.794,0-1.44,0.649-1.438,1.442c0.002,0.794,0.646,1.437,1.438,1.437C13.65,20.09,14.295,19.445,14.295,18.65z"/>
	</g>
</g>
</svg>
