<?xml version="1.0" encoding="utf-8"?>
<!-- Generator: Adobe Illustrator 16.0.2, SVG Export Plug-In . SVG Version: 6.00 Build 0)  -->
<!DOCTYPE svg PUBLIC "-//W3C//DTD SVG 1.1//EN" "http://www.w3.org/Graphics/SVG/1.1/DTD/svg11.dtd">
<svg version="1.1" id="Слой_1" xmlns="http://www.w3.org/2000/svg" xmlns:xlink="http://www.w3.org/1999/xlink" x="0px" y="0px"
	 width="147.667px" height="124.667px" viewBox="0 -13.667 147.667 124.667" enable-background="new 0 -13.667 147.667 124.667"
	 xml:space="preserve">
<g>
	<g>
		<g>
			<path fill="#D8F3F2" d="M139.273,19.343c0.221,3.086-0.846,5.911-3.32,8.205c-0.263,0.244-0.365,0.741-0.397,1.133
				c-0.103,1.18,0.019,2.398-0.224,3.545c-0.563,2.694-3.205,4.519-5.896,4.229c-2.829-0.303-4.946-2.545-5.043-5.341
				c-0.009-0.232-0.032-0.466-0.003-0.694c0.206-1.596-0.213-2.844-1.477-4.008c-0.817-0.754-1.182-2.028-1.679-3.103
				c-1.175-2.538-0.903-5.177-0.278-7.759c1.071-4.438,5.424-7.473,9.787-6.976c4.887,0.558,8.379,4.292,8.526,9.125
				C139.287,18.163,139.273,18.626,139.273,19.343z M131.806,25.41c0.551-0.125,1.01-0.097,1.268-0.312
				c1.389-1.16,2.387-2.573,2.453-4.463c0.037-1.024,0.041-2.053-0.001-3.076c-0.112-2.701-2.231-4.945-4.928-5.261
				c-2.653-0.311-5.274,1.328-5.94,3.907c-0.291,1.127-0.188,2.356-0.271,3.539c-0.146,2.065,0.594,3.768,2.169,5.078
				c0.363,0.303,0.898,0.399,1.555,0.673c0-2.113,0-3.887,0-5.713c1.271,0,2.439,0,3.696,0
				C131.806,21.621,131.806,23.396,131.806,25.41z M131.779,29.015c-1.126,0-2.138-0.016-3.148,0.015
				c-0.174,0.006-0.491,0.219-0.486,0.327c0.027,0.808-0.021,1.665,0.234,2.407c0.287,0.826,1.701,1.508,2.559,1.323
				c0.809-0.174,0.751-1.106,0.831-1.953C131.828,30.486,131.779,29.827,131.779,29.015z"/>
			<path fill="#D8F3F2" d="M115.813,6.052c0.759-0.771,1.582-1.606,2.377-2.414c1.205,1.227,2.396,2.44,3.575,3.64
				c-0.781,0.751-1.631,1.567-2.405,2.312C118.246,8.477,117.042,7.277,115.813,6.052z"/>
			<path fill="#D8F3F2" d="M141.699,3.754c0.752,0.751,1.604,1.604,2.441,2.444c-1.153,1.137-2.346,2.313-3.523,3.477
				c-0.768-0.82-1.584-1.696-2.348-2.512C139.324,6.117,140.527,4.919,141.699,3.754z"/>
			<path fill="#D8F3F2" d="M128.146,4.77c0-1.216,0-2.358,0-3.575c1.193,0,2.357,0,3.588,0c0,1.177,0,2.347,0,3.575
				C130.562,4.77,129.416,4.77,128.146,4.77z"/>
			<path fill="#D8F3F2" d="M146.623,19.682c-1.218,0-2.334,0-3.545,0c0-1.179,0-2.344,0-3.591c1.146,0,2.311,0,3.545,0
				C146.623,17.255,146.623,18.425,146.623,19.682z"/>
		</g>
	</g>
	<path fill="#D4ECED" d="M119.901,85.469c1.103,0,2.06,0,3.164,0c0,0.979-0.026,1.932,0.004,2.883
		c0.111,3.457,2.5,6.608,5.813,7.537c1.072,0.301,2.221,0.336,3.402,0.504c0,0.723,0,1.529,0,2.248
		c-1.414,0.447-2.816,0.77-4.117,1.324c-3.146,1.346-4.826,3.811-5.088,7.215c-0.074,0.955-0.014,1.92-0.014,2.941
		c-1.061,0-2.033,0-3.145,0c0-0.914,0.023-1.84-0.006-2.764c-0.117-3.791-2.758-7.016-6.44-7.799
		c-0.882-0.188-1.806-0.182-2.771-0.268c0-0.951,0-1.924,0-3.01c2.896,0.145,5.416-0.701,7.324-2.993
		C119.919,91.023,120.078,88.322,119.901,85.469z M117.808,97.802c1.223,1.243,2.51,2.554,3.756,3.821
		c0.52-0.629,1.047-1.373,1.682-2.012c0.648-0.652,1.398-1.203,1.998-1.707c-1.285-1.307-2.576-2.619-3.759-3.82
		C120.3,95.283,119.017,96.58,117.808,97.802z"/>
	<path fill="#D4ECED" d="M9.538,39.596c0.984,0,1.836,0,2.822,0c0,0.873-0.023,1.723,0.004,2.571c0.1,3.083,2.23,5.894,5.184,6.722
		c0.957,0.268,1.98,0.3,3.035,0.45c0,0.643,0,1.364,0,2.005c-1.262,0.399-2.512,0.685-3.673,1.181
		c-2.806,1.2-4.304,3.398-4.538,6.435c-0.065,0.853-0.01,1.712-0.01,2.624c-0.944,0-1.814,0-2.804,0
		c0-0.814,0.022-1.641-0.004-2.465c-0.105-3.381-2.46-6.255-5.746-6.956c-0.786-0.167-1.608-0.16-2.474-0.237
		c0-0.848,0-1.716,0-2.684c2.585,0.129,4.832-0.625,6.535-2.67C9.555,44.549,9.696,42.141,9.538,39.596z M7.672,50.596
		c1.09,1.109,2.237,2.278,3.349,3.408c0.463-0.561,0.935-1.225,1.5-1.794c0.578-0.582,1.248-1.073,1.782-1.522
		c-1.147-1.165-2.298-2.336-3.353-3.407C9.894,48.349,8.75,49.505,7.672,50.596z"/>
</g>
<g>
	<path fill-rule="evenodd" clip-rule="evenodd" fill="#BABEC7" d="M53.158-10.572c4.042,2.494,7.887,4.867,11.804,7.283
		c2.569-3.122,5.115-6.214,7.726-9.385c2.496,3.05,4.923,6.016,7.388,9.03c3.57-2.649,7.066-5.241,10.775-7.993
		c0,0.531,0,0.876,0,1.222c0,6.95,0.018,13.899-0.021,20.85c-0.005,0.854,0.238,1.323,0.978,1.773
		c7.165,4.37,11.701,10.574,12.981,18.967c0.24,1.575,0.32,3.187,0.331,4.782c0.039,5.791,0.024,11.582,0.004,17.373
		c-0.002,0.679,0.145,1.07,0.818,1.417c6.66,3.441,10.658,10.804,9.718,17.791c-1.085,8.074-6.45,14.049-14.18,15.758
		c-0.657,0.145-1.349,0.199-2.024,0.203c-3.575,0.02-7.153,0.012-10.73,0.008c-0.504,0-1.016-0.09-1.201,0.613
		c-0.06,0.221-0.365,0.387-0.577,0.557c-8.843,7.078-21.687,6.906-30.38-0.371c-0.419-0.352-1.07-0.586-1.62-0.598
		c-2.894-0.068-5.791-0.053-8.686-0.055c-8.346-0.006-15.484-5.604-17.498-13.723c-1.954-7.875,1.787-16.211,9.058-20.044
		c0.81-0.427,1.088-0.869,1.081-1.779c-0.046-5.724-0.079-11.448-0.012-17.17c0.124-10.461,4.598-18.506,13.563-23.976
		c0.578-0.353,0.751-0.728,0.748-1.377c-0.033-6.609-0.033-13.218-0.042-19.827C53.157-9.616,53.158-9.987,53.158-10.572z
		 M69.635,60.605c-0.064,0.865-0.058,1.617-0.184,2.348c-0.909,5.248-5.075,8.807-10.42,8.854c-2.53,0.023-5.062-0.072-7.687-0.115
		c0.791,7.678,4.366,13.672,11.352,17.213c7.342,3.723,14.608,3.111,21.323-1.654c5.354-3.799,8.091-9.168,8.593-15.449
		c-2.808,0-5.495,0.113-8.171-0.023c-5.154-0.262-9.053-3.805-9.896-8.846c-0.126-0.758-0.12-1.537-0.178-2.326
		C72.757,60.605,71.232,60.605,69.635,60.605z M87.099,9.342c0-4.519,0-8.979,0-13.599c-2.619,1.938-5.116,3.786-7.653,5.664
		c-2.273-2.78-4.489-5.487-6.768-8.272c-2.326,2.825-4.609,5.597-6.913,8.396c-2.974-1.831-5.873-3.616-8.848-5.447
		c0,4.54,0,8.882,0,13.259C67.01,9.342,77.033,9.342,87.099,9.342z M72,36.831c-4.54,8.069-10.873,13.048-20.57,12.495
		c0,0.857,0,1.717,0,2.656c0.444,0,0.814,0,1.184,0c3.95,0,7.902-0.023,11.852,0.009c2.784,0.022,4.759,1.836,5.094,4.583
		c0.019,0.158,0.061,0.313,0.106,0.531c1.515,0,2.976,0.03,4.434-0.028c0.257-0.011,0.616-0.347,0.731-0.616
		c1.255-2.945,3.445-4.471,6.657-4.48c3.337-0.011,6.676-0.003,10.013-0.004c0.363,0,0.727,0,1.103,0c0-0.981,0-1.821,0-2.649
		C82.885,49.865,76.535,44.908,72,36.831z M56.21,55.424c-2.653,0-5.307,0-7.959,0c-0.034,0-0.068,0.002-0.102,0
		c-0.934-0.042-1.378,0.374-1.358,1.337c0.033,1.53-0.032,3.063,0.03,4.591c0.14,3.488,2.672,6.43,6.134,6.842
		c2.181,0.258,4.417,0.248,6.617,0.125c3.753-0.207,6.476-3.174,6.534-6.916c0.021-1.291,0.009-2.584,0.005-3.877
		c-0.006-1.626-0.48-2.096-2.146-2.101C61.38,55.419,58.795,55.424,56.21,55.424z M88.587,55.426c-2.416,0-4.835-0.032-7.252,0.01
		c-2.106,0.036-3.403,1.392-3.434,3.498c-0.013,0.852-0.015,1.703,0.002,2.555c0.069,3.42,2.438,6.313,5.824,6.705
		c2.283,0.264,4.636,0.289,6.923,0.068c3.903-0.379,6.492-3.412,6.556-7.33c0.022-1.326,0.011-2.656,0.003-3.982
		c-0.007-1.312-0.22-1.52-1.573-1.524C93.287,55.419,90.938,55.424,88.587,55.426z M96.535,77.127
		c2.908-0.127,5.115-1.967,5.739-4.666c0.617-2.662-0.494-5.41-2.552-6.523c-0.997,1.135-1.98,2.242-2.947,3.363
		c-0.121,0.141-0.23,0.35-0.231,0.527C96.529,72.238,96.535,74.648,96.535,77.127z M44.024,65.523
		c-1.977,1.254-2.954,4.008-2.24,6.623c0.686,2.508,2.927,4.328,5.665,4.383c0-2.297,0.002-4.592-0.009-6.885
		c0-0.113-0.109-0.236-0.192-0.334C46.183,68.053,45.112,66.799,44.024,65.523z"/>
	<path fill-rule="evenodd" clip-rule="evenodd" fill="#BABEC7" d="M38.033,8.527c1.359,0,2.718-0.011,4.077,0.003
		c1.33,0.014,1.893,0.579,1.879,1.841c-0.013,1.21-0.58,1.78-1.841,1.779c-2.751-0.003-5.504-0.017-8.255-0.052
		c-1.362-0.019-1.846-0.551-1.814-1.888c0.029-1.231,0.542-1.703,1.877-1.708C35.314,8.495,36.674,8.5,38.033,8.5
		C38.033,8.508,38.033,8.518,38.033,8.527z"/>
	<path fill-rule="evenodd" clip-rule="evenodd" fill="#BABEC7" d="M106.956-4.244c-0.348,0.576-0.509,1.001-0.8,1.301
		c-1.988,2.048-3.996,4.079-6.019,6.094c-0.847,0.844-1.601,0.801-2.47-0.063c-0.861-0.856-0.902-1.614-0.065-2.47
		c1.997-2.041,4.017-4.059,6.022-6.09c0.504-0.509,1.137-0.8,1.734-0.393C105.958-5.456,106.405-4.818,106.956-4.244z"/>
	<path fill-rule="evenodd" clip-rule="evenodd" fill="#BABEC7" d="M47.216,2.049c-0.523,0.556-0.963,1.197-1.561,1.608
		c-0.589,0.407-1.234,0.14-1.739-0.372C41.888,1.23,39.844-0.812,37.83-2.88c-0.787-0.808-0.727-1.553,0.104-2.391
		c0.83-0.837,1.623-0.929,2.397-0.162c2.075,2.057,4.122,4.143,6.158,6.239C46.757,1.083,46.893,1.486,47.216,2.049z"/>
	<path fill-rule="evenodd" clip-rule="evenodd" fill="#BABEC7" d="M105.933,12.041c-1.358,0-2.716,0.009-4.074-0.002
		c-1.295-0.01-1.826-0.528-1.837-1.756c-0.009-1.247,0.516-1.791,1.788-1.802c2.749-0.026,5.499-0.043,8.249-0.049
		c1.393-0.002,1.878,0.482,1.872,1.807c-0.007,1.252-0.506,1.744-1.822,1.754c-1.392,0.011-2.783,0.003-4.176,0.003
		C105.933,12.01,105.933,12.026,105.933,12.041z"/>
	<path fill-rule="evenodd" clip-rule="evenodd" fill="#BABEC7" d="M72.049,75.699c-2.513,0.033-4.744-2.018-4.935-4.523
		c-0.065-0.855,0.195-1.543,1.106-1.658c0.916-0.117,1.311,0.465,1.443,1.336c0.22,1.463,1.055,2.248,2.298,2.268
		c1.297,0.02,2.122-0.768,2.394-2.283c0.174-0.973,0.705-1.484,1.45-1.33c0.904,0.186,1.161,0.83,1.092,1.682
		C76.691,73.666,74.545,75.668,72.049,75.699z"/>
	<path fill-rule="evenodd" clip-rule="evenodd" fill="#BABEC7" d="M64.431,62.207c-0.727,0-1.408,0.055-2.073-0.025
		c-0.284-0.035-0.654-0.293-0.779-0.549c-0.443-0.908-1.084-1.5-2.115-1.502c-1.032-0.004-1.676,0.586-2.121,1.492
		c-0.126,0.258-0.485,0.523-0.765,0.559c-0.667,0.08-1.351,0.025-2.014,0.025c-0.357-2.25,1.92-4.707,4.465-4.9
		C61.901,57.088,64.4,59.27,64.431,62.207z"/>
	<path fill-rule="evenodd" clip-rule="evenodd" fill="#BABEC7" d="M89.545,62.162c-0.929,0-1.805,0-2.509,0
		c-0.487-0.631-0.809-1.264-1.315-1.66c-0.985-0.771-2.557-0.428-3.031,0.756c-0.373,0.926-0.923,1.012-1.712,0.955
		c-0.436-0.031-0.876-0.006-1.298-0.006c-0.391-2.17,1.778-4.615,4.241-4.881C86.886,57.008,89.44,59.148,89.545,62.162z"/>
</g>
</svg>
