<?xml version="1.0" encoding="utf-8"?>
<!-- Generator: Adobe Illustrator 16.0.2, SVG Export Plug-In . SVG Version: 6.00 Build 0)  -->
<!DOCTYPE svg PUBLIC "-//W3C//DTD SVG 1.1//EN" "http://www.w3.org/Graphics/SVG/1.1/DTD/svg11.dtd">
<svg version="1.1" id="Слой_1" xmlns="http://www.w3.org/2000/svg" xmlns:xlink="http://www.w3.org/1999/xlink" x="0px" y="0px"
	 width="32.666px" height="32.666px" viewBox="0 0 32.666 32.666" enable-background="new 0 0 32.666 32.666" xml:space="preserve">
<g>
	<path fill="#D3D5DB" d="M16.333,0C7.324,0,0,7.324,0,16.333s7.324,16.333,16.333,16.333s16.333-7.324,16.333-16.333
		S25.342,0,16.333,0z M20.253,7.806c1.204,0,2.167,0.962,2.167,2.166s-0.963,2.166-2.167,2.166s-2.166-0.962-2.166-2.166
		S19.049,7.806,20.253,7.806z M24.62,22.179H8.046c-0.997,0-1.582-1.135-0.997-1.925l6.121-8.528c0.481-0.688,1.513-0.688,1.994,0
		l3.542,4.951c0.172,0.241,0.516,0.241,0.688,0l0.825-1.134c0.481-0.688,1.513-0.688,1.994,0l3.404,4.711
		C26.202,21.044,25.617,22.179,24.62,22.179z"/>
</g>
</svg>
