<?xml version="1.0" encoding="utf-8"?>
<!-- Generator: Adobe Illustrator 16.0.0, SVG Export Plug-In . SVG Version: 6.00 Build 0)  -->
<!DOCTYPE svg PUBLIC "-//W3C//DTD SVG 1.1//EN" "http://www.w3.org/Graphics/SVG/1.1/DTD/svg11.dtd">
<svg version="1.1" id="Слой_1" xmlns="http://www.w3.org/2000/svg" xmlns:xlink="http://www.w3.org/1999/xlink" x="0px" y="0px"
	 width="49.375px" height="49.25px" viewBox="0 0 49.375 49.25" enable-background="new 0 0 49.375 49.25" xml:space="preserve">
<g>
	<g>
		<circle fill="#30BAB2" cx="24.402" cy="24.85" r="22.249"/>
	</g>
	<g>
		<path fill="#C1EAE8" d="M24.402,49.25C10.946,49.25,0,38.305,0,24.85C0,11.394,10.947,0.446,24.402,0.446
			c13.456,0,24.403,10.947,24.403,24.403C48.805,38.305,37.857,49.25,24.402,49.25z M24.402,4.752
			c-11.081,0-20.096,9.016-20.096,20.097c0,11.081,9.015,20.094,20.096,20.094c11.081,0,20.096-9.014,20.096-20.094
			C44.498,13.769,35.482,4.752,24.402,4.752z"/>
	</g>
</g>
<g>
	<path fill="#FFFFFF" d="M18.867,35.926c0-0.107,0-0.172,0-0.234c0-1.476-0.001-2.947,0.006-4.42
		c0.001-0.147-0.041-0.229-0.171-0.306c-2.076-1.227-3.303-3.032-3.611-5.426c-0.469-3.644,1.984-7.097,5.587-7.882
		c0.52-0.113,1.062-0.167,1.593-0.175c1.526-0.023,3.053-0.015,4.579-0.007c3.33,0.019,6.211,2.254,7.002,5.426
		c0.961,3.847-1.285,7.696-5.107,8.75c-0.628,0.174-1.27,0.252-1.92,0.25c-0.584-0.002-1.168-0.006-1.751,0.004
		c-0.104,0.002-0.221,0.037-0.307,0.094c-1.904,1.264-3.805,2.531-5.706,3.799C19.007,35.833,18.955,35.867,18.867,35.926z
		 M24.56,23.12c-0.867-0.001-1.561,0.688-1.563,1.553c-0.002,0.867,0.687,1.566,1.549,1.571c0.875,0.003,1.573-0.691,1.572-1.565
		C26.116,23.812,25.427,23.121,24.56,23.12z M29.248,23.12c-0.865,0.002-1.559,0.695-1.561,1.56c0,0.871,0.701,1.568,1.576,1.565
		c0.857-0.005,1.555-0.709,1.551-1.571C30.813,23.811,30.111,23.118,29.248,23.12z M19.856,23.12c-0.886,0.013-1.57,0.715-1.557,1.6
		c0.013,0.854,0.728,1.534,1.598,1.523c0.848-0.011,1.538-0.722,1.529-1.574C21.417,23.802,20.714,23.108,19.856,23.12z"/>
</g>
</svg>
