<?xml version="1.0" encoding="utf-8"?>
<!-- Generator: Adobe Illustrator 16.0.0, SVG Export Plug-In . SVG Version: 6.00 Build 0)  -->
<!DOCTYPE svg PUBLIC "-//W3C//DTD SVG 1.1//EN" "http://www.w3.org/Graphics/SVG/1.1/DTD/svg11.dtd">
<svg version="1.1" id="Слой_1" xmlns="http://www.w3.org/2000/svg" xmlns:xlink="http://www.w3.org/1999/xlink" x="0px" y="0px"
	 width="54px" height="37.875px" viewBox="0 0 54 37.875" enable-background="new 0 0 54 37.875" xml:space="preserve">
<linearGradient id="SVGID_1_" gradientUnits="userSpaceOnUse" x1="116.2227" y1="-172.8906" x2="116.2227" y2="-209.8188" gradientTransform="matrix(1 0 0 -1 -85 -170.625)">
	<stop  offset="0" style="stop-color:#3CCFBC"/>
	<stop  offset="1" style="stop-color:#219BA5"/>
</linearGradient>
<path fill="url(#SVGID_1_)" d="M15.413,11.271c-2.049,2.052-3.988,3.989-5.922,5.929c-0.723,0.723-1.566,1.056-2.584,0.811
	c-1.969-0.474-2.701-2.815-1.348-4.327c0.361-0.405,0.762-0.776,1.148-1.162c3.08-3.081,6.16-6.162,9.242-9.242
	c1.352-1.351,2.842-1.354,4.191-0.004c3.404,3.403,6.811,6.805,10.209,10.212c1.202,1.205,1.157,2.976-0.08,3.993
	c-1.093,0.895-2.568,0.805-3.622-0.242c-1.832-1.82-3.654-3.651-5.48-5.476c-0.131-0.131-0.27-0.252-0.484-0.453
	c0,0.289,0,0.475,0,0.661c0,7.308-0.006,14.616,0.004,21.923c0.002,1.127-0.486,1.938-1.492,2.39
	c-1.027,0.464-2.029,0.332-2.916-0.386c-0.627-0.51-0.873-1.188-0.873-1.998c0.01-7.309,0.006-14.616,0.006-21.924
	C15.413,11.79,15.413,11.602,15.413,11.271z M41.605,30.128c-0.114-0.153-0.213-0.323-0.348-0.46
	c-1.836-1.843-3.666-3.688-5.516-5.516c-1.078-1.063-2.701-1.06-3.74-0.027s-1.061,2.668,0.004,3.739
	c3.492,3.514,6.998,7.017,10.51,10.511c1.08,1.074,2.662,1.098,3.736,0.031c3.529-3.502,7.037-7.025,10.551-10.543
	c0.479-0.479,0.74-1.064,0.773-1.741c0.051-1.087-0.574-2.097-1.559-2.535c-1.011-0.451-2.14-0.247-2.961,0.571
	c-1.859,1.844-3.705,3.701-5.558,5.551c-0.127,0.127-0.258,0.247-0.463,0.441c0-0.322,0-0.515,0-0.705
	c0-7.256,0.002-14.511-0.002-21.769c0-0.279-0.002-0.567-0.063-0.836c-0.294-1.251-1.539-2.069-2.89-1.917
	c-1.36,0.153-2.313,1.194-2.313,2.55c-0.002,7.326-0.002,14.653-0.002,21.979c0,0.189,0,0.379,0,0.568
	C41.713,30.059,41.659,30.093,41.605,30.128z"/>
</svg>
