<?xml version="1.0" encoding="utf-8"?>
<!-- Generator: Adobe Illustrator 16.0.0, SVG Export Plug-In . SVG Version: 6.00 Build 0)  -->
<!DOCTYPE svg PUBLIC "-//W3C//DTD SVG 1.1//EN" "http://www.w3.org/Graphics/SVG/1.1/DTD/svg11.dtd">
<svg version="1.1" id="Слой_1" xmlns="http://www.w3.org/2000/svg" xmlns:xlink="http://www.w3.org/1999/xlink" x="0px" y="0px"
	 width="60.125px" height="49.375px" viewBox="0 0 60.125 49.375" enable-background="new 0 0 60.125 49.375" xml:space="preserve">
<linearGradient id="SVGID_1_" gradientUnits="userSpaceOnUse" x1="114.3604" y1="-161.375" x2="114.3604" y2="-210.2505" gradientTransform="matrix(1 0 0 -1 -85 -159.125)">
	<stop  offset="0" style="stop-color:#3CCFBC"/>
	<stop  offset="1" style="stop-color:#219BA5"/>
</linearGradient>
<path fill="url(#SVGID_1_)" d="M58.628,12.614c-0.297,5.451-2.67,11.168-2.67,11.168c-0.369,1.057-0.808,1.899-1.724,1.868
	c-0.914-0.032-2.075-0.8-1.592-1.981c0,0,2.363-6.002,2.659-10.912C55.6,7.848,55.107,2.349,55.107,2.349l3.314,0.114
	C58.423,2.463,58.925,7.164,58.628,12.614z M6.875,2.25c-5.626,0-6.625,4-6.625,4L0,51.125C0,51.125,5.726,51,8.625,51
	c23.195,0,42-18.805,42-42c0-2.956-0.375-6.625-0.375-6.625S27.125,2.25,6.875,2.25z"/>
</svg>
