<?xml version="1.0" encoding="utf-8"?>
<!-- Generator: Adobe Illustrator 16.0.0, SVG Export Plug-In . SVG Version: 6.00 Build 0)  -->
<!DOCTYPE svg PUBLIC "-//W3C//DTD SVG 1.1//EN" "http://www.w3.org/Graphics/SVG/1.1/DTD/svg11.dtd">
<svg version="1.1" id="Слой_1" xmlns="http://www.w3.org/2000/svg" xmlns:xlink="http://www.w3.org/1999/xlink" x="0px" y="0px"
	 width="48px" height="48px" viewBox="0 0 48 48" enable-background="new 0 0 48 48" xml:space="preserve">
<g>
	
		<linearGradient id="SVGID_1_" gradientUnits="userSpaceOnUse" x1="111.5508" y1="-171.5039" x2="111.5508" y2="-202.0181" gradientTransform="matrix(1 0 0 -1 -85 -160.5)">
		<stop  offset="0" style="stop-color:#3CCFBC"/>
		<stop  offset="1" style="stop-color:#219BA5"/>
	</linearGradient>
	<path fill="url(#SVGID_1_)" d="M19.794,19.867c0.041,0.109,0.074,0.193,0.104,0.277c0.99,2.924,3.599,4.829,6.625,4.838
		c3.037,0.008,5.662-1.872,6.652-4.792c0.104-0.305,0.26-0.32,0.512-0.32c5.304,0.004,10.605,0.004,15.91,0.004
		c0.15,0,0.301,0,0.452,0c0-1.28,0-2.502,0-3.763c-0.172,0-0.325,0-0.479,0c-5.303,0-10.606-0.002-15.908,0.005
		c-0.275,0-0.4-0.066-0.496-0.346c-0.979-2.892-3.605-4.771-6.628-4.767c-3.005,0.004-5.628,1.882-6.6,4.751
		c-0.1,0.291-0.229,0.363-0.522,0.363c-5.304-0.01-10.607-0.007-15.91-0.007c-0.151,0-0.302,0-0.454,0c0,1.277,0,2.501,0,3.755
		C8.644,19.867,14.217,19.867,19.794,19.867z M3.044,36.402c0.205,0,0.373,0,0.54,0c10.765,0,21.529,0.002,32.294-0.008
		c0.338,0,0.488,0.08,0.604,0.416c1.179,3.399,4.729,5.348,8.194,4.516c3.498-0.842,5.777-4.133,5.327-7.699
		c-0.398-3.17-2.939-5.705-6.072-6.061c-3.255-0.369-6.299,1.481-7.414,4.514c-0.066,0.182-0.129,0.365-0.205,0.58
		c-11.094,0-22.176,0-33.27,0C3.044,33.916,3.044,35.129,3.044,36.402z"/>
	
		<linearGradient id="SVGID_2_" gradientUnits="userSpaceOnUse" x1="111.5498" y1="-154.9751" x2="111.5498" y2="-202.0181" gradientTransform="matrix(1 0 0 -1 -85 -160.5)">
		<stop  offset="0" style="stop-color:#3CCFBC"/>
		<stop  offset="1" style="stop-color:#219BA5"/>
	</linearGradient>
	<path fill="url(#SVGID_2_)" d="M3.097,2.35C2.608-1.461,5.261-4.918,9.085-5.457c0.074-0.011,0.146-0.045,0.22-0.068
		c0.497,0,0.993,0,1.49,0c0.29,0.063,0.583,0.117,0.87,0.194c2.435,0.649,4.09,2.159,4.97,4.52c0.045,0.122,0.087,0.245,0.142,0.401
		c11.084,0,22.168,0,33.273,0c0,1.259,0,2.481,0,3.741c-11.092,0-22.176,0-33.259,0c-0.095,0.252-0.172,0.472-0.258,0.689
		c-1.174,2.987-4.177,4.778-7.371,4.397C6.015,8.042,3.504,5.531,3.097,2.35z M33.663,16.117c-0.274,0-0.399-0.066-0.496-0.346
		c-0.979-2.892-3.604-4.771-6.628-4.767c-3.005,0.004-5.628,1.882-6.6,4.751c-0.1,0.291-0.229,0.363-0.522,0.363
		c-5.304-0.01-10.607-0.007-15.91-0.007c-0.151,0-0.302,0-0.454,0c0,1.277,0,2.501,0,3.755c5.591,0,11.164,0,16.741,0
		c0.041,0.109,0.074,0.193,0.104,0.277c0.99,2.924,3.599,4.828,6.625,4.837c3.037,0.009,5.662-1.871,6.652-4.791
		c0.104-0.305,0.26-0.32,0.512-0.32c5.304,0.004,10.605,0.004,15.91,0.004c0.15,0,0.301,0,0.452,0c0-1.28,0-2.502,0-3.763
		c-0.172,0-0.325,0-0.479,0C44.27,16.112,38.965,16.11,33.663,16.117z M50.005,33.627c-0.399-3.17-2.938-5.705-6.073-6.061
		c-3.254-0.369-6.298,1.481-7.414,4.514c-0.065,0.182-0.127,0.365-0.203,0.58c-11.094,0-22.177,0-33.271,0c0,1.256,0,2.469,0,3.742
		c0.205,0,0.373,0,0.54,0c10.765,0,21.529,0.002,32.294-0.008c0.338,0,0.488,0.08,0.604,0.416c1.179,3.399,4.729,5.348,8.194,4.516
		C48.176,40.484,50.455,37.193,50.005,33.627z"/>
</g>
</svg>
