<?xml version="1.0" encoding="utf-8"?>
<!-- Generator: Adobe Illustrator 16.0.2, SVG Export Plug-In . SVG Version: 6.00 Build 0)  -->
<!DOCTYPE svg PUBLIC "-//W3C//DTD SVG 1.1//EN" "http://www.w3.org/Graphics/SVG/1.1/DTD/svg11.dtd">
<svg version="1.1" id="Слой_1" xmlns="http://www.w3.org/2000/svg" xmlns:xlink="http://www.w3.org/1999/xlink" x="0px" y="0px"
	 width="22.583px" height="24.375px" viewBox="0 0 22.583 24.375" enable-background="new 0 0 22.583 24.375" xml:space="preserve">
<g>
	<g>
		<path fill-rule="evenodd" clip-rule="evenodd" fill="#FFFFFF" d="M11.922,23.125c-2.567,0-5.137,0-7.704,0
			c-1.719,0-2.911-1.193-2.911-2.913c0-4.845-0.001-9.69,0.001-14.535c0-1.392,0.849-2.539,2.178-2.832
			c0.452-0.1,0.704-0.275,0.936-0.673c0.401-0.697,1.063-1.107,1.87-1.168c0.6-0.044,1.219-0.051,1.808,0.047
			c0.86,0.145,1.469,0.692,1.831,1.486c0.075,0.164,0.159,0.211,0.331,0.209c1.127-0.007,2.254-0.005,3.38-0.002
			c0.147,0.001,0.229-0.027,0.302-0.181c0.481-1.033,1.308-1.567,2.443-1.597c0.47-0.012,0.952-0.022,1.411,0.064
			c0.893,0.169,1.529,0.707,1.9,1.542c0.056,0.126,0.122,0.17,0.259,0.181c1.423,0.102,2.587,1.323,2.619,2.75
			c0.014,0.614,0.004,1.229,0.004,1.844c0,4.286,0,8.572,0,12.857c-0.001,1.73-1.192,2.92-2.93,2.92
			C17.075,23.125,14.499,23.125,11.922,23.125z M20.807,8.963c-5.924,0-11.818,0-17.715,0c-0.005,0.05-0.011,0.081-0.011,0.113
			c-0.001,3.75-0.005,7.5,0.009,11.251c0.001,0.218,0.104,0.463,0.228,0.649c0.204,0.305,0.538,0.377,0.896,0.377
			c2.505-0.004,5.012-0.002,7.517-0.003c2.647,0,5.294-0.001,7.941,0.002c0.349,0,0.654-0.082,0.89-0.353
			c0.199-0.228,0.247-0.498,0.247-0.791c-0.002-3.664-0.001-7.327-0.001-10.991C20.807,9.14,20.807,9.061,20.807,8.963z
			 M20.784,7.16c0-0.605,0.027-1.187-0.009-1.766c-0.026-0.412-0.395-0.773-0.813-0.845c-0.262-0.045-0.532-0.038-0.799-0.041
			c-0.651-0.006-0.973-0.301-1.021-0.946c-0.035-0.453-0.38-0.801-0.827-0.815c-0.33-0.012-0.661-0.012-0.991-0.001
			c-0.447,0.016-0.797,0.366-0.832,0.814c-0.054,0.655-0.363,0.946-1.016,0.946c-1.687,0.001-3.371,0.001-5.058,0
			c-0.657,0-0.971-0.291-1.022-0.939C8.361,3.108,8.006,2.76,7.547,2.746c-0.261-0.008-0.521-0.003-0.78-0.003
			C6.105,2.743,5.813,3.009,5.739,3.674C5.684,4.18,5.335,4.498,4.823,4.506C4.626,4.51,4.429,4.505,4.233,4.508
			c-0.686,0.009-1.136,0.454-1.151,1.14C3.076,5.964,3.08,6.279,3.08,6.594c0,0.186,0,0.371,0,0.566C9,7.16,14.882,7.16,20.784,7.16
			z"/>
		<path fill-rule="evenodd" clip-rule="evenodd" fill="#FFFFFF" d="M15.5,12.451c0.508,0.04,1.029,0.022,1.521,0.133
			c1.184,0.265,2.005,1.328,2.01,2.538c0.002,0.739,0.037,1.485-0.049,2.216c-0.143,1.201-1.126,2.129-2.349,2.218
			c-0.82,0.06-1.657,0.06-2.474-0.033c-1.247-0.14-2.202-1.275-2.213-2.53c-0.007-0.771-0.038-1.549,0.054-2.311
			c0.147-1.22,1.273-2.162,2.505-2.191c0.33-0.007,0.661,0,0.991,0C15.499,12.477,15.5,12.464,15.5,12.451z"/>
	</g>
</g>
</svg>
