<?xml version="1.0" encoding="utf-8"?>
<!-- Generator: Adobe Illustrator 16.0.2, SVG Export Plug-In . SVG Version: 6.00 Build 0)  -->
<!DOCTYPE svg PUBLIC "-//W3C//DTD SVG 1.1//EN" "http://www.w3.org/Graphics/SVG/1.1/DTD/svg11.dtd">
<svg version="1.1" id="Слой_1" xmlns="http://www.w3.org/2000/svg" xmlns:xlink="http://www.w3.org/1999/xlink" x="0px" y="0px"
	 width="23.688px" height="22.938px" viewBox="-0.146 -0.313 23.688 22.938" enable-background="new -0.146 -0.313 23.688 22.938"
	 xml:space="preserve">
<g>
	<g>
		<path fill-rule="evenodd" clip-rule="evenodd" fill="#FFFFFF" d="M6.185,18.686c-0.541-0.475-1.042-0.914-1.577-1.383
			c-0.424,0.246-0.91,0.523-1.393,0.811c-0.378,0.223-0.839,0.135-1.068-0.246c-0.498-0.82-0.986-1.646-1.461-2.48
			c-0.218-0.383-0.104-0.721,0.282-0.939c0.443-0.256,0.885-0.518,1.341-0.748c0.24-0.121,0.291-0.25,0.229-0.51
			c-0.11-0.461-0.189-0.93-0.235-1.4c-0.024-0.242-0.14-0.295-0.336-0.326c-0.441-0.071-0.885-0.139-1.321-0.232
			c-0.543-0.117-0.706-0.341-0.624-0.874c0.097-0.619,0.222-1.234,0.338-1.852c0.039-0.213,0.091-0.425,0.126-0.639
			c0.122-0.732,0.275-0.876,0.993-0.79c0.557,0.066,1.106,0.196,1.688,0.303c0.367-0.56,0.743-1.133,1.14-1.737
			C3.991,5.289,3.656,4.895,3.307,4.514c-0.39-0.426-0.355-0.906,0.087-1.255c0.656-0.516,1.318-1.028,1.954-1.57
			C5.88,1.235,6.396,1.37,6.746,1.836C6.908,2.052,7.068,2.27,7.25,2.468c0.175,0.192,0.374,0.363,0.554,0.536
			c0.55-0.162,1.107-0.335,1.672-0.484c0.217-0.057,0.285-0.162,0.278-0.38C9.738,1.697,9.742,1.25,9.751,0.806
			c0.01-0.51,0.28-0.793,0.786-0.799c0.942-0.01,1.885-0.01,2.827,0c0.504,0.007,0.771,0.291,0.779,0.807
			c0.008,0.575,0.002,1.149,0.002,1.714c0.643,0.254,1.27,0.501,1.943,0.766c0.328-0.365,0.699-0.746,1.031-1.157
			c0.283-0.353,0.775-0.465,1.117-0.19c0.723,0.58,1.441,1.167,2.154,1.759c0.426,0.352,0.443,0.747,0.076,1.166
			c-0.385,0.436-0.766,0.875-1.129,1.292c0.268,0.509,0.543,0.986,0.77,1.486c0.135,0.3,0.334,0.307,0.596,0.266
			c0.508-0.08,1.016-0.165,1.525-0.211c0.344-0.03,0.57,0.204,0.629,0.538c0.146,0.833,0.295,1.664,0.459,2.492
			c0.15,0.74,0.014,0.977-0.705,1.128c-0.475,0.101-0.949,0.217-1.432,0.275c-0.275,0.033-0.318,0.197-0.361,0.398
			c-0.098,0.462-0.207,0.921-0.283,1.388c-0.016,0.102,0.053,0.273,0.139,0.324c0.4,0.252,0.818,0.477,1.232,0.703
			c0.406,0.221,0.549,0.686,0.313,1.09c-0.469,0.795-0.941,1.586-1.422,2.371c-0.213,0.352-0.641,0.467-1.02,0.264
			c-0.553-0.295-1.092-0.615-1.613-0.91c-0.549,0.418-1.088,0.83-1.646,1.256c0.168,0.473,0.361,0.984,0.537,1.504
			c0.188,0.551,0.051,0.801-0.498,0.994c-0.881,0.309-1.756,0.629-2.637,0.936c-0.418,0.145-0.771-0.018-0.93-0.424
			c-0.172-0.441-0.346-0.881-0.486-1.332c-0.082-0.26-0.195-0.375-0.488-0.373c-0.517,0.004-1.035-0.059-1.552-0.057
			c-0.108,0-0.268,0.127-0.316,0.236c-0.202,0.455-0.358,0.93-0.558,1.387c-0.153,0.352-0.492,0.492-0.857,0.365
			c-0.894-0.307-1.787-0.615-2.672-0.947c-0.546-0.203-0.66-0.473-0.467-1.029C5.781,19.738,5.991,19.203,6.185,18.686z
			 M11.656,14.918c2.045,0.037,3.834-1.67,3.819-3.648c-0.014-2-1.734-3.593-3.66-3.654c-2.224-0.071-3.941,1.69-3.935,3.652
			C7.887,13.236,9.539,14.918,11.656,14.918z"/>
	</g>
</g>
</svg>
