<?xml version="1.0" encoding="utf-8"?>
<!-- Generator: Adobe Illustrator 16.0.2, SVG Export Plug-In . SVG Version: 6.00 Build 0)  -->
<!DOCTYPE svg PUBLIC "-//W3C//DTD SVG 1.1//EN" "http://www.w3.org/Graphics/SVG/1.1/DTD/svg11.dtd">
<svg version="1.1" id="Слой_1" xmlns="http://www.w3.org/2000/svg" xmlns:xlink="http://www.w3.org/1999/xlink" x="0px" y="0px"
	 width="23.292px" height="23.208px" viewBox="1.052 0.937 23.292 23.208" enable-background="new 1.052 0.937 23.292 23.208"
	 xml:space="preserve">
<g>
	<g>
		<path fill-rule="evenodd" clip-rule="evenodd" fill="#FFFFFF" d="M12.684,20.07c-1.632-2.338-3.451-4.496-4.774-6.992
			c-0.711-1.34-1.24-2.743-1.466-4.252c-0.295-1.983-0.01-3.839,1.305-5.416c1.641-1.968,3.771-2.759,6.271-2.214
			c2.569,0.56,4.188,2.21,4.844,4.762c0.327,1.275,0.172,2.549-0.147,3.805c-0.442,1.732-1.237,3.31-2.217,4.791
			c-1.064,1.608-2.194,3.176-3.294,4.762C13.036,19.559,12.87,19.801,12.684,20.07z M12.686,12.144
			c2.625,0.001,4.764-2.14,4.758-4.767c-0.004-2.626-2.118-4.742-4.746-4.75c-2.634-0.008-4.762,2.111-4.769,4.749
			C7.921,10.001,10.058,12.143,12.686,12.144z"/>
		<path fill-rule="evenodd" clip-rule="evenodd" fill="#FFFFFF" d="M10.001,17.748c-1.056,0.197-2.104,0.368-3.141,0.598
			c-0.463,0.102-0.905,0.303-1.343,0.493c-0.207,0.091-0.399,0.243-0.563,0.403c-0.271,0.266-0.278,0.598-0.006,0.859
			c0.195,0.188,0.428,0.35,0.669,0.469c0.783,0.389,1.63,0.578,2.486,0.723c2.687,0.455,5.386,0.475,8.088,0.162
			c1.078-0.125,2.149-0.308,3.164-0.713c0.328-0.132,0.655-0.304,0.938-0.518c0.445-0.338,0.447-0.775-0.009-1.103
			c-0.332-0.238-0.713-0.428-1.098-0.571c-1.05-0.391-2.151-0.553-3.258-0.681c-0.208-0.024-0.417-0.044-0.663-0.069
			c0.128-0.184,0.238-0.344,0.348-0.502c0.202-0.288,0.399-0.58,0.609-0.863c0.041-0.056,0.133-0.115,0.193-0.108
			c1.704,0.203,3.381,0.526,4.983,1.161c0.697,0.275,1.365,0.605,1.942,1.095c0.389,0.328,0.709,0.704,0.815,1.224
			c0.085,0.413-0.022,0.783-0.245,1.125c-0.364,0.561-0.898,0.928-1.472,1.241c-1.173,0.64-2.442,1.01-3.742,1.28
			c-2.674,0.555-5.376,0.689-8.097,0.52c-1.939-0.123-3.852-0.4-5.711-0.983c-0.802-0.252-1.578-0.563-2.294-1.01
			c-0.409-0.256-0.786-0.55-1.072-0.944c-0.46-0.633-0.456-1.307,0.011-1.936c0.37-0.498,0.869-0.841,1.405-1.131
			c1.182-0.64,2.458-1.012,3.765-1.277c0.696-0.143,1.403-0.232,2.104-0.352c0.128-0.021,0.204,0.009,0.279,0.118
			c0.293,0.423,0.597,0.839,0.895,1.257C9.999,17.736,10.007,17.762,10.001,17.748z"/>
		<path fill-rule="evenodd" clip-rule="evenodd" fill="#FFFFFF" d="M13.483,10.544c-0.542,0-1.054,0-1.593,0
			c0-0.281,0-0.553,0-0.826c0-0.219-0.016-0.438,0.004-0.655c0.028-0.327-0.022-0.608-0.313-0.813
			c-0.053-0.037-0.076-0.146-0.078-0.222c-0.007-0.458-0.005-0.916-0.003-1.374c0.001-0.529,0.306-0.839,0.832-0.855
			c0.035-0.001,0.068,0,0.115,0C11.937,5.413,11.8,5.12,11.94,4.732c0.116-0.324,0.448-0.544,0.79-0.523
			c0.35,0.021,0.642,0.266,0.724,0.608c0.097,0.395-0.061,0.689-0.511,0.954c0.005,0.009,0.011,0.026,0.018,0.026
			c0.648,0.025,0.914,0.299,0.914,0.947c0,0.387-0.01,0.775,0.004,1.162c0.006,0.191-0.029,0.344-0.189,0.458
			c-0.17,0.121-0.215,0.284-0.211,0.492C13.492,9.411,13.483,9.966,13.483,10.544z"/>
	</g>
</g>
</svg>
