<?xml version="1.0" encoding="utf-8"?>
<!-- Generator: Adobe Illustrator 16.0.2, SVG Export Plug-In . SVG Version: 6.00 Build 0)  -->
<!DOCTYPE svg PUBLIC "-//W3C//DTD SVG 1.1//EN" "http://www.w3.org/Graphics/SVG/1.1/DTD/svg11.dtd">
<svg version="1.1" id="Слой_1" xmlns="http://www.w3.org/2000/svg" xmlns:xlink="http://www.w3.org/1999/xlink" x="0px" y="0px"
	 width="24.25px" height="23.708px" viewBox="1.135 -3.948 24.25 23.708" enable-background="new 1.135 -3.948 24.25 23.708"
	 xml:space="preserve">
<g>
	<path fill-rule="evenodd" clip-rule="evenodd" fill="#FFFFFF" d="M22.963,13.223c-0.316-0.093-0.402-0.226-0.396-0.535
		c0.017-1.046,0.008-2.091,0.006-3.136c-0.002-0.705-0.13-0.832-0.848-0.832c-2.438-0.001-4.877,0-7.314-0.001h-0.548
		c0-0.818,0.017-1.57-0.007-2.321c-0.011-0.325,0.094-0.445,0.414-0.508c2.595-0.507,4.314-2.988,3.886-5.585
		c-0.403-2.455-2.538-4.178-5.072-4.095c-2.401,0.078-4.406,1.988-4.649,4.427c-0.239,2.412,1.412,4.695,3.788,5.234
		c0.179,0.041,0.358,0.075,0.516,0.107v2.74c-0.209,0-0.383,0.001-0.556,0.001c-2.381,0-4.761-0.001-7.141,0
		c-0.131,0-0.262-0.004-0.393,0.003c-0.383,0.021-0.584,0.221-0.584,0.61c-0.002,0.682-0.002,1.364-0.002,2.046v1.726
		c-0.169,0.046-0.296,0.078-0.42,0.116C2.116,13.69,1.165,15.19,1.37,16.803c0.197,1.556,1.566,2.765,3.18,2.805
		c1.534,0.04,2.939-1.069,3.249-2.563c0.333-1.604-0.512-3.224-2.045-3.732c-0.535-0.178-0.635-0.424-0.612-0.919
		c0.039-0.848,0.011-1.698,0.011-2.55h7.606v3.266c-0.149,0.04-0.29,0.075-0.427,0.118c-1.695,0.531-2.662,2.363-2.145,4.063
		c0.515,1.691,2.327,2.681,4.011,2.188c1.419-0.415,2.382-1.674,2.392-3.124c0.008-1.443-0.953-2.718-2.36-3.154
		c-0.138-0.043-0.347-0.183-0.349-0.281c-0.025-1.023-0.016-2.049-0.016-3.077h7.618c0,1.021,0,2.006-0.001,2.993
		c0,0.086-0.01,0.172-0.016,0.263c-0.104,0.034-0.198,0.07-0.296,0.098c-1.568,0.451-2.5,1.795-2.393,3.451
		c0.094,1.438,1.369,2.784,2.841,2.999c1.209,0.177,2.805-0.735,3.357-1.919C25.823,15.907,24.886,13.787,22.963,13.223z
		 M13.386,3.082c-2.51,0-2.51-3.893,0-3.893S15.896,3.082,13.386,3.082z"/>
</g>
</svg>
