<?xml version="1.0" encoding="utf-8"?>
<!-- Generator: Adobe Illustrator 16.0.2, SVG Export Plug-In . SVG Version: 6.00 Build 0)  -->
<!DOCTYPE svg PUBLIC "-//W3C//DTD SVG 1.1//EN" "http://www.w3.org/Graphics/SVG/1.1/DTD/svg11.dtd">
<svg version="1.1" id="Слой_1" xmlns="http://www.w3.org/2000/svg" xmlns:xlink="http://www.w3.org/1999/xlink" x="0px" y="0px"
	 width="24.188px" height="24.041px" viewBox="-0.146 0 24.188 24.041" enable-background="new -0.146 0 24.188 24.041"
	 xml:space="preserve">
<g>
	<g>
		<g>
			<path fill="#FFFFFF" d="M11.726,0.568c6.571,0.086,11.729,5.179,11.729,11.749c-0.002,6.57-5.161,11.725-11.73,11.724
				C5.154,24.04-0.001,18.882,0,12.312C0.001,5.741,5.16,0.653,11.726,0.568z M11.722,22.87c5.824,0.002,10.55-4.715,10.56-10.54
				c0.01-5.831-4.719-10.565-10.55-10.568C5.908,1.757,1.183,6.475,1.171,12.3C1.164,18.13,5.889,22.866,11.722,22.87z"/>
			<path fill="#FFFFFF" d="M17.523,19.636c-1.498-1.895-3.424-2.932-5.845-2.93c-2.419,0.002-4.341,1.041-5.827,2.924
				c-2.587-1.91-4.395-5.693-3.383-9.774C3.47,5.822,7.012,2.859,11.247,2.67c4.451-0.197,8.248,2.635,9.501,6.643
				C22.004,13.339,20.458,17.402,17.523,19.636z M11.69,6.951c-2.318-0.005-4.202,1.875-4.206,4.201
				c-0.006,2.322,1.869,4.203,4.194,4.207s4.204-1.869,4.208-4.194C15.888,8.837,14.014,6.957,11.69,6.951z"/>
		</g>
	</g>
</g>
</svg>
