<?xml version="1.0" encoding="utf-8"?>
<!-- Generator: Adobe Illustrator 16.0.2, SVG Export Plug-In . SVG Version: 6.00 Build 0)  -->
<!DOCTYPE svg PUBLIC "-//W3C//DTD SVG 1.1//EN" "http://www.w3.org/Graphics/SVG/1.1/DTD/svg11.dtd">
<svg version="1.1" id="Слой_1" xmlns="http://www.w3.org/2000/svg" xmlns:xlink="http://www.w3.org/1999/xlink" x="0px" y="0px"
	 width="22.583px" height="24.375px" viewBox="0.927 -1.188 22.583 24.375" enable-background="new 0.927 -1.188 22.583 24.375"
	 xml:space="preserve">
<g>
	<g>
		<g>
			<g>
				<path fill="#FFFFFF" d="M23.178,21.157c-0.994-0.002-1.988-0.002-2.984-0.002h-0.609c0-3.721,0-7.404-0.002-11.094h1.844v0.288
					c0,2.625,0,5.251,0.002,7.876c0,0.139,0.002,0.283,0.037,0.414c0.119,0.432,0.553,0.717,0.979,0.662
					c0.498-0.064,0.824-0.441,0.826-0.971c0.002-3.053,0.002-6.107,0-9.16c-0.002-0.598-0.375-0.969-0.973-0.972
					c-0.814-0.003-1.629-0.001-2.443-0.001h-0.287V7.9c0-0.807-0.004-1.614,0.002-2.42c0.002-0.434-0.188-0.733-0.572-0.925
					c-3.662-1.829-7.322-3.66-10.985-5.488C7.301-1.288,6.616-0.865,6.612-0.072c-0.002,0.806,0,1.613,0,2.42v0.287H6.315
					c-0.756,0-1.516,0.024-2.271-0.007C3.403,2.602,2.897,2.959,2.899,3.775C2.918,9.454,2.91,15.134,2.91,20.812v0.344
					c-0.329,0-0.632-0.01-0.933,0.002c-0.662,0.025-1.086,0.641-0.867,1.246c0.142,0.389,0.488,0.611,0.974,0.611h19.122
					C21.85,22.381,22.508,21.763,23.178,21.157z M14,21.142h-1.818v-1.816H14V21.142z M17.725,20.899v0.244
					c-0.633,0-1.23,0-1.861-0.002v-0.275c0-0.807,0.002-1.611,0-2.418c-0.004-0.619-0.381-0.996-1.006-0.996
					c-1.174-0.004-2.352-0.004-3.528-0.002c-0.64,0.002-1.011,0.375-1.013,1.014c-0.002,0.799,0,1.598,0,2.396v0.279H4.768V4.509
					h1.846v13.767c0,0.563,0.277,0.924,0.771,1.018c0.512,0.094,1.021-0.293,1.066-0.813c0.008-0.107,0.005-0.215,0.005-0.322
					c0.001-5.48,0-10.961,0-16.442V1.371c0.118,0.053,0.198,0.086,0.276,0.125c2.926,1.462,5.851,2.926,8.777,4.385
					c0.146,0.073,0.221,0.145,0.221,0.328C17.723,11.106,17.725,16.003,17.725,20.899z"/>
				<path fill="#FFFFFF" d="M10.339,6.35c0.604,0,1.191,0,1.801,0c0,0.607,0,1.21,0,1.831c-0.589,0-1.184,0-1.801,0
					C10.339,7.582,10.339,6.979,10.339,6.35z"/>
				<path fill="#FFFFFF" d="M15.852,6.36c0,0.604,0,1.201,0,1.818c-0.602,0-1.203,0-1.816,0c0-0.604,0-1.201,0-1.818
					C14.637,6.36,15.237,6.36,15.852,6.36z"/>
				<path fill="#FFFFFF" d="M12.147,11.891c-0.609,0-1.205,0-1.814,0c0-0.616,0-1.218,0-1.834c0.609,0,1.205,0,1.814,0
					C12.147,10.672,12.147,11.275,12.147,11.891z"/>
				<path fill="#FFFFFF" d="M15.85,11.89c-0.609,0-1.203,0-1.813,0c0-0.614,0-1.216,0-1.833c0.607,0,1.201,0,1.813,0
					C15.85,10.671,15.85,11.273,15.85,11.89z"/>
				<path fill="#FFFFFF" d="M12.145,15.593c-0.607,0-1.203,0-1.813,0c0-0.613,0-1.217,0-1.832c0.607,0,1.203,0,1.813,0
					C12.145,14.374,12.145,14.978,12.145,15.593z"/>
				<path fill="#FFFFFF" d="M14.031,15.589c0-0.613,0-1.211,0-1.824c0.604,0,1.199,0,1.814,0c0,0.604,0,1.207,0,1.824
					C15.25,15.589,14.655,15.589,14.031,15.589z"/>
			</g>
			<rect x="4.302" y="4.159" fill="#FFFFFF" width="4.124" height="18.027"/>
			<path fill="#FFFFFF" d="M23.26,21.085V9.576h-4.125v12.593h2.941C22.465,21.802,22.862,21.442,23.26,21.085z"/>
		</g>
	</g>
</g>
</svg>
