<?xml version="1.0" encoding="utf-8"?>
<!-- Generator: Adobe Illustrator 16.0.2, SVG Export Plug-In . SVG Version: 6.00 Build 0)  -->
<!DOCTYPE svg PUBLIC "-//W3C//DTD SVG 1.1//EN" "http://www.w3.org/Graphics/SVG/1.1/DTD/svg11.dtd">
<svg version="1.1" id="Слой_1" xmlns="http://www.w3.org/2000/svg" xmlns:xlink="http://www.w3.org/1999/xlink" x="0px" y="0px"
	 width="23.722px" height="23.369px" viewBox="-145.837 -2.457 23.722 23.369"
	 enable-background="new -145.837 -2.457 23.722 23.369" xml:space="preserve">
<g>
	<path fill="#FFFFFF" d="M-142.815,20.253c-0.795,0.781-1.962,0.883-2.608,0.227l0,0c-0.645-0.655-0.521-1.821,0.273-2.604
		l20.014-19.673c0.794-0.781,1.962-0.883,2.605-0.227l0,0c0.646,0.657,0.523,1.822-0.271,2.604L-142.815,20.253z"/>
	<path fill="#FFFFFF" d="M-125.138,20.253c0.795,0.781,1.962,0.883,2.607,0.227l0,0c0.646-0.655,0.522-1.821-0.272-2.604
		l-20.014-19.673c-0.794-0.781-1.962-0.883-2.606-0.227l0,0c-0.646,0.657-0.522,1.822,0.271,2.604L-125.138,20.253z"/>
</g>
</svg>
