<?xml version="1.0" encoding="utf-8"?>
<!-- Generator: Adobe Illustrator 16.0.2, SVG Export Plug-In . SVG Version: 6.00 Build 0)  -->
<!DOCTYPE svg PUBLIC "-//W3C//DTD SVG 1.1//EN" "http://www.w3.org/Graphics/SVG/1.1/DTD/svg11.dtd">
<svg version="1.1" id="Слой_1" xmlns="http://www.w3.org/2000/svg" xmlns:xlink="http://www.w3.org/1999/xlink" x="0px" y="0px"
	 width="22.125px" height="28.75px" viewBox="-3.74 -8.073 22.125 28.75" enable-background="new -3.74 -8.073 22.125 28.75"
	 xml:space="preserve">
<g>
	<g>
		<path fill-rule="evenodd" clip-rule="evenodd" fill="#FFFFFF" d="M16.905-2.145c-0.088,0.29-0.178,0.579-0.27,0.868
			c-0.135,0.434-0.297,0.862-0.408,1.303c-0.133,0.51,0.027,0.966,0.395,1.328c0.33,0.326,0.699,0.613,1.045,0.926
			c0.18,0.162,0.352,0.332,0.508,0.514c0.164,0.188,0.158,0.405-0.008,0.585c-0.199,0.217-0.416,0.418-0.637,0.614
			c-0.271,0.246-0.563,0.471-0.83,0.723c-0.48,0.455-0.629,1.012-0.434,1.644c0.145,0.46,0.316,0.913,0.471,1.37
			c0.273,0.812,0.174,0.987-0.668,1.155c-0.414,0.082-0.828,0.146-1.242,0.221c-0.834,0.151-1.299,0.662-1.449,1.481
			c-0.086,0.476-0.16,0.954-0.268,1.425c-0.129,0.568-0.303,0.668-0.858,0.503c-0.455-0.134-0.901-0.294-1.347-0.458
			c-0.867-0.32-1.575-0.109-2.149,0.609c-0.261,0.33-0.529,0.654-0.813,0.965c-0.458,0.498-0.688,0.504-1.144,0.01
			c-0.353-0.381-0.673-0.791-1.021-1.177c-0.48-0.534-1.076-0.679-1.757-0.468c-0.223,0.07-0.441,0.147-0.662,0.223
			c-0.321,0.108-0.639,0.236-0.966,0.32c-0.467,0.121-0.624,0.033-0.743-0.437c-0.11-0.442-0.174-0.895-0.262-1.343
			c-0.032-0.158-0.07-0.314-0.113-0.469C1.109,9.709,0.739,9.318,0.152,9.174c-0.521-0.127-1.054-0.203-1.577-0.317
			c-0.751-0.162-0.843-0.33-0.604-1.063c0.169-0.518,0.365-1.028,0.516-1.552c0.162-0.563,0.007-1.069-0.409-1.476
			c-0.296-0.288-0.62-0.543-0.929-0.815c-0.167-0.148-0.34-0.293-0.491-0.457C-3.633,3.179-3.639,2.993-3.354,2.68
			c0.176-0.191,0.378-0.357,0.572-0.529c0.241-0.212,0.495-0.413,0.735-0.628c0.549-0.492,0.721-1.095,0.489-1.799
			c-0.14-0.433-0.304-0.859-0.449-1.291C-2.28-2.38-2.174-2.562-1.339-2.721c0.448-0.085,0.897-0.16,1.346-0.252
			c0.74-0.153,1.17-0.622,1.32-1.351c0.099-0.472,0.179-0.949,0.267-1.424C1.61-5.835,1.633-5.922,1.661-6.007
			C1.793-6.4,1.944-6.497,2.347-6.385C2.76-6.27,3.165-6.119,3.568-5.98C4.81-5.549,5.282-5.68,6.13-6.689
			C6.387-6.997,6.639-7.315,6.923-7.6c0.334-0.336,0.559-0.333,0.895,0.007C8.089-7.32,8.33-7.018,8.575-6.721
			C9.435-5.68,9.913-5.547,11.2-5.993c0.412-0.143,0.826-0.29,1.248-0.405c0.33-0.09,0.502,0,0.594,0.33
			c0.117,0.431,0.188,0.874,0.273,1.312c0.023,0.115,0.043,0.229,0.064,0.343c0.152,0.838,0.65,1.327,1.484,1.482
			c0.539,0.099,1.072,0.202,1.605,0.321C16.696-2.56,16.891-2.441,16.905-2.145z M15.217,3.081c-0.004-4.337-3.5-7.841-7.837-7.852
			C3.043-4.782-0.493-1.257-0.494,3.08c0,4.33,3.544,7.867,7.872,7.859C11.705,10.931,15.219,7.407,15.217,3.081z"/>
		<path fill-rule="evenodd" clip-rule="evenodd" fill="#FFFFFF" d="M12.795,16.901c-0.441,1.195-0.873,2.359-1.323,3.576
			c-0.102-0.24-0.184-0.433-0.265-0.627c-0.778-1.863-1.552-3.73-2.339-5.592c-0.08-0.191-0.069-0.322,0.077-0.475
			c0.24-0.252,0.457-0.527,0.691-0.785c0.199-0.219,0.45-0.285,0.733-0.193c0.416,0.137,0.826,0.293,1.247,0.412
			c0.324,0.093,0.657,0.17,0.992,0.204c0.496,0.05,0.865-0.174,1.104-0.61c0.029-0.053,0.063-0.104,0.115-0.191
			c0.822,1.968,1.627,3.9,2.465,5.906C15.096,17.969,13.959,17.44,12.795,16.901z"/>
		<path fill-rule="evenodd" clip-rule="evenodd" fill="#FFFFFF" d="M0.958,12.723c0.453,0.666,0.83,0.824,1.58,0.652
			c0.339-0.078,0.668-0.199,0.998-0.305c0.188-0.061,0.375-0.123,0.557-0.199c0.49-0.203,0.882-0.091,1.204,0.33
			c0.202,0.262,0.429,0.506,0.632,0.768c0.043,0.057,0.068,0.17,0.042,0.232c-0.855,2.064-1.719,4.125-2.58,6.187
			c-0.003,0.007-0.015,0.011-0.049,0.04c-0.436-1.174-0.866-2.338-1.309-3.527c-1.149,0.534-2.278,1.061-3.409,1.586
			c-0.017-0.011-0.034-0.023-0.053-0.035C-0.639,16.553,0.151,14.656,0.958,12.723z"/>
		<path fill-rule="evenodd" clip-rule="evenodd" fill="#FFFFFF" d="M13.492,3.089c-0.002,3.387-2.761,6.137-6.144,6.129
			C3.971,9.209,1.218,6.436,1.23,3.058c0.011-3.371,2.761-6.107,6.136-6.107C10.759-3.047,13.498-0.303,13.492,3.089z M9.562,6.291
			C9.557,6.187,9.558,6.134,9.549,6.082C9.435,5.43,9.322,4.777,9.2,4.127C9.163,3.935,9.188,3.795,9.344,3.654
			c0.353-0.319,0.683-0.664,1.023-0.993c0.176-0.17,0.362-0.331,0.546-0.496c-0.601-0.15-1.153-0.272-1.712-0.297
			C8.653,1.844,8.332,1.635,8.134,1.112C7.934,0.583,7.638,0.09,7.356-0.472C7.093,0.065,6.813,0.536,6.625,1.041
			C6.42,1.587,6.114,1.911,5.504,1.872C5.414,1.866,5.326,1.897,5.236,1.91C4.775,1.981,4.311,2.052,3.969,2.104
			c0.44,0.486,0.897,1.012,1.38,1.517C5.51,3.789,5.61,3.926,5.54,4.176C5.458,4.467,5.43,4.774,5.383,5.074
			C5.317,5.466,5.255,5.859,5.186,6.296C5.314,6.236,5.395,6.2,5.472,6.159c0.561-0.296,1.126-0.588,1.681-0.895
			c0.16-0.088,0.282-0.092,0.444-0.005C8.234,5.604,8.877,5.933,9.562,6.291z"/>
	</g>
</g>
</svg>
