<?xml version="1.0" encoding="utf-8"?>
<!-- Generator: Adobe Illustrator 16.0.2, SVG Export Plug-In . SVG Version: 6.00 Build 0)  -->
<!DOCTYPE svg PUBLIC "-//W3C//DTD SVG 1.1//EN" "http://www.w3.org/Graphics/SVG/1.1/DTD/svg11.dtd">
<svg version="1.1" id="Слой_1" xmlns="http://www.w3.org/2000/svg" xmlns:xlink="http://www.w3.org/1999/xlink" x="0px" y="0px"
	 width="59.483px" height="59.287px" viewBox="25.801 18.25 59.483 59.287" enable-background="new 25.801 18.25 59.483 59.287"
	 xml:space="preserve">
<g>
	<path opacity="0.2" fill="#FFFFFF" d="M79.375,18.25H31.711c-3.265,0-5.91,2.646-5.91,5.909v47.469c0,3.263,2.646,5.91,5.91,5.91
		h47.664c3.263,0,5.909-2.646,5.909-5.91V24.159C85.283,20.896,82.637,18.25,79.375,18.25z M56.098,69.919
		c-12.161,0.007-22.086-9.916-22.086-22.077c0-12.165,9.921-22.081,22.084-22.076c12.161,0.005,22.078,9.937,22.066,22.098
		C78.149,60.008,68.24,69.913,56.098,69.919z"/>
	<g>
		<path fill="#FFFFFF" d="M56.389,25.559c-12.532,0-22.69,10.159-22.69,22.69s10.158,22.69,22.69,22.69s22.69-10.159,22.69-22.69
			S68.921,25.559,56.389,25.559z M55.862,35.156c5.211-0.425,9.741,3.227,10.399,8.412c0.261,2.052-0.153,4.032-0.82,5.963
			c-0.873,2.507-2.105,4.814-4.052,6.654c-0.684,0.649-1.482,1.229-2.323,1.647c-2.012,1.001-3.962,0.666-5.776-0.573
			c-1.703-1.16-2.918-2.752-3.905-4.528c-1.368-2.462-2.236-5.077-2.326-7.682C46.989,39.83,50.88,35.562,55.862,35.156z
			 M42.839,61.524c0.591-0.824,1.339-1.434,2.162-1.958c1.531-0.976,3.214-1.584,4.963-2.016c0.148-0.036,0.382,0.067,0.505,0.185
			c1.199,1.125,2.526,2.046,4.128,2.501c2.26,0.644,4.384,0.268,6.344-0.979c0.718-0.457,1.345-1.051,2.025-1.566
			c0.119-0.09,0.312-0.181,0.438-0.149c2.031,0.512,3.982,1.216,5.664,2.506c0.547,0.419,1.021,0.936,1.528,1.407
			C63.418,69.068,50.563,69.503,42.839,61.524z"/>
	</g>
</g>
</svg>
