<?xml version="1.0" encoding="utf-8"?>
<!-- Generator: Adobe Illustrator 16.0.0, SVG Export Plug-In . SVG Version: 6.00 Build 0)  -->
<!DOCTYPE svg PUBLIC "-//W3C//DTD SVG 1.1//EN" "http://www.w3.org/Graphics/SVG/1.1/DTD/svg11.dtd">
<svg version="1.1" id="Слой_1" xmlns="http://www.w3.org/2000/svg" xmlns:xlink="http://www.w3.org/1999/xlink" x="0px" y="0px"
	 width="11.333px" height="20.333px" viewBox="0 0 11.333 20.333" enable-background="new 0 0 11.333 20.333" xml:space="preserve">
<g>
	
		<linearGradient id="SVGID_1_" gradientUnits="userSpaceOnUse" x1="90.7974" y1="-188.5835" x2="90.7974" y2="-208.2246" gradientTransform="matrix(1 0 0 -1 -85 -188.167)">
		<stop  offset="0" style="stop-color:#3CCFBC"/>
		<stop  offset="1" style="stop-color:#219BA5"/>
	</linearGradient>
	<path fill="url(#SVGID_1_)" d="M7.366,20.051c-1.164,0-2.25-0.012-3.333,0.006c-0.401,0.006-0.339-0.254-0.339-0.489
		c-0.002-2.284-0.002-4.569-0.001-6.854c0-0.404-0.035-0.815,0.021-1.213c0.042-0.308-0.059-0.375-0.322-0.371
		c-0.762,0.006-1.523,0.006-2.285,0.004c-0.207,0-0.44,0.037-0.438-0.295c0.004-1.049,0.001-2.101,0.001-3.224
		c0.85,0,1.654-0.021,2.457,0.008C3.572,7.639,3.793,7.578,3.76,7.036C3.709,6.2,3.745,5.357,3.777,4.52
		c0.067-1.75,0.83-3.068,2.478-3.771C6.678,0.568,7.156,0.445,7.614,0.43c1.094-0.035,2.19,0.008,3.315,0.02c0,1.14,0,2.165,0,3.255
		c-0.671,0-1.315-0.009-1.958,0.002C7.834,3.723,7.386,4.174,7.374,5.31c-0.008,0.742,0,1.485,0,2.3c1.162,0,2.301,0,3.463,0
		c-0.146,1.206-0.285,2.34-0.432,3.539c-1.007,0-2.003,0-3.041,0C7.366,14.146,7.366,17.07,7.366,20.051z"/>
</g>
</svg>
