<?xml version="1.0" encoding="utf-8"?>
<!-- Generator: Adobe Illustrator 16.0.0, SVG Export Plug-In . SVG Version: 6.00 Build 0)  -->
<!DOCTYPE svg PUBLIC "-//W3C//DTD SVG 1.1//EN" "http://www.w3.org/Graphics/SVG/1.1/DTD/svg11.dtd">
<svg version="1.1" id="Слой_1" xmlns="http://www.w3.org/2000/svg" xmlns:xlink="http://www.w3.org/1999/xlink" x="0px" y="0px"
	 width="29.667px" height="19.667px" viewBox="0 0 29.667 19.667" enable-background="new 0 0 29.667 19.667" xml:space="preserve">
<g>
	
		<linearGradient id="SVGID_1_" gradientUnits="userSpaceOnUse" x1="94.8765" y1="-189.1006" x2="94.8765" y2="-208.335" gradientTransform="matrix(1 0 0 -1 -85 -188.833)">
		<stop  offset="0" style="stop-color:#3CCFBC"/>
		<stop  offset="1" style="stop-color:#219BA5"/>
	</linearGradient>
	<path fill="url(#SVGID_1_)" d="M16.861,3.287c-0.964,0.704-1.92,1.402-2.875,2.099c-2.371-2.19-5.946-1.991-8.119-0.074
		c-2.035,1.796-2.654,4.773-1.462,7.221c1.216,2.496,3.929,3.846,6.664,3.313c2.355-0.457,4.593-2.685,4.738-4.731
		c-1.552,0-3.104,0-4.665,0c0-1.186,0-2.348,0-3.526c0.067-0.005,0.128-0.012,0.19-0.012c2.568,0,5.136,0.001,7.705-0.004
		c0.146,0,0.193,0.049,0.225,0.183c1.199,5.176-2.158,10.441-7.355,11.533C6.61,20.401,1.511,17.046,0.437,11.742
		C-0.614,6.548,2.872,1.37,8.083,0.441c3.302-0.587,6.174,0.32,8.597,2.644c0.045,0.045,0.089,0.092,0.133,0.138
		C16.826,3.236,16.835,3.254,16.861,3.287z"/>
	
		<linearGradient id="SVGID_2_" gradientUnits="userSpaceOnUse" x1="110.3364" y1="-194.5708" x2="110.3364" y2="-202.8662" gradientTransform="matrix(1 0 0 -1 -85 -188.833)">
		<stop  offset="0" style="stop-color:#3CCFBC"/>
		<stop  offset="1" style="stop-color:#219BA5"/>
	</linearGradient>
	<path fill="url(#SVGID_2_)" d="M29.483,8.519c0,0.922,0,1.813,0,2.729c-0.926,0-1.845,0-2.782,0c0,0.938,0,1.854,0,2.785
		c-0.912,0-1.807,0-2.726,0c0-0.922,0-1.841,0-2.777c-0.938,0-1.854,0-2.783,0c0-0.914,0-1.81,0-2.729c0.919,0,1.838,0,2.774,0
		c0-0.942,0-1.857,0-2.788c0.914,0,1.808,0,2.727,0c0,0.924,0,1.843,0,2.781C27.632,8.519,28.546,8.519,29.483,8.519z"/>
</g>
</svg>
