<?xml version="1.0" encoding="utf-8"?>
<!-- Generator: Adobe Illustrator 16.0.0, SVG Export Plug-In . SVG Version: 6.00 Build 0)  -->
<!DOCTYPE svg PUBLIC "-//W3C//DTD SVG 1.1//EN" "http://www.w3.org/Graphics/SVG/1.1/DTD/svg11.dtd">
<svg version="1.1" id="Слой_1" xmlns="http://www.w3.org/2000/svg" xmlns:xlink="http://www.w3.org/1999/xlink" x="0px" y="0px"
	 width="58.667px" height="50.833px" viewBox="0 0 58.667 50.833" enable-background="new 0 0 58.667 50.833" xml:space="preserve">
<g>
	
		<linearGradient id="SVGID_1_" gradientUnits="userSpaceOnUse" x1="132.5503" y1="-158.2002" x2="132.5503" y2="-208.2378" gradientTransform="matrix(1 0 0 -1 -85 -157.667)">
		<stop  offset="0" style="stop-color:#3CCFBC"/>
		<stop  offset="1" style="stop-color:#219BA5"/>
	</linearGradient>
	<path fill="url(#SVGID_1_)" d="M36.982,25.504c0-7.946,0-15.891,0-23.837c0-1.046,0.273-1.271,1.316-1.064
		c6.314,1.258,12.631,2.519,18.945,3.78c0.745,0.149,0.881,0.339,0.881,1.21c0,10.311,0,20.623,0,30.934c0,2.993,0,5.987,0,8.979
		c0,0.895-0.135,1.043-1.008,1.218c-6.242,1.243-12.484,2.491-18.728,3.737c-0.181,0.037-0.361,0.08-0.544,0.103
		c-0.448,0.052-0.801-0.222-0.855-0.667c-0.02-0.164-0.007-0.332-0.007-0.499C36.982,41.433,36.982,33.469,36.982,25.504z
		 M42.529,24.434c0,0.77,0,1.458,0,2.211c-0.542,0-1.049,0-1.564,0c0,0.514,0,0.962,0,1.452c0.828,0,1.617,0.022,2.406-0.009
		c0.463-0.018,0.682-0.348,0.686-0.785c0.013-1.18,0.013-2.36,0-3.54c-0.006-0.413-0.217-0.742-0.648-0.762
		c-0.805-0.037-1.613-0.011-2.449-0.011c0,0.5,0,0.948,0,1.443C41.479,24.434,41.971,24.434,42.529,24.434z"/>
	
		<linearGradient id="SVGID_2_" gradientUnits="userSpaceOnUse" x1="103.0288" y1="-160.5737" x2="103.0288" y2="-205.8496" gradientTransform="matrix(1 0 0 -1 -85 -157.667)">
		<stop  offset="0" style="stop-color:#3CCFBC"/>
		<stop  offset="1" style="stop-color:#219BA5"/>
	</linearGradient>
	<path fill="url(#SVGID_2_)" d="M17.101,22.099c0-0.28,0-0.497,0-0.714c0-4.879-0.005-9.759,0.003-14.638
		c0.003-1.945,1.132-3.381,2.94-3.765c0.286-0.061,0.586-0.072,0.88-0.072c4.528-0.005,9.056-0.004,13.583-0.003
		c0.785,0,1.018,0.233,1.019,1.025c0.003,1.774,0.003,3.549,0,5.323c-0.002,0.757-0.239,0.996-0.991,0.996
		c-3.142,0.002-6.284,0.001-9.426,0.001c-0.199,0-0.398,0-0.626,0c0,3.966,0,7.873,0,11.847c0.214,0,0.411,0,0.607,0
		c1.626,0,3.254-0.015,4.879,0.014c0.308,0.005,0.657,0.118,0.909,0.295c1.103,0.776,2.177,1.592,3.258,2.399
		c0.656,0.49,0.662,0.976,0.016,1.459c-1.095,0.818-2.179,1.652-3.298,2.438c-0.759,0.529-1.63,0.318-2.448,0.162
		c-0.174-0.035-0.347-0.449-0.388-0.709c-0.064-0.414-0.017-0.845-0.017-1.312c-0.611,0-1.189,0-1.845,0
		c0,0.399,0.004,0.782-0.001,1.163c-0.01,0.767-0.226,0.975-1.003,0.979c-0.203,0.001-0.405,0-0.655,0c0,3.942,0,7.863,0,11.847
		c0.21,0,0.408,0,0.605,0c3.124,0,6.248-0.002,9.371,0c0.832,0,1.05,0.217,1.052,1.045c0.002,1.756,0.002,3.513,0,5.269
		c-0.001,0.795-0.232,1.031-1.013,1.032c-4.548,0.001-9.093,0.005-13.64-0.002c-2.203-0.004-3.765-1.564-3.77-3.777
		c-0.009-5.359-0.003-10.72-0.003-16.08c0-0.219,0-0.438,0-0.753c-0.624,0.142-1.195,0.248-1.749,0.414
		c-0.131,0.04-0.23,0.265-0.298,0.422c-1.279,2.991-4.083,4.787-7.318,4.677c-3.862-0.131-6.978-3.285-7.193-7.283
		c-0.2-3.704,2.653-7.158,6.357-7.698c3.143-0.458,6.022,0.897,7.672,3.639c0.169,0.281,0.346,0.378,0.658,0.367
		C15.832,22.084,16.437,22.099,17.101,22.099z M3.696,25.551c0.003,1.431,1.144,2.559,2.581,2.55c1.4-0.009,2.531-1.14,2.538-2.541
		c0.007-1.431-1.127-2.575-2.556-2.577C4.824,22.981,3.693,24.114,3.696,25.551z"/>
	
		<linearGradient id="SVGID_3_" gradientUnits="userSpaceOnUse" x1="91.2554" y1="-182.1147" x2="91.2554" y2="-184.3032" gradientTransform="matrix(1 0 0 -1 -85 -157.667)">
		<stop  offset="0" style="stop-color:#3CCFBC"/>
		<stop  offset="1" style="stop-color:#219BA5"/>
	</linearGradient>
	<path fill="url(#SVGID_3_)" d="M6.232,24.448c0.582-0.013,1.103,0.489,1.116,1.073c0.013,0.579-0.49,1.101-1.074,1.114
		c-0.582,0.013-1.101-0.487-1.112-1.073C5.149,24.979,5.646,24.461,6.232,24.448z"/>
</g>
</svg>
