<?xml version="1.0" encoding="utf-8"?>
<!-- Generator: Adobe Illustrator 16.0.2, SVG Export Plug-In . SVG Version: 6.00 Build 0)  -->
<!DOCTYPE svg PUBLIC "-//W3C//DTD SVG 1.1//EN" "http://www.w3.org/Graphics/SVG/1.1/DTD/svg11.dtd">
<svg version="1.1" id="Слой_1" xmlns="http://www.w3.org/2000/svg" xmlns:xlink="http://www.w3.org/1999/xlink" x="0px" y="0px"
	 width="21.833px" height="26.729px" viewBox="-0.917 -0.271 21.833 26.729" enable-background="new -0.917 -0.271 21.833 26.729"
	 xml:space="preserve">
<g>
	<g>
		<g>
			<path fill="#BBBEC7" d="M10.03,22.228c-0.896-0.002-1.796-0.169-2.74-0.27c-0.16,1.301-0.325,2.633-0.497,4.025
				c0.844-0.281,1.601-0.523,2.347-0.796c0.099-0.035,0.197-0.216,0.204-0.336c0.024-0.411,0.01-0.825,0.01-1.237
				c0.477,0,0.891,0,1.346,0c0,0.423-0.01,0.824,0.008,1.228c0.007,0.115,0.073,0.301,0.156,0.329
				c0.772,0.275,1.555,0.525,2.397,0.805c-0.17-1.392-0.337-2.719-0.497-4.018C11.805,22.06,10.917,22.228,10.03,22.228z"/>
		</g>
		<g>
			<polygon fill="#BBBEC7" points="10.82,7.406 9.081,7.406 9.081,9.68 6.807,9.68 6.807,11.42 9.081,11.42 9.081,13.694 
				10.82,13.694 10.82,11.42 13.094,11.42 13.094,9.68 10.82,9.68 			"/>
		</g>
	</g>
	<g>
		<path fill="#BBBEC7" d="M9.95,21.1C4.133,21.1-0.6,16.368-0.6,10.55C-0.6,4.732,4.133,0,9.95,0S20.5,4.732,20.5,10.55
			C20.5,16.368,15.768,21.1,9.95,21.1z M9.95,1.6C5.015,1.6,1,5.615,1,10.55S5.015,19.5,9.95,19.5c4.935,0,8.95-4.016,8.95-8.951
			S14.885,1.6,9.95,1.6z"/>
	</g>
</g>
</svg>
