<?xml version="1.0" encoding="utf-8"?>
<!-- Generator: Adobe Illustrator 16.0.0, SVG Export Plug-In . SVG Version: 6.00 Build 0)  -->
<!DOCTYPE svg PUBLIC "-//W3C//DTD SVG 1.1//EN" "http://www.w3.org/Graphics/SVG/1.1/DTD/svg11.dtd">
<svg version="1.1" id="Слой_1" xmlns="http://www.w3.org/2000/svg" xmlns:xlink="http://www.w3.org/1999/xlink" x="0px" y="0px"
	 width="24.375px" height="16px" viewBox="0 0 24.375 16" enable-background="new 0 0 24.375 16" xml:space="preserve">
<g>
	
		<linearGradient id="SVGID_1_" gradientUnits="userSpaceOnUse" x1="-473.3628" y1="-192.688" x2="-473.3628" y2="-208.3423" gradientTransform="matrix(-1 0 0 -1 -461.1006 -192.5)">
		<stop  offset="0" style="stop-color:#3CCFBC"/>
		<stop  offset="1" style="stop-color:#219BA5"/>
	</linearGradient>
	<path fill="url(#SVGID_1_)" d="M11.217,15.843c1.569,0,3.139,0,4.708,0c0.087-0.092,0.168-0.188,0.259-0.274
		c2.576-2.428,5.151-4.856,7.73-7.282c0.092-0.084,0.211-0.137,0.339-0.219c-0.164-0.154-0.239-0.226-0.317-0.297
		c-2.584-2.436-5.168-4.871-7.752-7.307c-0.091-0.086-0.172-0.183-0.259-0.275c-1.569,0-3.139,0-4.708,0
		c0.088,0.09,0.173,0.184,0.265,0.271c2.014,1.897,4.026,3.794,6.042,5.689c0.08,0.076,0.184,0.13,0.276,0.194
		c-0.021,0.035-0.042,0.07-0.063,0.104c-0.109,0-0.221,0-0.332,0c-5.595,0-11.191,0-16.786-0.001c-0.115,0-0.23-0.013-0.347-0.02
		c0,1.06,0,2.121,0,3.183C0.376,9.6,0.481,9.585,0.587,9.585c5.614,0,11.231,0,16.849,0c0.101,0,0.201,0.01,0.405,0.021
		c-0.143,0.123-0.223,0.186-0.296,0.254c-0.904,0.851-1.809,1.699-2.709,2.551C13.628,13.553,12.424,14.699,11.217,15.843z"/>
</g>
</svg>
