<?xml version="1.0" encoding="utf-8"?>
<!-- Generator: Adobe Illustrator 16.0.0, SVG Export Plug-In . SVG Version: 6.00 Build 0)  -->
<!DOCTYPE svg PUBLIC "-//W3C//DTD SVG 1.1//EN" "http://www.w3.org/Graphics/SVG/1.1/DTD/svg11.dtd">
<svg version="1.1" id="Слой_1" xmlns="http://www.w3.org/2000/svg" xmlns:xlink="http://www.w3.org/1999/xlink" x="0px" y="0px"
	 width="15.938px" height="24.438px" viewBox="0 0 15.938 24.438" enable-background="new 0 0 15.938 24.438" xml:space="preserve">
<g>
	
		<linearGradient id="SVGID_1_" gradientUnits="userSpaceOnUse" x1="-567.7727" y1="406.3997" x2="-567.7727" y2="422.0549" gradientTransform="matrix(4.371139e-008 1 1 -4.371139e-008 -401.9648 575.7871)">
		<stop  offset="0" style="stop-color:#3CCFBC"/>
		<stop  offset="1" style="stop-color:#219BA5"/>
	</linearGradient>
	<path fill="url(#SVGID_1_)" d="M20.09,9.061c0-1.568,0-3.139,0-4.708c-0.092-0.087-0.188-0.168-0.275-0.259
		c-2.428-2.576-4.854-5.151-7.281-7.729c-0.084-0.093-0.138-0.212-0.22-0.34c-0.153,0.164-0.226,0.239-0.297,0.317
		C9.581-1.074,7.146,1.51,4.709,4.094C4.624,4.185,4.527,4.266,4.435,4.353c0,1.569,0,3.14,0,4.708
		c0.09-0.088,0.185-0.174,0.271-0.266C6.603,6.781,8.5,4.77,10.395,2.754c0.076-0.08,0.13-0.185,0.194-0.276
		c0.035,0.021,0.07,0.042,0.104,0.063c0,0.108,0,0.221,0,0.332c0,5.595,0,11.19-0.001,16.786c0,0.114-0.013,0.229-0.02,0.347
		c1.06,0,2.122,0,3.182,0c-0.008-0.104-0.021-0.209-0.021-0.315c0-5.613,0-11.23,0-16.849c0-0.101,0.01-0.201,0.02-0.405
		c0.123,0.144,0.187,0.224,0.254,0.296c0.853,0.904,1.699,1.81,2.552,2.709C17.799,6.649,18.945,7.854,20.09,9.061z"/>
</g>
</svg>
