<?xml version="1.0" encoding="utf-8"?>
<!-- Generator: Adobe Illustrator 16.0.2, SVG Export Plug-In . SVG Version: 6.00 Build 0)  -->
<!DOCTYPE svg PUBLIC "-//W3C//DTD SVG 1.1//EN" "http://www.w3.org/Graphics/SVG/1.1/DTD/svg11.dtd">
<svg version="1.1" id="Слой_1" xmlns="http://www.w3.org/2000/svg" xmlns:xlink="http://www.w3.org/1999/xlink" x="0px" y="0px"
	 width="28.375px" height="28.25px" viewBox="0 0 28.375 28.25" enable-background="new 0 0 28.375 28.25" xml:space="preserve">
<g>
	<g>
		<g>
			<g>
				<path fill="#BBBEC7" d="M13.067,15.37v-0.477c0-0.412,0.088-0.77,0.263-1.073c0.175-0.305,0.496-0.629,0.964-0.973
					c0.451-0.32,0.748-0.582,0.89-0.783c0.145-0.201,0.217-0.427,0.217-0.674c0-0.279-0.104-0.491-0.311-0.636
					c-0.205-0.146-0.493-0.219-0.86-0.219c-0.644,0-1.376,0.209-2.197,0.629L11.33,9.758c0.956-0.535,1.969-0.804,3.041-0.804
					c0.883,0,1.584,0.211,2.106,0.637c0.52,0.424,0.781,0.989,0.781,1.696c0,0.472-0.107,0.878-0.32,1.221
					c-0.217,0.344-0.623,0.729-1.223,1.157c-0.41,0.304-0.672,0.536-0.781,0.694c-0.109,0.159-0.164,0.366-0.164,0.623v0.388H13.067
					z M12.861,17.566c0-0.36,0.096-0.632,0.288-0.816c0.192-0.184,0.475-0.276,0.844-0.276c0.355,0,0.63,0.096,0.826,0.283
					c0.193,0.188,0.291,0.459,0.291,0.81c0,0.339-0.098,0.606-0.295,0.801c-0.198,0.194-0.472,0.292-0.822,0.292
					c-0.361,0-0.639-0.096-0.836-0.286C12.96,18.183,12.861,17.915,12.861,17.566z"/>
			</g>
		</g>
	</g>
	<g>
		<path fill="#BBBEC7" d="M14.293,25.912c-6.675,0-12.105-5.431-12.105-12.105S7.619,1.701,14.293,1.701
			c6.675,0,12.105,5.431,12.105,12.105S20.969,25.912,14.293,25.912z M14.293,3.537c-5.663,0-10.27,4.607-10.27,10.27
			c0,5.663,4.607,10.27,10.27,10.27s10.269-4.606,10.269-10.27C24.563,8.144,19.956,3.537,14.293,3.537z"/>
	</g>
</g>
</svg>
