<?xml version="1.0" encoding="utf-8"?>
<!-- Generator: Adobe Illustrator 16.0.2, SVG Export Plug-In . SVG Version: 6.00 Build 0)  -->
<!DOCTYPE svg PUBLIC "-//W3C//DTD SVG 1.1//EN" "http://www.w3.org/Graphics/SVG/1.1/DTD/svg11.dtd">
<svg version="1.1" id="Слой_1" xmlns="http://www.w3.org/2000/svg" xmlns:xlink="http://www.w3.org/1999/xlink" x="0px" y="0px"
	 width="28.834px" height="26.167px" viewBox="0.813 -0.25 28.834 26.167" enable-background="new 0.813 -0.25 28.834 26.167"
	 xml:space="preserve">
<g>
	<g>
		<path fill-rule="evenodd" clip-rule="evenodd" fill="#172C61" d="M16.942,24.696c-0.82,1.122-2.665,1.189-3.701,0.131
			c-0.907-0.927-1.8-1.866-2.699-2.8c-2.211-2.293-4.422-4.587-6.633-6.881c-1.751-1.817-2.659-3.986-2.604-6.511
			C1.39,4.708,3.966,1.327,7.649,0.321c2.584-0.706,4.98-0.229,7.202,1.27c0.917,0.619,1.537,1.474,2.163,2.31
			c-0.673,0.639-1.322,1.255-1.999,1.897c-0.321-0.362-0.642-0.732-0.969-1.096c-2.004-2.227-5.621-2.42-7.838-0.42
			c-2.659,2.4-2.788,6.346-0.29,8.915c2.358,2.426,4.729,4.841,7.077,7.276c1.304,1.353,2.574,2.738,3.859,4.108
			C16.889,24.617,16.915,24.659,16.942,24.696z"/>
	</g>
	<g>
		<path fill-rule="evenodd" clip-rule="evenodd" fill="#172C61" d="M22.669,0.321c-2.584-0.706-4.98-0.229-7.202,1.27
			C14.55,2.209,13.93,3.064,13.304,3.9c0.673,0.639,1.322,1.255,1.999,1.897c0.321-0.362,0.642-0.732,0.969-1.096
			c2.004-2.227,5.621-2.42,7.838-0.42c2.659,2.4,2.788,6.346,0.29,8.915c-2.358,2.426-4.729,4.841-7.077,7.276
			c-0.271,0.282-0.535,0.572-0.804,0.856c0.617,0.716,1.264,1.407,1.953,2.052c0.434-0.452,0.87-0.902,1.305-1.354
			c2.211-2.293,4.422-4.587,6.633-6.881c1.751-1.817,2.659-3.986,2.604-6.511C28.929,4.708,26.353,1.327,22.669,0.321z"/>
	</g>
</g>
</svg>
