<?xml version="1.0" encoding="utf-8"?>
<!-- Generator: Adobe Illustrator 16.0.2, SVG Export Plug-In . SVG Version: 6.00 Build 0)  -->
<!DOCTYPE svg PUBLIC "-//W3C//DTD SVG 1.1//EN" "http://www.w3.org/Graphics/SVG/1.1/DTD/svg11.dtd">
<svg version="1.1" id="Слой_1" xmlns="http://www.w3.org/2000/svg" xmlns:xlink="http://www.w3.org/1999/xlink" x="0px" y="0px"
	 width="31.979px" height="25.5px" viewBox="0 0 31.979 25.5" enable-background="new 0 0 31.979 25.5" xml:space="preserve">
<g>
	<g>
		<path fill="#BBBFC6" d="M20.219,23.195c0-0.134,0-0.248,0-0.363c0-1.976,0-3.949-0.002-5.924c0-0.846-0.44-1.293-1.283-1.295
			c-1.934-0.004-3.865-0.004-5.797,0c-0.845,0.002-1.281,0.446-1.281,1.297c-0.001,1.973-0.001,3.946-0.001,5.922
			c0,0.115,0,0.229,0,0.363c-1.655,0-3.288,0-4.952,0c0-3.877,0-7.732,0-11.651c-0.718,0.569-1.382,1.103-2.057,1.621
			c-0.159,0.123-0.22,0.248-0.22,0.447c0.007,3.537,0.005,7.075,0.005,10.611c0.002,0.821,0.448,1.271,1.278,1.271
			c2.313,0.002,4.624,0.002,6.938,0c0.846-0.002,1.288-0.45,1.289-1.295c0.001-1.974,0.001-3.949,0.001-5.922
			c0-0.123,0-0.244,0-0.365c1.288,0,2.53,0,3.8,0c0,0.136,0,0.248,0,0.362c0,1.986,0,3.972,0.002,5.956
			c0,0.803,0.444,1.258,1.252,1.264c0.823,0.006,1.647,0.002,2.47,0.002c1.512,0,3.021,0.002,4.531-0.002
			c0.758-0.004,1.246-0.461,1.247-1.174c0.005-3.592,0.005-7.182-0.005-10.771c0-0.113-0.077-0.262-0.165-0.334
			c-0.638-0.522-1.286-1.031-1.933-1.54c-0.043-0.035-0.101-0.053-0.183-0.094c0,3.891,0,7.742,0,11.613
			C23.504,23.195,21.873,23.195,20.219,23.195z M31.625,13.078c-0.006-0.498-0.203-0.849-0.57-1.139
			c-4.728-3.724-9.446-7.453-14.17-11.18c-0.594-0.468-1.103-0.471-1.69-0.008C10.48,4.473,5.767,8.195,1.051,11.913
			c-0.296,0.233-0.477,0.527-0.563,0.889c-0.188,0.79,0.435,1.454,1.233,1.289c0.228-0.048,0.457-0.173,0.642-0.317
			c4.48-3.525,8.954-7.055,13.424-10.591c0.173-0.136,0.284-0.169,0.48-0.015c3.315,2.63,6.641,5.249,9.964,7.871
			c1.185,0.935,2.366,1.872,3.554,2.805c0.393,0.311,0.824,0.361,1.277,0.152C31.463,13.811,31.609,13.464,31.625,13.078z"/>
		<path fill="#BBBFC6" d="M20.219,23.195c1.654,0,3.285,0,4.936,0c0-3.871,0-7.722,0-11.612c0.082,0.041,0.139,0.059,0.182,0.094
			c0.646,0.509,1.295,1.018,1.934,1.54c0.088,0.071,0.166,0.221,0.166,0.334c0.009,3.59,0.009,7.18,0.004,10.771
			c-0.001,0.713-0.489,1.17-1.247,1.174c-1.511,0.006-3.021,0.002-4.531,0.002c-0.821,0-1.646,0.005-2.47-0.002
			c-0.807-0.006-1.252-0.461-1.252-1.263c-0.002-1.985-0.002-3.97-0.002-5.956c0-0.113,0-0.228,0-0.361c-1.27,0-2.512,0-3.8,0
			c0,0.119,0,0.24,0,0.363c0,1.975,0,3.949-0.001,5.924c-0.001,0.844-0.443,1.293-1.289,1.293c-2.313,0.004-4.625,0.004-6.938,0
			c-0.83,0-1.276-0.449-1.278-1.271c0-3.536,0.002-7.073-0.005-10.61c0-0.201,0.061-0.326,0.22-0.448
			c0.675-0.519,1.339-1.053,2.057-1.621c0,3.919,0,7.775,0,11.65c1.664,0,3.297,0,4.952,0c0-0.134,0-0.248,0-0.361
			c0-1.977,0-3.95,0.001-5.924c0-0.851,0.437-1.295,1.281-1.297c1.932-0.004,3.865-0.004,5.796,0
			c0.844,0.002,1.285,0.449,1.285,1.295c0,1.975,0,3.949,0,5.924C20.219,22.947,20.219,23.062,20.219,23.195z"/>
		<path fill="#BBBFC6" d="M31.625,13.078c-0.018,0.386-0.162,0.732-0.564,0.918c-0.453,0.209-0.885,0.156-1.277-0.152
			c-1.186-0.933-2.369-1.87-3.553-2.805c-3.323-2.622-6.648-5.241-9.964-7.871c-0.195-0.154-0.306-0.121-0.479,0.015
			c-4.47,3.536-8.944,7.066-13.424,10.591c-0.185,0.146-0.414,0.271-0.642,0.317c-0.799,0.165-1.421-0.499-1.233-1.289
			c0.086-0.361,0.267-0.655,0.563-0.889C5.767,8.194,10.48,4.473,15.195,0.75c0.588-0.463,1.096-0.46,1.689,0.009
			c4.724,3.727,9.442,7.456,14.17,11.18C31.422,12.229,31.619,12.58,31.625,13.078z"/>
	</g>
</g>
</svg>
