<?xml version="1.0" encoding="utf-8"?>
<!-- Generator: Adobe Illustrator 16.0.0, SVG Export Plug-In . SVG Version: 6.00 Build 0)  -->
<!DOCTYPE svg PUBLIC "-//W3C//DTD SVG 1.1//EN" "http://www.w3.org/Graphics/SVG/1.1/DTD/svg11.dtd">
<svg version="1.1" id="Слой_1" xmlns="http://www.w3.org/2000/svg" xmlns:xlink="http://www.w3.org/1999/xlink" x="0px" y="0px"
	 width="17.333px" height="13.917px" viewBox="0 0 17.333 13.917" enable-background="new 0 0 17.333 13.917" xml:space="preserve">
<g>
	<g>
		<path fill="#33B7B0" d="M10.961,12.578c0.906,0,1.802,0,2.707,0c0-2.123,0-4.234,0-6.368c0.043,0.022,0.074,0.032,0.1,0.051
			c0.354,0.279,0.709,0.558,1.059,0.844c0.049,0.041,0.092,0.122,0.092,0.184c0.004,1.968,0.006,3.938,0.002,5.906
			c0,0.391-0.269,0.641-0.685,0.643c-0.827,0.004-1.655,0.002-2.483,0.002c-0.451,0-0.902,0.002-1.354-0.002
			c-0.44-0.002-0.687-0.252-0.687-0.691c-0.002-1.089-0.002-2.178-0.002-3.268c0-0.063,0-0.125,0-0.197c-0.695,0-1.376,0-2.083,0
			c0,0.066,0,0.133,0,0.199c0,1.082,0,2.166-0.001,3.248c0,0.461-0.243,0.709-0.706,0.709c-1.269,0.002-2.536,0.002-3.804,0
			c-0.455,0-0.701-0.248-0.701-0.696c0-1.938,0.001-3.879-0.002-5.818c0-0.11,0.033-0.179,0.12-0.246
			C2.901,6.792,3.266,6.5,3.66,6.188c0,2.149,0,4.265,0,6.39c0.912,0,1.807,0,2.715,0c0-0.074,0-0.137,0-0.199
			c0-1.084,0-2.166,0-3.248c0-0.465,0.24-0.711,0.702-0.711c1.06-0.002,2.12-0.002,3.179,0c0.463,0,0.705,0.246,0.705,0.711
			c0,1.082,0,2.164,0,3.248C10.961,12.44,10.961,12.503,10.961,12.578z"/>
		<path fill="#33B7B0" d="M17.215,7.03c-0.008,0.212-0.088,0.401-0.31,0.502c-0.247,0.115-0.483,0.086-0.7-0.083
			c-0.649-0.512-1.3-1.025-1.949-1.538c-1.82-1.438-3.644-2.875-5.461-4.316C8.688,1.511,8.627,1.529,8.531,1.604
			C6.08,3.542,3.627,5.478,1.172,7.411C1.07,7.49,0.944,7.558,0.82,7.583C0.381,7.675,0.04,7.312,0.144,6.878
			C0.19,6.68,0.289,6.519,0.452,6.391c2.585-2.039,5.17-4.08,7.754-6.12c0.322-0.254,0.602-0.252,0.928,0.004
			c2.589,2.044,5.177,4.089,7.768,6.13C17.104,6.564,17.213,6.756,17.215,7.03z"/>
	</g>
</g>
</svg>
