<?xml version="1.0" encoding="utf-8"?>
<!-- Generator: Adobe Illustrator 16.0.0, SVG Export Plug-In . SVG Version: 6.00 Build 0)  -->
<!DOCTYPE svg PUBLIC "-//W3C//DTD SVG 1.1//EN" "http://www.w3.org/Graphics/SVG/1.1/DTD/svg11.dtd">
<svg version="1.1" id="Layer_1" xmlns="http://www.w3.org/2000/svg" xmlns:xlink="http://www.w3.org/1999/xlink" x="0px" y="0px"
	 width="154.654px" height="36.218px" viewBox="0 0 154.654 36.218" enable-background="new 0 0 154.654 36.218"
	 xml:space="preserve">
<g>
	<g>
		<g>
			<g>
				<path fill="#3D4859" d="M30.954,30.886C23.909,37.968,12.414,38,5.331,30.953c-7.082-7.045-7.111-18.539-0.066-25.622
					c7.046-7.082,18.54-7.112,25.623-0.067C37.969,12.311,37.999,23.804,30.954,30.886z M8.089,8.141
					c-5.497,5.525-5.473,14.491,0.053,19.987c5.524,5.498,14.49,5.473,19.986-0.051c5.497-5.525,5.474-14.493-0.052-19.988
					C22.551,2.593,13.585,2.616,8.089,8.141z"/>
			</g>
		</g>
		<path fill="#3D4859" d="M42.43,34.4L42.43,34.4c-0.859,1.309-2.086,2.021-2.741,1.592l-8.764-5.752
			c-0.653-0.43-0.487-1.839,0.371-3.148l0,0c0.859-1.309,2.086-2.021,2.741-1.592l8.763,5.752
			C43.455,31.682,43.289,33.091,42.43,34.4z"/>
		
			<radialGradient id="SVGID_1_" cx="103.1091" cy="-190.3911" r="12.6367" gradientTransform="matrix(1 0 0 -1 -85 -172.2822)" gradientUnits="userSpaceOnUse">
			<stop  offset="0" style="stop-color:#6BC9CA"/>
			<stop  offset="0.2435" style="stop-color:#67C4C6"/>
			<stop  offset="0.5201" style="stop-color:#59BABD"/>
			<stop  offset="0.8118" style="stop-color:#3DABAF"/>
			<stop  offset="1" style="stop-color:#17A0A5"/>
		</radialGradient>
		<circle fill="url(#SVGID_1_)" cx="18.109" cy="18.109" r="12.637"/>
		<g>
			<path fill="#FFFFFF" d="M17.785,31.821h0.368c0.38,0,0.688-0.309,0.688-0.688V9.748c0-0.381-0.308-0.689-0.688-0.689h-0.368
				c-0.381,0-0.688,0.308-0.688,0.689v21.384C17.097,31.512,17.404,31.821,17.785,31.821z"/>
			<path fill="#FFFFFF" d="M22.913,10.646l-11.439,1.717c-0.396,0.06-0.705,0.369-0.771,0.764c-0.179,1.094-0.111,2.207,0.154,3.334
				c0.095,0.399,0.454,0.681,0.865,0.691l11.604,0.296c0.291,0.007,0.567-0.124,0.745-0.352l2.014-2.577
				c0.281-0.36,0.254-0.871-0.063-1.199l-2.316-2.404C23.502,10.702,23.206,10.602,22.913,10.646z"/>
			<path fill="#FFFFFF" d="M12.484,19.125l11.374,0.404c0.47,0.018,0.872,0.346,0.976,0.805c0.216,0.949,0.279,1.965,0.205,3.043
				c-0.035,0.492-0.406,0.894-0.893,0.961l-11.306,1.582c-0.325,0.045-0.653-0.066-0.884-0.301l-2.175-2.213
				c-0.362-0.369-0.398-0.947-0.084-1.357l1.926-2.516C11.828,19.265,12.149,19.115,12.484,19.125z"/>
		</g>
	</g>
	<g>
		<path fill="#3D4859" d="M48.893,9.764h-6.071c-0.159,0-0.297,0.058-0.411,0.173c-0.116,0.116-0.174,0.253-0.174,0.412v0.694
			c0,0.159,0.058,0.296,0.174,0.413c0.114,0.116,0.252,0.173,0.411,0.173h1.149v8.65h-1.149c-0.159,0-0.297,0.059-0.411,0.174
			c-0.116,0.116-0.174,0.254-0.174,0.412v0.694c0,0.159,0.058,0.296,0.174,0.412c0.114,0.116,0.252,0.174,0.411,0.174h2.537
			c0.158,0,0.296-0.058,0.412-0.174s0.174-0.253,0.174-0.412v-9.93h2.839c1.085,0,1.945,0.318,2.581,0.955
			c0.636,0.635,0.954,1.496,0.954,2.58v6.396c0,0.16,0.057,0.296,0.173,0.412c0.116,0.115,0.253,0.174,0.412,0.174h0.803
			c0.159,0,0.295-0.059,0.411-0.174c0.115-0.116,0.173-0.252,0.173-0.412v-6.504c0-1.662-0.476-2.96-1.43-3.892
			C51.907,10.229,50.584,9.764,48.893,9.764z"/>
		<path fill="#3D4859" d="M58.888,9.764h-0.804c-0.159,0-0.296,0.058-0.412,0.173c-0.115,0.116-0.173,0.253-0.173,0.412v11.21
			c0,0.159,0.058,0.296,0.173,0.412c0.116,0.116,0.253,0.174,0.412,0.174h0.804c0.158,0,0.296-0.058,0.411-0.174
			s0.174-0.253,0.174-0.412v-11.21c0-0.158-0.059-0.296-0.174-0.412C59.184,9.822,59.047,9.764,58.888,9.764z"/>
		<path fill="#3D4859" d="M70.357,9.764h-6.896V7.335c0-0.159-0.058-0.296-0.173-0.411c-0.116-0.117-0.253-0.174-0.412-0.174h-0.802
			c-0.16,0-0.296,0.057-0.412,0.174c-0.116,0.115-0.174,0.252-0.174,0.411v3.708c0,0.159,0.058,0.296,0.174,0.413
			c0.116,0.116,0.252,0.173,0.412,0.173h6.895v6.743c0,0.275-0.024,0.542-0.075,0.801c-0.052,0.261-0.143,0.488-0.271,0.684
			c-0.13,0.195-0.313,0.352-0.552,0.467c-0.239,0.115-0.546,0.174-0.922,0.174h-0.671c-0.159,0-0.296,0.058-0.413,0.172
			c-0.116,0.115-0.173,0.252-0.173,0.412v0.694c0,0.159,0.057,0.298,0.173,0.413s0.253,0.173,0.413,0.173h0.997
			c1.198,0,2.078-0.36,2.634-1.083s0.835-1.729,0.835-3.015V10.35c0-0.158-0.058-0.296-0.173-0.412
			C70.653,9.822,70.517,9.764,70.357,9.764z"/>
		<path fill="#3D4859" d="M84.148,9.764h-9.367c-0.159,0-0.296,0.058-0.412,0.173c-0.116,0.116-0.173,0.253-0.173,0.412v0.694
			c0,0.159,0.057,0.296,0.173,0.413c0.116,0.116,0.253,0.173,0.412,0.173h7.979v6.83c0,1.358-0.687,2.039-2.06,2.039h-1.128
			c-0.159,0-0.296,0.058-0.412,0.172c-0.116,0.115-0.173,0.252-0.173,0.412v0.694c0,0.159,0.057,0.298,0.173,0.413
			s0.253,0.173,0.412,0.173h1.236c1.286,0,2.261-0.317,2.927-0.952c0.666-0.637,0.998-1.584,0.998-2.842V10.35
			c0-0.158-0.059-0.296-0.173-0.412C84.444,9.822,84.307,9.764,84.148,9.764z"/>
		<path fill="#3D4859" d="M75.584,12.648h-0.803c-0.159,0-0.296,0.058-0.412,0.173c-0.116,0.116-0.173,0.253-0.173,0.412v10.988
			c0,0.159,0.057,0.296,0.173,0.411s0.253,0.174,0.412,0.174h0.803c0.159,0,0.296-0.059,0.412-0.174
			c0.115-0.115,0.172-0.252,0.172-0.411V13.233c0-0.159-0.058-0.296-0.172-0.412C75.88,12.706,75.743,12.648,75.584,12.648z"/>
		<path fill="#3D4859" d="M97.113,20.279h-0.716v-5.203c0-0.823-0.126-1.564-0.378-2.222c-0.254-0.658-0.615-1.214-1.083-1.67
			c-0.472-0.455-1.042-0.806-1.713-1.051c-0.674-0.246-1.422-0.369-2.244-0.369h-3.016c-0.158,0-0.296,0.058-0.412,0.173
			c-0.115,0.116-0.173,0.253-0.173,0.412v0.694c0,0.159,0.058,0.296,0.173,0.413c0.116,0.116,0.254,0.173,0.412,0.173h2.906
			c1.098,0,1.965,0.318,2.603,0.955c0.635,0.635,0.954,1.502,0.954,2.602v5.095h-6.679c-0.159,0-0.296,0.059-0.412,0.174
			c-0.115,0.115-0.173,0.252-0.173,0.412v0.693c0,0.16,0.058,0.296,0.173,0.412c0.116,0.115,0.253,0.174,0.412,0.174h9.367
			c0.159,0,0.296-0.059,0.412-0.174c0.116-0.116,0.174-0.252,0.174-0.412v-0.693c0-0.158-0.058-0.297-0.174-0.412
			C97.409,20.337,97.272,20.279,97.113,20.279z"/>
		<path fill="#3D4859" d="M107.388,9.764h-6.071c-0.146,0-0.271,0.05-0.378,0.151c-0.108,0.102-0.164,0.231-0.164,0.39v1.865
			c0,0.145,0.055,0.271,0.164,0.379c0.108,0.108,0.232,0.163,0.378,0.163h1.301c-0.229,0.925-0.347,1.995-0.347,3.209v3.405h-1.755
			c-0.146,0-0.271,0.051-0.38,0.151s-0.162,0.231-0.162,0.39v1.713c0,0.145,0.054,0.271,0.162,0.381
			c0.108,0.107,0.234,0.162,0.38,0.162l4.616,0.021c0.159,0,0.29-0.055,0.392-0.163c0.101-0.108,0.151-0.235,0.151-0.379
			l-0.174-5.702c0-0.65,0.026-1.222,0.076-1.713c0.05-0.492,0.141-0.983,0.272-1.475h1.408c1.634,0,2.45,0.824,2.45,2.472v6.417
			c0,0.16,0.05,0.29,0.151,0.391c0.101,0.1,0.231,0.151,0.391,0.151h2.58c0.159,0,0.289-0.056,0.392-0.163
			c0.101-0.107,0.15-0.234,0.15-0.379v-6.526c0-1.821-0.502-3.162-1.506-4.022C110.861,10.194,109.368,9.764,107.388,9.764z"/>
		<path fill="#3D4859" d="M119.075,9.764h-2.712c-0.146,0-0.271,0.05-0.378,0.151c-0.108,0.102-0.163,0.231-0.163,0.39v11.296
			c0,0.145,0.055,0.271,0.163,0.379c0.107,0.107,0.234,0.163,0.378,0.163h2.712c0.158,0,0.292-0.052,0.4-0.151
			c0.107-0.102,0.163-0.23,0.163-0.391V10.306c0-0.159-0.056-0.289-0.163-0.39C119.367,9.814,119.233,9.764,119.075,9.764z"/>
		<path fill="#3D4859" d="M125.752,9.764h-3.425c-0.146,0-0.271,0.05-0.379,0.151c-0.109,0.102-0.164,0.231-0.164,0.39v1.865
			c0,0.145,0.055,0.271,0.164,0.379c0.108,0.108,0.233,0.163,0.379,0.163h3.295c1.634,0,2.45,0.824,2.45,2.472v6.417
			c0,0.16,0.055,0.29,0.164,0.391c0.107,0.1,0.241,0.151,0.399,0.151h2.559c0.159,0,0.29-0.056,0.391-0.163
			c0.102-0.107,0.151-0.234,0.151-0.379v-6.548c0-1.879-0.495-3.229-1.484-4.054S127.761,9.764,125.752,9.764z"/>
		<path fill="#3D4859" d="M137.352,9.764h-2.71c-0.146,0-0.271,0.05-0.379,0.151c-0.108,0.102-0.163,0.231-0.163,0.39v6.158
			c0,0.145,0.055,0.271,0.163,0.38c0.107,0.109,0.233,0.162,0.379,0.162h2.71c0.159,0,0.292-0.05,0.399-0.152
			c0.109-0.1,0.164-0.231,0.164-0.39v-6.158c0-0.159-0.054-0.289-0.164-0.39C137.645,9.814,137.511,9.764,137.352,9.764z"/>
		<path fill="#3D4859" d="M154.501,9.916c-0.101-0.101-0.23-0.151-0.389-0.151h-2.277c-0.159,0-0.292,0.05-0.4,0.151
			c-0.108,0.102-0.163,0.231-0.163,0.39v5.572c0,0.666-0.167,1.266-0.499,1.8c-0.333,0.535-0.791,0.955-1.376,1.257
			c-0.586,0.303-1.247,0.455-1.984,0.455h-0.52c-0.564,0-1.066-0.122-1.508-0.369c-0.44-0.245-0.798-0.599-1.072-1.062
			c1.561-0.159,2.768-0.715,3.622-1.669c0.852-0.955,1.277-2.255,1.277-3.903v-2.039c0-0.158-0.055-0.296-0.163-0.412
			c-0.107-0.115-0.234-0.173-0.379-0.173h-2.276c-0.159,0-0.289,0.054-0.391,0.162c-0.102,0.108-0.151,0.249-0.151,0.422v1.995
			c0,0.983-0.159,1.739-0.477,2.267c-0.318,0.527-0.867,0.828-1.648,0.9l-0.021-5.204c0-0.159-0.054-0.289-0.163-0.39
			c-0.107-0.101-0.242-0.151-0.4-0.151h-2.277c-0.144,0-0.27,0.05-0.378,0.151c-0.108,0.102-0.164,0.231-0.164,0.39v6.982
			c0,0.925,0.229,1.77,0.684,2.537c0.455,0.768,1.116,1.373,1.983,1.821c0.869,0.446,1.879,0.672,3.037,0.672h2.059
			c1.229,0.015,2.342-0.237,3.34-0.759c0.997-0.521,1.785-1.262,2.363-2.223c0.577-0.96,0.867-2.078,0.867-3.35v-5.681
			C154.654,10.147,154.603,10.017,154.501,9.916z"/>
	</g>
</g>
</svg>
