<?xml version="1.0" encoding="utf-8"?>
<!-- Generator: Adobe Illustrator 16.0.2, SVG Export Plug-In . SVG Version: 6.00 Build 0)  -->
<!DOCTYPE svg PUBLIC "-//W3C//DTD SVG 1.1//EN" "http://www.w3.org/Graphics/SVG/1.1/DTD/svg11.dtd">
<svg version="1.1" id="Слой_1" xmlns="http://www.w3.org/2000/svg" xmlns:xlink="http://www.w3.org/1999/xlink" x="0px" y="0px"
	 width="106.75px" height="96px" viewBox="0 0 106.75 96" enable-background="new 0 0 106.75 96" xml:space="preserve">
<g>
	<path fill-rule="evenodd" clip-rule="evenodd" fill="#FFFFFF" d="M104.925,78.803c1.118-2.483,0.44-4.704-1.438-6.641
		c0.12-0.141,0.215-0.258,0.317-0.37c2.875-3.186,1.836-7.694-2.124-9.346c-0.328-0.136-0.621-0.553-0.763-0.907
		c-0.739-1.843-2.393-3.003-4.369-2.995c-1.932,0.007-3.624,1.146-4.273,2.964c-0.195,0.546-0.458,0.84-1.015,1.059
		c-2.731,1.076-4.201,4.067-3.291,6.849c0.331,1.008,1.016,1.9,1.565,2.891c-1.689,1.698-2.365,3.804-1.439,6.187
		c1.133,2.915,3.476,3.926,6.478,3.645v9.027H81.757v-1.424c0-27.982-0.004-55.964,0.018-83.947c0-0.802-0.216-1.112-1.02-1.301
		c-4.483-1.047-8.944-2.185-13.427-3.235c-0.475-0.111-1.132-0.006-1.543,0.253C59.826,5.287,53.9,9.11,47.95,12.898
		c-0.542,0.345-0.737,0.719-0.733,1.357c0.028,4.266,0.014,8.532,0.014,12.799v1.06c-0.334-0.051-0.549-0.067-0.757-0.118
		c-2.16-0.524-4.326-1.035-6.477-1.594c-0.623-0.162-1.104-0.087-1.655,0.271c-4.179,2.716-8.37,5.414-12.587,8.069
		c-0.722,0.455-0.978,0.944-0.977,1.795c0.026,17.787,0.02,35.574,0.02,53.361v1.215H11.97v-9.005
		c2.87,0.331,5.105-0.604,6.332-3.233c1.172-2.509,0.495-4.755-1.404-6.717c0.125-0.145,0.223-0.262,0.324-0.374
		c2.876-3.179,1.831-7.684-2.137-9.341c-0.328-0.137-0.616-0.557-0.758-0.912c-0.738-1.837-2.398-2.999-4.375-2.988
		c-1.932,0.011-3.62,1.148-4.268,2.971c-0.196,0.552-0.47,0.834-1.02,1.055c-3.628,1.458-4.699,6.044-2.132,8.987
		c0.18,0.206,0.357,0.413,0.529,0.613c-1.891,2.147-2.426,4.108-1.593,6.246c1.152,2.956,3.479,4.006,6.519,3.727v9.05H1.689v3.82
		h103.166v-3.853h-6.3v-9.036C101.451,82.428,103.716,81.489,104.925,78.803z M60.769,9.79c0.004-0.237,0.157-0.566,0.347-0.691
		c1.959-1.289,3.94-2.547,6.134-3.954c0,1.097-0.125,2.031,0.024,2.919c0.35,2.083-0.438,3.371-2.328,4.279
		c-1.421,0.682-2.687,1.687-4.194,2.66C60.753,13.11,60.739,11.449,60.769,9.79z M67.239,21.193
		c-0.001,0.195-0.075,0.478-0.214,0.57c-2.026,1.339-4.07,2.653-6.266,4.073c0-2.106-0.008-4.01,0.015-5.912
		c0.001-0.175,0.17-0.407,0.329-0.511c1.982-1.301,3.978-2.585,6.146-3.986C67.249,17.498,67.255,19.346,67.239,21.193z
		 M53.233,14.095c1.223-0.583,2.314-1.445,3.624-2.283c0,1.866,0.016,3.523-0.017,5.18c-0.005,0.26-0.164,0.619-0.37,0.757
		c-1.712,1.146-3.45,2.252-5.387,3.504c0-1.181,0.127-2.209-0.027-3.194C50.75,16.119,51.487,14.927,53.233,14.095z M28.667,38.026
		c0.003-0.241,0.136-0.57,0.32-0.7c0.812-0.575,1.665-1.092,2.686-1.748c0,1.936,0.007,3.699-0.012,5.461
		c-0.001,0.151-0.143,0.351-0.277,0.442c-0.847,0.57-1.71,1.117-2.73,1.776C28.653,41.347,28.64,39.686,28.667,38.026z
		 M31.648,91.091h-2.844c1.006-0.652,1.845-1.195,2.844-1.842V91.091z M31.661,84.186c-0.003,0.228-0.192,0.526-0.386,0.663
		c-0.791,0.555-1.617,1.061-2.623,1.708v-2.908c0-0.25,0.047-0.512-0.007-0.75c-0.573-2.484,1.002-3.501,3.033-4.351
		C31.678,80.493,31.692,82.341,31.661,84.186z M28.666,69.898c0.002-0.185,0.124-0.439,0.272-0.541
		c0.844-0.579,1.714-1.121,2.731-1.776c0,2.106,0.006,4.035-0.013,5.962c-0.002,0.149-0.156,0.344-0.294,0.436
		c-0.828,0.555-1.673,1.087-2.708,1.752C28.654,73.644,28.646,71.771,28.666,69.898z M38.781,91.13h-3.192
		c0-1.385-0.005-2.775,0.008-4.165c0.001-0.13,0.092-0.312,0.2-0.382c0.947-0.634,1.908-1.248,2.984-1.945V91.13z M56.787,91.109
		h-5.612c-0.041-0.08-0.082-0.16-0.123-0.24c1.876-1.215,3.752-2.431,5.735-3.716V91.109z M67.214,91.094h-6.457
		c0-2.061-0.008-4.116,0.013-6.17c0.002-0.179,0.153-0.423,0.308-0.524c1.983-1.303,3.98-2.584,6.136-3.977V91.094z M60.763,79.97
		l6.14-3.987C64.923,77.29,62.927,78.57,60.763,79.97z M67.235,75.147c-1.986,1.299-4.163,2.32-6.474,3.006
		c-1.265,0.375-2.57,0.65-3.905,0.814c0,1.088-0.003,2.148-0.015,3.204c-0.002,0.177-0.154,0.416-0.309,0.518
		c-1.743,1.148-3.499,2.275-5.449,3.536c0-1.646,0.094-3.107-0.029-4.549c-0.105-1.241,0.318-1.974,1.38-2.571
		c-5.076-0.313-9.774-2.222-13.597-5.221c0,2.029,0.012,3.844-0.017,5.656c-0.003,0.23-0.177,0.54-0.368,0.673
		c-0.87,0.606-1.775,1.162-2.869,1.866V80.5c0-1.316-0.021-2.631,0.015-3.946c0.008-0.3,0.123-0.714,0.337-0.871
		c0.854-0.625,1.766-1.177,2.825-1.86c-1.048-0.829-2.032-1.736-2.936-2.719c-0.083,0.054-0.155,0.1-0.24,0.155
		c0-0.144,0-0.281,0-0.423c-1.942-2.173-3.509-4.684-4.597-7.423c-0.739,0.429-1.446,0.917-2.335,1.488
		c0-2.074-0.013-3.921,0.017-5.768c0.004-0.232,0.18-0.538,0.371-0.674c0.166-0.117,0.335-0.232,0.506-0.346
		c-0.179-1.178-0.274-2.38-0.274-3.602c0-0.283,0.012-0.563,0.022-0.844c-0.207,0.131-0.417,0.265-0.638,0.406
		c0-2.103-0.006-4.022,0.012-5.941c0.001-0.152,0.14-0.354,0.275-0.445c0.539-0.363,1.089-0.72,1.679-1.1
		c1.087-3.12,2.789-5.97,4.96-8.399c-0.001-1.647-0.007-3.142,0.011-4.627c0.002-0.218,0.093-0.527,0.252-0.637
		c0.92-0.635,1.873-1.222,2.985-1.934c0,1.465,0.004,2.822-0.002,4.155c3.483-2.735,7.693-4.563,12.256-5.104
		c-0.001-1.315,0-2.567,0.014-3.812c0.001-0.184,0.133-0.436,0.285-0.535c1.765-1.166,3.546-2.307,5.471-3.551
		c0,2.086,0.008,3.985-0.013,5.883c-0.002,0.176-0.147,0.417-0.299,0.517c-0.676,0.446-1.357,0.891-2.048,1.34
		c2.167,0.052,4.271,0.394,6.277,0.99c0-0.033,0-0.065,0.001-0.098c0.002-0.197,0.198-0.458,0.377-0.576
		c1.954-1.284,3.923-2.546,6.099-3.95c0,0.961,0.006,1.745-0.001,2.529c-0.014,1.216,0.349,2.641-0.164,3.591
		c-0.187,0.346-0.493,0.629-0.854,0.882c7.324,4.311,12.329,12.286,12.329,21.259C78.561,63.068,74.009,70.718,67.235,75.147z"/>
	<polygon fill-rule="evenodd" clip-rule="evenodd" fill="#FFFFFF" points="56.417,41.387 52.583,41.387 52.583,52.887 
		41.083,52.887 41.083,56.72 52.583,56.72 52.583,68.22 56.417,68.22 56.417,56.72 67.917,56.72 67.917,52.887 56.417,52.887 	"/>
</g>
</svg>
