<?xml version="1.0" encoding="utf-8"?>
<!-- Generator: Adobe Illustrator 16.0.2, SVG Export Plug-In . SVG Version: 6.00 Build 0)  -->
<!DOCTYPE svg PUBLIC "-//W3C//DTD SVG 1.1//EN" "http://www.w3.org/Graphics/SVG/1.1/DTD/svg11.dtd">
<svg version="1.1" id="Слой_1" xmlns="http://www.w3.org/2000/svg" xmlns:xlink="http://www.w3.org/1999/xlink" x="0px" y="0px"
	 width="24.438px" height="25.375px" viewBox="0 0 24.438 25.375" enable-background="new 0 0 24.438 25.375" xml:space="preserve">
<g>
	<path fill="#BBBEC7" d="M13.004,5.761c1.957,0.385,3.029,1.851,2.798,3.762c-0.1,0.827-0.745,1.444-1.579,1.512
		c-0.077,0.006-0.155,0.009-0.232,0.009c-6.78,0-13.562,0.002-20.342-0.002c-0.992,0-1.703-0.559-1.813-1.469
		C-8.41,7.534-7.26,6.113-5.559,5.798c0.05-0.009,0.099-0.021,0.182-0.04c0-0.146,0-0.287,0-0.427c0-1.754-0.004-3.508,0.001-5.261
		c0.01-4.531,3.066-8.238,7.519-9.116c3.714-0.732,7.673,1.072,9.58,4.357c0.861,1.481,1.284,3.074,1.282,4.786
		c0,1.74,0,3.48,0,5.221C13.004,5.458,13.004,5.6,13.004,5.761z M3.792,9.507c3.286,0,6.571,0,9.856,0
		c0.117,0,0.249,0.031,0.348-0.013c0.104-0.046,0.242-0.154,0.257-0.25c0.14-1.087-0.463-1.825-1.562-1.941
		c-0.81-0.086-1.233-0.551-1.233-1.364c-0.003-1.909,0.003-3.817-0.004-5.728c-0.002-0.414-0.026-0.83-0.072-1.242
		C10.917-5.167,6.81-8.264,2.709-7.579c-3.905,0.652-6.533,3.75-6.537,7.708c-0.002,1.909,0,3.817-0.001,5.727
		c-0.001,0.923-0.389,1.352-1.31,1.453C-6.086,7.414-6.63,8.017-6.636,8.968c-0.002,0.537-0.002,0.539,0.532,0.539
		C-2.805,9.507,0.493,9.507,3.792,9.507z"/>
	<path fill="#BBBEC7" d="M1.291,11.844c0.098,1.684,1.302,2.567,2.521,2.567c1.246-0.001,2.436-0.916,2.521-2.561
		c0.442,0,0.895-0.017,1.34,0.019c0.068,0.006,0.178,0.255,0.168,0.384c-0.132,1.703-1.387,3.172-3.043,3.584
		c-2.412,0.601-4.812-1.114-5.023-3.581c-0.025-0.3,0.05-0.435,0.372-0.416C0.519,11.861,0.892,11.844,1.291,11.844z"/>
</g>
</svg>
