<?xml version="1.0" encoding="utf-8"?>
<!-- Generator: Adobe Illustrator 16.0.2, SVG Export Plug-In . SVG Version: 6.00 Build 0)  -->
<!DOCTYPE svg PUBLIC "-//W3C//DTD SVG 1.1//EN" "http://www.w3.org/Graphics/SVG/1.1/DTD/svg11.dtd">
<svg version="1.1" id="Слой_1" xmlns="http://www.w3.org/2000/svg" xmlns:xlink="http://www.w3.org/1999/xlink" x="0px" y="0px"
	 width="25.334px" height="26.334px" viewBox="0 0 25.334 26.334" enable-background="new 0 0 25.334 26.334" xml:space="preserve">
<g>
	<g>
		<path fill="#172C61" d="M21.601,16.472c1.957,0.385,3.029,1.852,2.799,3.762c-0.101,0.828-0.746,1.444-1.58,1.514
			c-0.076,0.006-0.154,0.008-0.231,0.008c-6.78,0-13.562,0.002-20.342-0.002c-0.992,0-1.703-0.559-1.813-1.469
			c-0.246-2.039,0.904-3.461,2.604-3.775c0.05-0.008,0.099-0.021,0.182-0.039c0-0.146,0-0.287,0-0.428
			c0-1.754-0.004-3.508,0.001-5.261c0.01-4.531,3.066-8.238,7.519-9.116c3.714-0.732,7.673,1.072,9.581,4.357
			c0.861,1.481,1.283,3.074,1.281,4.786c0,1.739,0,3.48,0,5.22C21.601,16.168,21.601,16.312,21.601,16.472z M12.389,20.217
			c3.286,0,6.571,0,9.856,0c0.117,0,0.249,0.031,0.348-0.012c0.104-0.047,0.242-0.154,0.258-0.25c0.14-1.088-0.463-1.826-1.563-1.94
			c-0.811-0.087-1.232-0.552-1.232-1.365c-0.004-1.908,0.002-3.817-0.005-5.729c-0.002-0.414-0.026-0.83-0.071-1.242
			c-0.465-4.136-4.572-7.233-8.673-6.548c-3.905,0.652-6.533,3.75-6.537,7.708c-0.002,1.909,0,3.817-0.001,5.729
			c-0.001,0.922-0.389,1.352-1.31,1.453c-0.947,0.104-1.491,0.707-1.498,1.657c-0.002,0.537-0.002,0.539,0.532,0.539
			C5.791,20.217,9.09,20.217,12.389,20.217z"/>
		<path fill="#172C61" d="M12.429,22.153L2.245,22.151c-1.209,0-2.077-0.715-2.209-1.821c-0.253-2.097,0.861-3.761,2.783-4.187
			L2.818,14.42c0-1.213-0.001-2.428,0.002-3.641C2.83,6.09,6.054,2.18,10.661,1.272c0.57-0.112,1.157-0.169,1.745-0.169
			c3.353,0,6.594,1.852,8.258,4.718c0.89,1.528,1.339,3.206,1.337,4.987v5.345c1.95,0.52,3.039,2.106,2.795,4.129
			c-0.122,1.014-0.922,1.779-1.943,1.863c-0.09,0.006-0.179,0.01-0.266,0.01H12.429V22.153z M12.406,1.902
			c-0.536,0-1.071,0.052-1.591,0.154C6.521,2.903,3.63,6.409,3.62,10.781c-0.003,1.213-0.002,2.426-0.001,3.639v2.369l-0.313,0.069
			c-0.12,0.027-0.163,0.037-0.207,0.043c-1.583,0.296-2.478,1.604-2.27,3.332c0.084,0.699,0.613,1.117,1.416,1.117l15.263,0.002
			h5.079c0.066,0,0.135-0.002,0.202-0.006c0.646-0.055,1.135-0.521,1.212-1.162c0.207-1.707-0.742-2.979-2.479-3.322L21.2,16.799
			v-5.992c0.002-1.638-0.411-3.181-1.229-4.585C18.449,3.598,15.479,1.902,12.406,1.902z M22.459,20.627L22.459,20.627
			c-0.045,0-0.091-0.002-0.138-0.006L2.492,20.617c-0.328,0-0.565,0-0.75-0.187c-0.184-0.186-0.184-0.412-0.182-0.756
			c0.008-1.158,0.701-1.926,1.854-2.055c0.722-0.08,0.953-0.336,0.954-1.055l0.001-5.729c0.004-4.16,2.765-7.416,6.871-8.102
			c0.4-0.067,0.809-0.101,1.216-0.101c3.934,0,7.486,3.139,7.92,6.998c0.048,0.428,0.073,0.86,0.075,1.285
			c0.004,1.13,0.003,2.258,0.003,3.386l0.001,2.345c0,0.604,0.271,0.901,0.875,0.967c0.655,0.068,1.185,0.334,1.524,0.768
			c0.338,0.426,0.474,0.986,0.392,1.623c-0.054,0.35-0.416,0.531-0.488,0.563C22.666,20.608,22.571,20.627,22.459,20.627z
			 M2.36,19.815c0.043,0,0.09,0,0.132,0h19.753c0.045,0,0.091,0.004,0.137,0.007l0.082-0.021c0.03-0.369-0.05-0.689-0.234-0.924
			c-0.207-0.26-0.545-0.422-0.982-0.469c-1.012-0.107-1.592-0.748-1.592-1.762v-2.345c0-1.126,0.001-2.254-0.004-3.382
			c-0.002-0.399-0.025-0.801-0.069-1.199c-0.39-3.467-3.586-6.288-7.125-6.288c-0.363,0-0.728,0.03-1.084,0.09
			C7.666,4.143,5.174,7.083,5.17,10.838l-0.001,5.728c-0.001,1.121-0.546,1.727-1.666,1.85C2.76,18.5,2.365,18.937,2.36,19.681
			C2.36,19.726,2.36,19.771,2.36,19.815z"/>
	</g>
	<g>
		<path fill="#172C61" d="M14.778,23.349c-0.361,1.141-1.342,1.772-2.368,1.772c-1.008,0-1.996-0.613-2.366-1.772H8.448
			c0.418,2.254,2.665,3.768,4.947,3.198c1.527-0.381,2.703-1.664,2.979-3.198H14.778z"/>
		<path fill="#172C61" d="M12.422,27.065L12.422,27.065c-2.139,0-3.976-1.532-4.367-3.645l-0.088-0.475h2.369l0.088,0.279
			c0.29,0.907,1.069,1.493,1.985,1.493c0.919,0,1.699-0.586,1.988-1.493l0.088-0.279h2.367l-0.084,0.473
			c-0.307,1.689-1.623,3.102-3.277,3.514C13.14,27.021,12.78,27.065,12.422,27.065z M8.961,23.748
			c0.485,1.483,1.871,2.521,3.46,2.521l0,0c0.293,0,0.588-0.037,0.876-0.109c1.197-0.299,2.181-1.238,2.563-2.41h-0.805
			c-0.461,1.086-1.472,1.773-2.647,1.773c-1.174,0-2.184-0.688-2.644-1.773L8.961,23.748L8.961,23.748z"/>
	</g>
</g>
</svg>
