<svg width="19" height="21" viewBox="0 0 19 21" fill="none" xmlns="http://www.w3.org/2000/svg">
<path d="M12.124 2.086C12.204 2.086 12.27 2.086 12.333 2.086C13.798 2.086 15.263 2.085 16.727 2.087C17.748 2.088 18.518 2.857 18.519 3.882C18.52 8.836 18.52 13.789 18.519 18.744C18.518 19.765 17.748 20.539 16.725 20.539C11.747 20.541 6.77 20.541 1.791 20.539C0.79 20.538 0.0349995 19.792 0.000999451 18.791C-5.49364e-07 18.755 0.000999451 18.719 0.000999451 18.685C0.000999451 13.778 0.001 8.871 0 3.964C0 3.186 0.313 2.585 1.034 2.257C1.277 2.148 1.567 2.097 1.837 2.094C3.296 2.078 4.754 2.085 6.213 2.089C6.325 2.089 6.39 2.068 6.436 1.95C6.909 0.754998 8.005 -0.000999009 9.254 9.90849e-07C10.482 0.00200099 11.598 0.771002 12.067 1.943C12.085 1.987 12.102 2.03 12.124 2.086ZM14.275 17.236C14.311 15.691 13.5 13.796 11.638 12.832C9.764 11.86 7.921 12.008 6.227 13.268C4.914 14.241 4.292 15.598 4.251 17.237C7.609 17.236 10.936 17.236 14.275 17.236ZM9.288 6.362C7.903 6.353 6.767 7.473 6.762 8.855C6.754 10.229 7.873 11.363 9.245 11.372C10.636 11.382 11.768 10.269 11.781 8.888C11.794 7.508 10.672 6.371 9.288 6.362ZM9.252 4.038C9.82199 4.036 10.29 3.574 10.293 3.005C10.298 2.434 9.819 1.955 9.247 1.957C8.671 1.959 8.204 2.434 8.209 3.011C8.214 3.58 8.67999 4.039 9.252 4.038Z" fill="url(#paint0_linear_1_1797)"/>
<defs>
<linearGradient id="paint0_linear_1_1797" x1="9.2584" y1="9.90844e-07" x2="9.2584" y2="20.5406" gradientUnits="userSpaceOnUse">
<stop stop-color="#3CCFBC"/>
<stop offset="1" stop-color="#219BA5"/>
</linearGradient>
</defs>
</svg>
