<?xml version="1.0" encoding="utf-8"?>
<!-- Generator: Adobe Illustrator 16.0.2, SVG Export Plug-In . SVG Version: 6.00 Build 0)  -->
<!DOCTYPE svg PUBLIC "-//W3C//DTD SVG 1.1//EN" "http://www.w3.org/Graphics/SVG/1.1/DTD/svg11.dtd">
<svg version="1.1" id="Слой_1" xmlns="http://www.w3.org/2000/svg" xmlns:xlink="http://www.w3.org/1999/xlink" x="0px" y="0px"
	 width="21.781px" height="26.25px" viewBox="-0.219 -1.406 21.781 26.25" enable-background="new -0.219 -1.406 21.781 26.25"
	 xml:space="preserve">
<g>
	<path fill="#BBBEC7" d="M10.741-1.099c3.582,0.002,6.484,2.916,6.479,6.502c-0.007,3.579-2.928,6.479-6.515,6.468
		C7.146,11.86,4.252,8.954,4.25,5.392C4.249,1.803,7.152-1.1,10.741-1.099z M14.862,5.401c0.008-2.271-1.832-4.13-4.1-4.142
		c-2.278-0.011-4.14,1.82-4.153,4.086c-0.015,2.3,1.833,4.165,4.122,4.166C13.002,9.514,14.855,7.668,14.862,5.401z"/>
	<path fill="#BBBEC7" d="M0.127,23.298c0.104-5.128,4.216-9.612,9.313-10.161c5.785-0.621,10.778,3.125,11.773,8.852
		c0.086,0.498,0.112,1.01,0.126,1.515c0.021,0.796-0.471,1.34-1.174,1.339c-0.687-0.002-1.15-0.52-1.18-1.293
		c-0.115-3.022-1.431-5.386-4.013-6.955c-5.411-3.288-12.348,0.565-12.486,6.91c-0.013,0.582-0.208,1.021-0.761,1.25
		c-0.456,0.188-0.924,0.123-1.212-0.249C0.265,24.183,0.165,23.741,0,23.354C0.042,23.335,0.085,23.317,0.127,23.298z"/>
</g>
</svg>
