<?xml version="1.0" encoding="utf-8"?>
<!-- Generator: Adobe Illustrator 16.0.2, SVG Export Plug-In . SVG Version: 6.00 Build 0)  -->
<!DOCTYPE svg PUBLIC "-//W3C//DTD SVG 1.1//EN" "http://www.w3.org/Graphics/SVG/1.1/DTD/svg11.dtd">
<svg version="1.1" id="Слой_1" xmlns="http://www.w3.org/2000/svg" xmlns:xlink="http://www.w3.org/1999/xlink" x="0px" y="0px"
	 width="25.938px" height="26.156px" viewBox="0 -0.219 25.938 26.156" enable-background="new 0 -0.219 25.938 26.156"
	 xml:space="preserve">
<g>
	<path fill="#BBBEC7" d="M23.959,11.793c-0.054,0.575-0.08,1.135-0.16,1.686c-0.131,0.895-0.747,1.4-1.483,1.263
		c-0.709-0.134-1.146-0.89-1.022-1.722c0.336-2.229-0.063-4.319-1.234-6.257c-1.977-3.268-5.963-5.052-9.661-4.32
		c-3.993,0.79-6.996,3.841-7.585,7.707c-0.8,5.242,2.578,9.974,7.799,10.801c2.967,0.468,5.608-0.361,7.848-2.384
		c0.865-0.779,1.443-0.794,2.262,0.022c1.527,1.525,3.052,3.052,4.578,4.577c0.084,0.085,0.174,0.166,0.252,0.257
		c0.511,0.591,0.515,1.346,0.012,1.833c-0.472,0.457-1.3,0.427-1.835-0.091c-0.717-0.696-1.415-1.409-2.122-2.116
		c-0.552-0.551-1.116-1.089-1.646-1.658c-0.311-0.333-0.547-0.328-0.914-0.059c-2.104,1.548-4.458,2.325-7.084,2.306
		C6.61,23.6,1.935,19.941,0.647,14.751C-1.042,7.958,3.249,1.32,10.181,0.168c6.838-1.137,12.704,3.631,13.61,9.914
		C23.875,10.652,23.904,11.231,23.959,11.793z"/>
</g>
</svg>
