<svg width="22" height="27" viewBox="0 0 22 27" fill="none" xmlns="http://www.w3.org/2000/svg">
<g clip-path="url(#clip0_1_1792)">
<path d="M20.9989 9.38721C20.9989 11.4302 20.9779 13.4732 21.0079 15.5152C21.0239 16.6752 20.7099 17.7292 20.1609 18.7292C19.3029 20.2922 18.0839 21.5422 16.6979 22.6422C14.9329 24.0382 12.9799 25.1182 10.9329 26.0352C10.7709 26.1072 10.5349 26.1342 10.3729 26.0712C7.36685 24.8892 4.61886 23.3002 2.41786 20.8882C1.27686 19.6382 0.438856 18.2112 0.0638556 16.5402C0.0248556 16.3672 0.000855881 16.1862 0.000855881 16.0092C-0.00114412 11.5732 0.000855332 7.13721 0.00185533 2.70121C0.00185533 2.66221 0.000854782 2.62321 0.00285478 2.58421C0.0178548 2.23321 0.155855 2.05221 0.502855 1.98021C1.29585 1.81721 2.09185 1.66621 2.88685 1.50621C5.34385 1.01921 7.80485 0.536207 10.2599 0.0322074C10.7309 -0.0637926 11.1569 0.0772041 11.5959 0.163204C14.5429 0.741204 17.4909 1.33221 20.4379 1.91821C20.8699 2.00421 21.0009 2.15921 21.0009 2.60421C21.0019 4.86521 21.0009 7.12521 21.0009 9.38521C21.0009 9.38721 20.9999 9.38721 20.9989 9.38721ZM8.83986 14.0482C8.74786 13.9272 8.70386 13.8522 8.64486 13.7912C7.78086 12.9242 6.91386 12.0622 6.04886 11.1922C5.80286 10.9442 5.51585 10.8402 5.17785 10.9332C4.56685 11.1002 4.40285 11.8662 4.87485 12.3412C5.97485 13.4452 7.07785 14.5462 8.18185 15.6502C8.61385 16.0812 9.07585 16.0792 9.50985 15.6452C11.6659 13.4912 13.8229 11.3352 15.9789 9.18021C16.0729 9.08621 16.1679 8.99321 16.2499 8.88921C16.6189 8.41021 16.3809 7.73421 15.7919 7.60021C15.4589 7.52421 15.1899 7.64321 14.9499 7.88321C13.0409 9.79921 11.1269 11.7102 9.21486 13.6242C9.09786 13.7412 8.99586 13.8702 8.83986 14.0482Z" fill="url(#paint0_linear_1_1792)"/>
</g>
<defs>
<linearGradient id="paint0_linear_1_1792" x1="10.5037" y1="0.00100698" x2="10.5037" y2="26.1055" gradientUnits="userSpaceOnUse">
<stop stop-color="#3CCFBC"/>
<stop offset="1" stop-color="#219BA5"/>
</linearGradient>
<clipPath id="clip0_1_1792">
<rect width="21.008" height="26.104" fill="white"/>
</clipPath>
</defs>
</svg>
