<?xml version="1.0" encoding="utf-8"?>
<!-- Generator: Adobe Illustrator 16.0.2, SVG Export Plug-In . SVG Version: 6.00 Build 0)  -->
<!DOCTYPE svg PUBLIC "-//W3C//DTD SVG 1.1//EN" "http://www.w3.org/Graphics/SVG/1.1/DTD/svg11.dtd">
<svg version="1.1" id="Слой_1" xmlns="http://www.w3.org/2000/svg" xmlns:xlink="http://www.w3.org/1999/xlink" x="0px" y="0px"
	 width="18.501px" height="19.125px" viewBox="-69.148 -55.985 18.501 19.125"
	 enable-background="new -69.148 -55.985 18.501 19.125" xml:space="preserve">
<path fill-rule="evenodd" clip-rule="evenodd" fill="#FFFFFF" d="M-59.753-39.073c-0.171-0.299-0.319-0.612-0.424-0.944h-5.472
	c-0.925,0-0.925-1.435,0-1.435h5.233c-0.021-0.708,0.1-1.413,0.354-2.065h-5.588c-0.925,0-0.925-1.435,0-1.435h6.484
	c0.652-0.696,1.565-1.168,2.728-1.286c0.397-0.105,0.817-0.178,1.288-0.178v-9.568h-10.126l-3.874,3.5v15.625h11.469
	C-58.67-37.324-59.353-38.132-59.753-39.073z M-65.523-51.952h7.25c0.925,0,0.925,1.435,0,1.435h-7.25
	C-66.448-50.517-66.448-51.952-65.523-51.952z M-65.523-48.452h7.25c0.925,0,0.925,1.435,0,1.435h-7.25
	C-66.448-47.017-66.448-48.452-65.523-48.452z M-54.835-45.735c-2.313,0-4.188,1.875-4.188,4.188s1.875,4.188,4.188,4.188
	s4.188-1.875,4.188-4.188S-52.522-45.735-54.835-45.735z M-53.773-40.782h-1.25c-0.486,0-0.702-0.402-0.668-0.777
	c-0.014-0.057-0.035-0.109-0.035-0.176v-1.125c0-0.906,1.406-0.906,1.406,0v0.672h0.547C-52.867-42.187-52.867-40.782-53.773-40.782
	z"/>
</svg>
