<?xml version="1.0" encoding="utf-8"?>
<!-- Generator: Adobe Illustrator 24.0.1, SVG Export Plug-In . SVG Version: 6.00 Build 0)  -->
<svg version="1.1" id="Layer_1" xmlns="http://www.w3.org/2000/svg" xmlns:xlink="http://www.w3.org/1999/xlink" x="0px" y="0px"
	 viewBox="10 0 1000 338.7" style="enable-background:new 0 0 1000 338.7;" xml:space="preserve">
<style type="text/css">
	.st0{fill:#EBECEB;}
	.st1{fill:#ECF7F8;}
	.st2{fill:#26B2AF;}
</style>
<g>
	<path class="st0" d="M963.81,197.55v-14.09c0,0-105.7,8.81-145.36,5.42c-39.66-3.39-130.54-27.46-178.38-42.7
		c-82.04-26.13-107.74-37.01-146.43-36.94c-74.38,0.15-121.66,35.32-183.19,55.83c-141.7,47.23-286.98,16.76-286.98,16.76v12.27
		c0,0,70.72,8.73,130.3,7.4c54.79-1.22,88.43-6.72,148.26-22.64c58.29-15.51,116.78-53.85,192.68-52.6
		c92.51,1.53,228.12,71.62,323.74,74.11C912.62,202.84,963.81,197.55,963.81,197.55z"/>
</g>
<path class="st1" d="M963.81,226.5v-14.78c0,0-105.7,7.36-145.36,3.97c-39.66-3.39-131.65-26.91-179.23-42.95
	c-91.4-30.8-106.13-36.85-145.57-36.69c-74.38,0.3-121.66,35.32-183.19,55.83c-141.7,47.23-286.98,16.76-286.98,16.76v13.21
	c0,0,72.26,7.79,129.96,5.7c54.77-1.98,88-6.64,149.28-20.77c58.78-13.55,116.18-52.93,192.09-51.67
	c92.51,1.53,228.2,65.84,323.66,72.07C908.74,233.08,963.81,226.5,963.81,226.5z"/>
<path class="st2" d="M963.81,183.47v14.09c0,0-31.65,2.58-72.68,3.83c-44.11,1.34-72.68-1-72.68-1v-11.5c0,0,36.42,1.79,71.44-0.21
	C931,186.34,963.81,183.47,963.81,183.47z"/>
</svg>
