<?xml version="1.0" encoding="utf-8"?>
<!-- Generator: Adobe Illustrator 16.0.0, SVG Export Plug-In . SVG Version: 6.00 Build 0)  -->
<!DOCTYPE svg PUBLIC "-//W3C//DTD SVG 1.1//EN" "http://www.w3.org/Graphics/SVG/1.1/DTD/svg11.dtd">
<svg version="1.1" id="Layer_1" xmlns="http://www.w3.org/2000/svg" xmlns:xlink="http://www.w3.org/1999/xlink" x="0px" y="0px"
	 width="370px" height="46px" viewBox="0 0 370 46" enable-background="new 0 0 370 46" xml:space="preserve">
<path fill="#ECECEC" d="M223.5,14.321c-9.477-4.312-23.25-8.071-37.396-8.169c-14.042-0.193-28.919,3.857-38.396,8.169
	C73.458,51.071,4.125,36.738,4.125,36.738v4.583c0,0,43.709,5.625,85.209-2.625c13.948-2.644,27.708-7.542,27.708-7.542
	C160.545,14.521,166.875,12.25,186,12.682c0,0.006,0.209,0.006,0.209,0c19.791,0.506,24.455,1.839,67.958,18.473
	c0,0,13.76,4.898,27.708,7.542c41.5,8.25,85.209,2.625,85.209,2.625v-4.583C367.084,36.738,297.75,51.071,223.5,14.321z"/>
<g>
	<defs>
		<path id="SVGID_1_" d="M223.5,14.321c-9.477-4.311-23.25-8.071-37.396-8.169c-14.042-0.193-28.919,3.858-38.396,8.169
			C73.458,51.071,4.125,36.738,4.125,36.738v4.583c0,0,43.709,5.625,85.209-2.625c13.948-2.643,27.708-7.542,27.708-7.542
			C160.545,14.521,166.875,12.25,186,12.682c0,0.005,0.209,0.005,0.209,0c19.791,0.505,24.455,1.838,67.958,18.473
			c0,0,13.76,4.898,27.708,7.542c41.5,8.25,85.209,2.625,85.209,2.625v-4.583C367.084,36.738,297.75,51.071,223.5,14.321z"/>
	</defs>
	<clipPath id="SVGID_2_">
		<use xlink:href="#SVGID_1_"  overflow="visible"/>
	</clipPath>
</g>
</svg>
