<?xml version="1.0" encoding="utf-8"?>
<!-- Generator: Adobe Illustrator 16.0.2, SVG Export Plug-In . SVG Version: 6.00 Build 0)  -->
<!DOCTYPE svg PUBLIC "-//W3C//DTD SVG 1.1//EN" "http://www.w3.org/Graphics/SVG/1.1/DTD/svg11.dtd">
<svg version="1.1" id="Слой_1" xmlns="http://www.w3.org/2000/svg" xmlns:xlink="http://www.w3.org/1999/xlink" x="0px" y="0px"
	 width="512px" height="512px" viewBox="0 0 512 512" enable-background="new 0 0 512 512" xml:space="preserve">
<linearGradient id="SVGID_1_" gradientUnits="userSpaceOnUse" x1="256" y1="0" x2="256" y2="512.0005">
	<stop  offset="0" style="stop-color:#3CCFBC"/>
	<stop  offset="1" style="stop-color:#219BA5"/>
</linearGradient>
<rect fill="url(#SVGID_1_)" width="512" height="512"/>
<rect x="63.701" y="64.156" display="none" fill="#FFFFFF" width="384" height="384"/>
<g>
	<g>
		<g>
			<path fill="#3C4758" d="M338.351,369.063c-62.257,62.586-163.823,62.854-226.408,0.594
				c-62.583-62.256-62.851-163.829-0.594-226.412c62.257-62.583,163.828-62.848,226.412-0.587
				C400.347,204.918,400.607,306.483,338.351,369.063z M136.311,168.074c-48.57,48.821-48.358,128.058,0.463,176.625
				c48.821,48.565,128.051,48.357,176.618-0.464s48.362-128.052-0.46-176.618C264.11,119.051,184.877,119.252,136.311,168.074z"/>
		</g>
	</g>
	<path fill="#3C4758" d="M439.762,400.115L439.762,400.115c-7.593,11.566-18.435,17.864-24.218,14.068l-77.435-50.83
		c-5.783-3.798-4.314-16.25,3.276-27.816l0,0c7.594-11.564,18.437-17.864,24.218-14.066l77.436,50.83
		C448.822,376.096,447.353,388.55,439.762,400.115z"/>
	<circle fill="#FFFFFF" cx="226" cy="256.043" r="126.667"/>
	<radialGradient id="SVGID_2_" cx="224.8506" cy="256.1572" r="111.6689" gradientUnits="userSpaceOnUse">
		<stop  offset="0" style="stop-color:#6AC8C9"/>
		<stop  offset="0.2057" style="stop-color:#65C6C7"/>
		<stop  offset="0.4393" style="stop-color:#58BFC1"/>
		<stop  offset="0.6867" style="stop-color:#41B4B7"/>
		<stop  offset="0.9421" style="stop-color:#21A4A9"/>
		<stop  offset="1" style="stop-color:#19A0A5"/>
	</radialGradient>
	<circle fill="url(#SVGID_2_)" cx="224.851" cy="256.157" r="111.669"/>
	<g>
		<path fill="#FFFFFF" d="M221.99,377.323h3.253c3.362,0,6.087-2.726,6.087-6.086V182.27c0-3.361-2.725-6.086-6.087-6.086h-3.253
			c-3.362,0-6.087,2.725-6.087,6.086v188.968C215.903,374.598,218.628,377.323,221.99,377.323z"/>
		<path fill="#FFFFFF" d="M267.303,190.207L166.21,205.378c-3.495,0.526-6.233,3.26-6.801,6.75
			c-1.579,9.667-0.982,19.495,1.364,29.459c0.832,3.53,4.011,6.014,7.64,6.109l102.554,2.612c2.562,0.066,5.003-1.086,6.582-3.105
			l17.793-22.779c2.477-3.175,2.241-7.691-0.552-10.593l-20.462-21.238C272.511,190.706,269.894,189.818,267.303,190.207z"/>
		<path fill="#FFFFFF" d="M175.151,265.142l100.505,3.57c4.151,0.15,7.705,3.062,8.626,7.114c1.905,8.388,2.47,17.368,1.808,26.895
			c-0.3,4.334-3.584,7.884-7.888,8.484l-99.904,13.974c-2.879,0.405-5.776-0.58-7.813-2.651l-19.218-19.564
			c-3.199-3.258-3.515-8.375-0.738-11.997l17.016-22.23C169.35,266.375,172.186,265.037,175.151,265.142z"/>
	</g>
</g>
</svg>
