<?xml version="1.0" encoding="utf-8"?>
<!-- Generator: Adobe Illustrator 16.0.0, SVG Export Plug-In . SVG Version: 6.00 Build 0)  -->
<!DOCTYPE svg PUBLIC "-//W3C//DTD SVG 1.1//EN" "http://www.w3.org/Graphics/SVG/1.1/DTD/svg11.dtd">
<svg version="1.1" id="Слой_1" xmlns="http://www.w3.org/2000/svg" xmlns:xlink="http://www.w3.org/1999/xlink" x="0px" y="0px"
	 width="18.004px" height="18px" viewBox="0 0 18.004 18" enable-background="new 0 0 18.004 18" xml:space="preserve">
<g>
	
		<linearGradient id="SVGID_1_" gradientUnits="userSpaceOnUse" x1="3.481" y1="-134.8071" x2="3.481" y2="-152.8071" gradientTransform="matrix(1 0 0 -1 -85 -190.499)">
		<stop  offset="0" style="stop-color:#3CCFBC"/>
		<stop  offset="1" style="stop-color:#219BA5"/>
	</linearGradient>
	<path fill="url(#SVGID_1_)" d="M-90.523-46.446c0-0.176,0-0.352,0-0.527c0.012-0.026,0.027-0.051,0.032-0.078
		c0.147-0.804,0.595-1.381,1.341-1.704c0.268-0.116,0.569-0.154,0.875-0.233c0.001-0.009,0.004-0.049,0.006-0.089
		c0.039-1.225,0.354-2.369,1.015-3.407c1.126-1.772,2.731-2.819,4.81-3.137c0.155-0.024,0.311-0.048,0.465-0.071
		c0.305,0,0.609,0,0.915,0c0.033,0.009,0.065,0.024,0.1,0.027c1.073,0.096,2.075,0.41,2.985,0.99
		c1.775,1.132,2.826,2.74,3.137,4.825c0.045,0.299,0.062,0.602,0.092,0.902c1.226,0.054,2.001,0.896,2.188,1.824
		c0.1,0.498,0.036,0.981-0.199,1.433c-0.353,0.675-0.924,1.066-1.689,1.228c0.144,0.668,0.259,1.326,0.432,1.969
		c0.27,1.008,0.567,2.009,1.363,2.763c0.129,0.122,0.16,0.294,0.115,0.473c-0.072,0.29-0.283,0.44-0.632,0.441
		c-1.481,0.001-2.964-0.001-4.446,0.004c-0.109,0-0.232,0.034-0.324,0.092c-0.717,0.438-1.48,0.751-2.308,0.901
		c-0.271,0.049-0.542,0.086-0.813,0.128c-0.306,0-0.61,0-0.915,0c-0.044-0.011-0.089-0.026-0.135-0.03
		c-1.08-0.096-2.074-0.437-2.995-1.007c-0.088-0.055-0.205-0.083-0.31-0.083c-1.469-0.006-2.938-0.008-4.405-0.001
		c-0.347,0.001-0.583-0.127-0.698-0.46c0-0.082,0-0.164,0-0.246c0.07-0.099,0.125-0.214,0.213-0.294
		c0.418-0.383,0.662-0.875,0.87-1.386c0.337-0.827,0.536-1.694,0.706-2.567c0.047-0.233,0.079-0.469,0.117-0.702
		c-0.062-0.017-0.102-0.028-0.141-0.038c-0.85-0.22-1.414-0.745-1.682-1.582C-90.476-46.205-90.496-46.327-90.523-46.446z
		 M-77.057-41.067c-0.097,0-0.154,0-0.213,0c-0.825,0-1.651,0.003-2.477-0.003c-0.143-0.001-0.211,0.039-0.273,0.173
		c-0.358,0.784-1.254,1.136-2.104,0.841c-0.754-0.261-1.234-1.161-1.042-1.947c0.181-0.743,0.765-1.233,1.552-1.308
		c0.652-0.061,1.315,0.344,1.615,0.993c0.043,0.092,0.09,0.129,0.195,0.128c1.096-0.004,2.191-0.003,3.286,0
		c0.1,0,0.153-0.023,0.194-0.125c0.287-0.715,0.424-1.458,0.425-2.227c0-1.096,0-2.191,0-3.286c0-0.063,0-0.125,0-0.182
		c-0.32-0.057-0.614-0.103-0.907-0.161c-1.297-0.261-2.53-0.679-3.614-1.464c-0.087-0.063-0.14-0.04-0.212,0.018
		c-0.485,0.396-1.032,0.688-1.608,0.921c-1.229,0.497-2.52,0.707-3.832,0.807c-0.354,0.027-0.71,0.041-1.067,0.061
		c-0.004,0.05-0.008,0.084-0.008,0.119c0,1.09-0.006,2.179,0.001,3.269c0.005,0.666,0.118,1.314,0.35,1.942
		c0.942,2.567,3.633,4.097,6.322,3.577C-79.076-39.193-77.955-39.915-77.057-41.067z"/>
	
		<linearGradient id="SVGID_2_" gradientUnits="userSpaceOnUse" x1="0.666" y1="-143.2461" x2="0.666" y2="-145.4941" gradientTransform="matrix(1 0 0 -1 -85 -190.499)">
		<stop  offset="0" style="stop-color:#3CCFBC"/>
		<stop  offset="1" style="stop-color:#219BA5"/>
	</linearGradient>
	<path fill="url(#SVGID_2_)" d="M-84.334-47.253c0.916,0.001,1.681,0.762,1.686,1.677c0.002,0.303-0.232,0.553-0.532,0.569
		c-0.305,0.018-0.564-0.208-0.588-0.529c-0.019-0.265-0.124-0.463-0.379-0.557c-0.356-0.132-0.717,0.11-0.747,0.507
		c-0.019,0.243-0.115,0.43-0.34,0.531c-0.372,0.169-0.789-0.112-0.787-0.523C-86.016-46.492-85.248-47.254-84.334-47.253z"/>
	
		<linearGradient id="SVGID_3_" gradientUnits="userSpaceOnUse" x1="6.291" y1="-143.2466" x2="6.291" y2="-145.4932" gradientTransform="matrix(1 0 0 -1 -85 -190.499)">
		<stop  offset="0" style="stop-color:#3CCFBC"/>
		<stop  offset="1" style="stop-color:#219BA5"/>
	</linearGradient>
	<path fill="url(#SVGID_3_)" d="M-77.023-45.614c0.005,0.332-0.223,0.584-0.523,0.606c-0.29,0.021-0.551-0.19-0.595-0.484
		c-0.007-0.04-0.004-0.082-0.009-0.123c-0.032-0.293-0.266-0.51-0.551-0.514c-0.286-0.005-0.525,0.205-0.566,0.497
		c-0.006,0.047-0.004,0.094-0.011,0.141c-0.045,0.294-0.306,0.505-0.596,0.483c-0.3-0.022-0.527-0.274-0.522-0.579
		c0.014-0.875,0.663-1.56,1.573-1.66c0.78-0.086,1.57,0.501,1.757,1.312C-77.04-45.821-77.035-45.702-77.023-45.614z"/>
</g>
</svg>
