<?xml version="1.0" encoding="utf-8"?>
<!-- Generator: Adobe Illustrator 16.0.0, SVG Export Plug-In . SVG Version: 6.00 Build 0)  -->
<!DOCTYPE svg PUBLIC "-//W3C//DTD SVG 1.1//EN" "http://www.w3.org/Graphics/SVG/1.1/DTD/svg11.dtd">
<svg version="1.1" id="Слой_1" xmlns="http://www.w3.org/2000/svg" xmlns:xlink="http://www.w3.org/1999/xlink" x="0px" y="0px"
	 width="14.875px" height="14.969px" viewBox="0 0 14.875 14.969" enable-background="new 0 0 14.875 14.969" xml:space="preserve">
<linearGradient id="SVGID_1_" gradientUnits="userSpaceOnUse" x1="58.3379" y1="-192.7852" x2="58.3379" y2="-207.7544" gradientTransform="matrix(1 0 0 -1 -85 -193.5313)">
	<stop  offset="0" style="stop-color:#3CCFBC"/>
	<stop  offset="1" style="stop-color:#219BA5"/>
</linearGradient>
<path fill="url(#SVGID_1_)" d="M-27.13,4.223c0,1.104-0.895,2-2,2h-2.969c-1.104,0-2-0.896-2-2V1.254c0-1.104,0.896-2,2-2h2.969
	c1.105,0,2,0.896,2,2V4.223z M-19.224,1.254c0-1.104-0.895-2-2-2h-2.969c-1.104,0-2,0.896-2,2v2.969c0,1.104,0.896,2,2,2h2.969
	c1.105,0,2-0.896,2-2V1.254z M-27.13,9.254c0-1.104-0.895-2-2-2h-2.969c-1.104,0-2,0.896-2,2v2.969c0,1.104,0.896,2,2,2h2.969
	c1.105,0,2-0.896,2-2V9.254z M-19.224,9.254c0-1.104-0.895-2-2-2h-2.969c-1.104,0-2,0.896-2,2v2.969c0,1.104,0.896,2,2,2h2.969
	c1.105,0,2-0.896,2-2V9.254z"/>
</svg>
