<?xml version="1.0" encoding="utf-8"?>
<!-- Generator: Adobe Illustrator 16.0.2, SVG Export Plug-In . SVG Version: 6.00 Build 0)  -->
<!DOCTYPE svg PUBLIC "-//W3C//DTD SVG 1.1//EN" "http://www.w3.org/Graphics/SVG/1.1/DTD/svg11.dtd">
<svg version="1.1" id="Слой_1" xmlns="http://www.w3.org/2000/svg" xmlns:xlink="http://www.w3.org/1999/xlink" x="0px" y="0px"
	 width="16.517px" height="11.312px" viewBox="-96.696 -25.198 16.517 11.312"
	 enable-background="new -96.696 -25.198 16.517 11.312" xml:space="preserve">
<linearGradient id="SVGID_1_" gradientUnits="userSpaceOnUse" x1="-88.438" y1="-25.198" x2="-88.438" y2="-13.8865">
	<stop  offset="0" style="stop-color:#3CCFBC"/>
	<stop  offset="1" style="stop-color:#219BA5"/>
</linearGradient>
<path fill="url(#SVGID_1_)" d="M-88.42-25.198c2.409,0,4.818,0,7.227,0c0.465,0,0.793,0.208,0.945,0.596
	c0.107,0.271,0.104,0.28-0.129,0.443c-2.416,1.69-4.832,3.38-7.249,5.07c-0.542,0.38-1.078,0.381-1.619,0.003
	c-2.446-1.711-4.892-3.423-7.341-5.131c-0.097-0.068-0.113-0.13-0.086-0.237c0.098-0.394,0.443-0.7,0.848-0.736
	c0.086-0.008,0.174-0.009,0.262-0.009C-93.182-25.198-90.801-25.198-88.42-25.198z M-96.137-13.937
	c0.172,0.017,0.344,0.048,0.516,0.049c2.437,0.003,4.872,0.002,7.308,0.002c2.362,0,4.726,0.001,7.087-0.002
	c0.164,0,0.328-0.034,0.492-0.053c0.002-0.015,0.003-0.029,0.004-0.043c-0.217-0.203-0.434-0.406-0.65-0.608
	c-1.573-1.467-3.146-2.934-4.718-4.404c-0.077-0.072-0.127-0.086-0.217-0.019c-0.257,0.192-0.522,0.374-0.784,0.559
	c-0.875,0.62-1.762,0.619-2.638-0.002c-0.295-0.209-0.591-0.418-0.894-0.632c-1.842,1.705-3.678,3.405-5.514,5.105
	C-96.143-13.969-96.139-13.953-96.137-13.937z M-96.696-23.313c0,0.076,0,0.121,0,0.167c0,0.555,0,1.11,0,1.666
	c0,2.198-0.001,4.396,0.001,6.593c0,0.082,0.015,0.163,0.025,0.278c1.798-1.659,3.563-3.289,5.343-4.932
	C-93.124-20.804-94.9-22.052-96.696-23.313z M-80.188-14.633c0-2.903,0-5.779,0-8.672c-1.792,1.258-3.567,2.506-5.359,3.764
	C-83.752-17.897-81.977-16.271-80.188-14.633z"/>
</svg>
