<?xml version="1.0" encoding="utf-8"?>
<!-- Generator: Adobe Illustrator 16.0.0, SVG Export Plug-In . SVG Version: 6.00 Build 0)  -->
<!DOCTYPE svg PUBLIC "-//W3C//DTD SVG 1.1//EN" "http://www.w3.org/Graphics/SVG/1.1/DTD/svg11.dtd">
<svg version="1.1" id="Слой_1" xmlns="http://www.w3.org/2000/svg" xmlns:xlink="http://www.w3.org/1999/xlink" x="0px" y="0px"
	 width="15.721px" height="16.514px" viewBox="0 0 15.721 16.514" enable-background="new 0 0 15.721 16.514" xml:space="preserve">
<g>
	
		<linearGradient id="SVGID_1_" gradientUnits="userSpaceOnUse" x1="15.2668" y1="-156.9685" x2="15.2668" y2="-173.4827" gradientTransform="matrix(1 0 0 -1 -85 -191.9858)">
		<stop  offset="0" style="stop-color:#3CCFBC"/>
		<stop  offset="1" style="stop-color:#219BA5"/>
	</linearGradient>
	<path fill="url(#SVGID_1_)" d="M-74.365-35.017c1.136,0.426,1.869,1.268,2.395,2.32c0.049,0.094,0.081,0.195,0.124,0.291
		c0.167,0.368,0.11,0.701-0.135,1.017c-0.344,0.446-0.683,0.898-1.019,1.351c-0.1,0.132-0.192,0.269-0.279,0.409
		c-0.178,0.29-0.179,0.586,0.009,0.869c1.272,1.911,2.752,3.646,4.495,5.146c0.269,0.23,0.553,0.439,0.84,0.646
		c0.24,0.171,0.513,0.189,0.77,0.046c0.462-0.262,0.917-0.538,1.37-0.813c0.188-0.114,0.367-0.243,0.555-0.357
		c0.314-0.193,0.641-0.203,0.971-0.038c0.979,0.487,1.727,1.217,2.228,2.189c0.259,0.503,0.227,0.994-0.112,1.449
		c-0.554,0.74-1.227,1.339-2.095,1.688c-0.995,0.402-2,0.373-3.019,0.079c-1.013-0.294-1.896-0.814-2.729-1.446
		c-0.98-0.743-1.858-1.595-2.69-2.496c-0.978-1.06-1.977-2.098-2.84-3.255c-0.703-0.944-1.325-1.938-1.717-3.059
		c-0.307-0.88-0.437-1.777-0.29-2.706c0.125-0.794,0.49-1.471,1.016-2.069c0.389-0.442,0.844-0.803,1.354-1.092
		c0.128-0.072,0.275-0.113,0.415-0.169C-74.621-35.017-74.493-35.017-74.365-35.017z"/>
</g>
</svg>
