<?xml version="1.0" encoding="utf-8"?>
<!-- Generator: Adobe Illustrator 16.0.0, SVG Export Plug-In . SVG Version: 6.00 Build 0)  -->
<!DOCTYPE svg PUBLIC "-//W3C//DTD SVG 1.1//EN" "http://www.w3.org/Graphics/SVG/1.1/DTD/svg11.dtd">
<svg version="1.1" id="Слой_1" xmlns="http://www.w3.org/2000/svg" xmlns:xlink="http://www.w3.org/1999/xlink" x="0px" y="0px"
	 width="17.468px" height="22.539px" viewBox="0 0 17.468 22.539" enable-background="new 0 0 17.468 22.539" xml:space="preserve">
<linearGradient id="SVGID_1_" gradientUnits="userSpaceOnUse" x1="3.2104" y1="-128.0811" x2="3.2104" y2="-150.6201" gradientTransform="matrix(1 0 0 -1 -85 -185.9609)">
	<stop  offset="0" style="stop-color:#3CCFBC"/>
	<stop  offset="1" style="stop-color:#219BA5"/>
</linearGradient>
<path fill="url(#SVGID_1_)" d="M-81.809-57.88c4.814-0.008,8.744,3.903,8.753,8.714c0.009,4.813-3.906,8.745-8.715,8.754
	c-4.813,0.008-8.745-3.907-8.753-8.715C-90.531-53.942-86.619-57.872-81.809-57.88z M-81.187-45.555c0-1.07,0-2.11,0-3.181
	c1.187,0,2.33,0,3.486,0c0-0.343,0-0.655,0-1.012c-1.177,0-2.329,0-3.512,0c0-1.16,0-2.274,0-3.403c-0.371,0-0.711,0-1.096,0
	c0,1.149,0,2.274,0,3.427c-1.104,0-2.163,0-3.235,0c0,0.344,0,0.656,0,1.013c1.092,0,2.161,0,3.259,0c0,1.076,0,2.106,0,3.156
	C-81.923-45.555-81.593-45.555-81.187-45.555z M-79.072-39.449c-1.834,0.506-3.625,0.493-5.438,0.004
	c-0.172,1.394-0.336,2.718-0.507,4.104c0.836-0.279,1.604-0.526,2.362-0.799c0.09-0.032,0.178-0.199,0.185-0.308
	c0.021-0.414,0.008-0.829,0.008-1.249c0.472,0,0.896,0,1.345,0c0,0.432-0.013,0.835,0.007,1.237
	c0.007,0.111,0.087,0.283,0.175,0.315c0.76,0.272,1.529,0.518,2.376,0.798C-78.735-36.753-78.9-38.074-79.072-39.449z"/>
</svg>
