<?xml version="1.0" encoding="utf-8"?>
<!-- Generator: Adobe Illustrator 16.0.0, SVG Export Plug-In . SVG Version: 6.00 Build 0)  -->
<!DOCTYPE svg PUBLIC "-//W3C//DTD SVG 1.1//EN" "http://www.w3.org/Graphics/SVG/1.1/DTD/svg11.dtd">
<svg version="1.1" id="Слой_1" xmlns="http://www.w3.org/2000/svg" xmlns:xlink="http://www.w3.org/1999/xlink" x="0px" y="0px"
	 width="18.502px" height="19.125px" viewBox="0 0 18.502 19.125" enable-background="new 0 0 18.502 19.125" xml:space="preserve">
<linearGradient id="SVGID_1_" gradientUnits="userSpaceOnUse" x1="-28.1489" y1="-132.9536" x2="-9.646" y2="-132.9536" gradientTransform="matrix(1 0 0 -1 -85 -189.375)">
	<stop  offset="0" style="stop-color:#3CCFBC"/>
	<stop  offset="1" style="stop-color:#219BA5"/>
</linearGradient>
<path fill="url(#SVGID_1_)" d="M-103.752-49.073c-0.172-0.299-0.32-0.612-0.424-0.944h-5.473c-0.924,0-0.924-1.435,0-1.435h5.234
	c-0.021-0.708,0.1-1.413,0.354-2.065h-5.588c-0.924,0-0.924-1.435,0-1.435h6.484c0.652-0.696,1.566-1.168,2.729-1.286
	c0.396-0.105,0.816-0.178,1.287-0.178v-9.568h-10.125l-3.875,3.5v15.625h11.469C-102.67-47.324-103.352-48.132-103.752-49.073z
	 M-109.523-61.952h7.25c0.926,0,0.926,1.435,0,1.435h-7.25C-110.447-60.517-110.447-61.952-109.523-61.952z M-109.523-58.452h7.25
	c0.926,0,0.926,1.435,0,1.435h-7.25C-110.447-57.017-110.447-58.452-109.523-58.452z M-98.834-55.735
	c-2.313,0-4.188,1.875-4.188,4.188s1.875,4.188,4.188,4.188s4.188-1.875,4.188-4.188S-96.521-55.735-98.834-55.735z M-97.773-50.782
	h-1.25c-0.486,0-0.701-0.402-0.668-0.777c-0.014-0.057-0.035-0.109-0.035-0.176v-1.125c0-0.906,1.406-0.906,1.406,0v0.672h0.547
	C-96.867-52.187-96.867-50.782-97.773-50.782z"/>
</svg>
