<?xml version="1.0" encoding="utf-8"?>
<!-- Generator: Adobe Illustrator 16.0.0, SVG Export Plug-In . SVG Version: 6.00 Build 0)  -->
<!DOCTYPE svg PUBLIC "-//W3C//DTD SVG 1.1//EN" "http://www.w3.org/Graphics/SVG/1.1/DTD/svg11.dtd">
<svg version="1.1" id="Слой_1" xmlns="http://www.w3.org/2000/svg" xmlns:xlink="http://www.w3.org/1999/xlink" x="0px" y="0px"
	 width="16.912px" height="17.678px" viewBox="0 0 16.912 17.678" enable-background="new 0 0 16.912 17.678" xml:space="preserve">
<g>
	
		<linearGradient id="SVGID_1_" gradientUnits="userSpaceOnUse" x1="-0.5347" y1="-163.8262" x2="-0.5347" y2="-177.2485" gradientTransform="matrix(1 0 0 -1 -85 -190.8223)">
		<stop  offset="0" style="stop-color:#3CCFBC"/>
		<stop  offset="1" style="stop-color:#219BA5"/>
	</linearGradient>
	<path fill="url(#SVGID_1_)" d="M-92.553-13.618c0.782-0.701,1.566-1.403,2.359-2.112c-0.052-0.062-0.098-0.118-0.144-0.175
		c-1.133-1.353-1.675-2.911-1.613-4.673c0.106-3.049,2.41-5.728,5.402-6.293c3.034-0.573,5.943,0.858,7.337,3.608
		c1.197,2.364,0.822,5.347-0.921,7.343c-1.082,1.24-2.432,2.005-4.057,2.267c-0.369,0.06-0.748,0.078-1.123,0.079
		c-2.365,0.002-4.73-0.005-7.097-0.01c-0.043,0-0.087,0-0.131,0C-92.544-13.595-92.548-13.607-92.553-13.618z M-86.103-21.532
		c0.014-0.073,0.021-0.138,0.039-0.2c0.09-0.326,0.298-0.542,0.623-0.63c0.329-0.09,0.619,0.002,0.848,0.249
		c0.245,0.263,0.301,0.576,0.168,0.907c-0.145,0.357-0.426,0.533-0.808,0.545c-0.183,0.006-0.367,0.001-0.556,0.001
		c0,0.556,0,1.093,0,1.628c0.385,0,0.758,0,1.128,0c0.006-0.02,0.011-0.029,0.011-0.039c0.001-0.125,0.011-0.251,0-0.375
		c-0.013-0.117,0.037-0.159,0.14-0.202c0.8-0.328,1.272-0.921,1.329-1.786c0.072-1.074-0.702-1.962-1.798-2.121
		c-0.979-0.142-1.973,0.556-2.212,1.56c-0.035,0.148-0.041,0.301-0.063,0.462C-86.853-21.532-86.483-21.532-86.103-21.532z
		 M-85.79-18.291c0,0.33,0,0.651,0,0.977c0.384,0,0.756,0,1.133,0c0-0.33,0-0.651,0-0.977
		C-85.039-18.291-85.411-18.291-85.79-18.291z"/>
	
		<linearGradient id="SVGID_2_" gradientUnits="userSpaceOnUse" x1="3.5249" y1="-171.5" x2="3.5249" y2="-181.5034" gradientTransform="matrix(1 0 0 -1 -85 -190.8223)">
		<stop  offset="0" style="stop-color:#3CCFBC"/>
		<stop  offset="1" style="stop-color:#219BA5"/>
	</linearGradient>
	<path fill="url(#SVGID_2_)" d="M-77.696-11.257c0.685,0.632,1.361,1.256,2.056,1.896c-0.046,0.008-0.067,0.016-0.09,0.017
		c-2.149,0.003-4.302,0.057-6.45-0.003c-2.273-0.064-3.952-1.18-5.053-3.167c-0.027-0.046-0.045-0.097-0.078-0.168
		c0.076,0,0.129,0,0.182,0c0.736-0.008,1.474,0.01,2.209-0.027c1.501-0.075,2.86-0.576,4.063-1.471
		c1.519-1.13,2.486-2.626,2.899-4.477c0.047-0.209,0.078-0.423,0.122-0.665c1.088,1.129,1.661,2.455,1.686,4.004
		C-76.127-13.767-76.667-12.418-77.696-11.257z"/>
</g>
</svg>
