<?xml version="1.0" encoding="utf-8"?>
<!-- Generator: Adobe Illustrator 16.0.0, SVG Export Plug-In . SVG Version: 6.00 Build 0)  -->
<!DOCTYPE svg PUBLIC "-//W3C//DTD SVG 1.1//EN" "http://www.w3.org/Graphics/SVG/1.1/DTD/svg11.dtd">
<svg version="1.1" id="Слой_1" xmlns="http://www.w3.org/2000/svg" xmlns:xlink="http://www.w3.org/1999/xlink" x="0px" y="0px"
	 width="16.34px" height="15.262px" viewBox="0 0 16.34 15.262" enable-background="new 0 0 16.34 15.262" xml:space="preserve">
<linearGradient id="SVGID_1_" gradientUnits="userSpaceOnUse" x1="119.1133" y1="-170.8508" x2="119.1133" y2="-186.1135" gradientTransform="matrix(1 0 0 -1 -85 -193.2378)">
	<stop  offset="0" style="stop-color:#3CCFBC"/>
	<stop  offset="1" style="stop-color:#219BA5"/>
</linearGradient>
<path fill="url(#SVGID_1_)" d="M40.203-21.226c-1.002-0.804-2.178-1.084-3.441-1.068c-0.865,0.009-1.629,0.29-2.291,0.85
	c-0.215,0.182-0.213,0.178-0.441,0.021c-1.311-0.916-2.747-1.189-4.288-0.772c-2.199,0.596-3.738,2.609-3.796,4.951
	c-0.034,1.506,0.503,2.802,1.546,3.886c1.846,1.917,3.692,3.832,5.538,5.748c0.597,0.618,1.476,0.645,2.14,0.104
	c0.383-0.313,0.679-0.702,1.019-1.054c1.508-1.561,3.026-3.111,4.541-4.669c1.016-1.046,1.528-2.304,1.557-3.823
	C42.242-18.724,41.555-20.144,40.203-21.226z M34.074-10.828c-5.775,0-5.775-8.954,0-8.954
	C39.848-19.782,39.848-10.828,34.074-10.828z M37.301-15.299c0,1.761-1.426,3.188-3.188,3.188c-1.76,0-3.188-1.427-3.188-3.188
	c0-1.762,1.429-3.188,3.188-3.188C35.875-18.486,37.301-17.06,37.301-15.299z"/>
</svg>
