<?xml version="1.0" encoding="utf-8"?>
<!-- Generator: Adobe Illustrator 16.0.0, SVG Export Plug-In . SVG Version: 6.00 Build 0)  -->
<!DOCTYPE svg PUBLIC "-//W3C//DTD SVG 1.1//EN" "http://www.w3.org/Graphics/SVG/1.1/DTD/svg11.dtd">
<svg version="1.1" id="Слой_1" xmlns="http://www.w3.org/2000/svg" xmlns:xlink="http://www.w3.org/1999/xlink" x="0px" y="0px"
	 width="18.084px" height="15.977px" viewBox="0 0 18.084 15.977" enable-background="new 0 0 18.084 15.977" xml:space="preserve">
<linearGradient id="SVGID_1_" gradientUnits="userSpaceOnUse" x1="94.042" y1="-192.5232" x2="94.042" y2="-208.4993" gradientTransform="matrix(1 0 0 -1 -85 -192.5229)">
	<stop  offset="0" style="stop-color:#3CCFBC"/>
	<stop  offset="1" style="stop-color:#219BA5"/>
</linearGradient>
<path fill="url(#SVGID_1_)" d="M14.99,8.419c0.073,0.059,0.104,0.12,0.104,0.214c-0.003,2.402-0.002,4.803-0.002,7.204
	c0,0.044-0.006,0.088-0.01,0.139c-1.313,0-2.616,0-3.943,0c0-0.064,0-0.127,0-0.189c0-1.388,0-2.773,0-4.16
	c0-0.424-0.19-0.612-0.619-0.612c-0.979,0-1.958,0-2.938,0c-0.439,0-0.638,0.196-0.638,0.629c0,1.377,0,2.753,0,4.129
	c0,0.064,0,0.128,0,0.203c-1.329,0-2.633,0-3.945,0c-0.004-0.058-0.008-0.105-0.008-0.155c0-2.392,0-4.781-0.002-7.174
	c0-0.098,0.026-0.165,0.105-0.229c1.949-1.559,3.895-3.12,5.843-4.682c0.03-0.024,0.063-0.049,0.102-0.077
	C9.076,3.686,9.112,3.71,9.146,3.737C11.095,5.298,13.042,6.86,14.99,8.419z M9.042,0C6.025,2.418,3.016,4.83,0,7.246
	c0.447,0.467,0.878,0.917,1.313,1.372c0.042-0.03,0.08-0.055,0.114-0.082C3.875,6.58,6.323,4.625,8.771,2.668
	C8.949,2.526,9.13,2.523,9.307,2.664c2.467,1.956,4.935,3.911,7.402,5.867c0.037,0.028,0.079,0.057,0.121,0.087
	c0.422-0.462,0.834-0.913,1.254-1.374C15.063,4.826,12.058,2.416,9.042,0z"/>
</svg>
