<?xml version="1.0" encoding="utf-8"?>
<!-- Generator: Adobe Illustrator 16.0.0, SVG Export Plug-In . SVG Version: 6.00 Build 0)  -->
<!DOCTYPE svg PUBLIC "-//W3C//DTD SVG 1.1//EN" "http://www.w3.org/Graphics/SVG/1.1/DTD/svg11.dtd">
<svg version="1.1" id="Слой_1" xmlns="http://www.w3.org/2000/svg" xmlns:xlink="http://www.w3.org/1999/xlink" x="0px" y="0px"
	 width="17.714px" height="20.771px" viewBox="0 0 17.714 20.771" enable-background="new 0 0 17.714 20.771" xml:space="preserve">
<linearGradient id="SVGID_1_" gradientUnits="userSpaceOnUse" x1="-6.4526" y1="-141.7307" x2="-6.4526" y2="-162.5037" gradientTransform="matrix(1 0 0 -1 -85 -187.728)">
	<stop  offset="0" style="stop-color:#3CCFBC"/>
	<stop  offset="1" style="stop-color:#219BA5"/>
</linearGradient>
<path fill="url(#SVGID_1_)" d="M-98.052-34.101c0-0.915,0.002-1.816,0-2.718c-0.002-0.849-0.043-1.703,0.187-2.532
	c0.723-2.604,2.395-4.24,5.024-4.89c0.078-0.02,0.155-0.037,0.264-0.063c0-0.233-0.003-0.474,0-0.713
	c0.008-0.582,0.397-0.971,0.98-0.979c0.115-0.001,0.232-0.003,0.348,0.001c0.518,0.018,0.908,0.407,0.924,0.926
	c0.008,0.249,0.001,0.498,0.001,0.676c0.694,0.275,1.385,0.463,1.989,0.804c2.246,1.265,3.408,3.218,3.479,5.795
	c0.034,1.223,0.006,2.447,0.006,3.691C-89.246-34.101-93.63-34.101-98.052-34.101z M-91.712-25.237
	c0.738,0.065,1.421-0.12,2.025-0.553c0.848-0.607,1.254-1.457,1.307-2.471c0.033-0.014,0.042-0.02,0.05-0.02
	c1.091-0.002,2.183,0.004,3.272-0.008c1.392-0.017,2.468-1.152,2.462-2.581c-0.006-1.41-1.12-2.566-2.49-2.567
	c-4.239-0.003-8.478-0.003-12.717,0c-1.28,0.001-2.376,1.022-2.495,2.313c-0.127,1.37,0.74,2.559,2.041,2.789
	c0.201,0.035,0.408,0.046,0.613,0.047c1.035,0.004,2.071,0.002,3.123,0.002C-94.451-26.544-93.194-25.369-91.712-25.237z
	 M-91.438-26.998c-0.734,0.005-1.354-0.542-1.424-1.272c0.935,0,1.869,0,2.822,0C-90.107-27.551-90.718-27.003-91.438-26.998z"/>
</svg>
