<?xml version="1.0" encoding="utf-8"?>
<!-- Generator: Adobe Illustrator 16.0.0, SVG Export Plug-In . SVG Version: 6.00 Build 0)  -->
<!DOCTYPE svg PUBLIC "-//W3C//DTD SVG 1.1//EN" "http://www.w3.org/Graphics/SVG/1.1/DTD/svg11.dtd">
<svg version="1.1" id="Слой_1" xmlns="http://www.w3.org/2000/svg" xmlns:xlink="http://www.w3.org/1999/xlink" x="0px" y="0px"
	 width="19.425px" height="19.432px" viewBox="0 0 19.425 19.432" enable-background="new 0 0 19.425 19.432" xml:space="preserve">
<linearGradient id="SVGID_1_" gradientUnits="userSpaceOnUse" x1="58.7749" y1="-186.6121" x2="58.7749" y2="-206.0452" gradientTransform="matrix(1 0 0 -1 -85 -189.0679)">
	<stop  offset="0" style="stop-color:#3CCFBC"/>
	<stop  offset="1" style="stop-color:#219BA5"/>
</linearGradient>
<path fill="url(#SVGID_1_)" d="M-25.192,16.977c-0.691,0-1.358,0-2.045,0c-0.051-0.5-0.104-0.992-0.146-1.485
	c-0.042-0.543-0.12-0.646-0.645-0.773c-0.809-0.197-1.559-0.531-2.264-0.971c-0.338-0.21-0.498-0.199-0.803,0.053
	c-0.418,0.345-0.836,0.689-1.248,1.029c-0.486-0.486-0.965-0.965-1.447-1.449c0.346-0.418,0.696-0.842,1.045-1.266
	c0.23-0.279,0.242-0.459,0.044-0.767c-0.48-0.744-0.815-1.549-1.017-2.41c-0.078-0.33-0.205-0.448-0.543-0.485
	c-0.555-0.06-1.109-0.112-1.677-0.168c0-0.682,0-1.354,0-2.053c0.447-0.044,0.896-0.089,1.344-0.133
	c0.052-0.006,0.104-0.006,0.156-0.012c0.557-0.059,0.626-0.117,0.761-0.662c0.197-0.8,0.529-1.543,0.967-2.241
	c0.21-0.336,0.199-0.5-0.049-0.803c-0.346-0.418-0.691-0.835-1.031-1.245c0.484-0.486,0.961-0.965,1.445-1.451
	c0.416,0.342,0.834,0.688,1.252,1.033c0.302,0.249,0.47,0.26,0.803,0.046c0.732-0.47,1.524-0.797,2.371-0.998
	c0.373-0.088,0.485-0.215,0.524-0.612c0.054-0.531,0.102-1.063,0.153-1.609c0.684,0,1.356,0,2.059,0
	c0.037,0.384,0.078,0.771,0.115,1.162c0.02,0.184,0.031,0.37,0.053,0.554c0.027,0.254,0.172,0.432,0.422,0.486
	c0.91,0.198,1.748,0.566,2.535,1.063c0.246,0.157,0.439,0.143,0.674-0.048c0.432-0.353,0.861-0.709,1.262-1.041
	c0.49,0.474,0.973,0.942,1.463,1.418c-0.342,0.412-0.691,0.834-1.043,1.259c-0.232,0.281-0.244,0.461-0.047,0.766
	c0.482,0.744,0.814,1.549,1.018,2.41c0.078,0.336,0.205,0.453,0.543,0.489c0.551,0.06,1.105,0.111,1.676,0.168
	c0,0.679,0,1.352,0,2.053c-0.434,0.043-0.873,0.088-1.314,0.133c-0.059,0.006-0.117,0.007-0.176,0.012
	c-0.533,0.059-0.602,0.121-0.732,0.639c-0.203,0.808-0.533,1.558-0.973,2.263c-0.215,0.342-0.201,0.508,0.059,0.821
	c0.342,0.412,0.682,0.822,1.012,1.222c-0.482,0.483-0.955,0.958-1.447,1.453c-0.24-0.199-0.496-0.41-0.752-0.621
	c-0.189-0.156-0.377-0.316-0.568-0.469c-0.215-0.169-0.414-0.187-0.639-0.04c-0.787,0.511-1.637,0.869-2.553,1.072
	c-0.266,0.06-0.396,0.242-0.422,0.533c-0.047,0.504-0.096,1.007-0.145,1.51C-25.167,16.862-25.181,16.912-25.192,16.977z
	 M-26.218,12.199c2.717-0.006,4.941-2.236,4.936-4.948c-0.004-2.72-2.232-4.942-4.947-4.938c-2.717,0.004-4.942,2.233-4.936,4.948
	C-31.162,9.981-28.933,12.205-26.218,12.199z M-26.231,11.147c2.162,0.004,3.9-1.733,3.896-3.895
	c-0.002-2.152-1.73-3.881-3.881-3.884c-2.165-0.003-3.901,1.73-3.897,3.894C-30.111,9.414-28.382,11.144-26.231,11.147z"/>
</svg>
