<?xml version="1.0" encoding="utf-8"?>
<!-- Generator: Adobe Illustrator 16.0.0, SVG Export Plug-In . SVG Version: 6.00 Build 0)  -->
<!DOCTYPE svg PUBLIC "-//W3C//DTD SVG 1.1//EN" "http://www.w3.org/Graphics/SVG/1.1/DTD/svg11.dtd">
<svg version="1.1" id="Слой_1" xmlns="http://www.w3.org/2000/svg" xmlns:xlink="http://www.w3.org/1999/xlink" x="0px" y="0px"
	 width="12.375px" height="15.723px" viewBox="0 0 12.375 15.723" enable-background="new 0 0 12.375 15.723" xml:space="preserve">
<linearGradient id="SVGID_1_" gradientUnits="userSpaceOnUse" x1="63.439" y1="-184.4065" x2="63.439" y2="-200.1292" gradientTransform="matrix(1 0 0 -1 -85 -192.7778)">
	<stop  offset="0" style="stop-color:#3CCFBC"/>
	<stop  offset="1" style="stop-color:#219BA5"/>
</linearGradient>
<path fill="url(#SVGID_1_)" d="M-21.569,7.35c-1.635,0-1.725,0.001-3.357,0c-2.25,0-2.83-1.472-2.822-2.268
	c0.036-3.614,3.274-5.475,6.873-5.051c3.127,0.369,5.487,1.953,5.501,5.051c0.004,0.741-0.427,2.267-2.489,2.267
	C-19.518,7.352-19.917,7.35-21.569,7.35z M-21.551-0.678c-2.125,0.004-3.854-1.714-3.859-3.834
	c-0.004-2.127,1.713-3.854,3.834-3.859c2.125-0.004,3.854,1.713,3.859,3.833C-17.712-2.415-19.432-0.683-21.551-0.678z"/>
</svg>
