<?xml version="1.0" encoding="utf-8"?>
<!-- Generator: Adobe Illustrator 16.0.0, SVG Export Plug-In . SVG Version: 6.00 Build 0)  -->
<!DOCTYPE svg PUBLIC "-//W3C//DTD SVG 1.1//EN" "http://www.w3.org/Graphics/SVG/1.1/DTD/svg11.dtd">
<svg version="1.1" id="Слой_1" xmlns="http://www.w3.org/2000/svg" xmlns:xlink="http://www.w3.org/1999/xlink" x="0px" y="0px"
	 width="17.486px" height="13.391px" viewBox="0 0 17.486 13.391" enable-background="new 0 0 17.486 13.391" xml:space="preserve">
<linearGradient id="SVGID_1_" gradientUnits="userSpaceOnUse" x1="93.7429" y1="-195.1091" x2="93.7429" y2="-208.5002" gradientTransform="matrix(1 0 0 -1 -85 -195.1089)">
	<stop  offset="0" style="stop-color:#3CCFBC"/>
	<stop  offset="1" style="stop-color:#219BA5"/>
</linearGradient>
<path fill="url(#SVGID_1_)" d="M9.435,5.013c3.217,0.009,3.012,0.006,6.231,0C16.8,5.011,17.48,4.27,17.486,3.045
	c0.015-1.249-0.685-2.017-1.846-2.028c-0.065,0-0.129,0-0.188,0c-1.886,0-2.58,0-2.813,0c-0.007,0-0.02,0-0.022,0s-0.005,0-0.007,0
	c-0.019,0-0.03,0-0.049,0c-0.201,0-0.873,0-2.83,0c-0.235,0-0.472-0.008-0.703,0.033C8.077,1.217,7.505,2.323,7.73,3.531
	C7.907,4.477,8.501,5.011,9.435,5.013z M5.886,0.001C4.198,0,2.51-0.001,0.821,0.001c-0.572,0-0.817,0.248-0.817,0.826
	c-0.003,1.632-0.002,3.264,0,4.896c0,0.592,0.243,0.83,0.844,0.831c0.834,0.001,1.668,0,2.503,0c0.845,0,1.688,0.001,2.531-0.001
	C6.448,6.552,6.7,6.308,6.7,5.755c0.004-1.651,0.002-3.301,0-4.952C6.7,0.249,6.446,0.002,5.886,0.001z M4.733,2.615
	c-0.277,0.531-0.557,1.063-0.84,1.59c-0.271,0.5-0.688,0.586-1.142,0.24c-0.201-0.153-0.399-0.31-0.6-0.468
	C1.825,3.714,1.749,3.349,1.958,3.036c0.216-0.323,0.586-0.389,0.967-0.171c0.029,0.018,0.063,0.032,0.113,0.06
	c0.173-0.322,0.336-0.636,0.505-0.947C3.766,1.566,4.145,1.427,4.502,1.62C4.855,1.81,4.95,2.202,4.733,2.615z M5.927,6.852
	c-1.716-0.001-3.434-0.001-5.147,0c-0.514,0-0.771,0.244-0.773,0.749C0,9.281,0,10.958,0.006,12.637
	c0.002,0.506,0.261,0.752,0.771,0.753c0.854,0.002,1.707,0,2.562,0c0.863,0,1.727,0.001,2.588,0C6.441,13.389,6.7,13.144,6.7,12.64
	c0.004-1.679,0.004-3.356,0-5.037C6.698,7.098,6.439,6.852,5.927,6.852z M4.747,9.433C4.463,9.98,4.175,10.526,3.88,11.068
	c-0.258,0.474-0.691,0.559-1.123,0.229c-0.199-0.154-0.398-0.311-0.596-0.469c-0.342-0.278-0.414-0.645-0.194-0.961
	C2.184,9.554,2.56,9.497,2.934,9.719C2.956,9.733,2.982,9.742,3.038,9.77c0.175-0.329,0.339-0.643,0.509-0.955
	c0.222-0.406,0.6-0.544,0.956-0.35C4.848,8.652,4.952,9.042,4.747,9.433z M15.642,7.976c-0.066,0-0.129,0-0.189,0
	c-1.885,0-2.582,0-2.813,0c-0.007,0-0.019,0-0.023,0c-0.002,0-0.004,0-0.008,0c-0.017,0-0.029,0-0.047,0c-0.201,0-0.873,0-2.83,0
	c-0.236,0-0.471-0.008-0.703,0.033C8.077,8.176,7.506,9.281,7.731,10.49c0.176,0.945,0.771,1.479,1.703,1.479
	c3.217,0.009,3.012,0.006,6.231,0c1.133-0.002,1.813-0.743,1.819-1.968C17.501,8.755,16.804,7.99,15.642,7.976z"/>
</svg>
