<?xml version="1.0" encoding="utf-8"?>
<!-- Generator: Adobe Illustrator 16.0.0, SVG Export Plug-In . SVG Version: 6.00 Build 0)  -->
<!DOCTYPE svg PUBLIC "-//W3C//DTD SVG 1.1//EN" "http://www.w3.org/Graphics/SVG/1.1/DTD/svg11.dtd">
<svg version="1.1" id="Слой_1" xmlns="http://www.w3.org/2000/svg" xmlns:xlink="http://www.w3.org/1999/xlink" x="0px" y="0px"
	 width="18.585px" height="18.368px" viewBox="0 0 18.585 18.368" enable-background="new 0 0 18.585 18.368" xml:space="preserve">
<g>
	
		<linearGradient id="SVGID_1_" gradientUnits="userSpaceOnUse" x1="94.2915" y1="-190.1323" x2="94.2915" y2="-208.502" gradientTransform="matrix(1 0 0 -1 -85 -190.1318)">
		<stop  offset="0" style="stop-color:#3CCFBC"/>
		<stop  offset="1" style="stop-color:#219BA5"/>
	</linearGradient>
	<path fill="url(#SVGID_1_)" d="M14.028,11.049c0.034,0.023,0.091,0.055,0.134,0.098c1.287,1.288,2.572,2.577,3.858,3.866
		c0.753,0.756,0.753,1.739,0,2.493c-0.117,0.117-0.233,0.234-0.353,0.35c-0.685,0.684-1.693,0.686-2.377,0.002
		c-1.297-1.294-2.592-2.588-3.885-3.886c-0.09-0.091-0.15-0.109-0.27-0.041C6.877,16.37,1.459,14.071,0.235,9.31
		c-1.021-3.974,1.386-8.044,5.366-9.073c3.986-1.03,8.098,1.406,9.087,5.401c0.45,1.821,0.256,3.58-0.599,5.257
		c-0.016,0.027-0.028,0.055-0.041,0.083C14.044,10.987,14.042,10.999,14.028,11.049z M12.357,7.51
		c0.016-2.714-2.18-4.922-4.902-4.936C4.74,2.562,2.527,4.755,2.512,7.473c-0.015,2.718,2.188,4.934,4.913,4.945
		C10.137,12.431,12.343,10.234,12.357,7.51z"/>
</g>
</svg>
